# Tiled2Unity generated file. Do not modify by hand.
# Wavefront file for 'blitzTeste_2_mesh_0003.obj'

# Vertices (Count = 88)
v -5 -1 0
v -6 -1 0
v -6 0 0
v -5 0 0
v -6 -1 0
v -7 -1 0
v -7 0 0
v -6 0 0
v -7 -1 0
v -8 -1 0
v -8 0 0
v -7 0 0
v -5 -2 0
v -6 -2 0
v -6 -1 0
v -5 -1 0
v -6 -2 0
v -7 -2 0
v -7 -1 0
v -6 -1 0
v -7 -2 0
v -8 -2 0
v -8 -1 0
v -7 -1 0
v -4 -9 0
v -5 -9 0
v -5 -8 0
v -4 -8 0
v -8 -9 0
v -9 -9 0
v -9 -8 0
v -8 -8 0
v -4 -10 0
v -5 -10 0
v -5 -9 0
v -4 -9 0
v -8 -10 0
v -9 -10 0
v -9 -9 0
v -8 -9 0
v -4 -14 0
v -5 -14 0
v -5 -13 0
v -4 -13 0
v -8 -14 0
v -9 -14 0
v -9 -13 0
v -8 -13 0
v -4 -15 0
v -5 -15 0
v -5 -14 0
v -4 -14 0
v -8 -15 0
v -9 -15 0
v -9 -14 0
v -8 -14 0
v -4 -19 0
v -5 -19 0
v -5 -18 0
v -4 -18 0
v -8 -19 0
v -9 -19 0
v -9 -18 0
v -8 -18 0
v -4 -20 0
v -5 -20 0
v -5 -19 0
v -4 -19 0
v -8 -20 0
v -9 -20 0
v -9 -19 0
v -8 -19 0
v -4 -24 0
v -5 -24 0
v -5 -23 0
v -4 -23 0
v -8 -24 0
v -9 -24 0
v -9 -23 0
v -8 -23 0
v -4 -25 0
v -5 -25 0
v -5 -24 0
v -4 -24 0
v -8 -25 0
v -9 -25 0
v -9 -24 0
v -8 -24 0

# Texture cooridinates (Count = 18)
vt 0.15 0.4583333
vt 0.2 0.4583333
vt 0.2 0.5
vt 0.15 0.5
vt 0.25 0.4583333
vt 0.25 0.5
vt 0.3 0.4583333
vt 0.3 0.5
vt 0.15 0.4166667
vt 0.2 0.4166667
vt 0.25 0.4166667
vt 0.3 0.4166667
vt 0.15 0.3333333
vt 0.2 0.3333333
vt 0.2 0.375
vt 0.15 0.375
vt 0.15 0.2916667
vt 0.2 0.2916667

# Normal
vn 0 0 -1

# Mesh description
g blitzTeste_2_mesh_0003

# Faces
f 1/1/1 2/2/1 3/3/1 4/4/1
f 5/2/1 6/5/1 7/6/1 8/3/1
f 9/5/1 10/7/1 11/8/1 12/6/1
f 13/9/1 14/10/1 15/2/1 16/1/1
f 17/10/1 18/11/1 19/5/1 20/2/1
f 21/11/1 22/12/1 23/7/1 24/5/1
f 25/13/1 26/14/1 27/15/1 28/16/1
f 29/13/1 30/14/1 31/15/1 32/16/1
f 33/17/1 34/18/1 35/14/1 36/13/1
f 37/17/1 38/18/1 39/14/1 40/13/1
f 41/13/1 42/14/1 43/15/1 44/16/1
f 45/13/1 46/14/1 47/15/1 48/16/1
f 49/17/1 50/18/1 51/14/1 52/13/1
f 53/17/1 54/18/1 55/14/1 56/13/1
f 57/13/1 58/14/1 59/15/1 60/16/1
f 61/13/1 62/14/1 63/15/1 64/16/1
f 65/17/1 66/18/1 67/14/1 68/13/1
f 69/17/1 70/18/1 71/14/1 72/13/1
f 73/13/1 74/14/1 75/15/1 76/16/1
f 77/13/1 78/14/1 79/15/1 80/16/1
f 81/17/1 82/18/1 83/14/1 84/13/1
f 85/17/1 86/18/1 87/14/1 88/13/1

