# Tiled2Unity generated file. Do not modify by hand.
# Wavefront file for 'mapas_16_mesh_0002.obj'

# Vertices (Count = 576)
v 0 -1 0
v -1 -1 0
v -1 0 0
v 0 0 0
v -1 -1 0
v -2 -1 0
v -2 0 0
v -1 0 0
v -2 -1 0
v -3 -1 0
v -3 0 0
v -2 0 0
v -3 -1 0
v -4 -1 0
v -4 0 0
v -3 0 0
v -4 -1 0
v -5 -1 0
v -5 0 0
v -4 0 0
v -5 -1 0
v -6 -1 0
v -6 0 0
v -5 0 0
v -6 -1 0
v -7 -1 0
v -7 0 0
v -6 0 0
v -7 -1 0
v -8 -1 0
v -8 0 0
v -7 0 0
v -8 -1 0
v -9 -1 0
v -9 0 0
v -8 0 0
v -9 -1 0
v -10 -1 0
v -10 0 0
v -9 0 0
v -10 -1 0
v -11 -1 0
v -11 0 0
v -10 0 0
v -12 -1 0
v -13 -1 0
v -13 0 0
v -12 0 0
v -13 -1 0
v -14 -1 0
v -14 0 0
v -13 0 0
v -14 -1 0
v -15 -1 0
v -15 0 0
v -14 0 0
v -15 -1 0
v -16 -1 0
v -16 0 0
v -15 0 0
v -16 -1 0
v -17 -1 0
v -17 0 0
v -16 0 0
v -17 -1 0
v -18 -1 0
v -18 0 0
v -17 0 0
v -18 -1 0
v -19 -1 0
v -19 0 0
v -18 0 0
v -19 -1 0
v -20 -1 0
v -20 0 0
v -19 0 0
v -20 -1 0
v -21 -1 0
v -21 0 0
v -20 0 0
v -21 -1 0
v -22 -1 0
v -22 0 0
v -21 0 0
v -22 -1 0
v -23 -1 0
v -23 0 0
v -22 0 0
v 0 -2 0
v -1 -2 0
v -1 -1 0
v 0 -1 0
v -22 -2 0
v -23 -2 0
v -23 -1 0
v -22 -1 0
v 0 -3 0
v -1 -3 0
v -1 -2 0
v 0 -2 0
v -22 -3 0
v -23 -3 0
v -23 -2 0
v -22 -2 0
v 0 -4 0
v -1 -4 0
v -1 -3 0
v 0 -3 0
v -22 -4 0
v -23 -4 0
v -23 -3 0
v -22 -3 0
v 0 -5 0
v -1 -5 0
v -1 -4 0
v 0 -4 0
v -4 -5 0
v -5 -5 0
v -5 -4 0
v -4 -4 0
v -5 -5 0
v -6 -5 0
v -6 -4 0
v -5 -4 0
v -6 -5 0
v -7 -5 0
v -7 -4 0
v -6 -4 0
v -7 -5 0
v -8 -5 0
v -8 -4 0
v -7 -4 0
v -8 -5 0
v -9 -5 0
v -9 -4 0
v -8 -4 0
v -9 -5 0
v -10 -5 0
v -10 -4 0
v -9 -4 0
v -10 -5 0
v -11 -5 0
v -11 -4 0
v -10 -4 0
v -11 -5 0
v -12 -5 0
v -12 -4 0
v -11 -4 0
v -12 -5 0
v -13 -5 0
v -13 -4 0
v -12 -4 0
v -22 -5 0
v -23 -5 0
v -23 -4 0
v -22 -4 0
v 0 -6 0
v -1 -6 0
v -1 -5 0
v 0 -5 0
v -4 -6 0
v -5 -6 0
v -5 -5 0
v -4 -5 0
v -12 -6 0
v -13 -6 0
v -13 -5 0
v -12 -5 0
v -22 -6 0
v -23 -6 0
v -23 -5 0
v -22 -5 0
v 0 -7 0
v -1 -7 0
v -1 -6 0
v 0 -6 0
v -4 -7 0
v -5 -7 0
v -5 -6 0
v -4 -6 0
v -12 -7 0
v -13 -7 0
v -13 -6 0
v -12 -6 0
v -22 -7 0
v -23 -7 0
v -23 -6 0
v -22 -6 0
v 0 -8 0
v -1 -8 0
v -1 -7 0
v 0 -7 0
v -4 -8 0
v -5 -8 0
v -5 -7 0
v -4 -7 0
v -22 -8 0
v -23 -8 0
v -23 -7 0
v -22 -7 0
v 0 -9 0
v -1 -9 0
v -1 -8 0
v 0 -8 0
v -4 -9 0
v -5 -9 0
v -5 -8 0
v -4 -8 0
v -12 -9 0
v -13 -9 0
v -13 -8 0
v -12 -8 0
v -13 -9 0
v -14 -9 0
v -14 -8 0
v -13 -8 0
v -14 -9 0
v -15 -9 0
v -15 -8 0
v -14 -8 0
v -15 -9 0
v -16 -9 0
v -16 -8 0
v -15 -8 0
v -16 -9 0
v -17 -9 0
v -17 -8 0
v -16 -8 0
v -17 -9 0
v -18 -9 0
v -18 -8 0
v -17 -8 0
v -18 -9 0
v -19 -9 0
v -19 -8 0
v -18 -8 0
v -22 -9 0
v -23 -9 0
v -23 -8 0
v -22 -8 0
v 0 -10 0
v -1 -10 0
v -1 -9 0
v 0 -9 0
v -4 -10 0
v -5 -10 0
v -5 -9 0
v -4 -9 0
v -12 -10 0
v -13 -10 0
v -13 -9 0
v -12 -9 0
v -18 -10 0
v -19 -10 0
v -19 -9 0
v -18 -9 0
v -22 -10 0
v -23 -10 0
v -23 -9 0
v -22 -9 0
v 0 -11 0
v -1 -11 0
v -1 -10 0
v 0 -10 0
v -4 -11 0
v -5 -11 0
v -5 -10 0
v -4 -10 0
v -18 -11 0
v -19 -11 0
v -19 -10 0
v -18 -10 0
v -22 -11 0
v -23 -11 0
v -23 -10 0
v -22 -10 0
v 0 -12 0
v -1 -12 0
v -1 -11 0
v 0 -11 0
v -4 -12 0
v -5 -12 0
v -5 -11 0
v -4 -11 0
v -12 -12 0
v -13 -12 0
v -13 -11 0
v -12 -11 0
v -18 -12 0
v -19 -12 0
v -19 -11 0
v -18 -11 0
v -22 -12 0
v -23 -12 0
v -23 -11 0
v -22 -11 0
v 0 -13 0
v -1 -13 0
v -1 -12 0
v 0 -12 0
v -4 -13 0
v -5 -13 0
v -5 -12 0
v -4 -12 0
v -5 -13 0
v -6 -13 0
v -6 -12 0
v -5 -12 0
v -6 -13 0
v -7 -13 0
v -7 -12 0
v -6 -12 0
v -7 -13 0
v -8 -13 0
v -8 -12 0
v -7 -12 0
v -8 -13 0
v -9 -13 0
v -9 -12 0
v -8 -12 0
v -9 -13 0
v -10 -13 0
v -10 -12 0
v -9 -12 0
v -10 -13 0
v -11 -13 0
v -11 -12 0
v -10 -12 0
v -11 -13 0
v -12 -13 0
v -12 -12 0
v -11 -12 0
v -12 -13 0
v -13 -13 0
v -13 -12 0
v -12 -12 0
v -18 -13 0
v -19 -13 0
v -19 -12 0
v -18 -12 0
v -22 -13 0
v -23 -13 0
v -23 -12 0
v -22 -12 0
v 0 -14 0
v -1 -14 0
v -1 -13 0
v 0 -13 0
v -10 -14 0
v -11 -14 0
v -11 -13 0
v -10 -13 0
v -18 -14 0
v -19 -14 0
v -19 -13 0
v -18 -13 0
v -22 -14 0
v -23 -14 0
v -23 -13 0
v -22 -13 0
v 0 -15 0
v -1 -15 0
v -1 -14 0
v 0 -14 0
v -10 -15 0
v -11 -15 0
v -11 -14 0
v -10 -14 0
v -18 -15 0
v -19 -15 0
v -19 -14 0
v -18 -14 0
v -22 -15 0
v -23 -15 0
v -23 -14 0
v -22 -14 0
v 0 -16 0
v -1 -16 0
v -1 -15 0
v 0 -15 0
v -18 -16 0
v -19 -16 0
v -19 -15 0
v -18 -15 0
v -22 -16 0
v -23 -16 0
v -23 -15 0
v -22 -15 0
v 0 -17 0
v -1 -17 0
v -1 -16 0
v 0 -16 0
v -10 -17 0
v -11 -17 0
v -11 -16 0
v -10 -16 0
v -18 -17 0
v -19 -17 0
v -19 -16 0
v -18 -16 0
v -22 -17 0
v -23 -17 0
v -23 -16 0
v -22 -16 0
v 0 -18 0
v -1 -18 0
v -1 -17 0
v 0 -17 0
v -10 -18 0
v -11 -18 0
v -11 -17 0
v -10 -17 0
v -18 -18 0
v -19 -18 0
v -19 -17 0
v -18 -17 0
v -22 -18 0
v -23 -18 0
v -23 -17 0
v -22 -17 0
v 0 -19 0
v -1 -19 0
v -1 -18 0
v 0 -18 0
v -10 -19 0
v -11 -19 0
v -11 -18 0
v -10 -18 0
v -11 -19 0
v -12 -19 0
v -12 -18 0
v -11 -18 0
v -12 -19 0
v -13 -19 0
v -13 -18 0
v -12 -18 0
v -13 -19 0
v -14 -19 0
v -14 -18 0
v -13 -18 0
v -14 -19 0
v -15 -19 0
v -15 -18 0
v -14 -18 0
v -15 -19 0
v -16 -19 0
v -16 -18 0
v -15 -18 0
v -16 -19 0
v -17 -19 0
v -17 -18 0
v -16 -18 0
v -17 -19 0
v -18 -19 0
v -18 -18 0
v -17 -18 0
v -18 -19 0
v -19 -19 0
v -19 -18 0
v -18 -18 0
v -22 -19 0
v -23 -19 0
v -23 -18 0
v -22 -18 0
v 0 -20 0
v -1 -20 0
v -1 -19 0
v 0 -19 0
v -22 -20 0
v -23 -20 0
v -23 -19 0
v -22 -19 0
v 0 -21 0
v -1 -21 0
v -1 -20 0
v 0 -20 0
v -22 -21 0
v -23 -21 0
v -23 -20 0
v -22 -20 0
v 0 -22 0
v -1 -22 0
v -1 -21 0
v 0 -21 0
v -22 -22 0
v -23 -22 0
v -23 -21 0
v -22 -21 0
v 0 -23 0
v -1 -23 0
v -1 -22 0
v 0 -22 0
v -1 -23 0
v -2 -23 0
v -2 -22 0
v -1 -22 0
v -2 -23 0
v -3 -23 0
v -3 -22 0
v -2 -22 0
v -3 -23 0
v -4 -23 0
v -4 -22 0
v -3 -22 0
v -4 -23 0
v -5 -23 0
v -5 -22 0
v -4 -22 0
v -5 -23 0
v -6 -23 0
v -6 -22 0
v -5 -22 0
v -6 -23 0
v -7 -23 0
v -7 -22 0
v -6 -22 0
v -7 -23 0
v -8 -23 0
v -8 -22 0
v -7 -22 0
v -8 -23 0
v -9 -23 0
v -9 -22 0
v -8 -22 0
v -9 -23 0
v -10 -23 0
v -10 -22 0
v -9 -22 0
v -10 -23 0
v -11 -23 0
v -11 -22 0
v -10 -22 0
v -12 -23 0
v -13 -23 0
v -13 -22 0
v -12 -22 0
v -13 -23 0
v -14 -23 0
v -14 -22 0
v -13 -22 0
v -14 -23 0
v -15 -23 0
v -15 -22 0
v -14 -22 0
v -15 -23 0
v -16 -23 0
v -16 -22 0
v -15 -22 0
v -16 -23 0
v -17 -23 0
v -17 -22 0
v -16 -22 0
v -17 -23 0
v -18 -23 0
v -18 -22 0
v -17 -22 0
v -18 -23 0
v -19 -23 0
v -19 -22 0
v -18 -22 0
v -19 -23 0
v -20 -23 0
v -20 -22 0
v -19 -22 0
v -20 -23 0
v -21 -23 0
v -21 -22 0
v -20 -22 0
v -21 -23 0
v -22 -23 0
v -22 -22 0
v -21 -22 0
v -22 -23 0
v -23 -23 0
v -23 -22 0
v -22 -22 0

# Texture cooridinates (Count = 21)
vt 0 0.5833333
vt 0.05 0.5833333
vt 0.05 0.625
vt 0 0.625
vt 0 0.5
vt 0.05 0.5
vt 0.05 0.5416667
vt 0 0.5416667
vt 0.6 0.5416667
vt 0.65 0.5416667
vt 0.65 0.5833333
vt 0.6 0.5833333
vt 0.7 0.5416667
vt 0.7 0.5833333
vt 0.1 0.5416667
vt 0.1 0.5833333
vt 0.1 0.5
vt 0.15 0.5416667
vt 0.15 0.5833333
vt 0.15 0.625
vt 0.1 0.625

# Normal
vn 0 0 -1

# Mesh description
g mapas_16_mesh_0002

# Faces
f 1/1/1 2/2/1 3/3/1 4/4/1
f 5/5/1 6/6/1 7/7/1 8/8/1
f 9/5/1 10/6/1 11/7/1 12/8/1
f 13/5/1 14/6/1 15/7/1 16/8/1
f 17/5/1 18/6/1 19/7/1 20/8/1
f 21/5/1 22/6/1 23/7/1 24/8/1
f 25/5/1 26/6/1 27/7/1 28/8/1
f 29/5/1 30/6/1 31/7/1 32/8/1
f 33/5/1 34/6/1 35/7/1 36/8/1
f 37/5/1 38/6/1 39/7/1 40/8/1
f 41/9/1 42/10/1 43/11/1 44/12/1
f 45/10/1 46/13/1 47/14/1 48/11/1
f 49/5/1 50/6/1 51/7/1 52/8/1
f 53/5/1 54/6/1 55/7/1 56/8/1
f 57/5/1 58/6/1 59/7/1 60/8/1
f 61/5/1 62/6/1 63/7/1 64/8/1
f 65/5/1 66/6/1 67/7/1 68/8/1
f 69/5/1 70/6/1 71/7/1 72/8/1
f 73/5/1 74/6/1 75/7/1 76/8/1
f 77/5/1 78/6/1 79/7/1 80/8/1
f 81/5/1 82/6/1 83/7/1 84/8/1
f 85/1/1 86/2/1 87/3/1 88/4/1
f 89/8/1 90/7/1 91/2/1 92/1/1
f 93/8/1 94/7/1 95/2/1 96/1/1
f 97/8/1 98/7/1 99/2/1 100/1/1
f 101/8/1 102/7/1 103/2/1 104/1/1
f 105/8/1 106/7/1 107/2/1 108/1/1
f 109/8/1 110/7/1 111/2/1 112/1/1
f 113/8/1 114/7/1 115/2/1 116/1/1
f 117/1/1 118/2/1 119/3/1 120/4/1
f 121/5/1 122/6/1 123/7/1 124/8/1
f 125/5/1 126/6/1 127/7/1 128/8/1
f 129/5/1 130/6/1 131/7/1 132/8/1
f 133/5/1 134/6/1 135/7/1 136/8/1
f 137/5/1 138/6/1 139/7/1 140/8/1
f 141/5/1 142/6/1 143/7/1 144/8/1
f 145/5/1 146/6/1 147/7/1 148/8/1
f 149/1/1 150/2/1 151/3/1 152/4/1
f 153/8/1 154/7/1 155/2/1 156/1/1
f 157/8/1 158/7/1 159/2/1 160/1/1
f 161/8/1 162/7/1 163/2/1 164/1/1
f 165/8/1 166/7/1 167/2/1 168/1/1
f 169/8/1 170/7/1 171/2/1 172/1/1
f 173/8/1 174/7/1 175/2/1 176/1/1
f 177/8/1 178/7/1 179/2/1 180/1/1
f 181/7/1 182/15/1 183/16/1 184/2/1
f 185/8/1 186/7/1 187/2/1 188/1/1
f 189/8/1 190/7/1 191/2/1 192/1/1
f 193/8/1 194/7/1 195/2/1 196/1/1
f 197/8/1 198/7/1 199/2/1 200/1/1
f 201/8/1 202/7/1 203/2/1 204/1/1
f 205/8/1 206/7/1 207/2/1 208/1/1
f 209/6/1 210/17/1 211/15/1 212/7/1
f 213/5/1 214/6/1 215/7/1 216/8/1
f 217/5/1 218/6/1 219/7/1 220/8/1
f 221/5/1 222/6/1 223/7/1 224/8/1
f 225/5/1 226/6/1 227/7/1 228/8/1
f 229/5/1 230/6/1 231/7/1 232/8/1
f 233/1/1 234/2/1 235/3/1 236/4/1
f 237/8/1 238/7/1 239/2/1 240/1/1
f 241/8/1 242/7/1 243/2/1 244/1/1
f 245/8/1 246/7/1 247/2/1 248/1/1
f 249/15/1 250/18/1 251/19/1 252/16/1
f 253/8/1 254/7/1 255/2/1 256/1/1
f 257/8/1 258/7/1 259/2/1 260/1/1
f 261/8/1 262/7/1 263/2/1 264/1/1
f 265/8/1 266/7/1 267/2/1 268/1/1
f 269/8/1 270/7/1 271/2/1 272/1/1
f 273/8/1 274/7/1 275/2/1 276/1/1
f 277/8/1 278/7/1 279/2/1 280/1/1
f 281/8/1 282/7/1 283/2/1 284/1/1
f 285/16/1 286/19/1 287/20/1 288/21/1
f 289/8/1 290/7/1 291/2/1 292/1/1
f 293/8/1 294/7/1 295/2/1 296/1/1
f 297/8/1 298/7/1 299/2/1 300/1/1
f 301/5/1 302/6/1 303/7/1 304/8/1
f 305/5/1 306/6/1 307/7/1 308/8/1
f 309/5/1 310/6/1 311/7/1 312/8/1
f 313/5/1 314/6/1 315/7/1 316/8/1
f 317/5/1 318/6/1 319/7/1 320/8/1
f 321/5/1 322/6/1 323/7/1 324/8/1
f 325/1/1 326/2/1 327/3/1 328/4/1
f 329/5/1 330/6/1 331/7/1 332/8/1
f 333/5/1 334/6/1 335/7/1 336/8/1
f 337/8/1 338/7/1 339/2/1 340/1/1
f 341/8/1 342/7/1 343/2/1 344/1/1
f 345/8/1 346/7/1 347/2/1 348/1/1
f 349/8/1 350/7/1 351/2/1 352/1/1
f 353/8/1 354/7/1 355/2/1 356/1/1
f 357/8/1 358/7/1 359/2/1 360/1/1
f 361/8/1 362/7/1 363/2/1 364/1/1
f 365/15/1 366/18/1 367/19/1 368/16/1
f 369/8/1 370/7/1 371/2/1 372/1/1
f 373/8/1 374/7/1 375/2/1 376/1/1
f 377/8/1 378/7/1 379/2/1 380/1/1
f 381/8/1 382/7/1 383/2/1 384/1/1
f 385/8/1 386/7/1 387/2/1 388/1/1
f 389/8/1 390/7/1 391/2/1 392/1/1
f 393/6/1 394/17/1 395/15/1 396/7/1
f 397/8/1 398/7/1 399/2/1 400/1/1
f 401/8/1 402/7/1 403/2/1 404/1/1
f 405/8/1 406/7/1 407/2/1 408/1/1
f 409/8/1 410/7/1 411/2/1 412/1/1
f 413/8/1 414/7/1 415/2/1 416/1/1
f 417/8/1 418/7/1 419/2/1 420/1/1
f 421/8/1 422/7/1 423/2/1 424/1/1
f 425/5/1 426/6/1 427/7/1 428/8/1
f 429/5/1 430/6/1 431/7/1 432/8/1
f 433/5/1 434/6/1 435/7/1 436/8/1
f 437/5/1 438/6/1 439/7/1 440/8/1
f 441/5/1 442/6/1 443/7/1 444/8/1
f 445/5/1 446/6/1 447/7/1 448/8/1
f 449/5/1 450/6/1 451/7/1 452/8/1
f 453/5/1 454/6/1 455/7/1 456/8/1
f 457/5/1 458/6/1 459/7/1 460/8/1
f 461/8/1 462/7/1 463/2/1 464/1/1
f 465/8/1 466/7/1 467/2/1 468/1/1
f 469/8/1 470/7/1 471/2/1 472/1/1
f 473/8/1 474/7/1 475/2/1 476/1/1
f 477/8/1 478/7/1 479/2/1 480/1/1
f 481/8/1 482/7/1 483/2/1 484/1/1
f 485/8/1 486/7/1 487/2/1 488/1/1
f 489/5/1 490/6/1 491/7/1 492/8/1
f 493/5/1 494/6/1 495/7/1 496/8/1
f 497/5/1 498/6/1 499/7/1 500/8/1
f 501/5/1 502/6/1 503/7/1 504/8/1
f 505/5/1 506/6/1 507/7/1 508/8/1
f 509/5/1 510/6/1 511/7/1 512/8/1
f 513/5/1 514/6/1 515/7/1 516/8/1
f 517/5/1 518/6/1 519/7/1 520/8/1
f 521/5/1 522/6/1 523/7/1 524/8/1
f 525/5/1 526/6/1 527/7/1 528/8/1
f 529/9/1 530/10/1 531/11/1 532/12/1
f 533/10/1 534/13/1 535/14/1 536/11/1
f 537/5/1 538/6/1 539/7/1 540/8/1
f 541/5/1 542/6/1 543/7/1 544/8/1
f 545/5/1 546/6/1 547/7/1 548/8/1
f 549/5/1 550/6/1 551/7/1 552/8/1
f 553/5/1 554/6/1 555/7/1 556/8/1
f 557/5/1 558/6/1 559/7/1 560/8/1
f 561/5/1 562/6/1 563/7/1 564/8/1
f 565/5/1 566/6/1 567/7/1 568/8/1
f 569/5/1 570/6/1 571/7/1 572/8/1
f 573/5/1 574/6/1 575/7/1 576/8/1

