# Tiled2Unity generated file. Do not modify by hand.
# Wavefront file for 'mapas_2_mesh_0003.obj'

# Vertices (Count = 180)
v -3 -1 0
v -4 -1 0
v -4 0 0
v -3 0 0
v -4 -1 0
v -5 -1 0
v -5 0 0
v -4 0 0
v -5 -1 0
v -6 -1 0
v -6 0 0
v -5 0 0
v -6 -1 0
v -7 -1 0
v -7 0 0
v -6 0 0
v -7 -1 0
v -8 -1 0
v -8 0 0
v -7 0 0
v -8 -1 0
v -9 -1 0
v -9 0 0
v -8 0 0
v -9 -1 0
v -10 -1 0
v -10 0 0
v -9 0 0
v -12 -1 0
v -13 -1 0
v -13 0 0
v -12 0 0
v -13 -1 0
v -14 -1 0
v -14 0 0
v -13 0 0
v -14 -1 0
v -15 -1 0
v -15 0 0
v -14 0 0
v -15 -1 0
v -16 -1 0
v -16 0 0
v -15 0 0
v -3 -2 0
v -4 -2 0
v -4 -1 0
v -3 -1 0
v -4 -2 0
v -5 -2 0
v -5 -1 0
v -4 -1 0
v -5 -2 0
v -6 -2 0
v -6 -1 0
v -5 -1 0
v -6 -2 0
v -7 -2 0
v -7 -1 0
v -6 -1 0
v -7 -2 0
v -8 -2 0
v -8 -1 0
v -7 -1 0
v -8 -2 0
v -9 -2 0
v -9 -1 0
v -8 -1 0
v -9 -2 0
v -10 -2 0
v -10 -1 0
v -9 -1 0
v -12 -2 0
v -13 -2 0
v -13 -1 0
v -12 -1 0
v -13 -2 0
v -14 -2 0
v -14 -1 0
v -13 -1 0
v -14 -2 0
v -15 -2 0
v -15 -1 0
v -14 -1 0
v -15 -2 0
v -16 -2 0
v -16 -1 0
v -15 -1 0
v -3 -3 0
v -4 -3 0
v -4 -2 0
v -3 -2 0
v -4 -3 0
v -5 -3 0
v -5 -2 0
v -4 -2 0
v -5 -3 0
v -6 -3 0
v -6 -2 0
v -5 -2 0
v -6 -3 0
v -7 -3 0
v -7 -2 0
v -6 -2 0
v -7 -3 0
v -8 -3 0
v -8 -2 0
v -7 -2 0
v -8 -3 0
v -9 -3 0
v -9 -2 0
v -8 -2 0
v -9 -3 0
v -10 -3 0
v -10 -2 0
v -9 -2 0
v -12 -3 0
v -13 -3 0
v -13 -2 0
v -12 -2 0
v -13 -3 0
v -14 -3 0
v -14 -2 0
v -13 -2 0
v -14 -3 0
v -15 -3 0
v -15 -2 0
v -14 -2 0
v -15 -3 0
v -16 -3 0
v -16 -2 0
v -15 -2 0
v -12 -14 0
v -13 -14 0
v -13 -13 0
v -12 -13 0
v -13 -14 0
v -14 -14 0
v -14 -13 0
v -13 -13 0
v -14 -14 0
v -15 -14 0
v -15 -13 0
v -14 -13 0
v -15 -14 0
v -16 -14 0
v -16 -13 0
v -15 -13 0
v -12 -15 0
v -13 -15 0
v -13 -14 0
v -12 -14 0
v -13 -15 0
v -14 -15 0
v -14 -14 0
v -13 -14 0
v -14 -15 0
v -15 -15 0
v -15 -14 0
v -14 -14 0
v -15 -15 0
v -16 -15 0
v -16 -14 0
v -15 -14 0
v -12 -16 0
v -13 -16 0
v -13 -15 0
v -12 -15 0
v -13 -16 0
v -14 -16 0
v -14 -15 0
v -13 -15 0
v -14 -16 0
v -15 -16 0
v -15 -15 0
v -14 -15 0
v -15 -16 0
v -16 -16 0
v -16 -15 0
v -15 -15 0

# Texture cooridinates (Count = 50)
vt 0.5625 0.5625
vt 0.625 0.5625
vt 0.625 0.625
vt 0.5625 0.625
vt 0.6875 0.5625
vt 0.6875 0.625
vt 0.75 0.5625
vt 0.8125 0.5625
vt 0.8125 0.625
vt 0.75 0.625
vt 0.875 0.5625
vt 0.875 0.625
vt 0.1875 0.4375
vt 0.25 0.4375
vt 0.25 0.5
vt 0.1875 0.5
vt 0.3125 0.4375
vt 0.3125 0.5
vt 0.375 0.4375
vt 0.375 0.5
vt 0.5625 0.5
vt 0.625 0.5
vt 0.6875 0.5
vt 0.75 0.5
vt 0.8125 0.5
vt 0.875 0.5
vt 0.1875 0.375
vt 0.25 0.375
vt 0.3125 0.375
vt 0.375 0.375
vt 0.5625 0.4375
vt 0.625 0.4375
vt 0.6875 0.4375
vt 0.75 0.4375
vt 0.8125 0.4375
vt 0.875 0.4375
vt 0.1875 0.3125
vt 0.25 0.3125
vt 0.3125 0.3125
vt 0.375 0.3125
vt 0.5 0.5625
vt 0.5 0.625
vt 0.8125 0.75
vt 0.875 0.75
vt 0.875 0.8125
vt 0.8125 0.8125
vt 0.5 0.5
vt 0.8125 0.6875
vt 0.875 0.6875
vt 0.5 0.4375

# Normal
vn 0 0 -1

# Mesh description
g mapas_2_mesh_0003

# Faces
f 1/1/1 2/2/1 3/3/1 4/4/1
f 5/2/1 6/5/1 7/6/1 8/3/1
f 9/7/1 10/8/1 11/9/1 12/10/1
f 13/8/1 14/11/1 15/12/1 16/9/1
f 17/13/1 18/14/1 19/15/1 20/16/1
f 21/14/1 22/17/1 23/18/1 24/15/1
f 25/17/1 26/19/1 27/20/1 28/18/1
f 29/1/1 30/2/1 31/3/1 32/4/1
f 33/2/1 34/5/1 35/6/1 36/3/1
f 37/7/1 38/8/1 39/9/1 40/10/1
f 41/8/1 42/11/1 43/12/1 44/9/1
f 45/21/1 46/22/1 47/2/1 48/1/1
f 49/22/1 50/23/1 51/5/1 52/2/1
f 53/24/1 54/25/1 55/8/1 56/7/1
f 57/25/1 58/26/1 59/11/1 60/8/1
f 61/27/1 62/28/1 63/14/1 64/13/1
f 65/28/1 66/29/1 67/17/1 68/14/1
f 69/29/1 70/30/1 71/19/1 72/17/1
f 73/21/1 74/22/1 75/2/1 76/1/1
f 77/22/1 78/23/1 79/5/1 80/2/1
f 81/24/1 82/25/1 83/8/1 84/7/1
f 85/25/1 86/26/1 87/11/1 88/8/1
f 89/31/1 90/32/1 91/22/1 92/21/1
f 93/32/1 94/33/1 95/23/1 96/22/1
f 97/34/1 98/35/1 99/25/1 100/24/1
f 101/35/1 102/36/1 103/26/1 104/25/1
f 105/37/1 106/38/1 107/28/1 108/27/1
f 109/38/1 110/39/1 111/29/1 112/28/1
f 113/39/1 114/40/1 115/30/1 116/29/1
f 117/31/1 118/32/1 119/22/1 120/21/1
f 121/32/1 122/33/1 123/23/1 124/22/1
f 125/34/1 126/35/1 127/25/1 128/24/1
f 129/35/1 130/36/1 131/26/1 132/25/1
f 133/41/1 134/1/1 135/4/1 136/42/1
f 137/43/1 138/44/1 139/45/1 140/46/1
f 141/43/1 142/44/1 143/45/1 144/46/1
f 145/43/1 146/44/1 147/45/1 148/46/1
f 149/47/1 150/21/1 151/1/1 152/41/1
f 153/48/1 154/49/1 155/44/1 156/43/1
f 157/48/1 158/49/1 159/44/1 160/43/1
f 161/48/1 162/49/1 163/44/1 164/43/1
f 165/50/1 166/31/1 167/21/1 168/47/1
f 169/9/1 170/12/1 171/49/1 172/48/1
f 173/9/1 174/12/1 175/49/1 176/48/1
f 177/9/1 178/12/1 179/49/1 180/48/1

