# Tiled2Unity generated file. Do not modify by hand.
# Wavefront file for 'mapas_18_mesh_0005.obj'

# Vertices (Count = 148)
v -8 -6 0
v -9 -6 0
v -9 -5 0
v -8 -5 0
v -10 -6 0
v -11 -6 0
v -11 -5 0
v -10 -5 0
v -17 -8 0
v -18 -8 0
v -18 -7 0
v -17 -7 0
v -19 -8 0
v -20 -8 0
v -20 -7 0
v -19 -7 0
v -17 -9 0
v -18 -9 0
v -18 -8 0
v -17 -8 0
v -19 -9 0
v -20 -9 0
v -20 -8 0
v -19 -8 0
v -17 -10 0
v -18 -10 0
v -18 -9 0
v -17 -9 0
v -19 -10 0
v -20 -10 0
v -20 -9 0
v -19 -9 0
v -17 -11 0
v -18 -11 0
v -18 -10 0
v -17 -10 0
v -19 -11 0
v -20 -11 0
v -20 -10 0
v -19 -10 0
v -17 -12 0
v -18 -12 0
v -18 -11 0
v -17 -11 0
v -19 -12 0
v -20 -12 0
v -20 -11 0
v -19 -11 0
v -8 -13 0
v -9 -13 0
v -9 -12 0
v -8 -12 0
v -10 -13 0
v -11 -13 0
v -11 -12 0
v -10 -12 0
v -17 -13 0
v -18 -13 0
v -18 -12 0
v -17 -12 0
v -19 -13 0
v -20 -13 0
v -20 -12 0
v -19 -12 0
v -17 -14 0
v -18 -14 0
v -18 -13 0
v -17 -13 0
v -19 -14 0
v -20 -14 0
v -20 -13 0
v -19 -13 0
v -17 -15 0
v -18 -15 0
v -18 -14 0
v -17 -14 0
v -19 -15 0
v -20 -15 0
v -20 -14 0
v -19 -14 0
v -12 -16 0
v -13 -16 0
v -13 -15 0
v -12 -15 0
v -13 -16 0
v -14 -16 0
v -14 -15 0
v -13 -15 0
v -14 -16 0
v -15 -16 0
v -15 -15 0
v -14 -15 0
v -15 -16 0
v -16 -16 0
v -16 -15 0
v -15 -15 0
v -16 -16 0
v -17 -16 0
v -17 -15 0
v -16 -15 0
v -17 -16 0
v -18 -16 0
v -18 -15 0
v -17 -15 0
v -19 -16 0
v -20 -16 0
v -20 -15 0
v -19 -15 0
v -19 -17 0
v -20 -17 0
v -20 -16 0
v -19 -16 0
v -19 -18 0
v -20 -18 0
v -20 -17 0
v -19 -17 0
v -12 -19 0
v -13 -19 0
v -13 -18 0
v -12 -18 0
v -13 -19 0
v -14 -19 0
v -14 -18 0
v -13 -18 0
v -14 -19 0
v -15 -19 0
v -15 -18 0
v -14 -18 0
v -15 -19 0
v -16 -19 0
v -16 -18 0
v -15 -18 0
v -16 -19 0
v -17 -19 0
v -17 -18 0
v -16 -18 0
v -17 -19 0
v -18 -19 0
v -18 -18 0
v -17 -18 0
v -18 -19 0
v -19 -19 0
v -19 -18 0
v -18 -18 0
v -19 -19 0
v -20 -19 0
v -20 -18 0
v -19 -18 0

# Texture cooridinates (Count = 25)
vt 0.6875 0.75
vt 0.75 0.75
vt 0.75 0.8125
vt 0.6875 0.8125
vt 0.8125 0.75
vt 0.8125 0.8125
vt 0.6875 0.875
vt 0.75 0.875
vt 0.75 0.9375
vt 0.6875 0.9375
vt 0.8125 0.875
vt 0.875 0.875
vt 0.875 0.9375
vt 0.8125 0.9375
vt 0.6875 0.6875
vt 0.75 0.6875
vt 0.8125 0.6875
vt 0.6875 0.625
vt 0.75 0.625
vt 0.8125 1
vt 0.75 1
vt 0.8125 0.625
vt 0.875 0.625
vt 0.875 0.6875
vt 0.875 0.8125

# Normal
vn 0 0 -1

# Mesh description
g mapas_18_mesh_0005

# Faces
f 1/1/1 2/2/1 3/3/1 4/4/1
f 5/2/1 6/5/1 7/6/1 8/3/1
f 9/1/1 10/2/1 11/3/1 12/4/1
f 13/2/1 14/5/1 15/6/1 16/3/1
f 17/7/1 18/8/1 19/9/1 20/10/1
f 21/11/1 22/12/1 23/13/1 24/14/1
f 25/7/1 26/8/1 27/9/1 28/10/1
f 29/11/1 30/12/1 31/13/1 32/14/1
f 33/7/1 34/8/1 35/9/1 36/10/1
f 37/11/1 38/12/1 39/13/1 40/14/1
f 41/7/1 42/8/1 43/9/1 44/10/1
f 45/11/1 46/12/1 47/13/1 48/14/1
f 49/15/1 50/16/1 51/2/1 52/1/1
f 53/16/1 54/17/1 55/5/1 56/2/1
f 57/7/1 58/8/1 59/9/1 60/10/1
f 61/11/1 62/12/1 63/13/1 64/14/1
f 65/7/1 66/8/1 67/9/1 68/10/1
f 69/11/1 70/12/1 71/13/1 72/14/1
f 73/7/1 74/8/1 75/9/1 76/10/1
f 77/11/1 78/12/1 79/13/1 80/14/1
f 81/18/1 82/19/1 83/16/1 84/15/1
f 85/9/1 86/14/1 87/20/1 88/21/1
f 89/9/1 90/14/1 91/20/1 92/21/1
f 93/22/1 94/23/1 95/24/1 96/17/1
f 97/9/1 98/14/1 99/20/1 100/21/1
f 101/3/1 102/6/1 103/11/1 104/8/1
f 105/11/1 106/12/1 107/13/1 108/14/1
f 109/11/1 110/12/1 111/13/1 112/14/1
f 113/11/1 114/12/1 115/13/1 116/14/1
f 117/18/1 118/19/1 119/16/1 120/15/1
f 121/9/1 122/14/1 123/20/1 124/21/1
f 125/9/1 126/14/1 127/20/1 128/21/1
f 129/22/1 130/23/1 131/24/1 132/17/1
f 133/9/1 134/14/1 135/20/1 136/21/1
f 137/9/1 138/14/1 139/20/1 140/21/1
f 141/9/1 142/14/1 143/20/1 144/21/1
f 145/6/1 146/25/1 147/12/1 148/11/1

