# Tiled2Unity generated file. Do not modify by hand.
# Wavefront file for 'mapas_18_mesh_0003.obj'

# Vertices (Count = 360)
v -8 -6 0
v -9 -6 0
v -9 -5 0
v -8 -5 0
v -9 -6 0
v -10 -6 0
v -10 -5 0
v -9 -5 0
v -10 -6 0
v -11 -6 0
v -11 -5 0
v -10 -5 0
v -8 -7 0
v -9 -7 0
v -9 -6 0
v -8 -6 0
v -9 -7 0
v -10 -7 0
v -10 -6 0
v -9 -6 0
v -10 -7 0
v -11 -7 0
v -11 -6 0
v -10 -6 0
v -8 -8 0
v -9 -8 0
v -9 -7 0
v -8 -7 0
v -9 -8 0
v -10 -8 0
v -10 -7 0
v -9 -7 0
v -10 -8 0
v -11 -8 0
v -11 -7 0
v -10 -7 0
v -17 -8 0
v -18 -8 0
v -18 -7 0
v -17 -7 0
v -18 -8 0
v -19 -8 0
v -19 -7 0
v -18 -7 0
v -19 -8 0
v -20 -8 0
v -20 -7 0
v -19 -7 0
v -8 -9 0
v -9 -9 0
v -9 -8 0
v -8 -8 0
v -9 -9 0
v -10 -9 0
v -10 -8 0
v -9 -8 0
v -10 -9 0
v -11 -9 0
v -11 -8 0
v -10 -8 0
v -17 -9 0
v -18 -9 0
v -18 -8 0
v -17 -8 0
v -18 -9 0
v -19 -9 0
v -19 -8 0
v -18 -8 0
v -19 -9 0
v -20 -9 0
v -20 -8 0
v -19 -8 0
v -8 -10 0
v -9 -10 0
v -9 -9 0
v -8 -9 0
v -9 -10 0
v -10 -10 0
v -10 -9 0
v -9 -9 0
v -10 -10 0
v -11 -10 0
v -11 -9 0
v -10 -9 0
v -17 -10 0
v -18 -10 0
v -18 -9 0
v -17 -9 0
v -18 -10 0
v -19 -10 0
v -19 -9 0
v -18 -9 0
v -19 -10 0
v -20 -10 0
v -20 -9 0
v -19 -9 0
v -8 -11 0
v -9 -11 0
v -9 -10 0
v -8 -10 0
v -9 -11 0
v -10 -11 0
v -10 -10 0
v -9 -10 0
v -10 -11 0
v -11 -11 0
v -11 -10 0
v -10 -10 0
v -17 -11 0
v -18 -11 0
v -18 -10 0
v -17 -10 0
v -18 -11 0
v -19 -11 0
v -19 -10 0
v -18 -10 0
v -19 -11 0
v -20 -11 0
v -20 -10 0
v -19 -10 0
v -8 -12 0
v -9 -12 0
v -9 -11 0
v -8 -11 0
v -9 -12 0
v -10 -12 0
v -10 -11 0
v -9 -11 0
v -10 -12 0
v -11 -12 0
v -11 -11 0
v -10 -11 0
v -17 -12 0
v -18 -12 0
v -18 -11 0
v -17 -11 0
v -18 -12 0
v -19 -12 0
v -19 -11 0
v -18 -11 0
v -19 -12 0
v -20 -12 0
v -20 -11 0
v -19 -11 0
v -8 -13 0
v -9 -13 0
v -9 -12 0
v -8 -12 0
v -9 -13 0
v -10 -13 0
v -10 -12 0
v -9 -12 0
v -10 -13 0
v -11 -13 0
v -11 -12 0
v -10 -12 0
v -17 -13 0
v -18 -13 0
v -18 -12 0
v -17 -12 0
v -18 -13 0
v -19 -13 0
v -19 -12 0
v -18 -12 0
v -19 -13 0
v -20 -13 0
v -20 -12 0
v -19 -12 0
v -8 -14 0
v -9 -14 0
v -9 -13 0
v -8 -13 0
v -9 -14 0
v -10 -14 0
v -10 -13 0
v -9 -13 0
v -10 -14 0
v -11 -14 0
v -11 -13 0
v -10 -13 0
v -17 -14 0
v -18 -14 0
v -18 -13 0
v -17 -13 0
v -18 -14 0
v -19 -14 0
v -19 -13 0
v -18 -13 0
v -19 -14 0
v -20 -14 0
v -20 -13 0
v -19 -13 0
v -17 -15 0
v -18 -15 0
v -18 -14 0
v -17 -14 0
v -18 -15 0
v -19 -15 0
v -19 -14 0
v -18 -14 0
v -19 -15 0
v -20 -15 0
v -20 -14 0
v -19 -14 0
v -13 -16 0
v -14 -16 0
v -14 -15 0
v -13 -15 0
v -14 -16 0
v -15 -16 0
v -15 -15 0
v -14 -15 0
v -15 -16 0
v -16 -16 0
v -16 -15 0
v -15 -15 0
v -16 -16 0
v -17 -16 0
v -17 -15 0
v -16 -15 0
v -17 -16 0
v -18 -16 0
v -18 -15 0
v -17 -15 0
v -18 -16 0
v -19 -16 0
v -19 -15 0
v -18 -15 0
v -19 -16 0
v -20 -16 0
v -20 -15 0
v -19 -15 0
v -12 -17 0
v -13 -17 0
v -13 -16 0
v -12 -16 0
v -13 -17 0
v -14 -17 0
v -14 -16 0
v -13 -16 0
v -14 -17 0
v -15 -17 0
v -15 -16 0
v -14 -16 0
v -15 -17 0
v -16 -17 0
v -16 -16 0
v -15 -16 0
v -16 -17 0
v -17 -17 0
v -17 -16 0
v -16 -16 0
v -17 -17 0
v -18 -17 0
v -18 -16 0
v -17 -16 0
v -18 -17 0
v -19 -17 0
v -19 -16 0
v -18 -16 0
v -19 -17 0
v -20 -17 0
v -20 -16 0
v -19 -16 0
v -12 -18 0
v -13 -18 0
v -13 -17 0
v -12 -17 0
v -13 -18 0
v -14 -18 0
v -14 -17 0
v -13 -17 0
v -14 -18 0
v -15 -18 0
v -15 -17 0
v -14 -17 0
v -15 -18 0
v -16 -18 0
v -16 -17 0
v -15 -17 0
v -16 -18 0
v -17 -18 0
v -17 -17 0
v -16 -17 0
v -17 -18 0
v -18 -18 0
v -18 -17 0
v -17 -17 0
v -18 -18 0
v -19 -18 0
v -19 -17 0
v -18 -17 0
v -19 -18 0
v -20 -18 0
v -20 -17 0
v -19 -17 0
v -12 -19 0
v -13 -19 0
v -13 -18 0
v -12 -18 0
v -13 -19 0
v -14 -19 0
v -14 -18 0
v -13 -18 0
v -14 -19 0
v -15 -19 0
v -15 -18 0
v -14 -18 0
v -15 -19 0
v -16 -19 0
v -16 -18 0
v -15 -18 0
v -16 -19 0
v -17 -19 0
v -17 -18 0
v -16 -18 0
v -17 -19 0
v -18 -19 0
v -18 -18 0
v -17 -18 0
v -18 -19 0
v -19 -19 0
v -19 -18 0
v -18 -18 0
v -19 -19 0
v -20 -19 0
v -20 -18 0
v -19 -18 0
v -12 -20 0
v -13 -20 0
v -13 -19 0
v -12 -19 0
v -13 -20 0
v -14 -20 0
v -14 -19 0
v -13 -19 0
v -14 -20 0
v -15 -20 0
v -15 -19 0
v -14 -19 0
v -15 -20 0
v -16 -20 0
v -16 -19 0
v -15 -19 0
v -16 -20 0
v -17 -20 0
v -17 -19 0
v -16 -19 0
v -17 -20 0
v -18 -20 0
v -18 -19 0
v -17 -19 0
v -18 -20 0
v -19 -20 0
v -19 -19 0
v -18 -19 0
v -19 -20 0
v -20 -20 0
v -20 -19 0
v -19 -19 0

# Texture cooridinates (Count = 38)
vt 0.25 0.9375
vt 0.3125 0.9375
vt 0.3125 1
vt 0.25 1
vt 0.375 0.625
vt 0.4375 0.625
vt 0.4375 0.6875
vt 0.375 0.6875
vt 0.375 0.9375
vt 0.375 1
vt 0.25 0.8125
vt 0.3125 0.8125
vt 0.3125 0.875
vt 0.25 0.875
vt 0.375 0.5625
vt 0.4375 0.5625
vt 0.375 0.8125
vt 0.375 0.875
vt 0.375 0.5
vt 0.4375 0.5
vt 0.3125 0.625
vt 0.3125 0.6875
vt 0.5 0.625
vt 0.5 0.6875
vt 0.3125 0.5625
vt 0.5 0.5625
vt 0.25 0.75
vt 0.3125 0.75
vt 0.375 0.4375
vt 0.4375 0.4375
vt 0.375 0.75
vt 0.25 0.6875
vt 0.375 0.375
vt 0.4375 0.375
vt 0.3125 0.5
vt 0.5 0.4375
vt 0.5 0.5
vt 0.5 0.375

# Normal
vn 0 0 -1

# Mesh description
g mapas_18_mesh_0003

# Faces
f 1/1/1 2/2/1 3/3/1 4/4/1
f 5/5/1 6/6/1 7/7/1 8/8/1
f 9/2/1 10/9/1 11/10/1 12/3/1
f 13/11/1 14/12/1 15/13/1 16/14/1
f 17/15/1 18/16/1 19/6/1 20/5/1
f 21/12/1 22/17/1 23/18/1 24/13/1
f 25/11/1 26/12/1 27/13/1 28/14/1
f 29/19/1 30/20/1 31/16/1 32/15/1
f 33/12/1 34/17/1 35/18/1 36/13/1
f 37/21/1 38/5/1 39/8/1 40/22/1
f 41/5/1 42/6/1 43/7/1 44/8/1
f 45/6/1 46/23/1 47/24/1 48/7/1
f 49/11/1 50/12/1 51/13/1 52/14/1
f 53/19/1 54/20/1 55/16/1 56/15/1
f 57/12/1 58/17/1 59/18/1 60/13/1
f 61/25/1 62/15/1 63/5/1 64/21/1
f 65/15/1 66/16/1 67/6/1 68/5/1
f 69/16/1 70/26/1 71/23/1 72/6/1
f 73/11/1 74/12/1 75/13/1 76/14/1
f 77/19/1 78/20/1 79/16/1 80/15/1
f 81/12/1 82/17/1 83/18/1 84/13/1
f 85/11/1 86/12/1 87/13/1 88/14/1
f 89/19/1 90/20/1 91/16/1 92/15/1
f 93/12/1 94/17/1 95/18/1 96/13/1
f 97/11/1 98/12/1 99/13/1 100/14/1
f 101/19/1 102/20/1 103/16/1 104/15/1
f 105/12/1 106/17/1 107/18/1 108/13/1
f 109/11/1 110/12/1 111/13/1 112/14/1
f 113/19/1 114/20/1 115/16/1 116/15/1
f 117/12/1 118/17/1 119/18/1 120/13/1
f 121/11/1 122/12/1 123/13/1 124/14/1
f 125/19/1 126/20/1 127/16/1 128/15/1
f 129/12/1 130/17/1 131/18/1 132/13/1
f 133/11/1 134/12/1 135/13/1 136/14/1
f 137/19/1 138/20/1 139/16/1 140/15/1
f 141/12/1 142/17/1 143/18/1 144/13/1
f 145/27/1 146/28/1 147/12/1 148/11/1
f 149/29/1 150/30/1 151/20/1 152/19/1
f 153/28/1 154/31/1 155/17/1 156/12/1
f 157/11/1 158/12/1 159/13/1 160/14/1
f 161/19/1 162/20/1 163/16/1 164/15/1
f 165/12/1 166/17/1 167/18/1 168/13/1
f 169/32/1 170/22/1 171/28/1 172/27/1
f 173/33/1 174/34/1 175/30/1 176/29/1
f 177/22/1 178/8/1 179/31/1 180/28/1
f 181/11/1 182/12/1 183/13/1 184/14/1
f 185/19/1 186/20/1 187/16/1 188/15/1
f 189/12/1 190/17/1 191/18/1 192/13/1
f 193/11/1 194/12/1 195/13/1 196/14/1
f 197/19/1 198/20/1 199/16/1 200/15/1
f 201/12/1 202/17/1 203/18/1 204/13/1
f 205/5/1 206/6/1 207/7/1 208/8/1
f 209/5/1 210/6/1 211/7/1 212/8/1
f 213/5/1 214/6/1 215/7/1 216/8/1
f 217/5/1 218/6/1 219/7/1 220/8/1
f 221/11/1 222/12/1 223/13/1 224/14/1
f 225/19/1 226/20/1 227/16/1 228/15/1
f 229/12/1 230/17/1 231/18/1 232/13/1
f 233/35/1 234/19/1 235/15/1 236/25/1
f 237/15/1 238/16/1 239/6/1 240/5/1
f 241/15/1 242/16/1 243/6/1 244/5/1
f 245/15/1 246/16/1 247/6/1 248/5/1
f 249/15/1 250/16/1 251/6/1 252/5/1
f 253/19/1 254/20/1 255/16/1 256/15/1
f 257/19/1 258/20/1 259/16/1 260/15/1
f 261/12/1 262/17/1 263/18/1 264/13/1
f 265/35/1 266/19/1 267/15/1 268/25/1
f 269/19/1 270/20/1 271/16/1 272/15/1
f 273/19/1 274/20/1 275/16/1 276/15/1
f 277/19/1 278/20/1 279/16/1 280/15/1
f 281/19/1 282/20/1 283/16/1 284/15/1
f 285/19/1 286/20/1 287/16/1 288/15/1
f 289/19/1 290/20/1 291/16/1 292/15/1
f 293/12/1 294/17/1 295/18/1 296/13/1
f 297/35/1 298/19/1 299/15/1 300/25/1
f 301/19/1 302/20/1 303/16/1 304/15/1
f 305/19/1 306/20/1 307/16/1 308/15/1
f 309/19/1 310/20/1 311/16/1 312/15/1
f 313/19/1 314/20/1 315/16/1 316/15/1
f 317/19/1 318/20/1 319/16/1 320/15/1
f 321/19/1 322/20/1 323/16/1 324/15/1
f 325/30/1 326/36/1 327/37/1 328/20/1
f 329/34/1 330/38/1 331/36/1 332/30/1
f 333/34/1 334/38/1 335/36/1 336/30/1
f 337/34/1 338/38/1 339/36/1 340/30/1
f 341/34/1 342/38/1 343/36/1 344/30/1
f 345/34/1 346/38/1 347/36/1 348/30/1
f 349/34/1 350/38/1 351/36/1 352/30/1
f 353/34/1 354/38/1 355/36/1 356/30/1
f 357/34/1 358/38/1 359/36/1 360/30/1

