# Tiled2Unity generated file. Do not modify by hand.
# Wavefront file for 'startmap_mesh_0003.obj'

# Vertices (Count = 172)
v -10 -11 0
v -11 -11 0
v -11 -10 0
v -10 -10 0
v -9 -11 0
v -10 -11 0
v -10 -10 0
v -9 -10 0
v -8 -11 0
v -9 -11 0
v -9 -10 0
v -8 -10 0
v -7 -11 0
v -8 -11 0
v -8 -10 0
v -7 -10 0
v -6 -11 0
v -7 -11 0
v -7 -10 0
v -6 -10 0
v -5 -11 0
v -6 -11 0
v -6 -10 0
v -5 -10 0
v -4 -11 0
v -5 -11 0
v -5 -10 0
v -4 -10 0
v -3 -11 0
v -4 -11 0
v -4 -10 0
v -3 -10 0
v -2 -11 0
v -3 -11 0
v -3 -10 0
v -2 -10 0
v -1 -11 0
v -2 -11 0
v -2 -10 0
v -1 -10 0
v 0 -11 0
v -1 -11 0
v -1 -10 0
v 0 -10 0
v -10 -10 0
v -11 -10 0
v -11 -9 0
v -10 -9 0
v -1 -10 0
v -2 -10 0
v -2 -9 0
v -1 -9 0
v 0 -10 0
v -1 -10 0
v -1 -9 0
v 0 -9 0
v -10 -9 0
v -11 -9 0
v -11 -8 0
v -10 -8 0
v 0 -9 0
v -1 -9 0
v -1 -8 0
v 0 -8 0
v -10 -8 0
v -11 -8 0
v -11 -7 0
v -10 -7 0
v 0 -8 0
v -1 -8 0
v -1 -7 0
v 0 -7 0
v -10 -7 0
v -11 -7 0
v -11 -6 0
v -10 -6 0
v 0 -7 0
v -1 -7 0
v -1 -6 0
v 0 -6 0
v -10 -6 0
v -11 -6 0
v -11 -5 0
v -10 -5 0
v 0 -6 0
v -1 -6 0
v -1 -5 0
v 0 -5 0
v -10 -5 0
v -11 -5 0
v -11 -4 0
v -10 -4 0
v 0 -5 0
v -1 -5 0
v -1 -4 0
v 0 -4 0
v -10 -4 0
v -11 -4 0
v -11 -3 0
v -10 -3 0
v 0 -4 0
v -1 -4 0
v -1 -3 0
v 0 -3 0
v -10 -3 0
v -11 -3 0
v -11 -2 0
v -10 -2 0
v 0 -3 0
v -1 -3 0
v -1 -2 0
v 0 -2 0
v -10 -2 0
v -11 -2 0
v -11 -1 0
v -10 -1 0
v -9 -2 0
v -10 -2 0
v -10 -1 0
v -9 -1 0
v -1 -2 0
v -2 -2 0
v -2 -1 0
v -1 -1 0
v 0 -2 0
v -1 -2 0
v -1 -1 0
v 0 -1 0
v -10 -1 0
v -11 -1 0
v -11 0 0
v -10 0 0
v -9 -1 0
v -10 -1 0
v -10 0 0
v -9 0 0
v -8 -1 0
v -9 -1 0
v -9 0 0
v -8 0 0
v -7 -1 0
v -8 -1 0
v -8 0 0
v -7 0 0
v -6 -1 0
v -7 -1 0
v -7 0 0
v -6 0 0
v -5 -1 0
v -6 -1 0
v -6 0 0
v -5 0 0
v -4 -1 0
v -5 -1 0
v -5 0 0
v -4 0 0
v -3 -1 0
v -4 -1 0
v -4 0 0
v -3 0 0
v -2 -1 0
v -3 -1 0
v -3 0 0
v -2 0 0
v -1 -1 0
v -2 -1 0
v -2 0 0
v -1 0 0
v 0 -1 0
v -1 -1 0
v -1 0 0
v 0 0 0

# Texture cooridinates (Count = 28)
vt 0 0.5
vt 0.05 0.5
vt 0.05 0.5416667
vt 0 0.5416667
vt 0.15 0.5416667
vt 0.2 0.5416667
vt 0.2 0.5833333
vt 0.15 0.5833333
vt 0.1 0.5416667
vt 0.1 0.5833333
vt 0.05 0.5833333
vt 0 0.5833333
vt 0.35 0.2916667
vt 0.4 0.2916667
vt 0.4 0.3333333
vt 0.35 0.3333333
vt 0.4 0.2083333
vt 0.45 0.2083333
vt 0.45 0.25
vt 0.4 0.25
vt 0.1 0.625
vt 0.05 0.625
vt 0 0.625
vt 0.05 0.6666667
vt 0 0.6666667
vt 0.15 0.625
vt 0.15 0.6666667
vt 0.1 0.6666667

# Normal
vn 0 0 -1

# Mesh description
g startmap_mesh_0003

# Faces
f 1/1/1 2/2/1 3/3/1 4/4/1
f 5/5/1 6/6/1 7/7/1 8/8/1
f 9/9/1 10/5/1 11/8/1 12/10/1
f 13/3/1 14/9/1 15/10/1 16/11/1
f 17/3/1 18/9/1 19/10/1 20/11/1
f 21/9/1 22/5/1 23/8/1 24/10/1
f 25/3/1 26/9/1 27/10/1 28/11/1
f 29/5/1 30/6/1 31/7/1 32/8/1
f 33/9/1 34/5/1 35/8/1 36/10/1
f 37/3/1 38/9/1 39/10/1 40/11/1
f 41/1/1 42/2/1 43/3/1 44/4/1
f 45/4/1 46/3/1 47/11/1 48/12/1
f 49/13/1 50/14/1 51/15/1 52/16/1
f 53/4/1 54/3/1 55/11/1 56/12/1
f 57/4/1 58/3/1 59/11/1 60/12/1
f 61/4/1 62/3/1 63/11/1 64/12/1
f 65/4/1 66/3/1 67/11/1 68/12/1
f 69/4/1 70/3/1 71/11/1 72/12/1
f 73/4/1 74/3/1 75/11/1 76/12/1
f 77/4/1 78/3/1 79/11/1 80/12/1
f 81/4/1 82/3/1 83/11/1 84/12/1
f 85/4/1 86/3/1 87/11/1 88/12/1
f 89/4/1 90/3/1 91/11/1 92/12/1
f 93/4/1 94/3/1 95/11/1 96/12/1
f 97/4/1 98/3/1 99/11/1 100/12/1
f 101/4/1 102/3/1 103/11/1 104/12/1
f 105/4/1 106/3/1 107/11/1 108/12/1
f 109/4/1 110/3/1 111/11/1 112/12/1
f 113/4/1 114/3/1 115/11/1 116/12/1
f 117/17/1 118/18/1 119/19/1 120/20/1
f 121/17/1 122/18/1 123/19/1 124/20/1
f 125/4/1 126/3/1 127/11/1 128/12/1
f 129/11/1 130/10/1 131/21/1 132/22/1
f 133/23/1 134/22/1 135/24/1 136/25/1
f 137/21/1 138/26/1 139/27/1 140/28/1
f 141/22/1 142/21/1 143/28/1 144/24/1
f 145/21/1 146/26/1 147/27/1 148/28/1
f 149/22/1 150/21/1 151/28/1 152/24/1
f 153/21/1 154/26/1 155/27/1 156/28/1
f 157/22/1 158/21/1 159/28/1 160/24/1
f 161/21/1 162/26/1 163/27/1 164/28/1
f 165/22/1 166/21/1 167/28/1 168/24/1
f 169/12/1 170/11/1 171/22/1 172/23/1

