# Tiled2Unity generated file. Do not modify by hand.
# Wavefront file for 'startmap_mesh_0006.obj'

# Vertices (Count = 12)
v -1 -6 0
v -2 -6 0
v -2 -5 0
v -1 -5 0
v -1 -5 0
v -2 -5 0
v -2 -4 0
v -1 -4 0
v -1 -4 0
v -2 -4 0
v -2 -3 0
v -1 -3 0

# Texture cooridinates (Count = 10)
vt 0.6875 0.375
vt 0.75 0.375
vt 0.75 0.4375
vt 0.6875 0.4375
vt 0.75 0.5
vt 0.6875 0.5
vt 0.8125 0.5625
vt 0.875 0.5625
vt 0.875 0.625
vt 0.8125 0.625

# Normal
vn 0 0 -1

# Mesh description
g startmap_mesh_0006

# Faces
f 1/1/1 2/2/1 3/3/1 4/4/1
f 5/4/1 6/3/1 7/5/1 8/6/1
f 9/7/1 10/8/1 11/9/1 12/10/1

