# Tiled2Unity generated file. Do not modify by hand.
# Wavefront file for 'mapas_12_mesh_0003.obj'

# Vertices (Count = 620)
v -2 -1 0
v -3 -1 0
v -3 0 0
v -2 0 0
v -3 -1 0
v -4 -1 0
v -4 0 0
v -3 0 0
v -10 -1 0
v -11 -1 0
v -11 0 0
v -10 0 0
v -11 -1 0
v -12 -1 0
v -12 0 0
v -11 0 0
v -20 -1 0
v -21 -1 0
v -21 0 0
v -20 0 0
v -21 -1 0
v -22 -1 0
v -22 0 0
v -21 0 0
v -26 -1 0
v -27 -1 0
v -27 0 0
v -26 0 0
v -27 -1 0
v -28 -1 0
v -28 0 0
v -27 0 0
v -32 -1 0
v -33 -1 0
v -33 0 0
v -32 0 0
v -33 -1 0
v -34 -1 0
v -34 0 0
v -33 0 0
v -2 -2 0
v -3 -2 0
v -3 -1 0
v -2 -1 0
v -3 -2 0
v -4 -2 0
v -4 -1 0
v -3 -1 0
v -10 -2 0
v -11 -2 0
v -11 -1 0
v -10 -1 0
v -11 -2 0
v -12 -2 0
v -12 -1 0
v -11 -1 0
v -20 -2 0
v -21 -2 0
v -21 -1 0
v -20 -1 0
v -21 -2 0
v -22 -2 0
v -22 -1 0
v -21 -1 0
v -26 -2 0
v -27 -2 0
v -27 -1 0
v -26 -1 0
v -27 -2 0
v -28 -2 0
v -28 -1 0
v -27 -1 0
v -32 -2 0
v -33 -2 0
v -33 -1 0
v -32 -1 0
v -33 -2 0
v -34 -2 0
v -34 -1 0
v -33 -1 0
v -3 -3 0
v -4 -3 0
v -4 -2 0
v -3 -2 0
v -4 -3 0
v -5 -3 0
v -5 -2 0
v -4 -2 0
v -7 -3 0
v -8 -3 0
v -8 -2 0
v -7 -2 0
v -8 -3 0
v -9 -3 0
v -9 -2 0
v -8 -2 0
v -9 -3 0
v -10 -3 0
v -10 -2 0
v -9 -2 0
v -13 -3 0
v -14 -3 0
v -14 -2 0
v -13 -2 0
v -14 -3 0
v -15 -3 0
v -15 -2 0
v -14 -2 0
v -18 -3 0
v -19 -3 0
v -19 -2 0
v -18 -2 0
v -19 -3 0
v -20 -3 0
v -20 -2 0
v -19 -2 0
v -23 -3 0
v -24 -3 0
v -24 -2 0
v -23 -2 0
v -24 -3 0
v -25 -3 0
v -25 -2 0
v -24 -2 0
v -28 -3 0
v -29 -3 0
v -29 -2 0
v -28 -2 0
v -29 -3 0
v -30 -3 0
v -30 -2 0
v -29 -2 0
v -2 -4 0
v -3 -4 0
v -3 -3 0
v -2 -3 0
v -3 -4 0
v -4 -4 0
v -4 -3 0
v -3 -3 0
v -4 -4 0
v -5 -4 0
v -5 -3 0
v -4 -3 0
v -7 -4 0
v -8 -4 0
v -8 -3 0
v -7 -3 0
v -8 -4 0
v -9 -4 0
v -9 -3 0
v -8 -3 0
v -9 -4 0
v -10 -4 0
v -10 -3 0
v -9 -3 0
v -12 -4 0
v -13 -4 0
v -13 -3 0
v -12 -3 0
v -13 -4 0
v -14 -4 0
v -14 -3 0
v -13 -3 0
v -14 -4 0
v -15 -4 0
v -15 -3 0
v -14 -3 0
v -17 -4 0
v -18 -4 0
v -18 -3 0
v -17 -3 0
v -18 -4 0
v -19 -4 0
v -19 -3 0
v -18 -3 0
v -19 -4 0
v -20 -4 0
v -20 -3 0
v -19 -3 0
v -22 -4 0
v -23 -4 0
v -23 -3 0
v -22 -3 0
v -23 -4 0
v -24 -4 0
v -24 -3 0
v -23 -3 0
v -24 -4 0
v -25 -4 0
v -25 -3 0
v -24 -3 0
v -28 -4 0
v -29 -4 0
v -29 -3 0
v -28 -3 0
v -29 -4 0
v -30 -4 0
v -30 -3 0
v -29 -3 0
v -3 -5 0
v -4 -5 0
v -4 -4 0
v -3 -4 0
v -4 -5 0
v -5 -5 0
v -5 -4 0
v -4 -4 0
v -7 -5 0
v -8 -5 0
v -8 -4 0
v -7 -4 0
v -8 -5 0
v -9 -5 0
v -9 -4 0
v -8 -4 0
v -9 -5 0
v -10 -5 0
v -10 -4 0
v -9 -4 0
v -13 -5 0
v -14 -5 0
v -14 -4 0
v -13 -4 0
v -14 -5 0
v -15 -5 0
v -15 -4 0
v -14 -4 0
v -17 -5 0
v -18 -5 0
v -18 -4 0
v -17 -4 0
v -18 -5 0
v -19 -5 0
v -19 -4 0
v -18 -4 0
v -19 -5 0
v -20 -5 0
v -20 -4 0
v -19 -4 0
v -20 -5 0
v -21 -5 0
v -21 -4 0
v -20 -4 0
v -23 -5 0
v -24 -5 0
v -24 -4 0
v -23 -4 0
v -24 -5 0
v -25 -5 0
v -25 -4 0
v -24 -4 0
v -27 -5 0
v -28 -5 0
v -28 -4 0
v -27 -4 0
v -28 -5 0
v -29 -5 0
v -29 -4 0
v -28 -4 0
v -29 -5 0
v -30 -5 0
v -30 -4 0
v -29 -4 0
v -30 -5 0
v -31 -5 0
v -31 -4 0
v -30 -4 0
v -3 -6 0
v -4 -6 0
v -4 -5 0
v -3 -5 0
v -4 -6 0
v -5 -6 0
v -5 -5 0
v -4 -5 0
v -5 -6 0
v -6 -6 0
v -6 -5 0
v -5 -5 0
v -8 -6 0
v -9 -6 0
v -9 -5 0
v -8 -5 0
v -9 -6 0
v -10 -6 0
v -10 -5 0
v -9 -5 0
v -10 -6 0
v -11 -6 0
v -11 -5 0
v -10 -5 0
v -12 -6 0
v -13 -6 0
v -13 -5 0
v -12 -5 0
v -13 -6 0
v -14 -6 0
v -14 -5 0
v -13 -5 0
v -14 -6 0
v -15 -6 0
v -15 -5 0
v -14 -5 0
v -18 -6 0
v -19 -6 0
v -19 -5 0
v -18 -5 0
v -19 -6 0
v -20 -6 0
v -20 -5 0
v -19 -5 0
v -22 -6 0
v -23 -6 0
v -23 -5 0
v -22 -5 0
v -23 -6 0
v -24 -6 0
v -24 -5 0
v -23 -5 0
v -24 -6 0
v -25 -6 0
v -25 -5 0
v -24 -5 0
v -25 -6 0
v -26 -6 0
v -26 -5 0
v -25 -5 0
v -28 -6 0
v -29 -6 0
v -29 -5 0
v -28 -5 0
v -29 -6 0
v -30 -6 0
v -30 -5 0
v -29 -5 0
v -28 -7 0
v -29 -7 0
v -29 -6 0
v -28 -6 0
v -29 -7 0
v -30 -7 0
v -30 -6 0
v -29 -6 0
v -2 -8 0
v -3 -8 0
v -3 -7 0
v -2 -7 0
v -3 -8 0
v -4 -8 0
v -4 -7 0
v -3 -7 0
v -31 -8 0
v -32 -8 0
v -32 -7 0
v -31 -7 0
v -32 -8 0
v -33 -8 0
v -33 -7 0
v -32 -7 0
v -2 -9 0
v -3 -9 0
v -3 -8 0
v -2 -8 0
v -3 -9 0
v -4 -9 0
v -4 -8 0
v -3 -8 0
v -31 -9 0
v -32 -9 0
v -32 -8 0
v -31 -8 0
v -32 -9 0
v -33 -9 0
v -33 -8 0
v -32 -8 0
v -1 -14 0
v -2 -14 0
v -2 -13 0
v -1 -13 0
v -33 -14 0
v -34 -14 0
v -34 -13 0
v -33 -13 0
v -12 -16 0
v -13 -16 0
v -13 -15 0
v -12 -15 0
v -27 -16 0
v -28 -16 0
v -28 -15 0
v -27 -15 0
v -4 -17 0
v -5 -17 0
v -5 -16 0
v -4 -16 0
v -5 -17 0
v -6 -17 0
v -6 -16 0
v -5 -16 0
v -6 -17 0
v -7 -17 0
v -7 -16 0
v -6 -16 0
v -11 -17 0
v -12 -17 0
v -12 -16 0
v -11 -16 0
v -12 -17 0
v -13 -17 0
v -13 -16 0
v -12 -16 0
v -17 -17 0
v -18 -17 0
v -18 -16 0
v -17 -16 0
v -18 -17 0
v -19 -17 0
v -19 -16 0
v -18 -16 0
v -22 -17 0
v -23 -17 0
v -23 -16 0
v -22 -16 0
v -23 -17 0
v -24 -17 0
v -24 -16 0
v -23 -16 0
v -27 -17 0
v -28 -17 0
v -28 -16 0
v -27 -16 0
v -28 -17 0
v -29 -17 0
v -29 -16 0
v -28 -16 0
v -5 -18 0
v -6 -18 0
v -6 -17 0
v -5 -17 0
v -6 -18 0
v -7 -18 0
v -7 -17 0
v -6 -17 0
v -8 -18 0
v -9 -18 0
v -9 -17 0
v -8 -17 0
v -10 -18 0
v -11 -18 0
v -11 -17 0
v -10 -17 0
v -11 -18 0
v -12 -18 0
v -12 -17 0
v -11 -17 0
v -12 -18 0
v -13 -18 0
v -13 -17 0
v -12 -17 0
v -13 -18 0
v -14 -18 0
v -14 -17 0
v -13 -17 0
v -16 -18 0
v -17 -18 0
v -17 -17 0
v -16 -17 0
v -17 -18 0
v -18 -18 0
v -18 -17 0
v -17 -17 0
v -18 -18 0
v -19 -18 0
v -19 -17 0
v -18 -17 0
v -21 -18 0
v -22 -18 0
v -22 -17 0
v -21 -17 0
v -22 -18 0
v -23 -18 0
v -23 -17 0
v -22 -17 0
v -23 -18 0
v -24 -18 0
v -24 -17 0
v -23 -17 0
v -27 -18 0
v -28 -18 0
v -28 -17 0
v -27 -17 0
v -28 -18 0
v -29 -18 0
v -29 -17 0
v -28 -17 0
v -29 -18 0
v -30 -18 0
v -30 -17 0
v -29 -17 0
v -5 -19 0
v -6 -19 0
v -6 -18 0
v -5 -18 0
v -6 -19 0
v -7 -19 0
v -7 -18 0
v -6 -18 0
v -11 -19 0
v -12 -19 0
v -12 -18 0
v -11 -18 0
v -12 -19 0
v -13 -19 0
v -13 -18 0
v -12 -18 0
v -17 -19 0
v -18 -19 0
v -18 -18 0
v -17 -18 0
v -18 -19 0
v -19 -19 0
v -19 -18 0
v -18 -18 0
v -22 -19 0
v -23 -19 0
v -23 -18 0
v -22 -18 0
v -23 -19 0
v -24 -19 0
v -24 -18 0
v -23 -18 0
v -26 -19 0
v -27 -19 0
v -27 -18 0
v -26 -18 0
v -27 -19 0
v -28 -19 0
v -28 -18 0
v -27 -18 0
v -28 -19 0
v -29 -19 0
v -29 -18 0
v -28 -18 0
v -29 -19 0
v -30 -19 0
v -30 -18 0
v -29 -18 0
v -4 -20 0
v -5 -20 0
v -5 -19 0
v -4 -19 0
v -5 -20 0
v -6 -20 0
v -6 -19 0
v -5 -19 0
v -6 -20 0
v -7 -20 0
v -7 -19 0
v -6 -19 0
v -7 -20 0
v -8 -20 0
v -8 -19 0
v -7 -19 0
v -11 -20 0
v -12 -20 0
v -12 -19 0
v -11 -19 0
v -12 -20 0
v -13 -20 0
v -13 -19 0
v -12 -19 0
v -13 -20 0
v -14 -20 0
v -14 -19 0
v -13 -19 0
v -16 -20 0
v -17 -20 0
v -17 -19 0
v -16 -19 0
v -17 -20 0
v -18 -20 0
v -18 -19 0
v -17 -19 0
v -18 -20 0
v -19 -20 0
v -19 -19 0
v -18 -19 0
v -19 -20 0
v -20 -20 0
v -20 -19 0
v -19 -19 0
v -22 -20 0
v -23 -20 0
v -23 -19 0
v -22 -19 0
v -23 -20 0
v -24 -20 0
v -24 -19 0
v -23 -19 0
v -24 -20 0
v -25 -20 0
v -25 -19 0
v -24 -19 0
v -26 -20 0
v -27 -20 0
v -27 -19 0
v -26 -19 0
v -27 -20 0
v -28 -20 0
v -28 -19 0
v -27 -19 0
v -28 -20 0
v -29 -20 0
v -29 -19 0
v -28 -19 0
v -11 -21 0
v -12 -21 0
v -12 -20 0
v -11 -20 0

# Texture cooridinates (Count = 40)
vt 0.75 0.375
vt 0.8 0.375
vt 0.8 0.4166667
vt 0.75 0.4166667
vt 0.85 0.375
vt 0.85 0.4166667
vt 0.9 0.375
vt 0.9 0.4166667
vt 0.95 0.375
vt 0.95 0.4166667
vt 0.65 0.375
vt 0.7 0.375
vt 0.7 0.4166667
vt 0.65 0.4166667
vt 0.75 0.3333333
vt 0.8 0.3333333
vt 0.85 0.3333333
vt 0.9 0.3333333
vt 0.95 0.3333333
vt 0.65 0.3333333
vt 0.7 0.3333333
vt 0.55 0.3333333
vt 0.6 0.3333333
vt 0.6 0.375
vt 0.55 0.375
vt 0.65 0.2083333
vt 0.7 0.2083333
vt 0.7 0.25
vt 0.65 0.25
vt 0.55 0.2916667
vt 0.6 0.2916667
vt 0.65 0.2916667
vt 0.55 0.25
vt 0.6 0.25
vt 0.55 0.2083333
vt 0.6 0.2083333
vt 0.45 0.2083333
vt 0.5 0.2083333
vt 0.5 0.25
vt 0.45 0.25

# Normal
vn 0 0 -1

# Mesh description
g mapas_12_mesh_0003

# Faces
f 1/1/1 2/2/1 3/3/1 4/4/1
f 5/2/1 6/5/1 7/6/1 8/3/1
f 9/5/1 10/7/1 11/8/1 12/6/1
f 13/7/1 14/9/1 15/10/1 16/8/1
f 17/5/1 18/7/1 19/8/1 20/6/1
f 21/7/1 22/9/1 23/10/1 24/8/1
f 25/11/1 26/12/1 27/13/1 28/14/1
f 29/12/1 30/1/1 31/4/1 32/13/1
f 33/1/1 34/2/1 35/3/1 36/4/1
f 37/2/1 38/5/1 39/6/1 40/3/1
f 41/15/1 42/16/1 43/2/1 44/1/1
f 45/16/1 46/17/1 47/5/1 48/2/1
f 49/17/1 50/18/1 51/7/1 52/5/1
f 53/18/1 54/19/1 55/9/1 56/7/1
f 57/17/1 58/18/1 59/7/1 60/5/1
f 61/18/1 62/19/1 63/9/1 64/7/1
f 65/20/1 66/21/1 67/12/1 68/11/1
f 69/21/1 70/15/1 71/1/1 72/12/1
f 73/15/1 74/16/1 75/2/1 76/1/1
f 77/16/1 78/17/1 79/5/1 80/2/1
f 81/22/1 82/23/1 83/24/1 84/25/1
f 85/23/1 86/20/1 87/11/1 88/24/1
f 89/26/1 90/27/1 91/28/1 92/29/1
f 93/22/1 94/23/1 95/24/1 96/25/1
f 97/23/1 98/20/1 99/11/1 100/24/1
f 101/22/1 102/23/1 103/24/1 104/25/1
f 105/23/1 106/20/1 107/11/1 108/24/1
f 109/22/1 110/23/1 111/24/1 112/25/1
f 113/23/1 114/20/1 115/11/1 116/24/1
f 117/22/1 118/23/1 119/24/1 120/25/1
f 121/23/1 122/20/1 123/11/1 124/24/1
f 125/22/1 126/23/1 127/24/1 128/25/1
f 129/23/1 130/20/1 131/11/1 132/24/1
f 133/26/1 134/27/1 135/28/1 136/29/1
f 137/30/1 138/31/1 139/23/1 140/22/1
f 141/31/1 142/32/1 143/20/1 144/23/1
f 145/26/1 146/27/1 147/28/1 148/29/1
f 149/30/1 150/31/1 151/23/1 152/22/1
f 153/31/1 154/32/1 155/20/1 156/23/1
f 157/26/1 158/27/1 159/28/1 160/29/1
f 161/30/1 162/31/1 163/23/1 164/22/1
f 165/31/1 166/32/1 167/20/1 168/23/1
f 169/26/1 170/27/1 171/28/1 172/29/1
f 173/30/1 174/31/1 175/23/1 176/22/1
f 177/31/1 178/32/1 179/20/1 180/23/1
f 181/26/1 182/27/1 183/28/1 184/29/1
f 185/30/1 186/31/1 187/23/1 188/22/1
f 189/31/1 190/32/1 191/20/1 192/23/1
f 193/30/1 194/31/1 195/23/1 196/22/1
f 197/31/1 198/32/1 199/20/1 200/23/1
f 201/33/1 202/34/1 203/31/1 204/30/1
f 205/34/1 206/29/1 207/32/1 208/31/1
f 209/26/1 210/27/1 211/28/1 212/29/1
f 213/33/1 214/34/1 215/31/1 216/30/1
f 217/34/1 218/29/1 219/32/1 220/31/1
f 221/33/1 222/34/1 223/31/1 224/30/1
f 225/34/1 226/29/1 227/32/1 228/31/1
f 229/26/1 230/27/1 231/28/1 232/29/1
f 233/33/1 234/34/1 235/31/1 236/30/1
f 237/34/1 238/29/1 239/32/1 240/31/1
f 241/26/1 242/27/1 243/28/1 244/29/1
f 245/33/1 246/34/1 247/31/1 248/30/1
f 249/34/1 250/29/1 251/32/1 252/31/1
f 253/26/1 254/27/1 255/28/1 256/29/1
f 257/33/1 258/34/1 259/31/1 260/30/1
f 261/34/1 262/29/1 263/32/1 264/31/1
f 265/26/1 266/27/1 267/28/1 268/29/1
f 269/35/1 270/36/1 271/34/1 272/33/1
f 273/36/1 274/26/1 275/29/1 276/34/1
f 277/26/1 278/27/1 279/28/1 280/29/1
f 281/35/1 282/36/1 283/34/1 284/33/1
f 285/36/1 286/26/1 287/29/1 288/34/1
f 289/26/1 290/27/1 291/28/1 292/29/1
f 293/26/1 294/27/1 295/28/1 296/29/1
f 297/35/1 298/36/1 299/34/1 300/33/1
f 301/36/1 302/26/1 303/29/1 304/34/1
f 305/35/1 306/36/1 307/34/1 308/33/1
f 309/36/1 310/26/1 311/29/1 312/34/1
f 313/26/1 314/27/1 315/28/1 316/29/1
f 317/35/1 318/36/1 319/34/1 320/33/1
f 321/36/1 322/26/1 323/29/1 324/34/1
f 325/26/1 326/27/1 327/28/1 328/29/1
f 329/35/1 330/36/1 331/34/1 332/33/1
f 333/36/1 334/26/1 335/29/1 336/34/1
f 337/26/1 338/27/1 339/28/1 340/29/1
f 341/26/1 342/27/1 343/28/1 344/29/1
f 345/1/1 346/2/1 347/3/1 348/4/1
f 349/2/1 350/5/1 351/6/1 352/3/1
f 353/1/1 354/2/1 355/3/1 356/4/1
f 357/2/1 358/5/1 359/6/1 360/3/1
f 361/15/1 362/16/1 363/2/1 364/1/1
f 365/16/1 366/17/1 367/5/1 368/2/1
f 369/15/1 370/16/1 371/2/1 372/1/1
f 373/16/1 374/17/1 375/5/1 376/2/1
f 377/37/1 378/38/1 379/39/1 380/40/1
f 381/37/1 382/38/1 383/39/1 384/40/1
f 385/26/1 386/27/1 387/28/1 388/29/1
f 389/26/1 390/27/1 391/28/1 392/29/1
f 393/26/1 394/27/1 395/28/1 396/29/1
f 397/22/1 398/23/1 399/24/1 400/25/1
f 401/23/1 402/20/1 403/11/1 404/24/1
f 405/22/1 406/23/1 407/24/1 408/25/1
f 409/23/1 410/20/1 411/11/1 412/24/1
f 413/22/1 414/23/1 415/24/1 416/25/1
f 417/23/1 418/20/1 419/11/1 420/24/1
f 421/22/1 422/23/1 423/24/1 424/25/1
f 425/23/1 426/20/1 427/11/1 428/24/1
f 429/22/1 430/23/1 431/24/1 432/25/1
f 433/23/1 434/20/1 435/11/1 436/24/1
f 437/30/1 438/31/1 439/23/1 440/22/1
f 441/31/1 442/32/1 443/20/1 444/23/1
f 445/26/1 446/27/1 447/28/1 448/29/1
f 449/26/1 450/27/1 451/28/1 452/29/1
f 453/30/1 454/31/1 455/23/1 456/22/1
f 457/31/1 458/32/1 459/20/1 460/23/1
f 461/26/1 462/27/1 463/28/1 464/29/1
f 465/26/1 466/27/1 467/28/1 468/29/1
f 469/30/1 470/31/1 471/23/1 472/22/1
f 473/31/1 474/32/1 475/20/1 476/23/1
f 477/26/1 478/27/1 479/28/1 480/29/1
f 481/30/1 482/31/1 483/23/1 484/22/1
f 485/31/1 486/32/1 487/20/1 488/23/1
f 489/30/1 490/31/1 491/23/1 492/22/1
f 493/31/1 494/32/1 495/20/1 496/23/1
f 497/26/1 498/27/1 499/28/1 500/29/1
f 501/33/1 502/34/1 503/31/1 504/30/1
f 505/34/1 506/29/1 507/32/1 508/31/1
f 509/33/1 510/34/1 511/31/1 512/30/1
f 513/34/1 514/29/1 515/32/1 516/31/1
f 517/33/1 518/34/1 519/31/1 520/30/1
f 521/34/1 522/29/1 523/32/1 524/31/1
f 525/33/1 526/34/1 527/31/1 528/30/1
f 529/34/1 530/29/1 531/32/1 532/31/1
f 533/26/1 534/27/1 535/28/1 536/29/1
f 537/33/1 538/34/1 539/31/1 540/30/1
f 541/34/1 542/29/1 543/32/1 544/31/1
f 545/26/1 546/27/1 547/28/1 548/29/1
f 549/26/1 550/27/1 551/28/1 552/29/1
f 553/35/1 554/36/1 555/34/1 556/33/1
f 557/36/1 558/26/1 559/29/1 560/34/1
f 561/26/1 562/27/1 563/28/1 564/29/1
f 565/35/1 566/36/1 567/34/1 568/33/1
f 569/36/1 570/26/1 571/29/1 572/34/1
f 573/26/1 574/27/1 575/28/1 576/29/1
f 577/26/1 578/27/1 579/28/1 580/29/1
f 581/35/1 582/36/1 583/34/1 584/33/1
f 585/36/1 586/26/1 587/29/1 588/34/1
f 589/26/1 590/27/1 591/28/1 592/29/1
f 593/35/1 594/36/1 595/34/1 596/33/1
f 597/36/1 598/26/1 599/29/1 600/34/1
f 601/26/1 602/27/1 603/28/1 604/29/1
f 605/26/1 606/27/1 607/28/1 608/29/1
f 609/35/1 610/36/1 611/34/1 612/33/1
f 613/36/1 614/26/1 615/29/1 616/34/1
f 617/26/1 618/27/1 619/28/1 620/29/1

