# Tiled2Unity generated file. Do not modify by hand.
# Wavefront file for 'mapas_12_mesh_0002.obj'

# Vertices (Count = 588)
v 0 -1 0
v -1 -1 0
v -1 0 0
v 0 0 0
v -1 -1 0
v -2 -1 0
v -2 0 0
v -1 0 0
v -2 -1 0
v -3 -1 0
v -3 0 0
v -2 0 0
v -3 -1 0
v -4 -1 0
v -4 0 0
v -3 0 0
v -4 -1 0
v -5 -1 0
v -5 0 0
v -4 0 0
v -5 -1 0
v -6 -1 0
v -6 0 0
v -5 0 0
v -6 -1 0
v -7 -1 0
v -7 0 0
v -6 0 0
v -7 -1 0
v -8 -1 0
v -8 0 0
v -7 0 0
v -8 -1 0
v -9 -1 0
v -9 0 0
v -8 0 0
v -9 -1 0
v -10 -1 0
v -10 0 0
v -9 0 0
v -10 -1 0
v -11 -1 0
v -11 0 0
v -10 0 0
v -11 -1 0
v -12 -1 0
v -12 0 0
v -11 0 0
v -12 -1 0
v -13 -1 0
v -13 0 0
v -12 0 0
v -13 -1 0
v -14 -1 0
v -14 0 0
v -13 0 0
v -14 -1 0
v -15 -1 0
v -15 0 0
v -14 0 0
v -15 -1 0
v -16 -1 0
v -16 0 0
v -15 0 0
v -16 -1 0
v -17 -1 0
v -17 0 0
v -16 0 0
v -17 -1 0
v -18 -1 0
v -18 0 0
v -17 0 0
v -18 -1 0
v -19 -1 0
v -19 0 0
v -18 0 0
v -19 -1 0
v -20 -1 0
v -20 0 0
v -19 0 0
v -20 -1 0
v -21 -1 0
v -21 0 0
v -20 0 0
v -21 -1 0
v -22 -1 0
v -22 0 0
v -21 0 0
v -22 -1 0
v -23 -1 0
v -23 0 0
v -22 0 0
v -23 -1 0
v -24 -1 0
v -24 0 0
v -23 0 0
v -24 -1 0
v -25 -1 0
v -25 0 0
v -24 0 0
v -25 -1 0
v -26 -1 0
v -26 0 0
v -25 0 0
v -26 -1 0
v -27 -1 0
v -27 0 0
v -26 0 0
v -27 -1 0
v -28 -1 0
v -28 0 0
v -27 0 0
v -28 -1 0
v -29 -1 0
v -29 0 0
v -28 0 0
v -29 -1 0
v -30 -1 0
v -30 0 0
v -29 0 0
v -30 -1 0
v -31 -1 0
v -31 0 0
v -30 0 0
v -31 -1 0
v -32 -1 0
v -32 0 0
v -31 0 0
v -32 -1 0
v -33 -1 0
v -33 0 0
v -32 0 0
v -33 -1 0
v -34 -1 0
v -34 0 0
v -33 0 0
v -34 -1 0
v -35 -1 0
v -35 0 0
v -34 0 0
v 0 -2 0
v -1 -2 0
v -1 -1 0
v 0 -1 0
v -34 -2 0
v -35 -2 0
v -35 -1 0
v -34 -1 0
v 0 -3 0
v -1 -3 0
v -1 -2 0
v 0 -2 0
v -34 -3 0
v -35 -3 0
v -35 -2 0
v -34 -2 0
v 0 -4 0
v -1 -4 0
v -1 -3 0
v 0 -3 0
v -34 -4 0
v -35 -4 0
v -35 -3 0
v -34 -3 0
v 0 -5 0
v -1 -5 0
v -1 -4 0
v 0 -4 0
v -34 -5 0
v -35 -5 0
v -35 -4 0
v -34 -4 0
v 0 -6 0
v -1 -6 0
v -1 -5 0
v 0 -5 0
v -34 -6 0
v -35 -6 0
v -35 -5 0
v -34 -5 0
v 0 -7 0
v -1 -7 0
v -1 -6 0
v 0 -6 0
v -34 -7 0
v -35 -7 0
v -35 -6 0
v -34 -6 0
v 0 -8 0
v -1 -8 0
v -1 -7 0
v 0 -7 0
v -1 -8 0
v -2 -8 0
v -2 -7 0
v -1 -7 0
v -2 -8 0
v -3 -8 0
v -3 -7 0
v -2 -7 0
v -3 -8 0
v -4 -8 0
v -4 -7 0
v -3 -7 0
v -4 -8 0
v -5 -8 0
v -5 -7 0
v -4 -7 0
v -5 -8 0
v -6 -8 0
v -6 -7 0
v -5 -7 0
v -6 -8 0
v -7 -8 0
v -7 -7 0
v -6 -7 0
v -7 -8 0
v -8 -8 0
v -8 -7 0
v -7 -7 0
v -8 -8 0
v -9 -8 0
v -9 -7 0
v -8 -7 0
v -9 -8 0
v -10 -8 0
v -10 -7 0
v -9 -7 0
v -10 -8 0
v -11 -8 0
v -11 -7 0
v -10 -7 0
v -11 -8 0
v -12 -8 0
v -12 -7 0
v -11 -7 0
v -12 -8 0
v -13 -8 0
v -13 -7 0
v -12 -7 0
v -13 -8 0
v -14 -8 0
v -14 -7 0
v -13 -7 0
v -14 -8 0
v -15 -8 0
v -15 -7 0
v -14 -7 0
v -15 -8 0
v -16 -8 0
v -16 -7 0
v -15 -7 0
v -16 -8 0
v -17 -8 0
v -17 -7 0
v -16 -7 0
v -17 -8 0
v -18 -8 0
v -18 -7 0
v -17 -7 0
v -18 -8 0
v -19 -8 0
v -19 -7 0
v -18 -7 0
v -19 -8 0
v -20 -8 0
v -20 -7 0
v -19 -7 0
v -20 -8 0
v -21 -8 0
v -21 -7 0
v -20 -7 0
v -21 -8 0
v -22 -8 0
v -22 -7 0
v -21 -7 0
v -22 -8 0
v -23 -8 0
v -23 -7 0
v -22 -7 0
v -23 -8 0
v -24 -8 0
v -24 -7 0
v -23 -7 0
v -24 -8 0
v -25 -8 0
v -25 -7 0
v -24 -7 0
v -25 -8 0
v -26 -8 0
v -26 -7 0
v -25 -7 0
v -26 -8 0
v -27 -8 0
v -27 -7 0
v -26 -7 0
v -27 -8 0
v -28 -8 0
v -28 -7 0
v -27 -7 0
v -28 -8 0
v -29 -8 0
v -29 -7 0
v -28 -7 0
v -29 -8 0
v -30 -8 0
v -30 -7 0
v -29 -7 0
v -30 -8 0
v -31 -8 0
v -31 -7 0
v -30 -7 0
v -31 -8 0
v -32 -8 0
v -32 -7 0
v -31 -7 0
v -32 -8 0
v -33 -8 0
v -33 -7 0
v -32 -7 0
v -33 -8 0
v -34 -8 0
v -34 -7 0
v -33 -7 0
v -34 -8 0
v -35 -8 0
v -35 -7 0
v -34 -7 0
v 0 -9 0
v -1 -9 0
v -1 -8 0
v 0 -8 0
v -34 -9 0
v -35 -9 0
v -35 -8 0
v -34 -8 0
v 0 -10 0
v -1 -10 0
v -1 -9 0
v 0 -9 0
v -34 -10 0
v -35 -10 0
v -35 -9 0
v -34 -9 0
v 0 -11 0
v -1 -11 0
v -1 -10 0
v 0 -10 0
v -34 -11 0
v -35 -11 0
v -35 -10 0
v -34 -10 0
v 0 -13 0
v -1 -13 0
v -1 -12 0
v 0 -12 0
v -34 -13 0
v -35 -13 0
v -35 -12 0
v -34 -12 0
v 0 -14 0
v -1 -14 0
v -1 -13 0
v 0 -13 0
v -34 -14 0
v -35 -14 0
v -35 -13 0
v -34 -13 0
v 0 -15 0
v -1 -15 0
v -1 -14 0
v 0 -14 0
v -4 -15 0
v -5 -15 0
v -5 -14 0
v -4 -14 0
v -7 -15 0
v -8 -15 0
v -8 -14 0
v -7 -14 0
v -26 -15 0
v -27 -15 0
v -27 -14 0
v -26 -14 0
v -29 -15 0
v -30 -15 0
v -30 -14 0
v -29 -14 0
v -34 -15 0
v -35 -15 0
v -35 -14 0
v -34 -14 0
v 0 -16 0
v -1 -16 0
v -1 -15 0
v 0 -15 0
v -34 -16 0
v -35 -16 0
v -35 -15 0
v -34 -15 0
v 0 -17 0
v -1 -17 0
v -1 -16 0
v 0 -16 0
v -34 -17 0
v -35 -17 0
v -35 -16 0
v -34 -16 0
v 0 -18 0
v -1 -18 0
v -1 -17 0
v 0 -17 0
v -34 -18 0
v -35 -18 0
v -35 -17 0
v -34 -17 0
v 0 -19 0
v -1 -19 0
v -1 -18 0
v 0 -18 0
v -34 -19 0
v -35 -19 0
v -35 -18 0
v -34 -18 0
v 0 -20 0
v -1 -20 0
v -1 -19 0
v 0 -19 0
v -34 -20 0
v -35 -20 0
v -35 -19 0
v -34 -19 0
v 0 -21 0
v -1 -21 0
v -1 -20 0
v 0 -20 0
v -34 -21 0
v -35 -21 0
v -35 -20 0
v -34 -20 0
v 0 -22 0
v -1 -22 0
v -1 -21 0
v 0 -21 0
v -34 -22 0
v -35 -22 0
v -35 -21 0
v -34 -21 0
v 0 -23 0
v -1 -23 0
v -1 -22 0
v 0 -22 0
v -1 -23 0
v -2 -23 0
v -2 -22 0
v -1 -22 0
v -2 -23 0
v -3 -23 0
v -3 -22 0
v -2 -22 0
v -3 -23 0
v -4 -23 0
v -4 -22 0
v -3 -22 0
v -4 -23 0
v -5 -23 0
v -5 -22 0
v -4 -22 0
v -5 -23 0
v -6 -23 0
v -6 -22 0
v -5 -22 0
v -6 -23 0
v -7 -23 0
v -7 -22 0
v -6 -22 0
v -7 -23 0
v -8 -23 0
v -8 -22 0
v -7 -22 0
v -8 -23 0
v -9 -23 0
v -9 -22 0
v -8 -22 0
v -9 -23 0
v -10 -23 0
v -10 -22 0
v -9 -22 0
v -10 -23 0
v -11 -23 0
v -11 -22 0
v -10 -22 0
v -11 -23 0
v -12 -23 0
v -12 -22 0
v -11 -22 0
v -12 -23 0
v -13 -23 0
v -13 -22 0
v -12 -22 0
v -13 -23 0
v -14 -23 0
v -14 -22 0
v -13 -22 0
v -14 -23 0
v -15 -23 0
v -15 -22 0
v -14 -22 0
v -15 -23 0
v -16 -23 0
v -16 -22 0
v -15 -22 0
v -16 -23 0
v -17 -23 0
v -17 -22 0
v -16 -22 0
v -17 -23 0
v -18 -23 0
v -18 -22 0
v -17 -22 0
v -18 -23 0
v -19 -23 0
v -19 -22 0
v -18 -22 0
v -19 -23 0
v -20 -23 0
v -20 -22 0
v -19 -22 0
v -20 -23 0
v -21 -23 0
v -21 -22 0
v -20 -22 0
v -21 -23 0
v -22 -23 0
v -22 -22 0
v -21 -22 0
v -22 -23 0
v -23 -23 0
v -23 -22 0
v -22 -22 0
v -23 -23 0
v -24 -23 0
v -24 -22 0
v -23 -22 0
v -24 -23 0
v -25 -23 0
v -25 -22 0
v -24 -22 0
v -25 -23 0
v -26 -23 0
v -26 -22 0
v -25 -22 0
v -26 -23 0
v -27 -23 0
v -27 -22 0
v -26 -22 0
v -27 -23 0
v -28 -23 0
v -28 -22 0
v -27 -22 0
v -28 -23 0
v -29 -23 0
v -29 -22 0
v -28 -22 0
v -29 -23 0
v -30 -23 0
v -30 -22 0
v -29 -22 0
v -30 -23 0
v -31 -23 0
v -31 -22 0
v -30 -22 0
v -31 -23 0
v -32 -23 0
v -32 -22 0
v -31 -22 0
v -32 -23 0
v -33 -23 0
v -33 -22 0
v -32 -22 0
v -33 -23 0
v -34 -23 0
v -34 -22 0
v -33 -22 0
v -34 -23 0
v -35 -23 0
v -35 -22 0
v -34 -22 0

# Texture cooridinates (Count = 24)
vt 0.25 0.5833333
vt 0.3 0.5833333
vt 0.3 0.625
vt 0.25 0.625
vt 0.25 0.5
vt 0.3 0.5
vt 0.3 0.5416667
vt 0.25 0.5416667
vt 0.5 0.5
vt 0.55 0.5
vt 0.55 0.5416667
vt 0.5 0.5416667
vt 0.6 0.5
vt 0.6 0.5416667
vt 0.55 0.5833333
vt 0.5 0.5833333
vt 0.6 0.5833333
vt 0.35 0.5416667
vt 0.35 0.5833333
vt 0.35 0.625
vt 0.45 0.2083333
vt 0.5 0.2083333
vt 0.5 0.25
vt 0.45 0.25

# Normal
vn 0 0 -1

# Mesh description
g mapas_12_mesh_0002

# Faces
f 1/1/1 2/2/1 3/3/1 4/4/1
f 5/5/1 6/6/1 7/7/1 8/8/1
f 9/5/1 10/6/1 11/7/1 12/8/1
f 13/5/1 14/6/1 15/7/1 16/8/1
f 17/5/1 18/6/1 19/7/1 20/8/1
f 21/5/1 22/6/1 23/7/1 24/8/1
f 25/5/1 26/6/1 27/7/1 28/8/1
f 29/5/1 30/6/1 31/7/1 32/8/1
f 33/5/1 34/6/1 35/7/1 36/8/1
f 37/5/1 38/6/1 39/7/1 40/8/1
f 41/5/1 42/6/1 43/7/1 44/8/1
f 45/5/1 46/6/1 47/7/1 48/8/1
f 49/5/1 50/6/1 51/7/1 52/8/1
f 53/5/1 54/6/1 55/7/1 56/8/1
f 57/5/1 58/6/1 59/7/1 60/8/1
f 61/5/1 62/6/1 63/7/1 64/8/1
f 65/5/1 66/6/1 67/7/1 68/8/1
f 69/5/1 70/6/1 71/7/1 72/8/1
f 73/5/1 74/6/1 75/7/1 76/8/1
f 77/5/1 78/6/1 79/7/1 80/8/1
f 81/5/1 82/6/1 83/7/1 84/8/1
f 85/5/1 86/6/1 87/7/1 88/8/1
f 89/5/1 90/6/1 91/7/1 92/8/1
f 93/5/1 94/6/1 95/7/1 96/8/1
f 97/5/1 98/6/1 99/7/1 100/8/1
f 101/5/1 102/6/1 103/7/1 104/8/1
f 105/5/1 106/6/1 107/7/1 108/8/1
f 109/5/1 110/6/1 111/7/1 112/8/1
f 113/5/1 114/6/1 115/7/1 116/8/1
f 117/5/1 118/6/1 119/7/1 120/8/1
f 121/5/1 122/6/1 123/7/1 124/8/1
f 125/5/1 126/6/1 127/7/1 128/8/1
f 129/5/1 130/6/1 131/7/1 132/8/1
f 133/5/1 134/6/1 135/7/1 136/8/1
f 137/1/1 138/2/1 139/3/1 140/4/1
f 141/8/1 142/7/1 143/2/1 144/1/1
f 145/8/1 146/7/1 147/2/1 148/1/1
f 149/8/1 150/7/1 151/2/1 152/1/1
f 153/8/1 154/7/1 155/2/1 156/1/1
f 157/8/1 158/7/1 159/2/1 160/1/1
f 161/8/1 162/7/1 163/2/1 164/1/1
f 165/8/1 166/7/1 167/2/1 168/1/1
f 169/8/1 170/7/1 171/2/1 172/1/1
f 173/8/1 174/7/1 175/2/1 176/1/1
f 177/8/1 178/7/1 179/2/1 180/1/1
f 181/8/1 182/7/1 183/2/1 184/1/1
f 185/8/1 186/7/1 187/2/1 188/1/1
f 189/8/1 190/7/1 191/2/1 192/1/1
f 193/9/1 194/10/1 195/11/1 196/12/1
f 197/10/1 198/13/1 199/14/1 200/11/1
f 201/10/1 202/13/1 203/14/1 204/11/1
f 205/12/1 206/11/1 207/15/1 208/16/1
f 209/11/1 210/14/1 211/17/1 212/15/1
f 213/11/1 214/14/1 215/17/1 216/15/1
f 217/11/1 218/14/1 219/17/1 220/15/1
f 221/11/1 222/14/1 223/17/1 224/15/1
f 225/11/1 226/14/1 227/17/1 228/15/1
f 229/11/1 230/14/1 231/17/1 232/15/1
f 233/11/1 234/14/1 235/17/1 236/15/1
f 237/11/1 238/14/1 239/17/1 240/15/1
f 241/11/1 242/14/1 243/17/1 244/15/1
f 245/11/1 246/14/1 247/17/1 248/15/1
f 249/11/1 250/14/1 251/17/1 252/15/1
f 253/11/1 254/14/1 255/17/1 256/15/1
f 257/11/1 258/14/1 259/17/1 260/15/1
f 261/11/1 262/14/1 263/17/1 264/15/1
f 265/11/1 266/14/1 267/17/1 268/15/1
f 269/11/1 270/14/1 271/17/1 272/15/1
f 273/11/1 274/14/1 275/17/1 276/15/1
f 277/11/1 278/14/1 279/17/1 280/15/1
f 281/11/1 282/14/1 283/17/1 284/15/1
f 285/11/1 286/14/1 287/17/1 288/15/1
f 289/11/1 290/14/1 291/17/1 292/15/1
f 293/11/1 294/14/1 295/17/1 296/15/1
f 297/11/1 298/14/1 299/17/1 300/15/1
f 301/11/1 302/14/1 303/17/1 304/15/1
f 305/11/1 306/14/1 307/17/1 308/15/1
f 309/9/1 310/10/1 311/11/1 312/12/1
f 313/10/1 314/13/1 315/14/1 316/11/1
f 317/10/1 318/13/1 319/14/1 320/11/1
f 321/12/1 322/11/1 323/15/1 324/16/1
f 325/8/1 326/7/1 327/2/1 328/1/1
f 329/8/1 330/7/1 331/2/1 332/1/1
f 333/8/1 334/7/1 335/2/1 336/1/1
f 337/8/1 338/7/1 339/2/1 340/1/1
f 341/8/1 342/7/1 343/2/1 344/1/1
f 345/7/1 346/18/1 347/19/1 348/2/1
f 349/7/1 350/18/1 351/19/1 352/2/1
f 353/2/1 354/19/1 355/20/1 356/3/1
f 357/2/1 358/19/1 359/20/1 360/3/1
f 361/8/1 362/7/1 363/2/1 364/1/1
f 365/8/1 366/7/1 367/2/1 368/1/1
f 369/8/1 370/7/1 371/2/1 372/1/1
f 373/21/1 374/22/1 375/23/1 376/24/1
f 377/21/1 378/22/1 379/23/1 380/24/1
f 381/21/1 382/22/1 383/23/1 384/24/1
f 385/21/1 386/22/1 387/23/1 388/24/1
f 389/8/1 390/7/1 391/2/1 392/1/1
f 393/8/1 394/7/1 395/2/1 396/1/1
f 397/8/1 398/7/1 399/2/1 400/1/1
f 401/8/1 402/7/1 403/2/1 404/1/1
f 405/8/1 406/7/1 407/2/1 408/1/1
f 409/8/1 410/7/1 411/2/1 412/1/1
f 413/8/1 414/7/1 415/2/1 416/1/1
f 417/8/1 418/7/1 419/2/1 420/1/1
f 421/8/1 422/7/1 423/2/1 424/1/1
f 425/8/1 426/7/1 427/2/1 428/1/1
f 429/8/1 430/7/1 431/2/1 432/1/1
f 433/8/1 434/7/1 435/2/1 436/1/1
f 437/8/1 438/7/1 439/2/1 440/1/1
f 441/8/1 442/7/1 443/2/1 444/1/1
f 445/8/1 446/7/1 447/2/1 448/1/1
f 449/5/1 450/6/1 451/7/1 452/8/1
f 453/5/1 454/6/1 455/7/1 456/8/1
f 457/5/1 458/6/1 459/7/1 460/8/1
f 461/5/1 462/6/1 463/7/1 464/8/1
f 465/5/1 466/6/1 467/7/1 468/8/1
f 469/5/1 470/6/1 471/7/1 472/8/1
f 473/5/1 474/6/1 475/7/1 476/8/1
f 477/5/1 478/6/1 479/7/1 480/8/1
f 481/5/1 482/6/1 483/7/1 484/8/1
f 485/5/1 486/6/1 487/7/1 488/8/1
f 489/5/1 490/6/1 491/7/1 492/8/1
f 493/5/1 494/6/1 495/7/1 496/8/1
f 497/5/1 498/6/1 499/7/1 500/8/1
f 501/5/1 502/6/1 503/7/1 504/8/1
f 505/5/1 506/6/1 507/7/1 508/8/1
f 509/5/1 510/6/1 511/7/1 512/8/1
f 513/5/1 514/6/1 515/7/1 516/8/1
f 517/5/1 518/6/1 519/7/1 520/8/1
f 521/5/1 522/6/1 523/7/1 524/8/1
f 525/5/1 526/6/1 527/7/1 528/8/1
f 529/5/1 530/6/1 531/7/1 532/8/1
f 533/5/1 534/6/1 535/7/1 536/8/1
f 537/5/1 538/6/1 539/7/1 540/8/1
f 541/5/1 542/6/1 543/7/1 544/8/1
f 545/5/1 546/6/1 547/7/1 548/8/1
f 549/5/1 550/6/1 551/7/1 552/8/1
f 553/5/1 554/6/1 555/7/1 556/8/1
f 557/5/1 558/6/1 559/7/1 560/8/1
f 561/5/1 562/6/1 563/7/1 564/8/1
f 565/5/1 566/6/1 567/7/1 568/8/1
f 569/5/1 570/6/1 571/7/1 572/8/1
f 573/5/1 574/6/1 575/7/1 576/8/1
f 577/5/1 578/6/1 579/7/1 580/8/1
f 581/5/1 582/6/1 583/7/1 584/8/1
f 585/5/1 586/6/1 587/7/1 588/8/1

