# Tiled2Unity generated file. Do not modify by hand.
# Wavefront file for 'mapas_13_mesh_0006.obj'

# Vertices (Count = 68)
v -14 -14 0
v -15 -14 0
v -15 -13 0
v -14 -13 0
v -15 -14 0
v -16 -14 0
v -16 -13 0
v -15 -13 0
v -12 -15 0
v -13 -15 0
v -13 -14 0
v -12 -14 0
v -13 -15 0
v -14 -15 0
v -14 -14 0
v -13 -14 0
v -14 -15 0
v -15 -15 0
v -15 -14 0
v -14 -14 0
v -15 -15 0
v -16 -15 0
v -16 -14 0
v -15 -14 0
v -10 -16 0
v -11 -16 0
v -11 -15 0
v -10 -15 0
v -11 -16 0
v -12 -16 0
v -12 -15 0
v -11 -15 0
v -12 -16 0
v -13 -16 0
v -13 -15 0
v -12 -15 0
v -15 -16 0
v -16 -16 0
v -16 -15 0
v -15 -15 0
v -16 -16 0
v -17 -16 0
v -17 -15 0
v -16 -15 0
v -17 -16 0
v -18 -16 0
v -18 -15 0
v -17 -15 0
v -12 -17 0
v -13 -17 0
v -13 -16 0
v -12 -16 0
v -15 -17 0
v -16 -17 0
v -16 -16 0
v -15 -16 0
v -13 -18 0
v -14 -18 0
v -14 -17 0
v -13 -17 0
v -14 -18 0
v -15 -18 0
v -15 -17 0
v -14 -17 0
v -15 -18 0
v -16 -18 0
v -16 -17 0
v -15 -17 0

# Texture cooridinates (Count = 24)
vt 0.7 0.9583333
vt 0.75 0.9583333
vt 0.75 1
vt 0.7 1
vt 0.8 0.9583333
vt 0.85 0.9583333
vt 0.85 1
vt 0.8 1
vt 0.9 0.9583333
vt 0.9 1
vt 0.8 0.9166667
vt 0.85 0.9166667
vt 0.25 0.625
vt 0.2 0.625
vt 0.2 0.6666667
vt 0.25 0.6666667
vt 0.25 0.5833333
vt 0.2 0.5833333
vt 0.7 0.9166667
vt 0.75 0.9166667
vt 0.7 0.875
vt 0.75 0.875
vt 0.8 0.875
vt 0.85 0.875

# Normal
vn 0 0 -1

# Mesh description
g mapas_13_mesh_0006

# Faces
f 1/1/1 2/2/1 3/3/1 4/4/1
f 5/5/1 6/6/1 7/7/1 8/8/1
f 9/1/1 10/2/1 11/3/1 12/4/1
f 13/2/1 14/5/1 15/8/1 16/3/1
f 17/6/1 18/9/1 19/10/1 20/7/1
f 21/11/1 22/12/1 23/6/1 24/5/1
f 25/13/1 26/14/1 27/15/1 28/16/1
f 29/17/1 30/18/1 31/14/1 32/13/1
f 33/19/1 34/20/1 35/2/1 36/1/1
f 37/11/1 38/12/1 39/6/1 40/5/1
f 41/18/1 42/17/1 43/13/1 44/14/1
f 45/14/1 46/13/1 47/16/1 48/15/1
f 49/21/1 50/22/1 51/20/1 52/19/1
f 53/11/1 54/12/1 55/6/1 56/5/1
f 57/21/1 58/22/1 59/20/1 60/19/1
f 61/22/1 62/23/1 63/11/1 64/20/1
f 65/23/1 66/24/1 67/12/1 68/11/1

