# Tiled2Unity generated file. Do not modify by hand.
# Wavefront file for 'mapas_13_mesh_0007.obj'

# Vertices (Count = 144)
v -25 -14 0
v -26 -14 0
v -26 -13 0
v -25 -13 0
v -26 -14 0
v -27 -14 0
v -27 -13 0
v -26 -13 0
v -33 -14 0
v -34 -14 0
v -34 -13 0
v -33 -13 0
v -34 -14 0
v -35 -14 0
v -35 -13 0
v -34 -13 0
v -25 -15 0
v -26 -15 0
v -26 -14 0
v -25 -14 0
v -34 -15 0
v -35 -15 0
v -35 -14 0
v -34 -14 0
v -25 -16 0
v -26 -16 0
v -26 -15 0
v -25 -15 0
v -34 -16 0
v -35 -16 0
v -35 -15 0
v -34 -15 0
v -25 -17 0
v -26 -17 0
v -26 -16 0
v -25 -16 0
v -34 -17 0
v -35 -17 0
v -35 -16 0
v -34 -16 0
v -25 -18 0
v -26 -18 0
v -26 -17 0
v -25 -17 0
v -34 -18 0
v -35 -18 0
v -35 -17 0
v -34 -17 0
v -25 -19 0
v -26 -19 0
v -26 -18 0
v -25 -18 0
v -34 -19 0
v -35 -19 0
v -35 -18 0
v -34 -18 0
v -25 -20 0
v -26 -20 0
v -26 -19 0
v -25 -19 0
v -34 -20 0
v -35 -20 0
v -35 -19 0
v -34 -19 0
v -25 -21 0
v -26 -21 0
v -26 -20 0
v -25 -20 0
v -26 -21 0
v -27 -21 0
v -27 -20 0
v -26 -20 0
v -27 -21 0
v -28 -21 0
v -28 -20 0
v -27 -20 0
v -28 -21 0
v -29 -21 0
v -29 -20 0
v -28 -20 0
v -29 -21 0
v -30 -21 0
v -30 -20 0
v -29 -20 0
v -30 -21 0
v -31 -21 0
v -31 -20 0
v -30 -20 0
v -31 -21 0
v -32 -21 0
v -32 -20 0
v -31 -20 0
v -32 -21 0
v -33 -21 0
v -33 -20 0
v -32 -20 0
v -33 -21 0
v -34 -21 0
v -34 -20 0
v -33 -20 0
v -34 -21 0
v -35 -21 0
v -35 -20 0
v -34 -20 0
v -25 -22 0
v -26 -22 0
v -26 -21 0
v -25 -21 0
v -26 -22 0
v -27 -22 0
v -27 -21 0
v -26 -21 0
v -27 -22 0
v -28 -22 0
v -28 -21 0
v -27 -21 0
v -28 -22 0
v -29 -22 0
v -29 -21 0
v -28 -21 0
v -29 -22 0
v -30 -22 0
v -30 -21 0
v -29 -21 0
v -30 -22 0
v -31 -22 0
v -31 -21 0
v -30 -21 0
v -31 -22 0
v -32 -22 0
v -32 -21 0
v -31 -21 0
v -32 -22 0
v -33 -22 0
v -33 -21 0
v -32 -21 0
v -33 -22 0
v -34 -22 0
v -34 -21 0
v -33 -21 0
v -34 -22 0
v -35 -22 0
v -35 -21 0
v -34 -21 0

# Texture cooridinates (Count = 24)
vt 0.5 0.3125
vt 0.5625 0.3125
vt 0.5625 0.375
vt 0.5 0.375
vt 0.625 0.125
vt 0.6875 0.125
vt 0.6875 0.1875
vt 0.625 0.1875
vt 0.5 0.125
vt 0.5625 0.125
vt 0.5625 0.1875
vt 0.5 0.1875
vt 0.625 0.3125
vt 0.6875 0.3125
vt 0.6875 0.375
vt 0.625 0.375
vt 0.6875 0.25
vt 0.75 0.25
vt 0.75 0.3125
vt 0.5 0.25
vt 0.5625 0.25
vt 0.5 0.0625
vt 0.5625 0.0625
vt 0.625 0.25

# Normal
vn 0 0 -1

# Mesh description
g mapas_13_mesh_0007

# Faces
f 1/1/1 2/2/1 3/3/1 4/4/1
f 5/5/1 6/6/1 7/7/1 8/8/1
f 9/9/1 10/10/1 11/11/1 12/12/1
f 13/13/1 14/14/1 15/15/1 16/16/1
f 17/17/1 18/18/1 19/19/1 20/14/1
f 21/17/1 22/18/1 23/19/1 24/14/1
f 25/17/1 26/18/1 27/19/1 28/14/1
f 29/17/1 30/18/1 31/19/1 32/14/1
f 33/17/1 34/18/1 35/19/1 36/14/1
f 37/17/1 38/18/1 39/19/1 40/14/1
f 41/17/1 42/18/1 43/19/1 44/14/1
f 45/17/1 46/18/1 47/19/1 48/14/1
f 49/17/1 50/18/1 51/19/1 52/14/1
f 53/17/1 54/18/1 55/19/1 56/14/1
f 57/17/1 58/18/1 59/19/1 60/14/1
f 61/17/1 62/18/1 63/19/1 64/14/1
f 65/20/1 66/21/1 67/2/1 68/1/1
f 69/22/1 70/23/1 71/10/1 72/9/1
f 73/10/1 74/5/1 75/8/1 76/11/1
f 77/22/1 78/23/1 79/10/1 80/9/1
f 81/10/1 82/5/1 83/8/1 84/11/1
f 85/22/1 86/23/1 87/10/1 88/9/1
f 89/10/1 90/5/1 91/8/1 92/11/1
f 93/22/1 94/23/1 95/10/1 96/9/1
f 97/10/1 98/5/1 99/8/1 100/11/1
f 101/24/1 102/17/1 103/14/1 104/13/1
f 105/12/1 106/11/1 107/21/1 108/20/1
f 109/22/1 110/23/1 111/10/1 112/9/1
f 113/10/1 114/5/1 115/8/1 116/11/1
f 117/22/1 118/23/1 119/10/1 120/9/1
f 121/10/1 122/5/1 123/8/1 124/11/1
f 125/22/1 126/23/1 127/10/1 128/9/1
f 129/10/1 130/5/1 131/8/1 132/11/1
f 133/22/1 134/23/1 135/10/1 136/9/1
f 137/10/1 138/5/1 139/8/1 140/11/1
f 141/8/1 142/7/1 143/17/1 144/24/1

