# Tiled2Unity generated file. Do not modify by hand.
# Wavefront file for 'mapas_13_mesh_0005.obj'

# Vertices (Count = 20)
v -3 -1 0
v -4 -1 0
v -4 0 0
v -3 0 0
v -9 -1 0
v -10 -1 0
v -10 0 0
v -9 0 0
v -22 -1 0
v -23 -1 0
v -23 0 0
v -22 0 0
v -17 -9 0
v -18 -9 0
v -18 -8 0
v -17 -8 0
v -9 -16 0
v -10 -16 0
v -10 -15 0
v -9 -15 0

# Texture cooridinates (Count = 4)
vt 0.5 0
vt 0.5625 0
vt 0.5625 0.0625
vt 0.5 0.0625

# Normal
vn 0 0 -1

# Mesh description
g mapas_13_mesh_0005

# Faces
f 1/1/1 2/2/1 3/3/1 4/4/1
f 5/1/1 6/2/1 7/3/1 8/4/1
f 9/1/1 10/2/1 11/3/1 12/4/1
f 13/1/1 14/2/1 15/3/1 16/4/1
f 17/1/1 18/2/1 19/3/1 20/4/1

