# Tiled2Unity generated file. Do not modify by hand.
# Wavefront file for 'mapas_13_mesh_0003.obj'

# Vertices (Count = 68)
v -26 -2 0
v -27 -2 0
v -27 -1 0
v -26 -1 0
v -27 -2 0
v -28 -2 0
v -28 -1 0
v -27 -1 0
v -28 -2 0
v -29 -2 0
v -29 -1 0
v -28 -1 0
v -29 -2 0
v -30 -2 0
v -30 -1 0
v -29 -1 0
v -30 -2 0
v -31 -2 0
v -31 -1 0
v -30 -1 0
v -31 -2 0
v -32 -2 0
v -32 -1 0
v -31 -1 0
v -32 -2 0
v -33 -2 0
v -33 -1 0
v -32 -1 0
v -33 -2 0
v -34 -2 0
v -34 -1 0
v -33 -1 0
v -26 -3 0
v -27 -3 0
v -27 -2 0
v -26 -2 0
v -27 -3 0
v -28 -3 0
v -28 -2 0
v -27 -2 0
v -28 -3 0
v -29 -3 0
v -29 -2 0
v -28 -2 0
v -29 -3 0
v -30 -3 0
v -30 -2 0
v -29 -2 0
v -30 -3 0
v -31 -3 0
v -31 -2 0
v -30 -2 0
v -31 -3 0
v -32 -3 0
v -32 -2 0
v -31 -2 0
v -32 -3 0
v -33 -3 0
v -33 -2 0
v -32 -2 0
v -33 -3 0
v -34 -3 0
v -34 -2 0
v -33 -2 0
v -33 -4 0
v -34 -4 0
v -34 -3 0
v -33 -3 0

# Texture cooridinates (Count = 12)
vt 0.1875 0.75
vt 0.25 0.75
vt 0.25 0.8125
vt 0.1875 0.8125
vt 0.1875 0.9375
vt 0.25 0.9375
vt 0.25 1
vt 0.1875 1
vt 0.25 0.875
vt 0.1875 0.875
vt 0.1875 0.6875
vt 0.25 0.6875

# Normal
vn 0 0 -1

# Mesh description
g mapas_13_mesh_0003

# Faces
f 1/1/1 2/2/1 3/3/1 4/4/1
f 5/5/1 6/6/1 7/7/1 8/8/1
f 9/1/1 10/2/1 11/3/1 12/4/1
f 13/1/1 14/2/1 15/3/1 16/4/1
f 17/5/1 18/6/1 19/7/1 20/8/1
f 21/5/1 22/6/1 23/7/1 24/8/1
f 25/1/1 26/2/1 27/3/1 28/4/1
f 29/1/1 30/2/1 31/3/1 32/4/1
f 33/4/1 34/3/1 35/9/1 36/10/1
f 37/4/1 38/3/1 39/9/1 40/10/1
f 41/4/1 42/3/1 43/9/1 44/10/1
f 45/4/1 46/3/1 47/9/1 48/10/1
f 49/4/1 50/3/1 51/9/1 52/10/1
f 53/4/1 54/3/1 55/9/1 56/10/1
f 57/4/1 58/3/1 59/9/1 60/10/1
f 61/11/1 62/12/1 63/2/1 64/1/1
f 65/4/1 66/3/1 67/9/1 68/10/1

