# Tiled2Unity generated file. Do not modify by hand.
# Wavefront file for 'mapa_3_mesh_0002.obj'

# Vertices (Count = 452)
v 0 -1 0
v -1 -1 0
v -1 0 0
v 0 0 0
v -1 -1 0
v -2 -1 0
v -2 0 0
v -1 0 0
v -2 -1 0
v -3 -1 0
v -3 0 0
v -2 0 0
v -3 -1 0
v -4 -1 0
v -4 0 0
v -3 0 0
v -4 -1 0
v -5 -1 0
v -5 0 0
v -4 0 0
v -5 -1 0
v -6 -1 0
v -6 0 0
v -5 0 0
v -6 -1 0
v -7 -1 0
v -7 0 0
v -6 0 0
v -7 -1 0
v -8 -1 0
v -8 0 0
v -7 0 0
v -8 -1 0
v -9 -1 0
v -9 0 0
v -8 0 0
v -9 -1 0
v -10 -1 0
v -10 0 0
v -9 0 0
v -10 -1 0
v -11 -1 0
v -11 0 0
v -10 0 0
v -11 -1 0
v -12 -1 0
v -12 0 0
v -11 0 0
v -12 -1 0
v -13 -1 0
v -13 0 0
v -12 0 0
v -13 -1 0
v -14 -1 0
v -14 0 0
v -13 0 0
v -14 -1 0
v -15 -1 0
v -15 0 0
v -14 0 0
v -15 -1 0
v -16 -1 0
v -16 0 0
v -15 0 0
v -16 -1 0
v -17 -1 0
v -17 0 0
v -16 0 0
v -17 -1 0
v -18 -1 0
v -18 0 0
v -17 0 0
v -18 -1 0
v -19 -1 0
v -19 0 0
v -18 0 0
v -19 -1 0
v -20 -1 0
v -20 0 0
v -19 0 0
v -20 -1 0
v -21 -1 0
v -21 0 0
v -20 0 0
v 0 -2 0
v -1 -2 0
v -1 -1 0
v 0 -1 0
v -13 -2 0
v -14 -2 0
v -14 -1 0
v -13 -1 0
v -20 -2 0
v -21 -2 0
v -21 -1 0
v -20 -1 0
v 0 -3 0
v -1 -3 0
v -1 -2 0
v 0 -2 0
v -13 -3 0
v -14 -3 0
v -14 -2 0
v -13 -2 0
v -20 -3 0
v -21 -3 0
v -21 -2 0
v -20 -2 0
v 0 -4 0
v -1 -4 0
v -1 -3 0
v 0 -3 0
v -13 -4 0
v -14 -4 0
v -14 -3 0
v -13 -3 0
v -20 -4 0
v -21 -4 0
v -21 -3 0
v -20 -3 0
v 0 -5 0
v -1 -5 0
v -1 -4 0
v 0 -4 0
v -7 -5 0
v -8 -5 0
v -8 -4 0
v -7 -4 0
v -13 -5 0
v -14 -5 0
v -14 -4 0
v -13 -4 0
v -20 -5 0
v -21 -5 0
v -21 -4 0
v -20 -4 0
v 0 -6 0
v -1 -6 0
v -1 -5 0
v 0 -5 0
v -1 -6 0
v -2 -6 0
v -2 -5 0
v -1 -5 0
v -2 -6 0
v -3 -6 0
v -3 -5 0
v -2 -5 0
v -3 -6 0
v -4 -6 0
v -4 -5 0
v -3 -5 0
v -4 -6 0
v -5 -6 0
v -5 -5 0
v -4 -5 0
v -5 -6 0
v -6 -6 0
v -6 -5 0
v -5 -5 0
v -6 -6 0
v -7 -6 0
v -7 -5 0
v -6 -5 0
v -7 -6 0
v -8 -6 0
v -8 -5 0
v -7 -5 0
v -13 -6 0
v -14 -6 0
v -14 -5 0
v -13 -5 0
v -20 -6 0
v -21 -6 0
v -21 -5 0
v -20 -5 0
v 0 -7 0
v -1 -7 0
v -1 -6 0
v 0 -6 0
v -4 -7 0
v -5 -7 0
v -5 -6 0
v -4 -6 0
v -13 -7 0
v -14 -7 0
v -14 -6 0
v -13 -6 0
v -20 -7 0
v -21 -7 0
v -21 -6 0
v -20 -6 0
v 0 -8 0
v -1 -8 0
v -1 -7 0
v 0 -7 0
v -4 -8 0
v -5 -8 0
v -5 -7 0
v -4 -7 0
v -20 -8 0
v -21 -8 0
v -21 -7 0
v -20 -7 0
v 0 -9 0
v -1 -9 0
v -1 -8 0
v 0 -8 0
v -4 -9 0
v -5 -9 0
v -5 -8 0
v -4 -8 0
v -20 -9 0
v -21 -9 0
v -21 -8 0
v -20 -8 0
v 0 -10 0
v -1 -10 0
v -1 -9 0
v 0 -9 0
v -4 -10 0
v -5 -10 0
v -5 -9 0
v -4 -9 0
v -13 -10 0
v -14 -10 0
v -14 -9 0
v -13 -9 0
v -20 -10 0
v -21 -10 0
v -21 -9 0
v -20 -9 0
v -4 -11 0
v -5 -11 0
v -5 -10 0
v -4 -10 0
v -5 -11 0
v -6 -11 0
v -6 -10 0
v -5 -10 0
v -6 -11 0
v -7 -11 0
v -7 -10 0
v -6 -10 0
v -7 -11 0
v -8 -11 0
v -8 -10 0
v -7 -10 0
v -8 -11 0
v -9 -11 0
v -9 -10 0
v -8 -10 0
v -9 -11 0
v -10 -11 0
v -10 -10 0
v -9 -10 0
v -10 -11 0
v -11 -11 0
v -11 -10 0
v -10 -10 0
v -11 -11 0
v -12 -11 0
v -12 -10 0
v -11 -10 0
v -12 -11 0
v -13 -11 0
v -13 -10 0
v -12 -10 0
v -13 -11 0
v -14 -11 0
v -14 -10 0
v -13 -10 0
v 0 -12 0
v -1 -12 0
v -1 -11 0
v 0 -11 0
v -9 -12 0
v -10 -12 0
v -10 -11 0
v -9 -11 0
v -20 -12 0
v -21 -12 0
v -21 -11 0
v -20 -11 0
v 0 -13 0
v -1 -13 0
v -1 -12 0
v 0 -12 0
v -9 -13 0
v -10 -13 0
v -10 -12 0
v -9 -12 0
v -20 -13 0
v -21 -13 0
v -21 -12 0
v -20 -12 0
v 0 -14 0
v -1 -14 0
v -1 -13 0
v 0 -13 0
v -9 -14 0
v -10 -14 0
v -10 -13 0
v -9 -13 0
v -20 -14 0
v -21 -14 0
v -21 -13 0
v -20 -13 0
v 0 -15 0
v -1 -15 0
v -1 -14 0
v 0 -14 0
v -9 -15 0
v -10 -15 0
v -10 -14 0
v -9 -14 0
v -20 -15 0
v -21 -15 0
v -21 -14 0
v -20 -14 0
v 0 -16 0
v -1 -16 0
v -1 -15 0
v 0 -15 0
v -9 -16 0
v -10 -16 0
v -10 -15 0
v -9 -15 0
v -20 -16 0
v -21 -16 0
v -21 -15 0
v -20 -15 0
v 0 -17 0
v -1 -17 0
v -1 -16 0
v 0 -16 0
v -9 -17 0
v -10 -17 0
v -10 -16 0
v -9 -16 0
v -20 -17 0
v -21 -17 0
v -21 -16 0
v -20 -16 0
v 0 -18 0
v -1 -18 0
v -1 -17 0
v 0 -17 0
v -20 -18 0
v -21 -18 0
v -21 -17 0
v -20 -17 0
v 0 -19 0
v -1 -19 0
v -1 -18 0
v 0 -18 0
v -20 -19 0
v -21 -19 0
v -21 -18 0
v -20 -18 0
v 0 -20 0
v -1 -20 0
v -1 -19 0
v 0 -19 0
v -20 -20 0
v -21 -20 0
v -21 -19 0
v -20 -19 0
v 0 -21 0
v -1 -21 0
v -1 -20 0
v 0 -20 0
v -1 -21 0
v -2 -21 0
v -2 -20 0
v -1 -20 0
v -2 -21 0
v -3 -21 0
v -3 -20 0
v -2 -20 0
v -3 -21 0
v -4 -21 0
v -4 -20 0
v -3 -20 0
v -4 -21 0
v -5 -21 0
v -5 -20 0
v -4 -20 0
v -5 -21 0
v -6 -21 0
v -6 -20 0
v -5 -20 0
v -6 -21 0
v -7 -21 0
v -7 -20 0
v -6 -20 0
v -7 -21 0
v -8 -21 0
v -8 -20 0
v -7 -20 0
v -8 -21 0
v -9 -21 0
v -9 -20 0
v -8 -20 0
v -9 -21 0
v -10 -21 0
v -10 -20 0
v -9 -20 0
v -10 -21 0
v -11 -21 0
v -11 -20 0
v -10 -20 0
v -11 -21 0
v -12 -21 0
v -12 -20 0
v -11 -20 0
v -12 -21 0
v -13 -21 0
v -13 -20 0
v -12 -20 0
v -13 -21 0
v -14 -21 0
v -14 -20 0
v -13 -20 0
v -14 -21 0
v -15 -21 0
v -15 -20 0
v -14 -20 0
v -15 -21 0
v -16 -21 0
v -16 -20 0
v -15 -20 0
v -16 -21 0
v -17 -21 0
v -17 -20 0
v -16 -20 0
v -17 -21 0
v -18 -21 0
v -18 -20 0
v -17 -20 0
v -18 -21 0
v -19 -21 0
v -19 -20 0
v -18 -20 0
v -19 -21 0
v -20 -21 0
v -20 -20 0
v -19 -20 0
v -20 -21 0
v -21 -21 0
v -21 -20 0
v -20 -20 0

# Texture cooridinates (Count = 20)
vt 0.1 0.5
vt 0.15 0.5
vt 0.15 0.5416667
vt 0.1 0.5416667
vt 0 0.5
vt 0.05 0.5
vt 0.05 0.5416667
vt 0 0.5416667
vt 0.05 0.5833333
vt 0 0.5833333
vt 0.2 0.5416667
vt 0.25 0.5416667
vt 0.25 0.5833333
vt 0.2 0.5833333
vt 0.1 0.5833333
vt 0.15 0.5833333
vt 0.15 0.625
vt 0.1 0.625
vt 0.05 0.625
vt 0 0.625

# Normal
vn 0 0 -1

# Mesh description
g mapa_3_mesh_0002

# Faces
f 1/1/1 2/2/1 3/3/1 4/4/1
f 5/5/1 6/6/1 7/7/1 8/8/1
f 9/5/1 10/6/1 11/7/1 12/8/1
f 13/5/1 14/6/1 15/7/1 16/8/1
f 17/5/1 18/6/1 19/7/1 20/8/1
f 21/5/1 22/6/1 23/7/1 24/8/1
f 25/5/1 26/6/1 27/7/1 28/8/1
f 29/5/1 30/6/1 31/7/1 32/8/1
f 33/5/1 34/6/1 35/7/1 36/8/1
f 37/5/1 38/6/1 39/7/1 40/8/1
f 41/5/1 42/6/1 43/7/1 44/8/1
f 45/5/1 46/6/1 47/7/1 48/8/1
f 49/5/1 50/6/1 51/7/1 52/8/1
f 53/5/1 54/6/1 55/7/1 56/8/1
f 57/5/1 58/6/1 59/7/1 60/8/1
f 61/5/1 62/6/1 63/7/1 64/8/1
f 65/5/1 66/6/1 67/7/1 68/8/1
f 69/5/1 70/6/1 71/7/1 72/8/1
f 73/5/1 74/6/1 75/7/1 76/8/1
f 77/5/1 78/6/1 79/7/1 80/8/1
f 81/6/1 82/1/1 83/4/1 84/7/1
f 85/8/1 86/7/1 87/9/1 88/10/1
f 89/11/1 90/12/1 91/13/1 92/14/1
f 93/8/1 94/7/1 95/9/1 96/10/1
f 97/8/1 98/7/1 99/9/1 100/10/1
f 101/11/1 102/12/1 103/13/1 104/14/1
f 105/8/1 106/7/1 107/9/1 108/10/1
f 109/8/1 110/7/1 111/9/1 112/10/1
f 113/11/1 114/12/1 115/13/1 116/14/1
f 117/8/1 118/7/1 119/9/1 120/10/1
f 121/8/1 122/7/1 123/9/1 124/10/1
f 125/8/1 126/7/1 127/9/1 128/10/1
f 129/11/1 130/12/1 131/13/1 132/14/1
f 133/8/1 134/7/1 135/9/1 136/10/1
f 137/1/1 138/2/1 139/3/1 140/4/1
f 141/7/1 142/4/1 143/15/1 144/9/1
f 145/7/1 146/4/1 147/15/1 148/9/1
f 149/7/1 150/4/1 151/15/1 152/9/1
f 153/8/1 154/7/1 155/9/1 156/10/1
f 157/7/1 158/4/1 159/15/1 160/9/1
f 161/7/1 162/4/1 163/15/1 164/9/1
f 165/7/1 166/4/1 167/15/1 168/9/1
f 169/11/1 170/12/1 171/13/1 172/14/1
f 173/8/1 174/7/1 175/9/1 176/10/1
f 177/8/1 178/7/1 179/9/1 180/10/1
f 181/8/1 182/7/1 183/9/1 184/10/1
f 185/5/1 186/6/1 187/7/1 188/8/1
f 189/8/1 190/7/1 191/9/1 192/10/1
f 193/8/1 194/7/1 195/9/1 196/10/1
f 197/8/1 198/7/1 199/9/1 200/10/1
f 201/8/1 202/7/1 203/9/1 204/10/1
f 205/8/1 206/7/1 207/9/1 208/10/1
f 209/8/1 210/7/1 211/9/1 212/10/1
f 213/8/1 214/7/1 215/9/1 216/10/1
f 217/4/1 218/3/1 219/16/1 220/15/1
f 221/8/1 222/7/1 223/9/1 224/10/1
f 225/11/1 226/12/1 227/13/1 228/14/1
f 229/4/1 230/3/1 231/16/1 232/15/1
f 233/3/1 234/11/1 235/14/1 236/16/1
f 237/3/1 238/11/1 239/14/1 240/16/1
f 241/3/1 242/11/1 243/14/1 244/16/1
f 245/3/1 246/11/1 247/14/1 248/16/1
f 249/3/1 250/11/1 251/14/1 252/16/1
f 253/11/1 254/12/1 255/13/1 256/14/1
f 257/3/1 258/11/1 259/14/1 260/16/1
f 261/3/1 262/11/1 263/14/1 264/16/1
f 265/3/1 266/11/1 267/14/1 268/16/1
f 269/3/1 270/11/1 271/14/1 272/16/1
f 273/15/1 274/16/1 275/17/1 276/18/1
f 277/11/1 278/12/1 279/13/1 280/14/1
f 281/10/1 282/9/1 283/19/1 284/20/1
f 285/8/1 286/7/1 287/9/1 288/10/1
f 289/11/1 290/12/1 291/13/1 292/14/1
f 293/8/1 294/7/1 295/9/1 296/10/1
f 297/8/1 298/7/1 299/9/1 300/10/1
f 301/11/1 302/12/1 303/13/1 304/14/1
f 305/8/1 306/7/1 307/9/1 308/10/1
f 309/8/1 310/7/1 311/9/1 312/10/1
f 313/11/1 314/12/1 315/13/1 316/14/1
f 317/8/1 318/7/1 319/9/1 320/10/1
f 321/8/1 322/7/1 323/9/1 324/10/1
f 325/11/1 326/12/1 327/13/1 328/14/1
f 329/8/1 330/7/1 331/9/1 332/10/1
f 333/8/1 334/7/1 335/9/1 336/10/1
f 337/4/1 338/3/1 339/16/1 340/15/1
f 341/8/1 342/7/1 343/9/1 344/10/1
f 345/8/1 346/7/1 347/9/1 348/10/1
f 349/8/1 350/7/1 351/9/1 352/10/1
f 353/8/1 354/7/1 355/9/1 356/10/1
f 357/8/1 358/7/1 359/9/1 360/10/1
f 361/8/1 362/7/1 363/9/1 364/10/1
f 365/8/1 366/7/1 367/9/1 368/10/1
f 369/5/1 370/6/1 371/7/1 372/8/1
f 373/5/1 374/6/1 375/7/1 376/8/1
f 377/5/1 378/6/1 379/7/1 380/8/1
f 381/5/1 382/6/1 383/7/1 384/8/1
f 385/5/1 386/6/1 387/7/1 388/8/1
f 389/5/1 390/6/1 391/7/1 392/8/1
f 393/5/1 394/6/1 395/7/1 396/8/1
f 397/5/1 398/6/1 399/7/1 400/8/1
f 401/5/1 402/6/1 403/7/1 404/8/1
f 405/5/1 406/6/1 407/7/1 408/8/1
f 409/5/1 410/6/1 411/7/1 412/8/1
f 413/5/1 414/6/1 415/7/1 416/8/1
f 417/5/1 418/6/1 419/7/1 420/8/1
f 421/5/1 422/6/1 423/7/1 424/8/1
f 425/5/1 426/6/1 427/7/1 428/8/1
f 429/5/1 430/6/1 431/7/1 432/8/1
f 433/5/1 434/6/1 435/7/1 436/8/1
f 437/5/1 438/6/1 439/7/1 440/8/1
f 441/5/1 442/6/1 443/7/1 444/8/1
f 445/5/1 446/6/1 447/7/1 448/8/1
f 449/5/1 450/6/1 451/7/1 452/8/1

