# Tiled2Unity generated file. Do not modify by hand.
# Wavefront file for 'map_2X_0_mesh_0002.obj'

# Vertices (Count = 320)
v -21 -22 0
v -22 -22 0
v -22 -21 0
v -21 -21 0
v -20 -22 0
v -21 -22 0
v -21 -21 0
v -20 -21 0
v -19 -22 0
v -20 -22 0
v -20 -21 0
v -19 -21 0
v -18 -22 0
v -19 -22 0
v -19 -21 0
v -18 -21 0
v -17 -22 0
v -18 -22 0
v -18 -21 0
v -17 -21 0
v -16 -22 0
v -17 -22 0
v -17 -21 0
v -16 -21 0
v -15 -22 0
v -16 -22 0
v -16 -21 0
v -15 -21 0
v -14 -22 0
v -15 -22 0
v -15 -21 0
v -14 -21 0
v -13 -22 0
v -14 -22 0
v -14 -21 0
v -13 -21 0
v -12 -22 0
v -13 -22 0
v -13 -21 0
v -12 -21 0
v -11 -22 0
v -12 -22 0
v -12 -21 0
v -11 -21 0
v -10 -22 0
v -11 -22 0
v -11 -21 0
v -10 -21 0
v -9 -22 0
v -10 -22 0
v -10 -21 0
v -9 -21 0
v -8 -22 0
v -9 -22 0
v -9 -21 0
v -8 -21 0
v -7 -22 0
v -8 -22 0
v -8 -21 0
v -7 -21 0
v -6 -22 0
v -7 -22 0
v -7 -21 0
v -6 -21 0
v -5 -22 0
v -6 -22 0
v -6 -21 0
v -5 -21 0
v -4 -22 0
v -5 -22 0
v -5 -21 0
v -4 -21 0
v -3 -22 0
v -4 -22 0
v -4 -21 0
v -3 -21 0
v -2 -22 0
v -3 -22 0
v -3 -21 0
v -2 -21 0
v -1 -22 0
v -2 -22 0
v -2 -21 0
v -1 -21 0
v -21 -21 0
v -22 -21 0
v -22 -20 0
v -21 -20 0
v -1 -21 0
v -2 -21 0
v -2 -20 0
v -1 -20 0
v -21 -20 0
v -22 -20 0
v -22 -19 0
v -21 -19 0
v -1 -20 0
v -2 -20 0
v -2 -19 0
v -1 -19 0
v -21 -19 0
v -22 -19 0
v -22 -18 0
v -21 -18 0
v -1 -19 0
v -2 -19 0
v -2 -18 0
v -1 -18 0
v -21 -18 0
v -22 -18 0
v -22 -17 0
v -21 -17 0
v -1 -18 0
v -2 -18 0
v -2 -17 0
v -1 -17 0
v -21 -17 0
v -22 -17 0
v -22 -16 0
v -21 -16 0
v -1 -17 0
v -2 -17 0
v -2 -16 0
v -1 -16 0
v -21 -16 0
v -22 -16 0
v -22 -15 0
v -21 -15 0
v -1 -16 0
v -2 -16 0
v -2 -15 0
v -1 -15 0
v -21 -15 0
v -22 -15 0
v -22 -14 0
v -21 -14 0
v -1 -15 0
v -2 -15 0
v -2 -14 0
v -1 -14 0
v -21 -14 0
v -22 -14 0
v -22 -13 0
v -21 -13 0
v -1 -14 0
v -2 -14 0
v -2 -13 0
v -1 -13 0
v -21 -13 0
v -22 -13 0
v -22 -12 0
v -21 -12 0
v -1 -13 0
v -2 -13 0
v -2 -12 0
v -1 -12 0
v -21 -12 0
v -22 -12 0
v -22 -11 0
v -21 -11 0
v -1 -12 0
v -2 -12 0
v -2 -11 0
v -1 -11 0
v -21 -11 0
v -22 -11 0
v -22 -10 0
v -21 -10 0
v -1 -11 0
v -2 -11 0
v -2 -10 0
v -1 -10 0
v -21 -10 0
v -22 -10 0
v -22 -9 0
v -21 -9 0
v -1 -10 0
v -2 -10 0
v -2 -9 0
v -1 -9 0
v -21 -9 0
v -22 -9 0
v -22 -8 0
v -21 -8 0
v -1 -9 0
v -2 -9 0
v -2 -8 0
v -1 -8 0
v -21 -8 0
v -22 -8 0
v -22 -7 0
v -21 -7 0
v -1 -8 0
v -2 -8 0
v -2 -7 0
v -1 -7 0
v -21 -7 0
v -22 -7 0
v -22 -6 0
v -21 -6 0
v -1 -7 0
v -2 -7 0
v -2 -6 0
v -1 -6 0
v -21 -6 0
v -22 -6 0
v -22 -5 0
v -21 -5 0
v -1 -6 0
v -2 -6 0
v -2 -5 0
v -1 -5 0
v -21 -5 0
v -22 -5 0
v -22 -4 0
v -21 -4 0
v -1 -5 0
v -2 -5 0
v -2 -4 0
v -1 -4 0
v -21 -4 0
v -22 -4 0
v -22 -3 0
v -21 -3 0
v -1 -4 0
v -2 -4 0
v -2 -3 0
v -1 -3 0
v -21 -3 0
v -22 -3 0
v -22 -2 0
v -21 -2 0
v -1 -3 0
v -2 -3 0
v -2 -2 0
v -1 -2 0
v -21 -2 0
v -22 -2 0
v -22 -1 0
v -21 -1 0
v -20 -2 0
v -21 -2 0
v -21 -1 0
v -20 -1 0
v -19 -2 0
v -20 -2 0
v -20 -1 0
v -19 -1 0
v -18 -2 0
v -19 -2 0
v -19 -1 0
v -18 -1 0
v -17 -2 0
v -18 -2 0
v -18 -1 0
v -17 -1 0
v -16 -2 0
v -17 -2 0
v -17 -1 0
v -16 -1 0
v -15 -2 0
v -16 -2 0
v -16 -1 0
v -15 -1 0
v -14 -2 0
v -15 -2 0
v -15 -1 0
v -14 -1 0
v -13 -2 0
v -14 -2 0
v -14 -1 0
v -13 -1 0
v -12 -2 0
v -13 -2 0
v -13 -1 0
v -12 -1 0
v -11 -2 0
v -12 -2 0
v -12 -1 0
v -11 -1 0
v -10 -2 0
v -11 -2 0
v -11 -1 0
v -10 -1 0
v -9 -2 0
v -10 -2 0
v -10 -1 0
v -9 -1 0
v -8 -2 0
v -9 -2 0
v -9 -1 0
v -8 -1 0
v -7 -2 0
v -8 -2 0
v -8 -1 0
v -7 -1 0
v -6 -2 0
v -7 -2 0
v -7 -1 0
v -6 -1 0
v -5 -2 0
v -6 -2 0
v -6 -1 0
v -5 -1 0
v -4 -2 0
v -5 -2 0
v -5 -1 0
v -4 -1 0
v -3 -2 0
v -4 -2 0
v -4 -1 0
v -3 -1 0
v -2 -2 0
v -3 -2 0
v -3 -1 0
v -2 -1 0
v -1 -2 0
v -2 -2 0
v -2 -1 0
v -1 -1 0

# Texture cooridinates (Count = 36)
vt 0.25 0.5
vt 0.3 0.5
vt 0.3 0.5416667
vt 0.25 0.5416667
vt 0.4 0.625
vt 0.45 0.625
vt 0.45 0.6666667
vt 0.4 0.6666667
vt 0.35 0.625
vt 0.35 0.6666667
vt 0.65 0.5
vt 0.7 0.5
vt 0.7 0.5416667
vt 0.65 0.5416667
vt 0.05 0.6666667
vt 0.1 0.6666667
vt 0.1 0.7083333
vt 0.05 0.7083333
vt 0.6 0.5
vt 0.6 0.5416667
vt 0.3 0.625
vt 0.3 0.6666667
vt 0.3 0.5833333
vt 0.25 0.5833333
vt 0.25 0.625
vt 0.3 0.375
vt 0.35 0.375
vt 0.35 0.4166667
vt 0.3 0.4166667
vt 0.3 0.4583333
vt 0.35 0.4583333
vt 0.35 0.5
vt 0.6 0.375
vt 0.65 0.375
vt 0.65 0.4166667
vt 0.6 0.4166667

# Normal
vn 0 0 -1

# Mesh description
g map_2X_0_mesh_0002

# Faces
f 1/1/1 2/2/1 3/3/1 4/4/1
f 5/5/1 6/6/1 7/7/1 8/8/1
f 9/9/1 10/5/1 11/8/1 12/10/1
f 13/9/1 14/5/1 15/8/1 16/10/1
f 17/9/1 18/5/1 19/8/1 20/10/1
f 21/9/1 22/5/1 23/8/1 24/10/1
f 25/9/1 26/5/1 27/8/1 28/10/1
f 29/9/1 30/5/1 31/8/1 32/10/1
f 33/9/1 34/5/1 35/8/1 36/10/1
f 37/11/1 38/12/1 39/13/1 40/14/1
f 41/15/1 42/16/1 43/17/1 44/18/1
f 45/19/1 46/11/1 47/14/1 48/20/1
f 49/9/1 50/5/1 51/8/1 52/10/1
f 53/9/1 54/5/1 55/8/1 56/10/1
f 57/9/1 58/5/1 59/8/1 60/10/1
f 61/9/1 62/5/1 63/8/1 64/10/1
f 65/9/1 66/5/1 67/8/1 68/10/1
f 69/9/1 70/5/1 71/8/1 72/10/1
f 73/9/1 74/5/1 75/8/1 76/10/1
f 77/21/1 78/9/1 79/10/1 80/22/1
f 81/1/1 82/2/1 83/3/1 84/4/1
f 85/4/1 86/3/1 87/23/1 88/24/1
f 89/4/1 90/3/1 91/23/1 92/24/1
f 93/4/1 94/3/1 95/23/1 96/24/1
f 97/4/1 98/3/1 99/23/1 100/24/1
f 101/4/1 102/3/1 103/23/1 104/24/1
f 105/4/1 106/3/1 107/23/1 108/24/1
f 109/4/1 110/3/1 111/23/1 112/24/1
f 113/4/1 114/3/1 115/23/1 116/24/1
f 117/4/1 118/3/1 119/23/1 120/24/1
f 121/4/1 122/3/1 123/23/1 124/24/1
f 125/4/1 126/3/1 127/23/1 128/24/1
f 129/4/1 130/3/1 131/23/1 132/24/1
f 133/4/1 134/3/1 135/23/1 136/24/1
f 137/4/1 138/3/1 139/23/1 140/24/1
f 141/4/1 142/3/1 143/23/1 144/24/1
f 145/4/1 146/3/1 147/23/1 148/24/1
f 149/24/1 150/23/1 151/21/1 152/25/1
f 153/24/1 154/23/1 155/21/1 156/25/1
f 157/26/1 158/27/1 159/28/1 160/29/1
f 161/30/1 162/31/1 163/32/1 164/2/1
f 165/1/1 166/2/1 167/3/1 168/4/1
f 169/1/1 170/2/1 171/3/1 172/4/1
f 173/4/1 174/3/1 175/23/1 176/24/1
f 177/4/1 178/3/1 179/23/1 180/24/1
f 181/4/1 182/3/1 183/23/1 184/24/1
f 185/4/1 186/3/1 187/23/1 188/24/1
f 189/4/1 190/3/1 191/23/1 192/24/1
f 193/4/1 194/3/1 195/23/1 196/24/1
f 197/4/1 198/3/1 199/23/1 200/24/1
f 201/4/1 202/3/1 203/23/1 204/24/1
f 205/4/1 206/3/1 207/23/1 208/24/1
f 209/4/1 210/3/1 211/23/1 212/24/1
f 213/4/1 214/3/1 215/23/1 216/24/1
f 217/4/1 218/3/1 219/23/1 220/24/1
f 221/4/1 222/3/1 223/23/1 224/24/1
f 225/4/1 226/3/1 227/23/1 228/24/1
f 229/4/1 230/3/1 231/23/1 232/24/1
f 233/4/1 234/3/1 235/23/1 236/24/1
f 237/24/1 238/23/1 239/21/1 240/25/1
f 241/5/1 242/6/1 243/7/1 244/8/1
f 245/9/1 246/5/1 247/8/1 248/10/1
f 249/9/1 250/5/1 251/8/1 252/10/1
f 253/9/1 254/5/1 255/8/1 256/10/1
f 257/9/1 258/5/1 259/8/1 260/10/1
f 261/9/1 262/5/1 263/8/1 264/10/1
f 265/9/1 266/5/1 267/8/1 268/10/1
f 269/9/1 270/5/1 271/8/1 272/10/1
f 273/11/1 274/12/1 275/13/1 276/14/1
f 277/33/1 278/34/1 279/35/1 280/36/1
f 281/19/1 282/11/1 283/14/1 284/20/1
f 285/9/1 286/5/1 287/8/1 288/10/1
f 289/9/1 290/5/1 291/8/1 292/10/1
f 293/9/1 294/5/1 295/8/1 296/10/1
f 297/9/1 298/5/1 299/8/1 300/10/1
f 301/9/1 302/5/1 303/8/1 304/10/1
f 305/9/1 306/5/1 307/8/1 308/10/1
f 309/9/1 310/5/1 311/8/1 312/10/1
f 313/21/1 314/9/1 315/10/1 316/22/1
f 317/24/1 318/23/1 319/21/1 320/25/1

