# Tiled2Unity generated file. Do not modify by hand.
# Wavefront file for 'teste16x9_mesh_0002.obj'

# Vertices (Count = 224)
v -18 -11 0
v -19 -11 0
v -19 -10 0
v -18 -10 0
v -17 -11 0
v -18 -11 0
v -18 -10 0
v -17 -10 0
v -16 -11 0
v -17 -11 0
v -17 -10 0
v -16 -10 0
v -15 -11 0
v -16 -11 0
v -16 -10 0
v -15 -10 0
v -14 -11 0
v -15 -11 0
v -15 -10 0
v -14 -10 0
v -13 -11 0
v -14 -11 0
v -14 -10 0
v -13 -10 0
v -12 -11 0
v -13 -11 0
v -13 -10 0
v -12 -10 0
v -11 -11 0
v -12 -11 0
v -12 -10 0
v -11 -10 0
v -10 -11 0
v -11 -11 0
v -11 -10 0
v -10 -10 0
v -9 -11 0
v -10 -11 0
v -10 -10 0
v -9 -10 0
v -8 -11 0
v -9 -11 0
v -9 -10 0
v -8 -10 0
v -7 -11 0
v -8 -11 0
v -8 -10 0
v -7 -10 0
v -6 -11 0
v -7 -11 0
v -7 -10 0
v -6 -10 0
v -5 -11 0
v -6 -11 0
v -6 -10 0
v -5 -10 0
v -4 -11 0
v -5 -11 0
v -5 -10 0
v -4 -10 0
v -3 -11 0
v -4 -11 0
v -4 -10 0
v -3 -10 0
v -2 -11 0
v -3 -11 0
v -3 -10 0
v -2 -10 0
v -1 -11 0
v -2 -11 0
v -2 -10 0
v -1 -10 0
v 0 -11 0
v -1 -11 0
v -1 -10 0
v 0 -10 0
v -18 -10 0
v -19 -10 0
v -19 -9 0
v -18 -9 0
v 0 -10 0
v -1 -10 0
v -1 -9 0
v 0 -9 0
v -18 -9 0
v -19 -9 0
v -19 -8 0
v -18 -8 0
v 0 -9 0
v -1 -9 0
v -1 -8 0
v 0 -8 0
v -18 -8 0
v -19 -8 0
v -19 -7 0
v -18 -7 0
v 0 -8 0
v -1 -8 0
v -1 -7 0
v 0 -7 0
v -18 -7 0
v -19 -7 0
v -19 -6 0
v -18 -6 0
v 0 -7 0
v -1 -7 0
v -1 -6 0
v 0 -6 0
v -18 -6 0
v -19 -6 0
v -19 -5 0
v -18 -5 0
v 0 -6 0
v -1 -6 0
v -1 -5 0
v 0 -5 0
v -18 -5 0
v -19 -5 0
v -19 -4 0
v -18 -4 0
v 0 -5 0
v -1 -5 0
v -1 -4 0
v 0 -4 0
v -18 -4 0
v -19 -4 0
v -19 -3 0
v -18 -3 0
v 0 -4 0
v -1 -4 0
v -1 -3 0
v 0 -3 0
v -18 -3 0
v -19 -3 0
v -19 -2 0
v -18 -2 0
v 0 -3 0
v -1 -3 0
v -1 -2 0
v 0 -2 0
v -18 -2 0
v -19 -2 0
v -19 -1 0
v -18 -1 0
v 0 -2 0
v -1 -2 0
v -1 -1 0
v 0 -1 0
v -18 -1 0
v -19 -1 0
v -19 0 0
v -18 0 0
v -17 -1 0
v -18 -1 0
v -18 0 0
v -17 0 0
v -16 -1 0
v -17 -1 0
v -17 0 0
v -16 0 0
v -15 -1 0
v -16 -1 0
v -16 0 0
v -15 0 0
v -14 -1 0
v -15 -1 0
v -15 0 0
v -14 0 0
v -13 -1 0
v -14 -1 0
v -14 0 0
v -13 0 0
v -12 -1 0
v -13 -1 0
v -13 0 0
v -12 0 0
v -11 -1 0
v -12 -1 0
v -12 0 0
v -11 0 0
v -10 -1 0
v -11 -1 0
v -11 0 0
v -10 0 0
v -9 -1 0
v -10 -1 0
v -10 0 0
v -9 0 0
v -8 -1 0
v -9 -1 0
v -9 0 0
v -8 0 0
v -7 -1 0
v -8 -1 0
v -8 0 0
v -7 0 0
v -6 -1 0
v -7 -1 0
v -7 0 0
v -6 0 0
v -5 -1 0
v -6 -1 0
v -6 0 0
v -5 0 0
v -4 -1 0
v -5 -1 0
v -5 0 0
v -4 0 0
v -3 -1 0
v -4 -1 0
v -4 0 0
v -3 0 0
v -2 -1 0
v -3 -1 0
v -3 0 0
v -2 0 0
v -1 -1 0
v -2 -1 0
v -2 0 0
v -1 0 0
v 0 -1 0
v -1 -1 0
v -1 0 0
v 0 0 0

# Texture cooridinates (Count = 19)
vt 0.25 0.5
vt 0.3 0.5
vt 0.3 0.5416667
vt 0.25 0.5416667
vt 0.4 0.625
vt 0.45 0.625
vt 0.45 0.6666667
vt 0.4 0.6666667
vt 0.35 0.625
vt 0.35 0.6666667
vt 0.3 0.625
vt 0.3 0.6666667
vt 0.3 0.5833333
vt 0.25 0.5833333
vt 0.25 0.625
vt 0.2 0.6666667
vt 0.25 0.6666667
vt 0.25 0.7083333
vt 0.2 0.7083333

# Normal
vn 0 0 -1

# Mesh description
g teste16x9_mesh_0002

# Faces
f 1/1/1 2/2/1 3/3/1 4/4/1
f 5/5/1 6/6/1 7/7/1 8/8/1
f 9/9/1 10/5/1 11/8/1 12/10/1
f 13/9/1 14/5/1 15/8/1 16/10/1
f 17/9/1 18/5/1 19/8/1 20/10/1
f 21/9/1 22/5/1 23/8/1 24/10/1
f 25/9/1 26/5/1 27/8/1 28/10/1
f 29/9/1 30/5/1 31/8/1 32/10/1
f 33/9/1 34/5/1 35/8/1 36/10/1
f 37/9/1 38/5/1 39/8/1 40/10/1
f 41/9/1 42/5/1 43/8/1 44/10/1
f 45/9/1 46/5/1 47/8/1 48/10/1
f 49/9/1 50/5/1 51/8/1 52/10/1
f 53/9/1 54/5/1 55/8/1 56/10/1
f 57/9/1 58/5/1 59/8/1 60/10/1
f 61/9/1 62/5/1 63/8/1 64/10/1
f 65/9/1 66/5/1 67/8/1 68/10/1
f 69/11/1 70/9/1 71/10/1 72/12/1
f 73/1/1 74/2/1 75/3/1 76/4/1
f 77/4/1 78/3/1 79/13/1 80/14/1
f 81/4/1 82/3/1 83/13/1 84/14/1
f 85/4/1 86/3/1 87/13/1 88/14/1
f 89/4/1 90/3/1 91/13/1 92/14/1
f 93/4/1 94/3/1 95/13/1 96/14/1
f 97/4/1 98/3/1 99/13/1 100/14/1
f 101/14/1 102/13/1 103/11/1 104/15/1
f 105/14/1 106/13/1 107/11/1 108/15/1
f 109/16/1 110/17/1 111/18/1 112/19/1
f 113/16/1 114/17/1 115/18/1 116/19/1
f 117/1/1 118/2/1 119/3/1 120/4/1
f 121/1/1 122/2/1 123/3/1 124/4/1
f 125/4/1 126/3/1 127/13/1 128/14/1
f 129/4/1 130/3/1 131/13/1 132/14/1
f 133/4/1 134/3/1 135/13/1 136/14/1
f 137/4/1 138/3/1 139/13/1 140/14/1
f 141/4/1 142/3/1 143/13/1 144/14/1
f 145/4/1 146/3/1 147/13/1 148/14/1
f 149/14/1 150/13/1 151/11/1 152/15/1
f 153/5/1 154/6/1 155/7/1 156/8/1
f 157/9/1 158/5/1 159/8/1 160/10/1
f 161/9/1 162/5/1 163/8/1 164/10/1
f 165/9/1 166/5/1 167/8/1 168/10/1
f 169/9/1 170/5/1 171/8/1 172/10/1
f 173/9/1 174/5/1 175/8/1 176/10/1
f 177/9/1 178/5/1 179/8/1 180/10/1
f 181/9/1 182/5/1 183/8/1 184/10/1
f 185/9/1 186/5/1 187/8/1 188/10/1
f 189/9/1 190/5/1 191/8/1 192/10/1
f 193/9/1 194/5/1 195/8/1 196/10/1
f 197/9/1 198/5/1 199/8/1 200/10/1
f 201/9/1 202/5/1 203/8/1 204/10/1
f 205/9/1 206/5/1 207/8/1 208/10/1
f 209/9/1 210/5/1 211/8/1 212/10/1
f 213/9/1 214/5/1 215/8/1 216/10/1
f 217/11/1 218/9/1 219/10/1 220/12/1
f 221/14/1 222/13/1 223/11/1 224/15/1

