# Tiled2Unity generated file. Do not modify by hand.
# Wavefront file for 'mapa_5_mesh_0003.obj'

# Vertices (Count = 32)
v -7 -1 0
v -8 -1 0
v -8 0 0
v -7 0 0
v -7 -2 0
v -8 -2 0
v -8 -1 0
v -7 -1 0
v -8 -2 0
v -9 -2 0
v -9 -1 0
v -8 -1 0
v -9 -2 0
v -10 -2 0
v -10 -1 0
v -9 -1 0
v -7 -3 0
v -8 -3 0
v -8 -2 0
v -7 -2 0
v -9 -9 0
v -10 -9 0
v -10 -8 0
v -9 -8 0
v -8 -10 0
v -9 -10 0
v -9 -9 0
v -8 -9 0
v -9 -10 0
v -10 -10 0
v -10 -9 0
v -9 -9 0

# Texture cooridinates (Count = 11)
vt 0.9 0.25
vt 0.95 0.25
vt 0.95 0.2916667
vt 0.9 0.2916667
vt 0.9 0.2083333
vt 0.95 0.2083333
vt 0.85 0.2916667
vt 0.9 0.3333333
vt 0.85 0.3333333
vt 0.9 0.1666667
vt 0.95 0.1666667

# Normal
vn 0 0 -1

# Mesh description
g mapa_5_mesh_0003

# Faces
f 1/1/1 2/2/1 3/3/1 4/4/1
f 5/5/1 6/6/1 7/2/1 8/1/1
f 9/7/1 10/4/1 11/8/1 12/9/1
f 13/7/1 14/4/1 15/8/1 16/9/1
f 17/10/1 18/11/1 19/6/1 20/5/1
f 21/7/1 22/4/1 23/8/1 24/9/1
f 25/7/1 26/4/1 27/8/1 28/9/1
f 29/7/1 30/4/1 31/8/1 32/9/1

