# Tiled2Unity generated file. Do not modify by hand.
# Wavefront file for 'mapas_3_mesh_0003.obj'

# Vertices (Count = 372)
v -3 -1 0
v -4 -1 0
v -4 0 0
v -3 0 0
v -4 -1 0
v -5 -1 0
v -5 0 0
v -4 0 0
v -5 -1 0
v -6 -1 0
v -6 0 0
v -5 0 0
v -6 -1 0
v -7 -1 0
v -7 0 0
v -6 0 0
v -17 -1 0
v -18 -1 0
v -18 0 0
v -17 0 0
v -18 -1 0
v -19 -1 0
v -19 0 0
v -18 0 0
v -19 -1 0
v -20 -1 0
v -20 0 0
v -19 0 0
v -20 -1 0
v -21 -1 0
v -21 0 0
v -20 0 0
v -3 -2 0
v -4 -2 0
v -4 -1 0
v -3 -1 0
v -4 -2 0
v -5 -2 0
v -5 -1 0
v -4 -1 0
v -5 -2 0
v -6 -2 0
v -6 -1 0
v -5 -1 0
v -6 -2 0
v -7 -2 0
v -7 -1 0
v -6 -1 0
v -9 -2 0
v -10 -2 0
v -10 -1 0
v -9 -1 0
v -13 -2 0
v -14 -2 0
v -14 -1 0
v -13 -1 0
v -17 -2 0
v -18 -2 0
v -18 -1 0
v -17 -1 0
v -18 -2 0
v -19 -2 0
v -19 -1 0
v -18 -1 0
v -19 -2 0
v -20 -2 0
v -20 -1 0
v -19 -1 0
v -20 -2 0
v -21 -2 0
v -21 -1 0
v -20 -1 0
v -1 -3 0
v -2 -3 0
v -2 -2 0
v -1 -2 0
v -9 -3 0
v -10 -3 0
v -10 -2 0
v -9 -2 0
v -13 -3 0
v -14 -3 0
v -14 -2 0
v -13 -2 0
v -21 -3 0
v -22 -3 0
v -22 -2 0
v -21 -2 0
v -1 -4 0
v -2 -4 0
v -2 -3 0
v -1 -3 0
v -6 -4 0
v -7 -4 0
v -7 -3 0
v -6 -3 0
v -16 -4 0
v -17 -4 0
v -17 -3 0
v -16 -3 0
v -21 -4 0
v -22 -4 0
v -22 -3 0
v -21 -3 0
v -1 -5 0
v -2 -5 0
v -2 -4 0
v -1 -4 0
v -21 -5 0
v -22 -5 0
v -22 -4 0
v -21 -4 0
v -1 -7 0
v -2 -7 0
v -2 -6 0
v -1 -6 0
v -2 -7 0
v -3 -7 0
v -3 -6 0
v -2 -6 0
v -20 -7 0
v -21 -7 0
v -21 -6 0
v -20 -6 0
v -21 -7 0
v -22 -7 0
v -22 -6 0
v -21 -6 0
v -1 -9 0
v -2 -9 0
v -2 -8 0
v -1 -8 0
v -2 -9 0
v -3 -9 0
v -3 -8 0
v -2 -8 0
v -20 -9 0
v -21 -9 0
v -21 -8 0
v -20 -8 0
v -21 -9 0
v -22 -9 0
v -22 -8 0
v -21 -8 0
v -1 -10 0
v -2 -10 0
v -2 -9 0
v -1 -9 0
v -20 -10 0
v -21 -10 0
v -21 -9 0
v -20 -9 0
v -21 -10 0
v -22 -10 0
v -22 -9 0
v -21 -9 0
v -1 -11 0
v -2 -11 0
v -2 -10 0
v -1 -10 0
v -20 -11 0
v -21 -11 0
v -21 -10 0
v -20 -10 0
v -21 -11 0
v -22 -11 0
v -22 -10 0
v -21 -10 0
v -1 -12 0
v -2 -12 0
v -2 -11 0
v -1 -11 0
v -1 -13 0
v -2 -13 0
v -2 -12 0
v -1 -12 0
v -1 -14 0
v -2 -14 0
v -2 -13 0
v -1 -13 0
v -6 -14 0
v -7 -14 0
v -7 -13 0
v -6 -13 0
v -16 -14 0
v -17 -14 0
v -17 -13 0
v -16 -13 0
v -21 -14 0
v -22 -14 0
v -22 -13 0
v -21 -13 0
v -1 -15 0
v -2 -15 0
v -2 -14 0
v -1 -14 0
v -3 -15 0
v -4 -15 0
v -4 -14 0
v -3 -14 0
v -5 -15 0
v -6 -15 0
v -6 -14 0
v -5 -14 0
v -21 -15 0
v -22 -15 0
v -22 -14 0
v -21 -14 0
v -3 -16 0
v -4 -16 0
v -4 -15 0
v -3 -15 0
v -4 -16 0
v -5 -16 0
v -5 -15 0
v -4 -15 0
v -5 -16 0
v -6 -16 0
v -6 -15 0
v -5 -15 0
v -17 -16 0
v -18 -16 0
v -18 -15 0
v -17 -15 0
v -18 -16 0
v -19 -16 0
v -19 -15 0
v -18 -15 0
v -20 -16 0
v -21 -16 0
v -21 -15 0
v -20 -15 0
v -21 -16 0
v -22 -16 0
v -22 -15 0
v -21 -15 0
v -3 -17 0
v -4 -17 0
v -4 -16 0
v -3 -16 0
v -4 -17 0
v -5 -17 0
v -5 -16 0
v -4 -16 0
v -15 -17 0
v -16 -17 0
v -16 -16 0
v -15 -16 0
v -17 -17 0
v -18 -17 0
v -18 -16 0
v -17 -16 0
v -18 -17 0
v -19 -17 0
v -19 -16 0
v -18 -16 0
v -21 -17 0
v -22 -17 0
v -22 -16 0
v -21 -16 0
v -3 -18 0
v -4 -18 0
v -4 -17 0
v -3 -17 0
v -4 -18 0
v -5 -18 0
v -5 -17 0
v -4 -17 0
v -16 -18 0
v -17 -18 0
v -17 -17 0
v -16 -17 0
v -17 -18 0
v -18 -18 0
v -18 -17 0
v -17 -17 0
v -18 -18 0
v -19 -18 0
v -19 -17 0
v -18 -17 0
v -2 -19 0
v -3 -19 0
v -3 -18 0
v -2 -18 0
v -3 -19 0
v -4 -19 0
v -4 -18 0
v -3 -18 0
v -4 -19 0
v -5 -19 0
v -5 -18 0
v -4 -18 0
v -6 -19 0
v -7 -19 0
v -7 -18 0
v -6 -18 0
v -17 -19 0
v -18 -19 0
v -18 -18 0
v -17 -18 0
v -18 -19 0
v -19 -19 0
v -19 -18 0
v -18 -18 0
v -1 -20 0
v -2 -20 0
v -2 -19 0
v -1 -19 0
v -4 -20 0
v -5 -20 0
v -5 -19 0
v -4 -19 0
v -16 -20 0
v -17 -20 0
v -17 -19 0
v -16 -19 0
v -20 -20 0
v -21 -20 0
v -21 -19 0
v -20 -19 0
v -21 -20 0
v -22 -20 0
v -22 -19 0
v -21 -19 0
v -1 -21 0
v -2 -21 0
v -2 -20 0
v -1 -20 0
v -2 -21 0
v -3 -21 0
v -3 -20 0
v -2 -20 0
v -19 -21 0
v -20 -21 0
v -20 -20 0
v -19 -20 0
v -20 -21 0
v -21 -21 0
v -21 -20 0
v -20 -20 0
v -21 -21 0
v -22 -21 0
v -22 -20 0
v -21 -20 0
v -1 -22 0
v -2 -22 0
v -2 -21 0
v -1 -21 0
v -2 -22 0
v -3 -22 0
v -3 -21 0
v -2 -21 0
v -3 -22 0
v -4 -22 0
v -4 -21 0
v -3 -21 0
v -18 -22 0
v -19 -22 0
v -19 -21 0
v -18 -21 0
v -19 -22 0
v -20 -22 0
v -20 -21 0
v -19 -21 0
v -20 -22 0
v -21 -22 0
v -21 -21 0
v -20 -21 0
v -21 -22 0
v -22 -22 0
v -22 -21 0
v -21 -21 0

# Texture cooridinates (Count = 38)
vt 0.75 0.375
vt 0.8 0.375
vt 0.8 0.4166667
vt 0.75 0.4166667
vt 0.85 0.375
vt 0.85 0.4166667
vt 0.9 0.375
vt 0.9 0.4166667
vt 0.95 0.375
vt 0.95 0.4166667
vt 0.75 0.3333333
vt 0.8 0.3333333
vt 0.85 0.3333333
vt 0.9 0.3333333
vt 0.95 0.3333333
vt 0.65 0.2916667
vt 0.7 0.2916667
vt 0.7 0.3333333
vt 0.65 0.3333333
vt 0.65 0.6666667
vt 0.7 0.6666667
vt 0.7 0.7083333
vt 0.65 0.7083333
vt 0.65 0.25
vt 0.7 0.25
vt 0.65 0.2083333
vt 0.7 0.2083333
vt 0.55 0.3333333
vt 0.6 0.3333333
vt 0.6 0.375
vt 0.55 0.375
vt 0.65 0.375
vt 0.55 0.2916667
vt 0.6 0.2916667
vt 0.55 0.25
vt 0.6 0.25
vt 0.55 0.2083333
vt 0.6 0.2083333

# Normal
vn 0 0 -1

# Mesh description
g mapas_3_mesh_0003

# Faces
f 1/1/1 2/2/1 3/3/1 4/4/1
f 5/2/1 6/5/1 7/6/1 8/3/1
f 9/5/1 10/7/1 11/8/1 12/6/1
f 13/7/1 14/9/1 15/10/1 16/8/1
f 17/1/1 18/2/1 19/3/1 20/4/1
f 21/2/1 22/5/1 23/6/1 24/3/1
f 25/5/1 26/7/1 27/8/1 28/6/1
f 29/7/1 30/9/1 31/10/1 32/8/1
f 33/11/1 34/12/1 35/2/1 36/1/1
f 37/12/1 38/13/1 39/5/1 40/2/1
f 41/13/1 42/14/1 43/7/1 44/5/1
f 45/14/1 46/15/1 47/9/1 48/7/1
f 49/16/1 50/17/1 51/18/1 52/19/1
f 53/16/1 54/17/1 55/18/1 56/19/1
f 57/11/1 58/12/1 59/2/1 60/1/1
f 61/12/1 62/13/1 63/5/1 64/2/1
f 65/13/1 66/14/1 67/7/1 68/5/1
f 69/14/1 70/15/1 71/9/1 72/7/1
f 73/20/1 74/21/1 75/22/1 76/23/1
f 77/24/1 78/25/1 79/17/1 80/16/1
f 81/24/1 82/25/1 83/17/1 84/16/1
f 85/20/1 86/21/1 87/22/1 88/23/1
f 89/20/1 90/21/1 91/22/1 92/23/1
f 93/20/1 94/21/1 95/22/1 96/23/1
f 97/20/1 98/21/1 99/22/1 100/23/1
f 101/20/1 102/21/1 103/22/1 104/23/1
f 105/20/1 106/21/1 107/22/1 108/23/1
f 109/20/1 110/21/1 111/22/1 112/23/1
f 113/20/1 114/21/1 115/22/1 116/23/1
f 117/20/1 118/21/1 119/22/1 120/23/1
f 121/20/1 122/21/1 123/22/1 124/23/1
f 125/20/1 126/21/1 127/22/1 128/23/1
f 129/20/1 130/21/1 131/22/1 132/23/1
f 133/20/1 134/21/1 135/22/1 136/23/1
f 137/20/1 138/21/1 139/22/1 140/23/1
f 141/20/1 142/21/1 143/22/1 144/23/1
f 145/20/1 146/21/1 147/22/1 148/23/1
f 149/20/1 150/21/1 151/22/1 152/23/1
f 153/20/1 154/21/1 155/22/1 156/23/1
f 157/20/1 158/21/1 159/22/1 160/23/1
f 161/20/1 162/21/1 163/22/1 164/23/1
f 165/20/1 166/21/1 167/22/1 168/23/1
f 169/20/1 170/21/1 171/22/1 172/23/1
f 173/20/1 174/21/1 175/22/1 176/23/1
f 177/20/1 178/21/1 179/22/1 180/23/1
f 181/20/1 182/21/1 183/22/1 184/23/1
f 185/20/1 186/21/1 187/22/1 188/23/1
f 189/20/1 190/21/1 191/22/1 192/23/1
f 193/20/1 194/21/1 195/22/1 196/23/1
f 197/26/1 198/27/1 199/25/1 200/24/1
f 201/26/1 202/27/1 203/25/1 204/24/1
f 205/20/1 206/21/1 207/22/1 208/23/1
f 209/28/1 210/29/1 211/30/1 212/31/1
f 213/29/1 214/19/1 215/32/1 216/30/1
f 217/26/1 218/27/1 219/25/1 220/24/1
f 221/28/1 222/29/1 223/30/1 224/31/1
f 225/29/1 226/19/1 227/32/1 228/30/1
f 229/26/1 230/27/1 231/25/1 232/24/1
f 233/20/1 234/21/1 235/22/1 236/23/1
f 237/33/1 238/34/1 239/29/1 240/28/1
f 241/34/1 242/16/1 243/19/1 244/29/1
f 245/26/1 246/27/1 247/25/1 248/24/1
f 249/33/1 250/34/1 251/29/1 252/28/1
f 253/34/1 254/16/1 255/19/1 256/29/1
f 257/20/1 258/21/1 259/22/1 260/23/1
f 261/35/1 262/36/1 263/34/1 264/33/1
f 265/36/1 266/24/1 267/16/1 268/34/1
f 269/26/1 270/27/1 271/25/1 272/24/1
f 273/35/1 274/36/1 275/34/1 276/33/1
f 277/36/1 278/24/1 279/16/1 280/34/1
f 281/26/1 282/27/1 283/25/1 284/24/1
f 285/37/1 286/38/1 287/36/1 288/35/1
f 289/38/1 290/26/1 291/24/1 292/36/1
f 293/26/1 294/27/1 295/25/1 296/24/1
f 297/37/1 298/38/1 299/36/1 300/35/1
f 301/38/1 302/26/1 303/24/1 304/36/1
f 305/20/1 306/21/1 307/22/1 308/23/1
f 309/26/1 310/27/1 311/25/1 312/24/1
f 313/26/1 314/27/1 315/25/1 316/24/1
f 317/26/1 318/27/1 319/25/1 320/24/1
f 321/20/1 322/21/1 323/22/1 324/23/1
f 325/20/1 326/21/1 327/22/1 328/23/1
f 329/20/1 330/21/1 331/22/1 332/23/1
f 333/20/1 334/21/1 335/22/1 336/23/1
f 337/20/1 338/21/1 339/22/1 340/23/1
f 341/20/1 342/21/1 343/22/1 344/23/1
f 345/20/1 346/21/1 347/22/1 348/23/1
f 349/20/1 350/21/1 351/22/1 352/23/1
f 353/20/1 354/21/1 355/22/1 356/23/1
f 357/20/1 358/21/1 359/22/1 360/23/1
f 361/20/1 362/21/1 363/22/1 364/23/1
f 365/20/1 366/21/1 367/22/1 368/23/1
f 369/20/1 370/21/1 371/22/1 372/23/1

