# Tiled2Unity generated file. Do not modify by hand.
# Wavefront file for 'mapas_3_mesh_0002.obj'

# Vertices (Count = 344)
v 0 -1 0
v -1 -1 0
v -1 0 0
v 0 0 0
v -1 -1 0
v -2 -1 0
v -2 0 0
v -1 0 0
v -2 -1 0
v -3 -1 0
v -3 0 0
v -2 0 0
v -3 -1 0
v -4 -1 0
v -4 0 0
v -3 0 0
v -4 -1 0
v -5 -1 0
v -5 0 0
v -4 0 0
v -5 -1 0
v -6 -1 0
v -6 0 0
v -5 0 0
v -6 -1 0
v -7 -1 0
v -7 0 0
v -6 0 0
v -7 -1 0
v -8 -1 0
v -8 0 0
v -7 0 0
v -8 -1 0
v -9 -1 0
v -9 0 0
v -8 0 0
v -9 -1 0
v -10 -1 0
v -10 0 0
v -9 0 0
v -10 -1 0
v -11 -1 0
v -11 0 0
v -10 0 0
v -11 -1 0
v -12 -1 0
v -12 0 0
v -11 0 0
v -12 -1 0
v -13 -1 0
v -13 0 0
v -12 0 0
v -13 -1 0
v -14 -1 0
v -14 0 0
v -13 0 0
v -14 -1 0
v -15 -1 0
v -15 0 0
v -14 0 0
v -15 -1 0
v -16 -1 0
v -16 0 0
v -15 0 0
v -16 -1 0
v -17 -1 0
v -17 0 0
v -16 0 0
v -17 -1 0
v -18 -1 0
v -18 0 0
v -17 0 0
v -18 -1 0
v -19 -1 0
v -19 0 0
v -18 0 0
v -19 -1 0
v -20 -1 0
v -20 0 0
v -19 0 0
v -20 -1 0
v -21 -1 0
v -21 0 0
v -20 0 0
v -21 -1 0
v -22 -1 0
v -22 0 0
v -21 0 0
v -22 -1 0
v -23 -1 0
v -23 0 0
v -22 0 0
v 0 -2 0
v -1 -2 0
v -1 -1 0
v 0 -1 0
v -22 -2 0
v -23 -2 0
v -23 -1 0
v -22 -1 0
v 0 -3 0
v -1 -3 0
v -1 -2 0
v 0 -2 0
v -22 -3 0
v -23 -3 0
v -23 -2 0
v -22 -2 0
v 0 -4 0
v -1 -4 0
v -1 -3 0
v 0 -3 0
v -22 -4 0
v -23 -4 0
v -23 -3 0
v -22 -3 0
v 0 -5 0
v -1 -5 0
v -1 -4 0
v 0 -4 0
v -22 -5 0
v -23 -5 0
v -23 -4 0
v -22 -4 0
v 0 -6 0
v -1 -6 0
v -1 -5 0
v 0 -5 0
v -22 -6 0
v -23 -6 0
v -23 -5 0
v -22 -5 0
v 0 -7 0
v -1 -7 0
v -1 -6 0
v 0 -6 0
v -22 -7 0
v -23 -7 0
v -23 -6 0
v -22 -6 0
v 0 -8 0
v -1 -8 0
v -1 -7 0
v 0 -7 0
v -22 -8 0
v -23 -8 0
v -23 -7 0
v -22 -7 0
v 0 -9 0
v -1 -9 0
v -1 -8 0
v 0 -8 0
v -22 -9 0
v -23 -9 0
v -23 -8 0
v -22 -8 0
v 0 -10 0
v -1 -10 0
v -1 -9 0
v 0 -9 0
v -22 -10 0
v -23 -10 0
v -23 -9 0
v -22 -9 0
v 0 -11 0
v -1 -11 0
v -1 -10 0
v 0 -10 0
v -22 -11 0
v -23 -11 0
v -23 -10 0
v -22 -10 0
v 0 -12 0
v -1 -12 0
v -1 -11 0
v 0 -11 0
v 0 -13 0
v -1 -13 0
v -1 -12 0
v 0 -12 0
v -22 -13 0
v -23 -13 0
v -23 -12 0
v -22 -12 0
v 0 -14 0
v -1 -14 0
v -1 -13 0
v 0 -13 0
v -22 -14 0
v -23 -14 0
v -23 -13 0
v -22 -13 0
v 0 -15 0
v -1 -15 0
v -1 -14 0
v 0 -14 0
v -22 -15 0
v -23 -15 0
v -23 -14 0
v -22 -14 0
v 0 -16 0
v -1 -16 0
v -1 -15 0
v 0 -15 0
v -22 -16 0
v -23 -16 0
v -23 -15 0
v -22 -15 0
v 0 -17 0
v -1 -17 0
v -1 -16 0
v 0 -16 0
v -22 -17 0
v -23 -17 0
v -23 -16 0
v -22 -16 0
v 0 -18 0
v -1 -18 0
v -1 -17 0
v 0 -17 0
v -22 -18 0
v -23 -18 0
v -23 -17 0
v -22 -17 0
v 0 -19 0
v -1 -19 0
v -1 -18 0
v 0 -18 0
v -22 -19 0
v -23 -19 0
v -23 -18 0
v -22 -18 0
v 0 -20 0
v -1 -20 0
v -1 -19 0
v 0 -19 0
v -22 -20 0
v -23 -20 0
v -23 -19 0
v -22 -19 0
v 0 -21 0
v -1 -21 0
v -1 -20 0
v 0 -20 0
v -22 -21 0
v -23 -21 0
v -23 -20 0
v -22 -20 0
v 0 -22 0
v -1 -22 0
v -1 -21 0
v 0 -21 0
v -22 -22 0
v -23 -22 0
v -23 -21 0
v -22 -21 0
v 0 -23 0
v -1 -23 0
v -1 -22 0
v 0 -22 0
v -1 -23 0
v -2 -23 0
v -2 -22 0
v -1 -22 0
v -2 -23 0
v -3 -23 0
v -3 -22 0
v -2 -22 0
v -3 -23 0
v -4 -23 0
v -4 -22 0
v -3 -22 0
v -4 -23 0
v -5 -23 0
v -5 -22 0
v -4 -22 0
v -5 -23 0
v -6 -23 0
v -6 -22 0
v -5 -22 0
v -6 -23 0
v -7 -23 0
v -7 -22 0
v -6 -22 0
v -7 -23 0
v -8 -23 0
v -8 -22 0
v -7 -22 0
v -8 -23 0
v -9 -23 0
v -9 -22 0
v -8 -22 0
v -9 -23 0
v -10 -23 0
v -10 -22 0
v -9 -22 0
v -10 -23 0
v -11 -23 0
v -11 -22 0
v -10 -22 0
v -12 -23 0
v -13 -23 0
v -13 -22 0
v -12 -22 0
v -13 -23 0
v -14 -23 0
v -14 -22 0
v -13 -22 0
v -14 -23 0
v -15 -23 0
v -15 -22 0
v -14 -22 0
v -15 -23 0
v -16 -23 0
v -16 -22 0
v -15 -22 0
v -16 -23 0
v -17 -23 0
v -17 -22 0
v -16 -22 0
v -17 -23 0
v -18 -23 0
v -18 -22 0
v -17 -22 0
v -18 -23 0
v -19 -23 0
v -19 -22 0
v -18 -22 0
v -19 -23 0
v -20 -23 0
v -20 -22 0
v -19 -22 0
v -20 -23 0
v -21 -23 0
v -21 -22 0
v -20 -22 0
v -21 -23 0
v -22 -23 0
v -22 -22 0
v -21 -22 0
v -22 -23 0
v -23 -23 0
v -23 -22 0
v -22 -22 0

# Texture cooridinates (Count = 17)
vt 0 0.5833333
vt 0.05 0.5833333
vt 0.05 0.625
vt 0 0.625
vt 0 0.5
vt 0.05 0.5
vt 0.05 0.5416667
vt 0 0.5416667
vt 0.1 0.5416667
vt 0.1 0.5833333
vt 0.1 0.5
vt 0.6 0.5416667
vt 0.65 0.5416667
vt 0.65 0.5833333
vt 0.6 0.5833333
vt 0.7 0.5416667
vt 0.7 0.5833333

# Normal
vn 0 0 -1

# Mesh description
g mapas_3_mesh_0002

# Faces
f 1/1/1 2/2/1 3/3/1 4/4/1
f 5/5/1 6/6/1 7/7/1 8/8/1
f 9/5/1 10/6/1 11/7/1 12/8/1
f 13/5/1 14/6/1 15/7/1 16/8/1
f 17/5/1 18/6/1 19/7/1 20/8/1
f 21/5/1 22/6/1 23/7/1 24/8/1
f 25/5/1 26/6/1 27/7/1 28/8/1
f 29/5/1 30/6/1 31/7/1 32/8/1
f 33/5/1 34/6/1 35/7/1 36/8/1
f 37/5/1 38/6/1 39/7/1 40/8/1
f 41/5/1 42/6/1 43/7/1 44/8/1
f 45/5/1 46/6/1 47/7/1 48/8/1
f 49/5/1 50/6/1 51/7/1 52/8/1
f 53/5/1 54/6/1 55/7/1 56/8/1
f 57/5/1 58/6/1 59/7/1 60/8/1
f 61/5/1 62/6/1 63/7/1 64/8/1
f 65/5/1 66/6/1 67/7/1 68/8/1
f 69/5/1 70/6/1 71/7/1 72/8/1
f 73/5/1 74/6/1 75/7/1 76/8/1
f 77/5/1 78/6/1 79/7/1 80/8/1
f 81/5/1 82/6/1 83/7/1 84/8/1
f 85/5/1 86/6/1 87/7/1 88/8/1
f 89/1/1 90/2/1 91/3/1 92/4/1
f 93/8/1 94/7/1 95/2/1 96/1/1
f 97/8/1 98/7/1 99/2/1 100/1/1
f 101/8/1 102/7/1 103/2/1 104/1/1
f 105/8/1 106/7/1 107/2/1 108/1/1
f 109/8/1 110/7/1 111/2/1 112/1/1
f 113/8/1 114/7/1 115/2/1 116/1/1
f 117/8/1 118/7/1 119/2/1 120/1/1
f 121/8/1 122/7/1 123/2/1 124/1/1
f 125/8/1 126/7/1 127/2/1 128/1/1
f 129/8/1 130/7/1 131/2/1 132/1/1
f 133/8/1 134/7/1 135/2/1 136/1/1
f 137/8/1 138/7/1 139/2/1 140/1/1
f 141/8/1 142/7/1 143/2/1 144/1/1
f 145/8/1 146/7/1 147/2/1 148/1/1
f 149/8/1 150/7/1 151/2/1 152/1/1
f 153/8/1 154/7/1 155/2/1 156/1/1
f 157/8/1 158/7/1 159/2/1 160/1/1
f 161/8/1 162/7/1 163/2/1 164/1/1
f 165/8/1 166/7/1 167/2/1 168/1/1
f 169/7/1 170/9/1 171/10/1 172/2/1
f 173/8/1 174/7/1 175/2/1 176/1/1
f 177/8/1 178/7/1 179/2/1 180/1/1
f 181/6/1 182/11/1 183/9/1 184/7/1
f 185/8/1 186/7/1 187/2/1 188/1/1
f 189/8/1 190/7/1 191/2/1 192/1/1
f 193/8/1 194/7/1 195/2/1 196/1/1
f 197/8/1 198/7/1 199/2/1 200/1/1
f 201/8/1 202/7/1 203/2/1 204/1/1
f 205/8/1 206/7/1 207/2/1 208/1/1
f 209/8/1 210/7/1 211/2/1 212/1/1
f 213/8/1 214/7/1 215/2/1 216/1/1
f 217/8/1 218/7/1 219/2/1 220/1/1
f 221/8/1 222/7/1 223/2/1 224/1/1
f 225/8/1 226/7/1 227/2/1 228/1/1
f 229/8/1 230/7/1 231/2/1 232/1/1
f 233/8/1 234/7/1 235/2/1 236/1/1
f 237/8/1 238/7/1 239/2/1 240/1/1
f 241/8/1 242/7/1 243/2/1 244/1/1
f 245/8/1 246/7/1 247/2/1 248/1/1
f 249/8/1 250/7/1 251/2/1 252/1/1
f 253/8/1 254/7/1 255/2/1 256/1/1
f 257/5/1 258/6/1 259/7/1 260/8/1
f 261/5/1 262/6/1 263/7/1 264/8/1
f 265/5/1 266/6/1 267/7/1 268/8/1
f 269/5/1 270/6/1 271/7/1 272/8/1
f 273/5/1 274/6/1 275/7/1 276/8/1
f 277/5/1 278/6/1 279/7/1 280/8/1
f 281/5/1 282/6/1 283/7/1 284/8/1
f 285/5/1 286/6/1 287/7/1 288/8/1
f 289/5/1 290/6/1 291/7/1 292/8/1
f 293/5/1 294/6/1 295/7/1 296/8/1
f 297/12/1 298/13/1 299/14/1 300/15/1
f 301/13/1 302/16/1 303/17/1 304/14/1
f 305/5/1 306/6/1 307/7/1 308/8/1
f 309/5/1 310/6/1 311/7/1 312/8/1
f 313/5/1 314/6/1 315/7/1 316/8/1
f 317/5/1 318/6/1 319/7/1 320/8/1
f 321/5/1 322/6/1 323/7/1 324/8/1
f 325/5/1 326/6/1 327/7/1 328/8/1
f 329/5/1 330/6/1 331/7/1 332/8/1
f 333/5/1 334/6/1 335/7/1 336/8/1
f 337/5/1 338/6/1 339/7/1 340/8/1
f 341/5/1 342/6/1 343/7/1 344/8/1

