# Tiled2Unity generated file. Do not modify by hand.
# Wavefront file for 'mapas_1_mesh_0005.obj'

# Vertices (Count = 20)
v -17 -1 0
v -18 -1 0
v -18 0 0
v -17 0 0
v -18 -1 0
v -19 -1 0
v -19 0 0
v -18 0 0
v -19 -1 0
v -20 -1 0
v -20 0 0
v -19 0 0
v -20 -2 0
v -21 -2 0
v -21 -1 0
v -20 -1 0
v -21 -2 0
v -22 -2 0
v -22 -1 0
v -21 -1 0

# Texture cooridinates (Count = 8)
vt 0.75 0.125
vt 0.8125 0.125
vt 0.8125 0.1875
vt 0.75 0.1875
vt 0.875 0.125
vt 0.875 0.1875
vt 0.9375 0.125
vt 0.9375 0.1875

# Normal
vn 0 0 -1

# Mesh description
g mapas_1_mesh_0005

# Faces
f 1/1/1 2/2/1 3/3/1 4/4/1
f 5/2/1 6/5/1 7/6/1 8/3/1
f 9/5/1 10/7/1 11/8/1 12/6/1
f 13/1/1 14/2/1 15/3/1 16/4/1
f 17/5/1 18/7/1 19/8/1 20/6/1

