# Tiled2Unity generated file. Do not modify by hand.
# Wavefront file for 'mapas_1_mesh_0007.obj'

# Vertices (Count = 16)
v -1 -7 0
v -2 -7 0
v -2 -6 0
v -1 -6 0
v -2 -7 0
v -3 -7 0
v -3 -6 0
v -2 -6 0
v -1 -8 0
v -2 -8 0
v -2 -7 0
v -1 -7 0
v -2 -8 0
v -3 -8 0
v -3 -7 0
v -2 -7 0

# Texture cooridinates (Count = 4)
vt 0.65 0.8333333
vt 0.7 0.8333333
vt 0.7 0.875
vt 0.65 0.875

# Normal
vn 0 0 -1

# Mesh description
g mapas_1_mesh_0007

# Faces
f 1/1/1 2/2/1 3/3/1 4/4/1
f 5/1/1 6/2/1 7/3/1 8/4/1
f 9/1/1 10/2/1 11/3/1 12/4/1
f 13/1/1 14/2/1 15/3/1 16/4/1

