# Tiled2Unity generated file. Do not modify by hand.
# Wavefront file for 'mapas_17_mesh_0007.obj'

# Vertices (Count = 240)
v -10 -1 0
v -11 -1 0
v -11 0 0
v -10 0 0
v -11 -1 0
v -12 -1 0
v -12 0 0
v -11 0 0
v -12 -1 0
v -13 -1 0
v -13 0 0
v -12 0 0
v -13 -1 0
v -14 -1 0
v -14 0 0
v -13 0 0
v -14 -1 0
v -15 -1 0
v -15 0 0
v -14 0 0
v -15 -1 0
v -16 -1 0
v -16 0 0
v -15 0 0
v -16 -1 0
v -17 -1 0
v -17 0 0
v -16 0 0
v -17 -1 0
v -18 -1 0
v -18 0 0
v -17 0 0
v -18 -1 0
v -19 -1 0
v -19 0 0
v -18 0 0
v -19 -1 0
v -20 -1 0
v -20 0 0
v -19 0 0
v -20 -1 0
v -21 -1 0
v -21 0 0
v -20 0 0
v -21 -1 0
v -22 -1 0
v -22 0 0
v -21 0 0
v -22 -1 0
v -23 -1 0
v -23 0 0
v -22 0 0
v -6 -2 0
v -7 -2 0
v -7 -1 0
v -6 -1 0
v -7 -2 0
v -8 -2 0
v -8 -1 0
v -7 -1 0
v -8 -2 0
v -9 -2 0
v -9 -1 0
v -8 -1 0
v -9 -2 0
v -10 -2 0
v -10 -1 0
v -9 -1 0
v -22 -2 0
v -23 -2 0
v -23 -1 0
v -22 -1 0
v -6 -3 0
v -7 -3 0
v -7 -2 0
v -6 -2 0
v -7 -3 0
v -8 -3 0
v -8 -2 0
v -7 -2 0
v -8 -3 0
v -9 -3 0
v -9 -2 0
v -8 -2 0
v -9 -3 0
v -10 -3 0
v -10 -2 0
v -9 -2 0
v -22 -3 0
v -23 -3 0
v -23 -2 0
v -22 -2 0
v -22 -4 0
v -23 -4 0
v -23 -3 0
v -22 -3 0
v -22 -5 0
v -23 -5 0
v -23 -4 0
v -22 -4 0
v -22 -6 0
v -23 -6 0
v -23 -5 0
v -22 -5 0
v -22 -7 0
v -23 -7 0
v -23 -6 0
v -22 -6 0
v -18 -8 0
v -19 -8 0
v -19 -7 0
v -18 -7 0
v -19 -8 0
v -20 -8 0
v -20 -7 0
v -19 -7 0
v -20 -8 0
v -21 -8 0
v -21 -7 0
v -20 -7 0
v -22 -8 0
v -23 -8 0
v -23 -7 0
v -22 -7 0
v -17 -9 0
v -18 -9 0
v -18 -8 0
v -17 -8 0
v -18 -9 0
v -19 -9 0
v -19 -8 0
v -18 -8 0
v -19 -9 0
v -20 -9 0
v -20 -8 0
v -19 -8 0
v -20 -9 0
v -21 -9 0
v -21 -8 0
v -20 -8 0
v -21 -9 0
v -22 -9 0
v -22 -8 0
v -21 -8 0
v -22 -9 0
v -23 -9 0
v -23 -8 0
v -22 -8 0
v -16 -10 0
v -17 -10 0
v -17 -9 0
v -16 -9 0
v -17 -10 0
v -18 -10 0
v -18 -9 0
v -17 -9 0
v -18 -10 0
v -19 -10 0
v -19 -9 0
v -18 -9 0
v -19 -10 0
v -20 -10 0
v -20 -9 0
v -19 -9 0
v -20 -10 0
v -21 -10 0
v -21 -9 0
v -20 -9 0
v -21 -10 0
v -22 -10 0
v -22 -9 0
v -21 -9 0
v -22 -10 0
v -23 -10 0
v -23 -9 0
v -22 -9 0
v -16 -11 0
v -17 -11 0
v -17 -10 0
v -16 -10 0
v -17 -11 0
v -18 -11 0
v -18 -10 0
v -17 -10 0
v -18 -11 0
v -19 -11 0
v -19 -10 0
v -18 -10 0
v -19 -11 0
v -20 -11 0
v -20 -10 0
v -19 -10 0
v -20 -11 0
v -21 -11 0
v -21 -10 0
v -20 -10 0
v -21 -11 0
v -22 -11 0
v -22 -10 0
v -21 -10 0
v -22 -11 0
v -23 -11 0
v -23 -10 0
v -22 -10 0
v -20 -12 0
v -21 -12 0
v -21 -11 0
v -20 -11 0
v -21 -12 0
v -22 -12 0
v -22 -11 0
v -21 -11 0
v -22 -12 0
v -23 -12 0
v -23 -11 0
v -22 -11 0
v -20 -13 0
v -21 -13 0
v -21 -12 0
v -20 -12 0
v -21 -13 0
v -22 -13 0
v -22 -12 0
v -21 -12 0
v -22 -13 0
v -23 -13 0
v -23 -12 0
v -22 -12 0
v -20 -14 0
v -21 -14 0
v -21 -13 0
v -20 -13 0
v -21 -14 0
v -22 -14 0
v -22 -13 0
v -21 -13 0
v -22 -14 0
v -23 -14 0
v -23 -13 0
v -22 -13 0

# Texture cooridinates (Count = 29)
vt 0.5 0.125
vt 0.5625 0.125
vt 0.5625 0.1875
vt 0.5 0.1875
vt 0.5 0.0625
vt 0.5625 0.0625
vt 0.625 0.125
vt 0.625 0.1875
vt 0.625 0.3125
vt 0.6875 0.3125
vt 0.6875 0.375
vt 0.625 0.375
vt 0.1875 0.9375
vt 0.25 0.9375
vt 0.25 1
vt 0.1875 1
vt 0.1875 0.75
vt 0.25 0.75
vt 0.25 0.8125
vt 0.1875 0.8125
vt 0.6875 0.25
vt 0.75 0.25
vt 0.75 0.3125
vt 0.25 0.875
vt 0.1875 0.875
vt 0.1875 0.6875
vt 0.25 0.6875
vt 0.625 0.25
vt 0.6875 0.1875

# Normal
vn 0 0 -1

# Mesh description
g mapas_17_mesh_0007

# Faces
f 1/1/1 2/2/1 3/3/1 4/4/1
f 5/5/1 6/6/1 7/2/1 8/1/1
f 9/5/1 10/6/1 11/2/1 12/1/1
f 13/5/1 14/6/1 15/2/1 16/1/1
f 17/2/1 18/7/1 19/8/1 20/3/1
f 21/2/1 22/7/1 23/8/1 24/3/1
f 25/2/1 26/7/1 27/8/1 28/3/1
f 29/2/1 30/7/1 31/8/1 32/3/1
f 33/2/1 34/7/1 35/8/1 36/3/1
f 37/2/1 38/7/1 39/8/1 40/3/1
f 41/2/1 42/7/1 43/8/1 44/3/1
f 45/2/1 46/7/1 47/8/1 48/3/1
f 49/9/1 50/10/1 51/11/1 52/12/1
f 53/13/1 54/14/1 55/15/1 56/16/1
f 57/17/1 58/18/1 59/19/1 60/20/1
f 61/17/1 62/18/1 63/19/1 64/20/1
f 65/13/1 66/14/1 67/15/1 68/16/1
f 69/21/1 70/22/1 71/23/1 72/10/1
f 73/20/1 74/19/1 75/24/1 76/25/1
f 77/20/1 78/19/1 79/24/1 80/25/1
f 81/20/1 82/19/1 83/24/1 84/25/1
f 85/20/1 86/19/1 87/24/1 88/25/1
f 89/21/1 90/22/1 91/23/1 92/10/1
f 93/21/1 94/22/1 95/23/1 96/10/1
f 97/21/1 98/22/1 99/23/1 100/10/1
f 101/21/1 102/22/1 103/23/1 104/10/1
f 105/21/1 106/22/1 107/23/1 108/10/1
f 109/17/1 110/18/1 111/19/1 112/20/1
f 113/13/1 114/14/1 115/15/1 116/16/1
f 117/17/1 118/18/1 119/19/1 120/20/1
f 121/21/1 122/22/1 123/23/1 124/10/1
f 125/13/1 126/14/1 127/15/1 128/16/1
f 129/25/1 130/24/1 131/14/1 132/13/1
f 133/26/1 134/27/1 135/18/1 136/17/1
f 137/26/1 138/27/1 139/18/1 140/17/1
f 141/17/1 142/18/1 143/19/1 144/20/1
f 145/21/1 146/22/1 147/23/1 148/10/1
f 149/25/1 150/24/1 151/14/1 152/13/1
f 153/25/1 154/24/1 155/14/1 156/13/1
f 157/26/1 158/27/1 159/18/1 160/17/1
f 161/25/1 162/24/1 163/14/1 164/13/1
f 165/25/1 166/24/1 167/14/1 168/13/1
f 169/25/1 170/24/1 171/14/1 172/13/1
f 173/21/1 174/22/1 175/23/1 176/10/1
f 177/20/1 178/19/1 179/24/1 180/25/1
f 181/20/1 182/19/1 183/24/1 184/25/1
f 185/20/1 186/19/1 187/24/1 188/25/1
f 189/20/1 190/19/1 191/24/1 192/25/1
f 193/1/1 194/2/1 195/3/1 196/4/1
f 197/2/1 198/7/1 199/8/1 200/3/1
f 201/28/1 202/21/1 203/10/1 204/9/1
f 205/1/1 206/2/1 207/3/1 208/4/1
f 209/2/1 210/7/1 211/8/1 212/3/1
f 213/28/1 214/21/1 215/10/1 216/9/1
f 217/1/1 218/2/1 219/3/1 220/4/1
f 221/2/1 222/7/1 223/8/1 224/3/1
f 225/28/1 226/21/1 227/10/1 228/9/1
f 229/1/1 230/2/1 231/3/1 232/4/1
f 233/2/1 234/7/1 235/8/1 236/3/1
f 237/8/1 238/29/1 239/21/1 240/28/1

