# Tiled2Unity generated file. Do not modify by hand.
# Wavefront file for 'mapas_8_mesh_0002.obj'

# Vertices (Count = 676)
v 0 -1 0
v -1 -1 0
v -1 0 0
v 0 0 0
v -1 -1 0
v -2 -1 0
v -2 0 0
v -1 0 0
v -2 -1 0
v -3 -1 0
v -3 0 0
v -2 0 0
v -3 -1 0
v -4 -1 0
v -4 0 0
v -3 0 0
v -4 -1 0
v -5 -1 0
v -5 0 0
v -4 0 0
v -5 -1 0
v -6 -1 0
v -6 0 0
v -5 0 0
v -6 -1 0
v -7 -1 0
v -7 0 0
v -6 0 0
v -7 -1 0
v -8 -1 0
v -8 0 0
v -7 0 0
v -8 -1 0
v -9 -1 0
v -9 0 0
v -8 0 0
v -9 -1 0
v -10 -1 0
v -10 0 0
v -9 0 0
v -10 -1 0
v -11 -1 0
v -11 0 0
v -10 0 0
v -11 -1 0
v -12 -1 0
v -12 0 0
v -11 0 0
v -12 -1 0
v -13 -1 0
v -13 0 0
v -12 0 0
v -13 -1 0
v -14 -1 0
v -14 0 0
v -13 0 0
v -14 -1 0
v -15 -1 0
v -15 0 0
v -14 0 0
v -15 -1 0
v -16 -1 0
v -16 0 0
v -15 0 0
v -16 -1 0
v -17 -1 0
v -17 0 0
v -16 0 0
v -17 -1 0
v -18 -1 0
v -18 0 0
v -17 0 0
v -18 -1 0
v -19 -1 0
v -19 0 0
v -18 0 0
v -19 -1 0
v -20 -1 0
v -20 0 0
v -19 0 0
v -20 -1 0
v -21 -1 0
v -21 0 0
v -20 0 0
v -21 -1 0
v -22 -1 0
v -22 0 0
v -21 0 0
v -22 -1 0
v -23 -1 0
v -23 0 0
v -22 0 0
v 0 -2 0
v -1 -2 0
v -1 -1 0
v 0 -1 0
v -9 -2 0
v -10 -2 0
v -10 -1 0
v -9 -1 0
v -22 -2 0
v -23 -2 0
v -23 -1 0
v -22 -1 0
v 0 -3 0
v -1 -3 0
v -1 -2 0
v 0 -2 0
v -9 -3 0
v -10 -3 0
v -10 -2 0
v -9 -2 0
v -22 -3 0
v -23 -3 0
v -23 -2 0
v -22 -2 0
v 0 -4 0
v -1 -4 0
v -1 -3 0
v 0 -3 0
v -22 -4 0
v -23 -4 0
v -23 -3 0
v -22 -3 0
v 0 -5 0
v -1 -5 0
v -1 -4 0
v 0 -4 0
v -22 -5 0
v -23 -5 0
v -23 -4 0
v -22 -4 0
v 0 -6 0
v -1 -6 0
v -1 -5 0
v 0 -5 0
v -3 -6 0
v -4 -6 0
v -4 -5 0
v -3 -5 0
v -4 -6 0
v -5 -6 0
v -5 -5 0
v -4 -5 0
v -5 -6 0
v -6 -6 0
v -6 -5 0
v -5 -5 0
v -6 -6 0
v -7 -6 0
v -7 -5 0
v -6 -5 0
v -7 -6 0
v -8 -6 0
v -8 -5 0
v -7 -5 0
v -8 -6 0
v -9 -6 0
v -9 -5 0
v -8 -5 0
v -9 -6 0
v -10 -6 0
v -10 -5 0
v -9 -5 0
v -10 -6 0
v -11 -6 0
v -11 -5 0
v -10 -5 0
v -11 -6 0
v -12 -6 0
v -12 -5 0
v -11 -5 0
v -12 -6 0
v -13 -6 0
v -13 -5 0
v -12 -5 0
v -15 -6 0
v -16 -6 0
v -16 -5 0
v -15 -5 0
v -16 -6 0
v -17 -6 0
v -17 -5 0
v -16 -5 0
v -17 -6 0
v -18 -6 0
v -18 -5 0
v -17 -5 0
v -18 -6 0
v -19 -6 0
v -19 -5 0
v -18 -5 0
v -19 -6 0
v -20 -6 0
v -20 -5 0
v -19 -5 0
v -20 -6 0
v -21 -6 0
v -21 -5 0
v -20 -5 0
v -21 -6 0
v -22 -6 0
v -22 -5 0
v -21 -5 0
v -22 -6 0
v -23 -6 0
v -23 -5 0
v -22 -5 0
v 0 -7 0
v -1 -7 0
v -1 -6 0
v 0 -6 0
v -7 -7 0
v -8 -7 0
v -8 -6 0
v -7 -6 0
v -12 -7 0
v -13 -7 0
v -13 -6 0
v -12 -6 0
v -17 -7 0
v -18 -7 0
v -18 -6 0
v -17 -6 0
v -22 -7 0
v -23 -7 0
v -23 -6 0
v -22 -6 0
v 0 -8 0
v -1 -8 0
v -1 -7 0
v 0 -7 0
v -12 -8 0
v -13 -8 0
v -13 -7 0
v -12 -7 0
v -22 -8 0
v -23 -8 0
v -23 -7 0
v -22 -7 0
v 0 -9 0
v -1 -9 0
v -1 -8 0
v 0 -8 0
v -12 -9 0
v -13 -9 0
v -13 -8 0
v -12 -8 0
v -22 -9 0
v -23 -9 0
v -23 -8 0
v -22 -8 0
v 0 -10 0
v -1 -10 0
v -1 -9 0
v 0 -9 0
v -1 -10 0
v -2 -10 0
v -2 -9 0
v -1 -9 0
v -2 -10 0
v -3 -10 0
v -3 -9 0
v -2 -9 0
v -3 -10 0
v -4 -10 0
v -4 -9 0
v -3 -9 0
v -6 -10 0
v -7 -10 0
v -7 -9 0
v -6 -9 0
v -7 -10 0
v -8 -10 0
v -8 -9 0
v -7 -9 0
v -8 -10 0
v -9 -10 0
v -9 -9 0
v -8 -9 0
v -9 -10 0
v -10 -10 0
v -10 -9 0
v -9 -9 0
v -10 -10 0
v -11 -10 0
v -11 -9 0
v -10 -9 0
v -11 -10 0
v -12 -10 0
v -12 -9 0
v -11 -9 0
v -12 -10 0
v -13 -10 0
v -13 -9 0
v -12 -9 0
v -13 -10 0
v -14 -10 0
v -14 -9 0
v -13 -9 0
v -14 -10 0
v -15 -10 0
v -15 -9 0
v -14 -9 0
v -15 -10 0
v -16 -10 0
v -16 -9 0
v -15 -9 0
v -16 -10 0
v -17 -10 0
v -17 -9 0
v -16 -9 0
v -17 -10 0
v -18 -10 0
v -18 -9 0
v -17 -9 0
v -18 -10 0
v -19 -10 0
v -19 -9 0
v -18 -9 0
v -19 -10 0
v -20 -10 0
v -20 -9 0
v -19 -9 0
v -22 -10 0
v -23 -10 0
v -23 -9 0
v -22 -9 0
v 0 -11 0
v -1 -11 0
v -1 -10 0
v 0 -10 0
v -6 -11 0
v -7 -11 0
v -7 -10 0
v -6 -10 0
v -13 -11 0
v -14 -11 0
v -14 -10 0
v -13 -10 0
v -22 -11 0
v -23 -11 0
v -23 -10 0
v -22 -10 0
v -6 -12 0
v -7 -12 0
v -7 -11 0
v -6 -11 0
v -13 -12 0
v -14 -12 0
v -14 -11 0
v -13 -11 0
v -22 -12 0
v -23 -12 0
v -23 -11 0
v -22 -11 0
v 0 -13 0
v -1 -13 0
v -1 -12 0
v 0 -12 0
v -6 -13 0
v -7 -13 0
v -7 -12 0
v -6 -12 0
v -9 -13 0
v -10 -13 0
v -10 -12 0
v -9 -12 0
v -22 -13 0
v -23 -13 0
v -23 -12 0
v -22 -12 0
v 0 -14 0
v -1 -14 0
v -1 -13 0
v 0 -13 0
v -6 -14 0
v -7 -14 0
v -7 -13 0
v -6 -13 0
v -9 -14 0
v -10 -14 0
v -10 -13 0
v -9 -13 0
v -22 -14 0
v -23 -14 0
v -23 -13 0
v -22 -13 0
v 0 -15 0
v -1 -15 0
v -1 -14 0
v 0 -14 0
v -1 -15 0
v -2 -15 0
v -2 -14 0
v -1 -14 0
v -2 -15 0
v -3 -15 0
v -3 -14 0
v -2 -14 0
v -3 -15 0
v -4 -15 0
v -4 -14 0
v -3 -14 0
v -4 -15 0
v -5 -15 0
v -5 -14 0
v -4 -14 0
v -5 -15 0
v -6 -15 0
v -6 -14 0
v -5 -14 0
v -6 -15 0
v -7 -15 0
v -7 -14 0
v -6 -14 0
v -9 -15 0
v -10 -15 0
v -10 -14 0
v -9 -14 0
v -10 -15 0
v -11 -15 0
v -11 -14 0
v -10 -14 0
v -11 -15 0
v -12 -15 0
v -12 -14 0
v -11 -14 0
v -12 -15 0
v -13 -15 0
v -13 -14 0
v -12 -14 0
v -13 -15 0
v -14 -15 0
v -14 -14 0
v -13 -14 0
v -14 -15 0
v -15 -15 0
v -15 -14 0
v -14 -14 0
v -15 -15 0
v -16 -15 0
v -16 -14 0
v -15 -14 0
v -16 -15 0
v -17 -15 0
v -17 -14 0
v -16 -14 0
v -17 -15 0
v -18 -15 0
v -18 -14 0
v -17 -14 0
v -18 -15 0
v -19 -15 0
v -19 -14 0
v -18 -14 0
v -19 -15 0
v -20 -15 0
v -20 -14 0
v -19 -14 0
v -20 -15 0
v -21 -15 0
v -21 -14 0
v -20 -14 0
v -21 -15 0
v -22 -15 0
v -22 -14 0
v -21 -14 0
v -22 -15 0
v -23 -15 0
v -23 -14 0
v -22 -14 0
v 0 -16 0
v -1 -16 0
v -1 -15 0
v 0 -15 0
v -5 -16 0
v -6 -16 0
v -6 -15 0
v -5 -15 0
v -17 -16 0
v -18 -16 0
v -18 -15 0
v -17 -15 0
v -22 -16 0
v -23 -16 0
v -23 -15 0
v -22 -15 0
v 0 -17 0
v -1 -17 0
v -1 -16 0
v 0 -16 0
v -5 -17 0
v -6 -17 0
v -6 -16 0
v -5 -16 0
v -17 -17 0
v -18 -17 0
v -18 -16 0
v -17 -16 0
v -22 -17 0
v -23 -17 0
v -23 -16 0
v -22 -16 0
v 0 -18 0
v -1 -18 0
v -1 -17 0
v 0 -17 0
v -10 -18 0
v -11 -18 0
v -11 -17 0
v -10 -17 0
v -17 -18 0
v -18 -18 0
v -18 -17 0
v -17 -17 0
v -22 -18 0
v -23 -18 0
v -23 -17 0
v -22 -17 0
v 0 -19 0
v -1 -19 0
v -1 -18 0
v 0 -18 0
v -10 -19 0
v -11 -19 0
v -11 -18 0
v -10 -18 0
v -17 -19 0
v -18 -19 0
v -18 -18 0
v -17 -18 0
v -22 -19 0
v -23 -19 0
v -23 -18 0
v -22 -18 0
v 0 -20 0
v -1 -20 0
v -1 -19 0
v 0 -19 0
v -5 -20 0
v -6 -20 0
v -6 -19 0
v -5 -19 0
v -10 -20 0
v -11 -20 0
v -11 -19 0
v -10 -19 0
v -17 -20 0
v -18 -20 0
v -18 -19 0
v -17 -19 0
v -22 -20 0
v -23 -20 0
v -23 -19 0
v -22 -19 0
v 0 -21 0
v -1 -21 0
v -1 -20 0
v 0 -20 0
v -5 -21 0
v -6 -21 0
v -6 -20 0
v -5 -20 0
v -10 -21 0
v -11 -21 0
v -11 -20 0
v -10 -20 0
v -22 -21 0
v -23 -21 0
v -23 -20 0
v -22 -20 0
v 0 -22 0
v -1 -22 0
v -1 -21 0
v 0 -21 0
v -5 -22 0
v -6 -22 0
v -6 -21 0
v -5 -21 0
v -10 -22 0
v -11 -22 0
v -11 -21 0
v -10 -21 0
v -22 -22 0
v -23 -22 0
v -23 -21 0
v -22 -21 0
v 0 -23 0
v -1 -23 0
v -1 -22 0
v 0 -22 0
v -1 -23 0
v -2 -23 0
v -2 -22 0
v -1 -22 0
v -2 -23 0
v -3 -23 0
v -3 -22 0
v -2 -22 0
v -3 -23 0
v -4 -23 0
v -4 -22 0
v -3 -22 0
v -4 -23 0
v -5 -23 0
v -5 -22 0
v -4 -22 0
v -5 -23 0
v -6 -23 0
v -6 -22 0
v -5 -22 0
v -6 -23 0
v -7 -23 0
v -7 -22 0
v -6 -22 0
v -7 -23 0
v -8 -23 0
v -8 -22 0
v -7 -22 0
v -8 -23 0
v -9 -23 0
v -9 -22 0
v -8 -22 0
v -9 -23 0
v -10 -23 0
v -10 -22 0
v -9 -22 0
v -10 -23 0
v -11 -23 0
v -11 -22 0
v -10 -22 0
v -11 -23 0
v -12 -23 0
v -12 -22 0
v -11 -22 0
v -13 -23 0
v -14 -23 0
v -14 -22 0
v -13 -22 0
v -14 -23 0
v -15 -23 0
v -15 -22 0
v -14 -22 0
v -15 -23 0
v -16 -23 0
v -16 -22 0
v -15 -22 0
v -16 -23 0
v -17 -23 0
v -17 -22 0
v -16 -22 0
v -17 -23 0
v -18 -23 0
v -18 -22 0
v -17 -22 0
v -18 -23 0
v -19 -23 0
v -19 -22 0
v -18 -22 0
v -19 -23 0
v -20 -23 0
v -20 -22 0
v -19 -22 0
v -20 -23 0
v -21 -23 0
v -21 -22 0
v -20 -22 0
v -21 -23 0
v -22 -23 0
v -22 -22 0
v -21 -22 0
v -22 -23 0
v -23 -23 0
v -23 -22 0
v -22 -22 0

# Texture cooridinates (Count = 28)
vt 0.25 0.5833333
vt 0.3 0.5833333
vt 0.3 0.625
vt 0.25 0.625
vt 0.25 0.5
vt 0.3 0.5
vt 0.3 0.5416667
vt 0.25 0.5416667
vt 0.35 0.5833333
vt 0.35 0.625
vt 0.65 0.5
vt 0.7 0.5
vt 0.7 0.5416667
vt 0.65 0.5416667
vt 0.35 0.6666667
vt 0.3 0.6666667
vt 0.35 0.5
vt 0.4 0.5
vt 0.4 0.5416667
vt 0.35 0.5416667
vt 0.4 0.5833333
vt 0.45 0.5833333
vt 0.45 0.625
vt 0.4 0.625
vt 0.6 0.5
vt 0.6 0.5416667
vt 0.45 0.5
vt 0.45 0.5416667

# Normal
vn 0 0 -1

# Mesh description
g mapas_8_mesh_0002

# Faces
f 1/1/1 2/2/1 3/3/1 4/4/1
f 5/5/1 6/6/1 7/7/1 8/8/1
f 9/5/1 10/6/1 11/7/1 12/8/1
f 13/5/1 14/6/1 15/7/1 16/8/1
f 17/5/1 18/6/1 19/7/1 20/8/1
f 21/5/1 22/6/1 23/7/1 24/8/1
f 25/5/1 26/6/1 27/7/1 28/8/1
f 29/5/1 30/6/1 31/7/1 32/8/1
f 33/5/1 34/6/1 35/7/1 36/8/1
f 37/2/1 38/9/1 39/10/1 40/3/1
f 41/5/1 42/6/1 43/7/1 44/8/1
f 45/5/1 46/6/1 47/7/1 48/8/1
f 49/5/1 50/6/1 51/7/1 52/8/1
f 53/5/1 54/6/1 55/7/1 56/8/1
f 57/5/1 58/6/1 59/7/1 60/8/1
f 61/5/1 62/6/1 63/7/1 64/8/1
f 65/5/1 66/6/1 67/7/1 68/8/1
f 69/5/1 70/6/1 71/7/1 72/8/1
f 73/5/1 74/6/1 75/7/1 76/8/1
f 77/5/1 78/6/1 79/7/1 80/8/1
f 81/5/1 82/6/1 83/7/1 84/8/1
f 85/5/1 86/6/1 87/7/1 88/8/1
f 89/1/1 90/2/1 91/3/1 92/4/1
f 93/8/1 94/7/1 95/2/1 96/1/1
f 97/8/1 98/7/1 99/2/1 100/1/1
f 101/8/1 102/7/1 103/2/1 104/1/1
f 105/8/1 106/7/1 107/2/1 108/1/1
f 109/5/1 110/6/1 111/7/1 112/8/1
f 113/8/1 114/7/1 115/2/1 116/1/1
f 117/8/1 118/7/1 119/2/1 120/1/1
f 121/8/1 122/7/1 123/2/1 124/1/1
f 125/8/1 126/7/1 127/2/1 128/1/1
f 129/8/1 130/7/1 131/2/1 132/1/1
f 133/8/1 134/7/1 135/2/1 136/1/1
f 137/11/1 138/12/1 139/13/1 140/14/1
f 141/3/1 142/10/1 143/15/1 144/16/1
f 145/3/1 146/10/1 147/15/1 148/16/1
f 149/3/1 150/10/1 151/15/1 152/16/1
f 153/17/1 154/18/1 155/19/1 156/20/1
f 157/3/1 158/10/1 159/15/1 160/16/1
f 161/3/1 162/10/1 163/15/1 164/16/1
f 165/3/1 166/10/1 167/15/1 168/16/1
f 169/3/1 170/10/1 171/15/1 172/16/1
f 173/6/1 174/17/1 175/20/1 176/7/1
f 177/11/1 178/12/1 179/13/1 180/14/1
f 181/3/1 182/10/1 183/15/1 184/16/1
f 185/2/1 186/9/1 187/10/1 188/3/1
f 189/3/1 190/10/1 191/15/1 192/16/1
f 193/3/1 194/10/1 195/15/1 196/16/1
f 197/3/1 198/10/1 199/15/1 200/16/1
f 201/3/1 202/10/1 203/15/1 204/16/1
f 205/21/1 206/22/1 207/23/1 208/24/1
f 209/8/1 210/7/1 211/2/1 212/1/1
f 213/7/1 214/20/1 215/9/1 216/2/1
f 217/8/1 218/7/1 219/2/1 220/1/1
f 221/7/1 222/20/1 223/9/1 224/2/1
f 225/8/1 226/7/1 227/2/1 228/1/1
f 229/8/1 230/7/1 231/2/1 232/1/1
f 233/8/1 234/7/1 235/2/1 236/1/1
f 237/8/1 238/7/1 239/2/1 240/1/1
f 241/8/1 242/7/1 243/2/1 244/1/1
f 245/8/1 246/7/1 247/2/1 248/1/1
f 249/8/1 250/7/1 251/2/1 252/1/1
f 253/2/1 254/9/1 255/10/1 256/3/1
f 257/3/1 258/10/1 259/15/1 260/16/1
f 261/3/1 262/10/1 263/15/1 264/16/1
f 265/25/1 266/11/1 267/14/1 268/26/1
f 269/1/1 270/2/1 271/3/1 272/4/1
f 273/3/1 274/10/1 275/15/1 276/16/1
f 277/3/1 278/10/1 279/15/1 280/16/1
f 281/3/1 282/10/1 283/15/1 284/16/1
f 285/3/1 286/10/1 287/15/1 288/16/1
f 289/3/1 290/10/1 291/15/1 292/16/1
f 293/3/1 294/10/1 295/15/1 296/16/1
f 297/2/1 298/9/1 299/10/1 300/3/1
f 301/3/1 302/10/1 303/15/1 304/16/1
f 305/3/1 306/10/1 307/15/1 308/16/1
f 309/3/1 310/10/1 311/15/1 312/16/1
f 313/3/1 314/10/1 315/15/1 316/16/1
f 317/3/1 318/10/1 319/15/1 320/16/1
f 321/25/1 322/11/1 323/14/1 324/26/1
f 325/8/1 326/7/1 327/2/1 328/1/1
f 329/7/1 330/20/1 331/9/1 332/2/1
f 333/8/1 334/7/1 335/2/1 336/1/1
f 337/8/1 338/7/1 339/2/1 340/1/1
f 341/8/1 342/7/1 343/2/1 344/1/1
f 345/8/1 346/7/1 347/2/1 348/1/1
f 349/7/1 350/20/1 351/9/1 352/2/1
f 353/8/1 354/7/1 355/2/1 356/1/1
f 357/2/1 358/9/1 359/10/1 360/3/1
f 361/8/1 362/7/1 363/2/1 364/1/1
f 365/9/1 366/21/1 367/24/1 368/10/1
f 369/8/1 370/7/1 371/2/1 372/1/1
f 373/8/1 374/7/1 375/2/1 376/1/1
f 377/8/1 378/7/1 379/2/1 380/1/1
f 381/8/1 382/7/1 383/2/1 384/1/1
f 385/8/1 386/7/1 387/2/1 388/1/1
f 389/2/1 390/9/1 391/10/1 392/3/1
f 393/3/1 394/10/1 395/15/1 396/16/1
f 397/3/1 398/10/1 399/15/1 400/16/1
f 401/3/1 402/10/1 403/15/1 404/16/1
f 405/3/1 406/10/1 407/15/1 408/16/1
f 409/2/1 410/9/1 411/10/1 412/3/1
f 413/25/1 414/11/1 415/14/1 416/26/1
f 417/11/1 418/12/1 419/13/1 420/14/1
f 421/3/1 422/10/1 423/15/1 424/16/1
f 425/3/1 426/10/1 427/15/1 428/16/1
f 429/3/1 430/10/1 431/15/1 432/16/1
f 433/3/1 434/10/1 435/15/1 436/16/1
f 437/3/1 438/10/1 439/15/1 440/16/1
f 441/3/1 442/10/1 443/15/1 444/16/1
f 445/3/1 446/10/1 447/15/1 448/16/1
f 449/2/1 450/9/1 451/10/1 452/3/1
f 453/3/1 454/10/1 455/15/1 456/16/1
f 457/3/1 458/10/1 459/15/1 460/16/1
f 461/3/1 462/10/1 463/15/1 464/16/1
f 465/3/1 466/10/1 467/15/1 468/16/1
f 469/8/1 470/7/1 471/2/1 472/1/1
f 473/8/1 474/7/1 475/2/1 476/1/1
f 477/8/1 478/7/1 479/2/1 480/1/1
f 481/8/1 482/7/1 483/2/1 484/1/1
f 485/8/1 486/7/1 487/2/1 488/1/1
f 489/8/1 490/7/1 491/2/1 492/1/1
f 493/7/1 494/20/1 495/9/1 496/2/1
f 497/8/1 498/7/1 499/2/1 500/1/1
f 501/8/1 502/7/1 503/2/1 504/1/1
f 505/8/1 506/7/1 507/2/1 508/1/1
f 509/1/1 510/2/1 511/3/1 512/4/1
f 513/8/1 514/7/1 515/2/1 516/1/1
f 517/8/1 518/7/1 519/2/1 520/1/1
f 521/8/1 522/7/1 523/2/1 524/1/1
f 525/8/1 526/7/1 527/2/1 528/1/1
f 529/8/1 530/7/1 531/2/1 532/1/1
f 533/8/1 534/7/1 535/2/1 536/1/1
f 537/8/1 538/7/1 539/2/1 540/1/1
f 541/18/1 542/27/1 543/28/1 544/19/1
f 545/8/1 546/7/1 547/2/1 548/1/1
f 549/7/1 550/20/1 551/9/1 552/2/1
f 553/8/1 554/7/1 555/2/1 556/1/1
f 557/8/1 558/7/1 559/2/1 560/1/1
f 561/8/1 562/7/1 563/2/1 564/1/1
f 565/8/1 566/7/1 567/2/1 568/1/1
f 569/8/1 570/7/1 571/2/1 572/1/1
f 573/8/1 574/7/1 575/2/1 576/1/1
f 577/8/1 578/7/1 579/2/1 580/1/1
f 581/8/1 582/7/1 583/2/1 584/1/1
f 585/8/1 586/7/1 587/2/1 588/1/1
f 589/5/1 590/6/1 591/7/1 592/8/1
f 593/5/1 594/6/1 595/7/1 596/8/1
f 597/5/1 598/6/1 599/7/1 600/8/1
f 601/5/1 602/6/1 603/7/1 604/8/1
f 605/5/1 606/6/1 607/7/1 608/8/1
f 609/5/1 610/6/1 611/7/1 612/8/1
f 613/5/1 614/6/1 615/7/1 616/8/1
f 617/5/1 618/6/1 619/7/1 620/8/1
f 621/5/1 622/6/1 623/7/1 624/8/1
f 625/5/1 626/6/1 627/7/1 628/8/1
f 629/5/1 630/6/1 631/7/1 632/8/1
f 633/25/1 634/11/1 635/14/1 636/26/1
f 637/11/1 638/12/1 639/13/1 640/14/1
f 641/5/1 642/6/1 643/7/1 644/8/1
f 645/5/1 646/6/1 647/7/1 648/8/1
f 649/5/1 650/6/1 651/7/1 652/8/1
f 653/5/1 654/6/1 655/7/1 656/8/1
f 657/5/1 658/6/1 659/7/1 660/8/1
f 661/5/1 662/6/1 663/7/1 664/8/1
f 665/5/1 666/6/1 667/7/1 668/8/1
f 669/5/1 670/6/1 671/7/1 672/8/1
f 673/5/1 674/6/1 675/7/1 676/8/1

