# Tiled2Unity generated file. Do not modify by hand.
# Wavefront file for 'mapsmaugup_mesh_0002.obj'

# Vertices (Count = 160)
v -10 -11 0
v -11 -11 0
v -11 -10 0
v -10 -10 0
v -9 -11 0
v -10 -11 0
v -10 -10 0
v -9 -10 0
v -8 -11 0
v -9 -11 0
v -9 -10 0
v -8 -10 0
v -7 -11 0
v -8 -11 0
v -8 -10 0
v -7 -10 0
v -6 -11 0
v -7 -11 0
v -7 -10 0
v -6 -10 0
v -5 -11 0
v -6 -11 0
v -6 -10 0
v -5 -10 0
v -4 -11 0
v -5 -11 0
v -5 -10 0
v -4 -10 0
v -3 -11 0
v -4 -11 0
v -4 -10 0
v -3 -10 0
v -2 -11 0
v -3 -11 0
v -3 -10 0
v -2 -10 0
v -1 -11 0
v -2 -11 0
v -2 -10 0
v -1 -10 0
v 0 -11 0
v -1 -11 0
v -1 -10 0
v 0 -10 0
v -10 -10 0
v -11 -10 0
v -11 -9 0
v -10 -9 0
v 0 -10 0
v -1 -10 0
v -1 -9 0
v 0 -9 0
v -10 -9 0
v -11 -9 0
v -11 -8 0
v -10 -8 0
v 0 -9 0
v -1 -9 0
v -1 -8 0
v 0 -8 0
v -10 -8 0
v -11 -8 0
v -11 -7 0
v -10 -7 0
v 0 -8 0
v -1 -8 0
v -1 -7 0
v 0 -7 0
v -10 -7 0
v -11 -7 0
v -11 -6 0
v -10 -6 0
v 0 -7 0
v -1 -7 0
v -1 -6 0
v 0 -6 0
v -10 -6 0
v -11 -6 0
v -11 -5 0
v -10 -5 0
v 0 -6 0
v -1 -6 0
v -1 -5 0
v 0 -5 0
v -10 -5 0
v -11 -5 0
v -11 -4 0
v -10 -4 0
v 0 -5 0
v -1 -5 0
v -1 -4 0
v 0 -4 0
v -10 -4 0
v -11 -4 0
v -11 -3 0
v -10 -3 0
v 0 -4 0
v -1 -4 0
v -1 -3 0
v 0 -3 0
v -10 -3 0
v -11 -3 0
v -11 -2 0
v -10 -2 0
v 0 -3 0
v -1 -3 0
v -1 -2 0
v 0 -2 0
v -10 -2 0
v -11 -2 0
v -11 -1 0
v -10 -1 0
v 0 -2 0
v -1 -2 0
v -1 -1 0
v 0 -1 0
v -10 -1 0
v -11 -1 0
v -11 0 0
v -10 0 0
v -9 -1 0
v -10 -1 0
v -10 0 0
v -9 0 0
v -8 -1 0
v -9 -1 0
v -9 0 0
v -8 0 0
v -7 -1 0
v -8 -1 0
v -8 0 0
v -7 0 0
v -6 -1 0
v -7 -1 0
v -7 0 0
v -6 0 0
v -5 -1 0
v -6 -1 0
v -6 0 0
v -5 0 0
v -4 -1 0
v -5 -1 0
v -5 0 0
v -4 0 0
v -3 -1 0
v -4 -1 0
v -4 0 0
v -3 0 0
v -2 -1 0
v -3 -1 0
v -3 0 0
v -2 0 0
v -1 -1 0
v -2 -1 0
v -2 0 0
v -1 0 0
v 0 -1 0
v -1 -1 0
v -1 0 0
v 0 0 0

# Texture cooridinates (Count = 22)
vt 0.25 0.5
vt 0.3 0.5
vt 0.3 0.5416667
vt 0.25 0.5416667
vt 0.35 0.625
vt 0.4 0.625
vt 0.4 0.6666667
vt 0.35 0.6666667
vt 0.65 0.5
vt 0.7 0.5
vt 0.7 0.5416667
vt 0.65 0.5416667
vt 0.75 0.08333334
vt 0.8 0.08333334
vt 0.8 0.125
vt 0.75 0.125
vt 0.6 0.5
vt 0.6 0.5416667
vt 0.3 0.5833333
vt 0.25 0.5833333
vt 0.3 0.625
vt 0.25 0.625

# Normal
vn 0 0 -1

# Mesh description
g mapsmaugup_mesh_0002

# Faces
f 1/1/1 2/2/1 3/3/1 4/4/1
f 5/5/1 6/6/1 7/7/1 8/8/1
f 9/5/1 10/6/1 11/7/1 12/8/1
f 13/5/1 14/6/1 15/7/1 16/8/1
f 17/9/1 18/10/1 19/11/1 20/12/1
f 21/13/1 22/14/1 23/15/1 24/16/1
f 25/17/1 26/9/1 27/12/1 28/18/1
f 29/5/1 30/6/1 31/7/1 32/8/1
f 33/5/1 34/6/1 35/7/1 36/8/1
f 37/5/1 38/6/1 39/7/1 40/8/1
f 41/1/1 42/2/1 43/3/1 44/4/1
f 45/4/1 46/3/1 47/19/1 48/20/1
f 49/4/1 50/3/1 51/19/1 52/20/1
f 53/4/1 54/3/1 55/19/1 56/20/1
f 57/4/1 58/3/1 59/19/1 60/20/1
f 61/4/1 62/3/1 63/19/1 64/20/1
f 65/4/1 66/3/1 67/19/1 68/20/1
f 69/4/1 70/3/1 71/19/1 72/20/1
f 73/4/1 74/3/1 75/19/1 76/20/1
f 77/4/1 78/3/1 79/19/1 80/20/1
f 81/4/1 82/3/1 83/19/1 84/20/1
f 85/4/1 86/3/1 87/19/1 88/20/1
f 89/4/1 90/3/1 91/19/1 92/20/1
f 93/4/1 94/3/1 95/19/1 96/20/1
f 97/4/1 98/3/1 99/19/1 100/20/1
f 101/4/1 102/3/1 103/19/1 104/20/1
f 105/4/1 106/3/1 107/19/1 108/20/1
f 109/4/1 110/3/1 111/19/1 112/20/1
f 113/4/1 114/3/1 115/19/1 116/20/1
f 117/20/1 118/19/1 119/21/1 120/22/1
f 121/5/1 122/6/1 123/7/1 124/8/1
f 125/5/1 126/6/1 127/7/1 128/8/1
f 129/5/1 130/6/1 131/7/1 132/8/1
f 133/5/1 134/6/1 135/7/1 136/8/1
f 137/5/1 138/6/1 139/7/1 140/8/1
f 141/5/1 142/6/1 143/7/1 144/8/1
f 145/5/1 146/6/1 147/7/1 148/8/1
f 149/5/1 150/6/1 151/7/1 152/8/1
f 153/5/1 154/6/1 155/7/1 156/8/1
f 157/20/1 158/19/1 159/21/1 160/22/1

