# Tiled2Unity generated file. Do not modify by hand.
# Wavefront file for 'blitzteste_1_mesh_0002.obj'

# Vertices (Count = 272)
v -1 -2 0
v -2 -2 0
v -2 -1 0
v -1 -1 0
v -2 -2 0
v -3 -2 0
v -3 -1 0
v -2 -1 0
v -3 -2 0
v -4 -2 0
v -4 -1 0
v -3 -1 0
v -4 -2 0
v -5 -2 0
v -5 -1 0
v -4 -1 0
v -5 -2 0
v -6 -2 0
v -6 -1 0
v -5 -1 0
v -6 -2 0
v -7 -2 0
v -7 -1 0
v -6 -1 0
v -7 -2 0
v -8 -2 0
v -8 -1 0
v -7 -1 0
v -8 -2 0
v -9 -2 0
v -9 -1 0
v -8 -1 0
v -9 -2 0
v -10 -2 0
v -10 -1 0
v -9 -1 0
v -10 -2 0
v -11 -2 0
v -11 -1 0
v -10 -1 0
v -11 -2 0
v -12 -2 0
v -12 -1 0
v -11 -1 0
v -12 -2 0
v -13 -2 0
v -13 -1 0
v -12 -1 0
v -13 -2 0
v -14 -2 0
v -14 -1 0
v -13 -1 0
v -14 -2 0
v -15 -2 0
v -15 -1 0
v -14 -1 0
v -15 -2 0
v -16 -2 0
v -16 -1 0
v -15 -1 0
v -16 -2 0
v -17 -2 0
v -17 -1 0
v -16 -1 0
v -17 -2 0
v -18 -2 0
v -18 -1 0
v -17 -1 0
v -18 -2 0
v -19 -2 0
v -19 -1 0
v -18 -1 0
v -1 -3 0
v -2 -3 0
v -2 -2 0
v -1 -2 0
v -18 -3 0
v -19 -3 0
v -19 -2 0
v -18 -2 0
v -1 -4 0
v -2 -4 0
v -2 -3 0
v -1 -3 0
v -18 -4 0
v -19 -4 0
v -19 -3 0
v -18 -3 0
v -1 -5 0
v -2 -5 0
v -2 -4 0
v -1 -4 0
v -18 -5 0
v -19 -5 0
v -19 -4 0
v -18 -4 0
v -1 -6 0
v -2 -6 0
v -2 -5 0
v -1 -5 0
v -18 -6 0
v -19 -6 0
v -19 -5 0
v -18 -5 0
v -1 -7 0
v -2 -7 0
v -2 -6 0
v -1 -6 0
v -18 -7 0
v -19 -7 0
v -19 -6 0
v -18 -6 0
v -1 -8 0
v -2 -8 0
v -2 -7 0
v -1 -7 0
v -18 -8 0
v -19 -8 0
v -19 -7 0
v -18 -7 0
v -1 -9 0
v -2 -9 0
v -2 -8 0
v -1 -8 0
v -18 -9 0
v -19 -9 0
v -19 -8 0
v -18 -8 0
v -1 -10 0
v -2 -10 0
v -2 -9 0
v -1 -9 0
v -18 -10 0
v -19 -10 0
v -19 -9 0
v -18 -9 0
v -1 -11 0
v -2 -11 0
v -2 -10 0
v -1 -10 0
v -18 -11 0
v -19 -11 0
v -19 -10 0
v -18 -10 0
v -1 -12 0
v -2 -12 0
v -2 -11 0
v -1 -11 0
v -18 -12 0
v -19 -12 0
v -19 -11 0
v -18 -11 0
v -1 -13 0
v -2 -13 0
v -2 -12 0
v -1 -12 0
v -18 -13 0
v -19 -13 0
v -19 -12 0
v -18 -12 0
v -1 -14 0
v -2 -14 0
v -2 -13 0
v -1 -13 0
v -18 -14 0
v -19 -14 0
v -19 -13 0
v -18 -13 0
v -1 -15 0
v -2 -15 0
v -2 -14 0
v -1 -14 0
v -18 -15 0
v -19 -15 0
v -19 -14 0
v -18 -14 0
v -1 -16 0
v -2 -16 0
v -2 -15 0
v -1 -15 0
v -18 -16 0
v -19 -16 0
v -19 -15 0
v -18 -15 0
v -1 -17 0
v -2 -17 0
v -2 -16 0
v -1 -16 0
v -18 -17 0
v -19 -17 0
v -19 -16 0
v -18 -16 0
v -1 -18 0
v -2 -18 0
v -2 -17 0
v -1 -17 0
v -18 -18 0
v -19 -18 0
v -19 -17 0
v -18 -17 0
v -1 -19 0
v -2 -19 0
v -2 -18 0
v -1 -18 0
v -2 -19 0
v -3 -19 0
v -3 -18 0
v -2 -18 0
v -3 -19 0
v -4 -19 0
v -4 -18 0
v -3 -18 0
v -4 -19 0
v -5 -19 0
v -5 -18 0
v -4 -18 0
v -5 -19 0
v -6 -19 0
v -6 -18 0
v -5 -18 0
v -6 -19 0
v -7 -19 0
v -7 -18 0
v -6 -18 0
v -7 -19 0
v -8 -19 0
v -8 -18 0
v -7 -18 0
v -8 -19 0
v -9 -19 0
v -9 -18 0
v -8 -18 0
v -9 -19 0
v -10 -19 0
v -10 -18 0
v -9 -18 0
v -10 -19 0
v -11 -19 0
v -11 -18 0
v -10 -18 0
v -11 -19 0
v -12 -19 0
v -12 -18 0
v -11 -18 0
v -12 -19 0
v -13 -19 0
v -13 -18 0
v -12 -18 0
v -13 -19 0
v -14 -19 0
v -14 -18 0
v -13 -18 0
v -14 -19 0
v -15 -19 0
v -15 -18 0
v -14 -18 0
v -15 -19 0
v -16 -19 0
v -16 -18 0
v -15 -18 0
v -16 -19 0
v -17 -19 0
v -17 -18 0
v -16 -18 0
v -17 -19 0
v -18 -19 0
v -18 -18 0
v -17 -18 0
v -18 -19 0
v -19 -19 0
v -19 -18 0
v -18 -18 0

# Texture cooridinates (Count = 27)
vt 0.25 0.5833333
vt 0.3 0.5833333
vt 0.3 0.625
vt 0.25 0.625
vt 0.35 0.625
vt 0.4 0.625
vt 0.4 0.6666667
vt 0.35 0.6666667
vt 0.6 0.5
vt 0.65 0.5
vt 0.65 0.5416667
vt 0.6 0.5416667
vt 0.7 0.5
vt 0.75 0.5
vt 0.75 0.5416667
vt 0.7 0.5416667
vt 0.25 0.5416667
vt 0.3 0.5416667
vt 0.25 0.5
vt 0.3 0.5
vt 0.9 0.6666667
vt 0.95 0.6666667
vt 0.95 0.7083333
vt 0.9 0.7083333
vt 0.3 0.6666667
vt 0.45 0.625
vt 0.45 0.6666667

# Normal
vn 0 0 -1

# Mesh description
g blitzteste_1_mesh_0002

# Faces
f 1/1/1 2/2/1 3/3/1 4/4/1
f 5/5/1 6/6/1 7/7/1 8/8/1
f 9/5/1 10/6/1 11/7/1 12/8/1
f 13/5/1 14/6/1 15/7/1 16/8/1
f 17/5/1 18/6/1 19/7/1 20/8/1
f 21/5/1 22/6/1 23/7/1 24/8/1
f 25/5/1 26/6/1 27/7/1 28/8/1
f 29/5/1 30/6/1 31/7/1 32/8/1
f 33/9/1 34/10/1 35/11/1 36/12/1
f 37/13/1 38/14/1 39/15/1 40/16/1
f 41/10/1 42/13/1 43/16/1 44/11/1
f 45/5/1 46/6/1 47/7/1 48/8/1
f 49/5/1 50/6/1 51/7/1 52/8/1
f 53/5/1 54/6/1 55/7/1 56/8/1
f 57/5/1 58/6/1 59/7/1 60/8/1
f 61/5/1 62/6/1 63/7/1 64/8/1
f 65/5/1 66/6/1 67/7/1 68/8/1
f 69/1/1 70/2/1 71/3/1 72/4/1
f 73/17/1 74/18/1 75/2/1 76/1/1
f 77/17/1 78/18/1 79/2/1 80/1/1
f 81/17/1 82/18/1 83/2/1 84/1/1
f 85/17/1 86/18/1 87/2/1 88/1/1
f 89/17/1 90/18/1 91/2/1 92/1/1
f 93/17/1 94/18/1 95/2/1 96/1/1
f 97/17/1 98/18/1 99/2/1 100/1/1
f 101/17/1 102/18/1 103/2/1 104/1/1
f 105/17/1 106/18/1 107/2/1 108/1/1
f 109/17/1 110/18/1 111/2/1 112/1/1
f 113/17/1 114/18/1 115/2/1 116/1/1
f 117/17/1 118/18/1 119/2/1 120/1/1
f 121/17/1 122/18/1 123/2/1 124/1/1
f 125/19/1 126/20/1 127/18/1 128/17/1
f 129/17/1 130/18/1 131/2/1 132/1/1
f 133/21/1 134/22/1 135/23/1 136/24/1
f 137/17/1 138/18/1 139/2/1 140/1/1
f 141/1/1 142/2/1 143/3/1 144/4/1
f 145/17/1 146/18/1 147/2/1 148/1/1
f 149/17/1 150/18/1 151/2/1 152/1/1
f 153/17/1 154/18/1 155/2/1 156/1/1
f 157/17/1 158/18/1 159/2/1 160/1/1
f 161/17/1 162/18/1 163/2/1 164/1/1
f 165/17/1 166/18/1 167/2/1 168/1/1
f 169/17/1 170/18/1 171/2/1 172/1/1
f 173/17/1 174/18/1 175/2/1 176/1/1
f 177/17/1 178/18/1 179/2/1 180/1/1
f 181/17/1 182/18/1 183/2/1 184/1/1
f 185/17/1 186/18/1 187/2/1 188/1/1
f 189/17/1 190/18/1 191/2/1 192/1/1
f 193/17/1 194/18/1 195/2/1 196/1/1
f 197/17/1 198/18/1 199/2/1 200/1/1
f 201/3/1 202/5/1 203/8/1 204/25/1
f 205/5/1 206/6/1 207/7/1 208/8/1
f 209/5/1 210/6/1 211/7/1 212/8/1
f 213/5/1 214/6/1 215/7/1 216/8/1
f 217/5/1 218/6/1 219/7/1 220/8/1
f 221/5/1 222/6/1 223/7/1 224/8/1
f 225/5/1 226/6/1 227/7/1 228/8/1
f 229/5/1 230/6/1 231/7/1 232/8/1
f 233/5/1 234/6/1 235/7/1 236/8/1
f 237/5/1 238/6/1 239/7/1 240/8/1
f 241/5/1 242/6/1 243/7/1 244/8/1
f 245/5/1 246/6/1 247/7/1 248/8/1
f 249/5/1 250/6/1 251/7/1 252/8/1
f 253/5/1 254/6/1 255/7/1 256/8/1
f 257/5/1 258/6/1 259/7/1 260/8/1
f 261/5/1 262/6/1 263/7/1 264/8/1
f 265/5/1 266/6/1 267/7/1 268/8/1
f 269/6/1 270/26/1 271/27/1 272/7/1

