# Tiled2Unity generated file. Do not modify by hand.
# Wavefront file for 'mapa_4_mesh_0003.obj'

# Vertices (Count = 88)
v -1 -1 0
v -2 -1 0
v -2 0 0
v -1 0 0
v -2 -1 0
v -3 -1 0
v -3 0 0
v -2 0 0
v -3 -1 0
v -4 -1 0
v -4 0 0
v -3 0 0
v -5 -1 0
v -6 -1 0
v -6 0 0
v -5 0 0
v -7 -1 0
v -8 -1 0
v -8 0 0
v -7 0 0
v -8 -1 0
v -9 -1 0
v -9 0 0
v -8 0 0
v -9 -1 0
v -10 -1 0
v -10 0 0
v -9 0 0
v -1 -2 0
v -2 -2 0
v -2 -1 0
v -1 -1 0
v -2 -2 0
v -3 -2 0
v -3 -1 0
v -2 -1 0
v -3 -2 0
v -4 -2 0
v -4 -1 0
v -3 -1 0
v -5 -2 0
v -6 -2 0
v -6 -1 0
v -5 -1 0
v -7 -2 0
v -8 -2 0
v -8 -1 0
v -7 -1 0
v -8 -2 0
v -9 -2 0
v -9 -1 0
v -8 -1 0
v -9 -2 0
v -10 -2 0
v -10 -1 0
v -9 -1 0
v -5 -5 0
v -6 -5 0
v -6 -4 0
v -5 -4 0
v -6 -5 0
v -7 -5 0
v -7 -4 0
v -6 -4 0
v -5 -6 0
v -6 -6 0
v -6 -5 0
v -5 -5 0
v -6 -6 0
v -7 -6 0
v -7 -5 0
v -6 -5 0
v -5 -7 0
v -6 -7 0
v -6 -6 0
v -5 -6 0
v -6 -7 0
v -7 -7 0
v -7 -6 0
v -6 -6 0
v -5 -8 0
v -6 -8 0
v -6 -7 0
v -5 -7 0
v -6 -8 0
v -7 -8 0
v -7 -7 0
v -6 -7 0

# Texture cooridinates (Count = 33)
vt 0.75 0.375
vt 0.8 0.375
vt 0.8 0.4166667
vt 0.75 0.4166667
vt 0.85 0.375
vt 0.85 0.4166667
vt 0.25 0.25
vt 0.3 0.25
vt 0.3 0.2916667
vt 0.25 0.2916667
vt 0.65 0.2916667
vt 0.7 0.2916667
vt 0.7 0.3333333
vt 0.65 0.3333333
vt 0.75 0.3333333
vt 0.8 0.3333333
vt 0.85 0.3333333
vt 0.25 0.2083333
vt 0.3 0.2083333
vt 0.65 0.25
vt 0.7 0.25
vt 0.55 0.3333333
vt 0.6 0.3333333
vt 0.6 0.375
vt 0.55 0.375
vt 0.65 0.375
vt 0.55 0.2916667
vt 0.6 0.2916667
vt 0.55 0.25
vt 0.6 0.25
vt 0.55 0.2083333
vt 0.6 0.2083333
vt 0.65 0.2083333

# Normal
vn 0 0 -1

# Mesh description
g mapa_4_mesh_0003

# Faces
f 1/1/1 2/2/1 3/3/1 4/4/1
f 5/2/1 6/5/1 7/6/1 8/3/1
f 9/7/1 10/8/1 11/9/1 12/10/1
f 13/11/1 14/12/1 15/13/1 16/14/1
f 17/7/1 18/8/1 19/9/1 20/10/1
f 21/1/1 22/2/1 23/3/1 24/4/1
f 25/2/1 26/5/1 27/6/1 28/3/1
f 29/15/1 30/16/1 31/2/1 32/1/1
f 33/16/1 34/17/1 35/5/1 36/2/1
f 37/18/1 38/19/1 39/8/1 40/7/1
f 41/20/1 42/21/1 43/12/1 44/11/1
f 45/18/1 46/19/1 47/8/1 48/7/1
f 49/15/1 50/16/1 51/2/1 52/1/1
f 53/16/1 54/17/1 55/5/1 56/2/1
f 57/22/1 58/23/1 59/24/1 60/25/1
f 61/23/1 62/14/1 63/26/1 64/24/1
f 65/27/1 66/28/1 67/23/1 68/22/1
f 69/28/1 70/11/1 71/14/1 72/23/1
f 73/29/1 74/30/1 75/28/1 76/27/1
f 77/30/1 78/20/1 79/11/1 80/28/1
f 81/31/1 82/32/1 83/30/1 84/29/1
f 85/32/1 86/33/1 87/20/1 88/30/1

