# Tiled2Unity generated file. Do not modify by hand.
# Wavefront file for 'mapa_4_mesh_0002.obj'

# Vertices (Count = 200)
v 0 -1 0
v -1 -1 0
v -1 0 0
v 0 0 0
v -1 -1 0
v -2 -1 0
v -2 0 0
v -1 0 0
v -2 -1 0
v -3 -1 0
v -3 0 0
v -2 0 0
v -3 -1 0
v -4 -1 0
v -4 0 0
v -3 0 0
v -4 -1 0
v -5 -1 0
v -5 0 0
v -4 0 0
v -5 -1 0
v -6 -1 0
v -6 0 0
v -5 0 0
v -6 -1 0
v -7 -1 0
v -7 0 0
v -6 0 0
v -7 -1 0
v -8 -1 0
v -8 0 0
v -7 0 0
v -8 -1 0
v -9 -1 0
v -9 0 0
v -8 0 0
v -9 -1 0
v -10 -1 0
v -10 0 0
v -9 0 0
v -10 -1 0
v -11 -1 0
v -11 0 0
v -10 0 0
v 0 -2 0
v -1 -2 0
v -1 -1 0
v 0 -1 0
v -1 -2 0
v -2 -2 0
v -2 -1 0
v -1 -1 0
v -9 -2 0
v -10 -2 0
v -10 -1 0
v -9 -1 0
v -10 -2 0
v -11 -2 0
v -11 -1 0
v -10 -1 0
v 0 -3 0
v -1 -3 0
v -1 -2 0
v 0 -2 0
v -1 -3 0
v -2 -3 0
v -2 -2 0
v -1 -2 0
v -9 -3 0
v -10 -3 0
v -10 -2 0
v -9 -2 0
v -10 -3 0
v -11 -3 0
v -11 -2 0
v -10 -2 0
v 0 -4 0
v -1 -4 0
v -1 -3 0
v 0 -3 0
v -1 -4 0
v -2 -4 0
v -2 -3 0
v -1 -3 0
v -2 -4 0
v -3 -4 0
v -3 -3 0
v -2 -3 0
v -3 -4 0
v -4 -4 0
v -4 -3 0
v -3 -3 0
v -4 -4 0
v -5 -4 0
v -5 -3 0
v -4 -3 0
v -5 -4 0
v -6 -4 0
v -6 -3 0
v -5 -3 0
v -6 -4 0
v -7 -4 0
v -7 -3 0
v -6 -3 0
v -7 -4 0
v -8 -4 0
v -8 -3 0
v -7 -3 0
v -8 -4 0
v -9 -4 0
v -9 -3 0
v -8 -3 0
v -9 -4 0
v -10 -4 0
v -10 -3 0
v -9 -3 0
v -10 -4 0
v -11 -4 0
v -11 -3 0
v -10 -3 0
v 0 -5 0
v -1 -5 0
v -1 -4 0
v 0 -4 0
v -10 -5 0
v -11 -5 0
v -11 -4 0
v -10 -4 0
v 0 -7 0
v -1 -7 0
v -1 -6 0
v 0 -6 0
v -10 -7 0
v -11 -7 0
v -11 -6 0
v -10 -6 0
v 0 -8 0
v -1 -8 0
v -1 -7 0
v 0 -7 0
v -10 -8 0
v -11 -8 0
v -11 -7 0
v -10 -7 0
v 0 -9 0
v -1 -9 0
v -1 -8 0
v 0 -8 0
v -10 -9 0
v -11 -9 0
v -11 -8 0
v -10 -8 0
v 0 -10 0
v -1 -10 0
v -1 -9 0
v 0 -9 0
v -10 -10 0
v -11 -10 0
v -11 -9 0
v -10 -9 0
v 0 -11 0
v -1 -11 0
v -1 -10 0
v 0 -10 0
v -1 -11 0
v -2 -11 0
v -2 -10 0
v -1 -10 0
v -2 -11 0
v -3 -11 0
v -3 -10 0
v -2 -10 0
v -3 -11 0
v -4 -11 0
v -4 -10 0
v -3 -10 0
v -4 -11 0
v -5 -11 0
v -5 -10 0
v -4 -10 0
v -6 -11 0
v -7 -11 0
v -7 -10 0
v -6 -10 0
v -7 -11 0
v -8 -11 0
v -8 -10 0
v -7 -10 0
v -8 -11 0
v -9 -11 0
v -9 -10 0
v -8 -10 0
v -9 -11 0
v -10 -11 0
v -10 -10 0
v -9 -10 0
v -10 -11 0
v -11 -11 0
v -11 -10 0
v -10 -10 0

# Texture cooridinates (Count = 25)
vt 0.25 0.5833333
vt 0.3 0.5833333
vt 0.3 0.625
vt 0.25 0.625
vt 0.4 0.5416667
vt 0.35 0.5416667
vt 0.35 0.5833333
vt 0.4 0.5833333
vt 0.3 0.5416667
vt 0.45 0.5416667
vt 0.45 0.5833333
vt 0.25 0.5416667
vt 0.8 0.25
vt 0.85 0.25
vt 0.85 0.2916667
vt 0.8 0.2916667
vt 0.8 0.2083333
vt 0.85 0.2083333
vt 0.55 0.5416667
vt 0.6 0.5416667
vt 0.6 0.5833333
vt 0.55 0.5833333
vt 0.25 0.5
vt 0.3 0.5
vt 0.35 0.625

# Normal
vn 0 0 -1

# Mesh description
g mapa_4_mesh_0002

# Faces
f 1/1/1 2/2/1 3/3/1 4/4/1
f 5/5/1 6/6/1 7/7/1 8/8/1
f 9/6/1 10/9/1 11/2/1 12/7/1
f 13/5/1 14/6/1 15/7/1 16/8/1
f 17/6/1 18/9/1 19/2/1 20/7/1
f 21/5/1 22/10/1 23/11/1 24/8/1
f 25/5/1 26/6/1 27/7/1 28/8/1
f 29/6/1 30/9/1 31/2/1 32/7/1
f 33/5/1 34/6/1 35/7/1 36/8/1
f 37/6/1 38/9/1 39/2/1 40/7/1
f 41/1/1 42/2/1 43/3/1 44/4/1
f 45/12/1 46/9/1 47/2/1 48/1/1
f 49/13/1 50/14/1 51/15/1 52/16/1
f 53/13/1 54/14/1 55/15/1 56/16/1
f 57/12/1 58/9/1 59/2/1 60/1/1
f 61/12/1 62/9/1 63/2/1 64/1/1
f 65/17/1 66/18/1 67/14/1 68/13/1
f 69/17/1 70/18/1 71/14/1 72/13/1
f 73/12/1 74/9/1 75/2/1 76/1/1
f 77/12/1 78/9/1 79/2/1 80/1/1
f 81/19/1 82/20/1 83/21/1 84/22/1
f 85/19/1 86/20/1 87/21/1 88/22/1
f 89/19/1 90/20/1 91/21/1 92/22/1
f 93/19/1 94/20/1 95/21/1 96/22/1
f 97/19/1 98/20/1 99/21/1 100/22/1
f 101/19/1 102/20/1 103/21/1 104/22/1
f 105/19/1 106/20/1 107/21/1 108/22/1
f 109/19/1 110/20/1 111/21/1 112/22/1
f 113/19/1 114/20/1 115/21/1 116/22/1
f 117/12/1 118/9/1 119/2/1 120/1/1
f 121/23/1 122/24/1 123/9/1 124/12/1
f 125/23/1 126/24/1 127/9/1 128/12/1
f 129/2/1 130/7/1 131/25/1 132/3/1
f 133/2/1 134/7/1 135/25/1 136/3/1
f 137/12/1 138/9/1 139/2/1 140/1/1
f 141/12/1 142/9/1 143/2/1 144/1/1
f 145/12/1 146/9/1 147/2/1 148/1/1
f 149/12/1 150/9/1 151/2/1 152/1/1
f 153/12/1 154/9/1 155/2/1 156/1/1
f 157/12/1 158/9/1 159/2/1 160/1/1
f 161/6/1 162/5/1 163/8/1 164/7/1
f 165/9/1 166/6/1 167/7/1 168/2/1
f 169/6/1 170/5/1 171/8/1 172/7/1
f 173/9/1 174/6/1 175/7/1 176/2/1
f 177/6/1 178/5/1 179/8/1 180/7/1
f 181/9/1 182/6/1 183/7/1 184/2/1
f 185/5/1 186/6/1 187/7/1 188/8/1
f 189/6/1 190/9/1 191/2/1 192/7/1
f 193/5/1 194/6/1 195/7/1 196/8/1
f 197/6/1 198/9/1 199/2/1 200/7/1

