# Tiled2Unity generated file. Do not modify by hand.
# Wavefront file for 'maps_nowayout_right_mesh_0001.obj'

# Vertices (Count = 484)
v 0 -1 0
v -1 -1 0
v -1 0 0
v 0 0 0
v -1 -1 0
v -2 -1 0
v -2 0 0
v -1 0 0
v -2 -1 0
v -3 -1 0
v -3 0 0
v -2 0 0
v -3 -1 0
v -4 -1 0
v -4 0 0
v -3 0 0
v -4 -1 0
v -5 -1 0
v -5 0 0
v -4 0 0
v -5 -1 0
v -6 -1 0
v -6 0 0
v -5 0 0
v -6 -1 0
v -7 -1 0
v -7 0 0
v -6 0 0
v -7 -1 0
v -8 -1 0
v -8 0 0
v -7 0 0
v -8 -1 0
v -9 -1 0
v -9 0 0
v -8 0 0
v -9 -1 0
v -10 -1 0
v -10 0 0
v -9 0 0
v -10 -1 0
v -11 -1 0
v -11 0 0
v -10 0 0
v 0 -2 0
v -1 -2 0
v -1 -1 0
v 0 -1 0
v -1 -2 0
v -2 -2 0
v -2 -1 0
v -1 -1 0
v -2 -2 0
v -3 -2 0
v -3 -1 0
v -2 -1 0
v -3 -2 0
v -4 -2 0
v -4 -1 0
v -3 -1 0
v -4 -2 0
v -5 -2 0
v -5 -1 0
v -4 -1 0
v -5 -2 0
v -6 -2 0
v -6 -1 0
v -5 -1 0
v -6 -2 0
v -7 -2 0
v -7 -1 0
v -6 -1 0
v -7 -2 0
v -8 -2 0
v -8 -1 0
v -7 -1 0
v -8 -2 0
v -9 -2 0
v -9 -1 0
v -8 -1 0
v -9 -2 0
v -10 -2 0
v -10 -1 0
v -9 -1 0
v -10 -2 0
v -11 -2 0
v -11 -1 0
v -10 -1 0
v 0 -3 0
v -1 -3 0
v -1 -2 0
v 0 -2 0
v -1 -3 0
v -2 -3 0
v -2 -2 0
v -1 -2 0
v -2 -3 0
v -3 -3 0
v -3 -2 0
v -2 -2 0
v -3 -3 0
v -4 -3 0
v -4 -2 0
v -3 -2 0
v -4 -3 0
v -5 -3 0
v -5 -2 0
v -4 -2 0
v -5 -3 0
v -6 -3 0
v -6 -2 0
v -5 -2 0
v -6 -3 0
v -7 -3 0
v -7 -2 0
v -6 -2 0
v -7 -3 0
v -8 -3 0
v -8 -2 0
v -7 -2 0
v -8 -3 0
v -9 -3 0
v -9 -2 0
v -8 -2 0
v -9 -3 0
v -10 -3 0
v -10 -2 0
v -9 -2 0
v -10 -3 0
v -11 -3 0
v -11 -2 0
v -10 -2 0
v 0 -4 0
v -1 -4 0
v -1 -3 0
v 0 -3 0
v -1 -4 0
v -2 -4 0
v -2 -3 0
v -1 -3 0
v -2 -4 0
v -3 -4 0
v -3 -3 0
v -2 -3 0
v -3 -4 0
v -4 -4 0
v -4 -3 0
v -3 -3 0
v -4 -4 0
v -5 -4 0
v -5 -3 0
v -4 -3 0
v -5 -4 0
v -6 -4 0
v -6 -3 0
v -5 -3 0
v -6 -4 0
v -7 -4 0
v -7 -3 0
v -6 -3 0
v -7 -4 0
v -8 -4 0
v -8 -3 0
v -7 -3 0
v -8 -4 0
v -9 -4 0
v -9 -3 0
v -8 -3 0
v -9 -4 0
v -10 -4 0
v -10 -3 0
v -9 -3 0
v -10 -4 0
v -11 -4 0
v -11 -3 0
v -10 -3 0
v 0 -5 0
v -1 -5 0
v -1 -4 0
v 0 -4 0
v -1 -5 0
v -2 -5 0
v -2 -4 0
v -1 -4 0
v -2 -5 0
v -3 -5 0
v -3 -4 0
v -2 -4 0
v -3 -5 0
v -4 -5 0
v -4 -4 0
v -3 -4 0
v -4 -5 0
v -5 -5 0
v -5 -4 0
v -4 -4 0
v -5 -5 0
v -6 -5 0
v -6 -4 0
v -5 -4 0
v -6 -5 0
v -7 -5 0
v -7 -4 0
v -6 -4 0
v -7 -5 0
v -8 -5 0
v -8 -4 0
v -7 -4 0
v -8 -5 0
v -9 -5 0
v -9 -4 0
v -8 -4 0
v -9 -5 0
v -10 -5 0
v -10 -4 0
v -9 -4 0
v -10 -5 0
v -11 -5 0
v -11 -4 0
v -10 -4 0
v 0 -6 0
v -1 -6 0
v -1 -5 0
v 0 -5 0
v -1 -6 0
v -2 -6 0
v -2 -5 0
v -1 -5 0
v -2 -6 0
v -3 -6 0
v -3 -5 0
v -2 -5 0
v -3 -6 0
v -4 -6 0
v -4 -5 0
v -3 -5 0
v -4 -6 0
v -5 -6 0
v -5 -5 0
v -4 -5 0
v -5 -6 0
v -6 -6 0
v -6 -5 0
v -5 -5 0
v -6 -6 0
v -7 -6 0
v -7 -5 0
v -6 -5 0
v -7 -6 0
v -8 -6 0
v -8 -5 0
v -7 -5 0
v -8 -6 0
v -9 -6 0
v -9 -5 0
v -8 -5 0
v -9 -6 0
v -10 -6 0
v -10 -5 0
v -9 -5 0
v -10 -6 0
v -11 -6 0
v -11 -5 0
v -10 -5 0
v 0 -7 0
v -1 -7 0
v -1 -6 0
v 0 -6 0
v -1 -7 0
v -2 -7 0
v -2 -6 0
v -1 -6 0
v -2 -7 0
v -3 -7 0
v -3 -6 0
v -2 -6 0
v -3 -7 0
v -4 -7 0
v -4 -6 0
v -3 -6 0
v -4 -7 0
v -5 -7 0
v -5 -6 0
v -4 -6 0
v -5 -7 0
v -6 -7 0
v -6 -6 0
v -5 -6 0
v -6 -7 0
v -7 -7 0
v -7 -6 0
v -6 -6 0
v -7 -7 0
v -8 -7 0
v -8 -6 0
v -7 -6 0
v -8 -7 0
v -9 -7 0
v -9 -6 0
v -8 -6 0
v -9 -7 0
v -10 -7 0
v -10 -6 0
v -9 -6 0
v -10 -7 0
v -11 -7 0
v -11 -6 0
v -10 -6 0
v 0 -8 0
v -1 -8 0
v -1 -7 0
v 0 -7 0
v -1 -8 0
v -2 -8 0
v -2 -7 0
v -1 -7 0
v -2 -8 0
v -3 -8 0
v -3 -7 0
v -2 -7 0
v -3 -8 0
v -4 -8 0
v -4 -7 0
v -3 -7 0
v -4 -8 0
v -5 -8 0
v -5 -7 0
v -4 -7 0
v -5 -8 0
v -6 -8 0
v -6 -7 0
v -5 -7 0
v -6 -8 0
v -7 -8 0
v -7 -7 0
v -6 -7 0
v -7 -8 0
v -8 -8 0
v -8 -7 0
v -7 -7 0
v -8 -8 0
v -9 -8 0
v -9 -7 0
v -8 -7 0
v -9 -8 0
v -10 -8 0
v -10 -7 0
v -9 -7 0
v -10 -8 0
v -11 -8 0
v -11 -7 0
v -10 -7 0
v 0 -9 0
v -1 -9 0
v -1 -8 0
v 0 -8 0
v -1 -9 0
v -2 -9 0
v -2 -8 0
v -1 -8 0
v -2 -9 0
v -3 -9 0
v -3 -8 0
v -2 -8 0
v -3 -9 0
v -4 -9 0
v -4 -8 0
v -3 -8 0
v -4 -9 0
v -5 -9 0
v -5 -8 0
v -4 -8 0
v -5 -9 0
v -6 -9 0
v -6 -8 0
v -5 -8 0
v -6 -9 0
v -7 -9 0
v -7 -8 0
v -6 -8 0
v -7 -9 0
v -8 -9 0
v -8 -8 0
v -7 -8 0
v -8 -9 0
v -9 -9 0
v -9 -8 0
v -8 -8 0
v -9 -9 0
v -10 -9 0
v -10 -8 0
v -9 -8 0
v -10 -9 0
v -11 -9 0
v -11 -8 0
v -10 -8 0
v 0 -10 0
v -1 -10 0
v -1 -9 0
v 0 -9 0
v -1 -10 0
v -2 -10 0
v -2 -9 0
v -1 -9 0
v -2 -10 0
v -3 -10 0
v -3 -9 0
v -2 -9 0
v -3 -10 0
v -4 -10 0
v -4 -9 0
v -3 -9 0
v -4 -10 0
v -5 -10 0
v -5 -9 0
v -4 -9 0
v -5 -10 0
v -6 -10 0
v -6 -9 0
v -5 -9 0
v -6 -10 0
v -7 -10 0
v -7 -9 0
v -6 -9 0
v -7 -10 0
v -8 -10 0
v -8 -9 0
v -7 -9 0
v -8 -10 0
v -9 -10 0
v -9 -9 0
v -8 -9 0
v -9 -10 0
v -10 -10 0
v -10 -9 0
v -9 -9 0
v -10 -10 0
v -11 -10 0
v -11 -9 0
v -10 -9 0
v 0 -11 0
v -1 -11 0
v -1 -10 0
v 0 -10 0
v -1 -11 0
v -2 -11 0
v -2 -10 0
v -1 -10 0
v -2 -11 0
v -3 -11 0
v -3 -10 0
v -2 -10 0
v -3 -11 0
v -4 -11 0
v -4 -10 0
v -3 -10 0
v -4 -11 0
v -5 -11 0
v -5 -10 0
v -4 -10 0
v -5 -11 0
v -6 -11 0
v -6 -10 0
v -5 -10 0
v -6 -11 0
v -7 -11 0
v -7 -10 0
v -6 -10 0
v -7 -11 0
v -8 -11 0
v -8 -10 0
v -7 -10 0
v -8 -11 0
v -9 -11 0
v -9 -10 0
v -8 -10 0
v -9 -11 0
v -10 -11 0
v -10 -10 0
v -9 -10 0
v -10 -11 0
v -11 -11 0
v -11 -10 0
v -10 -10 0

# Texture cooridinates (Count = 55)
vt 0 0.7916667
vt 0.05 0.7916667
vt 0.05 0.8333333
vt 0 0.8333333
vt 0.1 0.7916667
vt 0.15 0.7916667
vt 0.15 0.8333333
vt 0.1 0.8333333
vt 0 0.7083333
vt 0.05 0.7083333
vt 0.05 0.75
vt 0 0.75
vt 0.8 0.7916667
vt 0.85 0.7916667
vt 0.85 0.8333333
vt 0.8 0.8333333
vt 0.25 0.125
vt 0.3 0.125
vt 0.3 0.1666667
vt 0.25 0.1666667
vt 0.35 0.125
vt 0.35 0.1666667
vt 0.25 0.75
vt 0.3 0.75
vt 0.3 0.7916667
vt 0.25 0.7916667
vt 0.8 0.75
vt 0.85 0.75
vt 0.25 0.08333334
vt 0.3 0.08333334
vt 0.35 0.08333334
vt 0.1 0.75
vt 0.15 0.75
vt 0.25 0.04166667
vt 0.3 0.04166667
vt 0.35 0.04166667
vt 0.6 0.5416667
vt 0.65 0.5416667
vt 0.65 0.5833333
vt 0.6 0.5833333
vt 0.35 0.7083333
vt 0.4 0.7083333
vt 0.4 0.75
vt 0.35 0.75
vt 0.45 0.7083333
vt 0.45 0.75
vt 0.2 0.7916667
vt 0.2 0.8333333
vt 0.2 0.75
vt 0.1 0.7083333
vt 0.15 0.7083333
vt 0.75 0.7916667
vt 0.75 0.8333333
vt 0.25 0.7083333
vt 0.3 0.7083333

# Normal
vn 0 0 -1

# Mesh description
g maps_nowayout_right_mesh_0001

# Faces
f 1/1/1 2/2/1 3/3/1 4/4/1
f 5/1/1 6/2/1 7/3/1 8/4/1
f 9/1/1 10/2/1 11/3/1 12/4/1
f 13/1/1 14/2/1 15/3/1 16/4/1
f 17/1/1 18/2/1 19/3/1 20/4/1
f 21/1/1 22/2/1 23/3/1 24/4/1
f 25/1/1 26/2/1 27/3/1 28/4/1
f 29/1/1 30/2/1 31/3/1 32/4/1
f 33/1/1 34/2/1 35/3/1 36/4/1
f 37/1/1 38/2/1 39/3/1 40/4/1
f 41/1/1 42/2/1 43/3/1 44/4/1
f 45/1/1 46/2/1 47/3/1 48/4/1
f 49/1/1 50/2/1 51/3/1 52/4/1
f 53/1/1 54/2/1 55/3/1 56/4/1
f 57/1/1 58/2/1 59/3/1 60/4/1
f 61/5/1 62/6/1 63/7/1 64/8/1
f 65/9/1 66/10/1 67/11/1 68/12/1
f 69/2/1 70/5/1 71/8/1 72/3/1
f 73/1/1 74/2/1 75/3/1 76/4/1
f 77/1/1 78/2/1 79/3/1 80/4/1
f 81/1/1 82/2/1 83/3/1 84/4/1
f 85/1/1 86/2/1 87/3/1 88/4/1
f 89/13/1 90/14/1 91/15/1 92/16/1
f 93/17/1 94/18/1 95/19/1 96/20/1
f 97/18/1 98/21/1 99/22/1 100/19/1
f 101/1/1 102/2/1 103/3/1 104/4/1
f 105/1/1 106/2/1 107/3/1 108/4/1
f 109/23/1 110/24/1 111/25/1 112/26/1
f 113/23/1 114/24/1 115/25/1 116/26/1
f 117/18/1 118/21/1 119/22/1 120/19/1
f 121/1/1 122/2/1 123/3/1 124/4/1
f 125/1/1 126/2/1 127/3/1 128/4/1
f 129/1/1 130/2/1 131/3/1 132/4/1
f 133/27/1 134/28/1 135/14/1 136/13/1
f 137/29/1 138/30/1 139/18/1 140/17/1
f 141/30/1 142/31/1 143/21/1 144/18/1
f 145/17/1 146/18/1 147/19/1 148/20/1
f 149/23/1 150/24/1 151/25/1 152/26/1
f 153/9/1 154/10/1 155/11/1 156/12/1
f 157/9/1 158/10/1 159/11/1 160/12/1
f 161/30/1 162/31/1 163/21/1 164/18/1
f 165/1/1 166/2/1 167/3/1 168/4/1
f 169/32/1 170/33/1 171/6/1 172/5/1
f 173/1/1 174/2/1 175/3/1 176/4/1
f 177/27/1 178/28/1 179/14/1 180/13/1
f 181/34/1 182/35/1 183/30/1 184/29/1
f 185/35/1 186/36/1 187/31/1 188/30/1
f 189/23/1 190/24/1 191/25/1 192/26/1
f 193/23/1 194/24/1 195/25/1 196/26/1
f 197/23/1 198/24/1 199/25/1 200/26/1
f 201/23/1 202/24/1 203/25/1 204/26/1
f 205/35/1 206/36/1 207/31/1 208/30/1
f 209/32/1 210/33/1 211/6/1 212/5/1
f 213/1/1 214/2/1 215/3/1 216/4/1
f 217/37/1 218/38/1 219/39/1 220/40/1
f 221/27/1 222/28/1 223/14/1 224/13/1
f 225/1/1 226/2/1 227/3/1 228/4/1
f 229/1/1 230/2/1 231/3/1 232/4/1
f 233/11/1 234/32/1 235/5/1 236/2/1
f 237/32/1 238/33/1 239/6/1 240/5/1
f 241/41/1 242/42/1 243/43/1 244/44/1
f 245/42/1 246/45/1 247/46/1 248/43/1
f 249/1/1 250/2/1 251/3/1 252/4/1
f 253/1/1 254/2/1 255/3/1 256/4/1
f 257/1/1 258/2/1 259/3/1 260/4/1
f 261/1/1 262/2/1 263/3/1 264/4/1
f 265/6/1 266/47/1 267/48/1 268/7/1
f 269/13/1 270/14/1 271/15/1 272/16/1
f 273/49/1 274/23/1 275/26/1 276/47/1
f 277/1/1 278/2/1 279/3/1 280/4/1
f 281/42/1 282/45/1 283/46/1 284/43/1
f 285/41/1 286/42/1 287/43/1 288/44/1
f 289/41/1 290/42/1 291/43/1 292/44/1
f 293/42/1 294/45/1 295/46/1 296/43/1
f 297/32/1 298/33/1 299/6/1 300/5/1
f 301/1/1 302/2/1 303/3/1 304/4/1
f 305/1/1 306/2/1 307/3/1 308/4/1
f 309/6/1 310/47/1 311/48/1 312/7/1
f 313/6/1 314/47/1 315/48/1 316/7/1
f 317/13/1 318/14/1 319/15/1 320/16/1
f 321/49/1 322/23/1 323/26/1 324/47/1
f 325/23/1 326/24/1 327/25/1 328/26/1
f 329/23/1 330/24/1 331/25/1 332/26/1
f 333/50/1 334/51/1 335/33/1 336/32/1
f 337/50/1 338/51/1 339/33/1 340/32/1
f 341/1/1 342/2/1 343/3/1 344/4/1
f 345/32/1 346/33/1 347/6/1 348/5/1
f 349/1/1 350/2/1 351/3/1 352/4/1
f 353/6/1 354/47/1 355/48/1 356/7/1
f 357/6/1 358/47/1 359/48/1 360/7/1
f 361/6/1 362/47/1 363/48/1 364/7/1
f 365/13/1 366/14/1 367/15/1 368/16/1
f 369/49/1 370/23/1 371/26/1 372/47/1
f 373/49/1 374/23/1 375/26/1 376/47/1
f 377/23/1 378/24/1 379/25/1 380/26/1
f 381/23/1 382/24/1 383/25/1 384/26/1
f 385/23/1 386/24/1 387/25/1 388/26/1
f 389/32/1 390/33/1 391/6/1 392/5/1
f 393/1/1 394/2/1 395/3/1 396/4/1
f 397/6/1 398/47/1 399/48/1 400/7/1
f 401/6/1 402/47/1 403/48/1 404/7/1
f 405/6/1 406/47/1 407/48/1 408/7/1
f 409/6/1 410/47/1 411/48/1 412/7/1
f 413/52/1 414/13/1 415/16/1 416/53/1
f 417/13/1 418/14/1 419/15/1 420/16/1
f 421/49/1 422/23/1 423/26/1 424/47/1
f 425/54/1 426/55/1 427/24/1 428/23/1
f 429/55/1 430/41/1 431/44/1 432/24/1
f 433/23/1 434/24/1 435/25/1 436/26/1
f 437/1/1 438/2/1 439/3/1 440/4/1
f 441/6/1 442/47/1 443/48/1 444/7/1
f 445/6/1 446/47/1 447/48/1 448/7/1
f 449/6/1 450/47/1 451/48/1 452/7/1
f 453/6/1 454/47/1 455/48/1 456/7/1
f 457/6/1 458/47/1 459/48/1 460/7/1
f 461/6/1 462/47/1 463/48/1 464/7/1
f 465/52/1 466/13/1 467/16/1 468/53/1
f 469/52/1 470/13/1 471/16/1 472/53/1
f 473/13/1 474/14/1 475/15/1 476/16/1
f 477/1/1 478/2/1 479/3/1 480/4/1
f 481/1/1 482/2/1 483/3/1 484/4/1

