# Tiled2Unity generated file. Do not modify by hand.
# Wavefront file for 'maps_hall_mesh_0003.obj'

# Vertices (Count = 72)
v -1 -2 0
v -2 -2 0
v -2 -1 0
v -1 -1 0
v -2 -2 0
v -3 -2 0
v -3 -1 0
v -2 -1 0
v -8 -2 0
v -9 -2 0
v -9 -1 0
v -8 -1 0
v -9 -2 0
v -10 -2 0
v -10 -1 0
v -9 -1 0
v -9 -3 0
v -10 -3 0
v -10 -2 0
v -9 -2 0
v -1 -5 0
v -2 -5 0
v -2 -4 0
v -1 -4 0
v -1 -6 0
v -2 -6 0
v -2 -5 0
v -1 -5 0
v -9 -6 0
v -10 -6 0
v -10 -5 0
v -9 -5 0
v -1 -7 0
v -2 -7 0
v -2 -6 0
v -1 -6 0
v -9 -7 0
v -10 -7 0
v -10 -6 0
v -9 -6 0
v -9 -14 0
v -10 -14 0
v -10 -13 0
v -9 -13 0
v -9 -15 0
v -10 -15 0
v -10 -14 0
v -9 -14 0
v -9 -16 0
v -10 -16 0
v -10 -15 0
v -9 -15 0
v -9 -17 0
v -10 -17 0
v -10 -16 0
v -9 -16 0
v -1 -20 0
v -2 -20 0
v -2 -19 0
v -1 -19 0
v -7 -20 0
v -8 -20 0
v -8 -19 0
v -7 -19 0
v -8 -20 0
v -9 -20 0
v -9 -19 0
v -8 -19 0
v -9 -20 0
v -10 -20 0
v -10 -19 0
v -9 -19 0

# Texture cooridinates (Count = 8)
vt 0.9 0.2916667
vt 0.95 0.2916667
vt 0.95 0.3333333
vt 0.9 0.3333333
vt 0.8 0.2916667
vt 0.85 0.2916667
vt 0.85 0.3333333
vt 0.8 0.3333333

# Normal
vn 0 0 -1

# Mesh description
g maps_hall_mesh_0003

# Faces
f 1/1/1 2/2/1 3/3/1 4/4/1
f 5/1/1 6/2/1 7/3/1 8/4/1
f 9/5/1 10/6/1 11/7/1 12/8/1
f 13/5/1 14/6/1 15/7/1 16/8/1
f 17/5/1 18/6/1 19/7/1 20/8/1
f 21/5/1 22/6/1 23/7/1 24/8/1
f 25/5/1 26/6/1 27/7/1 28/8/1
f 29/1/1 30/2/1 31/3/1 32/4/1
f 33/5/1 34/6/1 35/7/1 36/8/1
f 37/1/1 38/2/1 39/3/1 40/4/1
f 41/5/1 42/6/1 43/7/1 44/8/1
f 45/5/1 46/6/1 47/7/1 48/8/1
f 49/5/1 50/6/1 51/7/1 52/8/1
f 53/5/1 54/6/1 55/7/1 56/8/1
f 57/5/1 58/6/1 59/7/1 60/8/1
f 61/1/1 62/2/1 63/3/1 64/4/1
f 65/1/1 66/2/1 67/3/1 68/4/1
f 69/5/1 70/6/1 71/7/1 72/8/1

