# Tiled2Unity generated file. Do not modify by hand.
# Wavefront file for 'blitzteste_3_mesh_0002.obj'

# Vertices (Count = 376)
v -1 -2 0
v -2 -2 0
v -2 -1 0
v -1 -1 0
v -2 -2 0
v -3 -2 0
v -3 -1 0
v -2 -1 0
v -3 -2 0
v -4 -2 0
v -4 -1 0
v -3 -1 0
v -4 -2 0
v -5 -2 0
v -5 -1 0
v -4 -1 0
v -5 -2 0
v -6 -2 0
v -6 -1 0
v -5 -1 0
v -6 -2 0
v -7 -2 0
v -7 -1 0
v -6 -1 0
v -7 -2 0
v -8 -2 0
v -8 -1 0
v -7 -1 0
v -8 -2 0
v -9 -2 0
v -9 -1 0
v -8 -1 0
v -9 -2 0
v -10 -2 0
v -10 -1 0
v -9 -1 0
v -10 -2 0
v -11 -2 0
v -11 -1 0
v -10 -1 0
v -11 -2 0
v -12 -2 0
v -12 -1 0
v -11 -1 0
v -1 -3 0
v -2 -3 0
v -2 -2 0
v -1 -2 0
v -11 -3 0
v -12 -3 0
v -12 -2 0
v -11 -2 0
v -1 -4 0
v -2 -4 0
v -2 -3 0
v -1 -3 0
v -4 -4 0
v -5 -4 0
v -5 -3 0
v -4 -3 0
v -8 -4 0
v -9 -4 0
v -9 -3 0
v -8 -3 0
v -11 -4 0
v -12 -4 0
v -12 -3 0
v -11 -3 0
v -1 -5 0
v -2 -5 0
v -2 -4 0
v -1 -4 0
v -4 -5 0
v -5 -5 0
v -5 -4 0
v -4 -4 0
v -8 -5 0
v -9 -5 0
v -9 -4 0
v -8 -4 0
v -11 -5 0
v -12 -5 0
v -12 -4 0
v -11 -4 0
v -1 -6 0
v -2 -6 0
v -2 -5 0
v -1 -5 0
v -11 -6 0
v -12 -6 0
v -12 -5 0
v -11 -5 0
v -1 -7 0
v -2 -7 0
v -2 -6 0
v -1 -6 0
v -11 -7 0
v -12 -7 0
v -12 -6 0
v -11 -6 0
v -1 -8 0
v -2 -8 0
v -2 -7 0
v -1 -7 0
v -11 -8 0
v -12 -8 0
v -12 -7 0
v -11 -7 0
v -1 -9 0
v -2 -9 0
v -2 -8 0
v -1 -8 0
v -4 -9 0
v -5 -9 0
v -5 -8 0
v -4 -8 0
v -8 -9 0
v -9 -9 0
v -9 -8 0
v -8 -8 0
v -11 -9 0
v -12 -9 0
v -12 -8 0
v -11 -8 0
v -1 -10 0
v -2 -10 0
v -2 -9 0
v -1 -9 0
v -4 -10 0
v -5 -10 0
v -5 -9 0
v -4 -9 0
v -8 -10 0
v -9 -10 0
v -9 -9 0
v -8 -9 0
v -11 -10 0
v -12 -10 0
v -12 -9 0
v -11 -9 0
v -1 -11 0
v -2 -11 0
v -2 -10 0
v -1 -10 0
v -11 -11 0
v -12 -11 0
v -12 -10 0
v -11 -10 0
v -1 -12 0
v -2 -12 0
v -2 -11 0
v -1 -11 0
v -11 -12 0
v -12 -12 0
v -12 -11 0
v -11 -11 0
v -1 -13 0
v -2 -13 0
v -2 -12 0
v -1 -12 0
v -11 -13 0
v -12 -13 0
v -12 -12 0
v -11 -12 0
v -1 -14 0
v -2 -14 0
v -2 -13 0
v -1 -13 0
v -4 -14 0
v -5 -14 0
v -5 -13 0
v -4 -13 0
v -8 -14 0
v -9 -14 0
v -9 -13 0
v -8 -13 0
v -11 -14 0
v -12 -14 0
v -12 -13 0
v -11 -13 0
v -1 -15 0
v -2 -15 0
v -2 -14 0
v -1 -14 0
v -4 -15 0
v -5 -15 0
v -5 -14 0
v -4 -14 0
v -8 -15 0
v -9 -15 0
v -9 -14 0
v -8 -14 0
v -11 -15 0
v -12 -15 0
v -12 -14 0
v -11 -14 0
v -1 -16 0
v -2 -16 0
v -2 -15 0
v -1 -15 0
v -11 -16 0
v -12 -16 0
v -12 -15 0
v -11 -15 0
v -1 -17 0
v -2 -17 0
v -2 -16 0
v -1 -16 0
v -11 -17 0
v -12 -17 0
v -12 -16 0
v -11 -16 0
v -1 -18 0
v -2 -18 0
v -2 -17 0
v -1 -17 0
v -11 -18 0
v -12 -18 0
v -12 -17 0
v -11 -17 0
v -1 -19 0
v -2 -19 0
v -2 -18 0
v -1 -18 0
v -4 -19 0
v -5 -19 0
v -5 -18 0
v -4 -18 0
v -8 -19 0
v -9 -19 0
v -9 -18 0
v -8 -18 0
v -11 -19 0
v -12 -19 0
v -12 -18 0
v -11 -18 0
v -1 -20 0
v -2 -20 0
v -2 -19 0
v -1 -19 0
v -4 -20 0
v -5 -20 0
v -5 -19 0
v -4 -19 0
v -8 -20 0
v -9 -20 0
v -9 -19 0
v -8 -19 0
v -11 -20 0
v -12 -20 0
v -12 -19 0
v -11 -19 0
v -1 -21 0
v -2 -21 0
v -2 -20 0
v -1 -20 0
v -11 -21 0
v -12 -21 0
v -12 -20 0
v -11 -20 0
v -1 -22 0
v -2 -22 0
v -2 -21 0
v -1 -21 0
v -11 -22 0
v -12 -22 0
v -12 -21 0
v -11 -21 0
v -1 -23 0
v -2 -23 0
v -2 -22 0
v -1 -22 0
v -11 -23 0
v -12 -23 0
v -12 -22 0
v -11 -22 0
v -1 -24 0
v -2 -24 0
v -2 -23 0
v -1 -23 0
v -4 -24 0
v -5 -24 0
v -5 -23 0
v -4 -23 0
v -8 -24 0
v -9 -24 0
v -9 -23 0
v -8 -23 0
v -11 -24 0
v -12 -24 0
v -12 -23 0
v -11 -23 0
v -1 -25 0
v -2 -25 0
v -2 -24 0
v -1 -24 0
v -4 -25 0
v -5 -25 0
v -5 -24 0
v -4 -24 0
v -8 -25 0
v -9 -25 0
v -9 -24 0
v -8 -24 0
v -11 -25 0
v -12 -25 0
v -12 -24 0
v -11 -24 0
v -1 -26 0
v -2 -26 0
v -2 -25 0
v -1 -25 0
v -11 -26 0
v -12 -26 0
v -12 -25 0
v -11 -25 0
v -1 -27 0
v -2 -27 0
v -2 -26 0
v -1 -26 0
v -11 -27 0
v -12 -27 0
v -12 -26 0
v -11 -26 0
v -1 -28 0
v -2 -28 0
v -2 -27 0
v -1 -27 0
v -11 -28 0
v -12 -28 0
v -12 -27 0
v -11 -27 0
v -1 -29 0
v -2 -29 0
v -2 -28 0
v -1 -28 0
v -2 -29 0
v -3 -29 0
v -3 -28 0
v -2 -28 0
v -3 -29 0
v -4 -29 0
v -4 -28 0
v -3 -28 0
v -4 -29 0
v -5 -29 0
v -5 -28 0
v -4 -28 0
v -5 -29 0
v -6 -29 0
v -6 -28 0
v -5 -28 0
v -6 -29 0
v -7 -29 0
v -7 -28 0
v -6 -28 0
v -7 -29 0
v -8 -29 0
v -8 -28 0
v -7 -28 0
v -8 -29 0
v -9 -29 0
v -9 -28 0
v -8 -28 0
v -9 -29 0
v -10 -29 0
v -10 -28 0
v -9 -28 0
v -10 -29 0
v -11 -29 0
v -11 -28 0
v -10 -28 0
v -11 -29 0
v -12 -29 0
v -12 -28 0
v -11 -28 0

# Texture cooridinates (Count = 28)
vt 0.25 0.5833333
vt 0.3 0.5833333
vt 0.3 0.625
vt 0.25 0.625
vt 0.35 0.625
vt 0.4 0.625
vt 0.4 0.6666667
vt 0.35 0.6666667
vt 0.6 0.5
vt 0.65 0.5
vt 0.65 0.5416667
vt 0.6 0.5416667
vt 0.6 0.375
vt 0.65 0.375
vt 0.65 0.4166667
vt 0.6 0.4166667
vt 0.7 0.5
vt 0.7 0.5416667
vt 0.25 0.5416667
vt 0.3 0.5416667
vt 0.3 0.25
vt 0.35 0.25
vt 0.35 0.2916667
vt 0.3 0.2916667
vt 0.3 0.2083333
vt 0.35 0.2083333
vt 0.25 0.5
vt 0.3 0.5

# Normal
vn 0 0 -1

# Mesh description
g blitzteste_3_mesh_0002

# Faces
f 1/1/1 2/2/1 3/3/1 4/4/1
f 5/5/1 6/6/1 7/7/1 8/8/1
f 9/5/1 10/6/1 11/7/1 12/8/1
f 13/5/1 14/6/1 15/7/1 16/8/1
f 17/9/1 18/10/1 19/11/1 20/12/1
f 21/13/1 22/14/1 23/15/1 24/16/1
f 25/10/1 26/17/1 27/18/1 28/11/1
f 29/5/1 30/6/1 31/7/1 32/8/1
f 33/5/1 34/6/1 35/7/1 36/8/1
f 37/5/1 38/6/1 39/7/1 40/8/1
f 41/1/1 42/2/1 43/3/1 44/4/1
f 45/19/1 46/20/1 47/2/1 48/1/1
f 49/19/1 50/20/1 51/2/1 52/1/1
f 53/19/1 54/20/1 55/2/1 56/1/1
f 57/21/1 58/22/1 59/23/1 60/24/1
f 61/21/1 62/22/1 63/23/1 64/24/1
f 65/19/1 66/20/1 67/2/1 68/1/1
f 69/19/1 70/20/1 71/2/1 72/1/1
f 73/25/1 74/26/1 75/22/1 76/21/1
f 77/25/1 78/26/1 79/22/1 80/21/1
f 81/19/1 82/20/1 83/2/1 84/1/1
f 85/19/1 86/20/1 87/2/1 88/1/1
f 89/19/1 90/20/1 91/2/1 92/1/1
f 93/19/1 94/20/1 95/2/1 96/1/1
f 97/19/1 98/20/1 99/2/1 100/1/1
f 101/19/1 102/20/1 103/2/1 104/1/1
f 105/19/1 106/20/1 107/2/1 108/1/1
f 109/19/1 110/20/1 111/2/1 112/1/1
f 113/21/1 114/22/1 115/23/1 116/24/1
f 117/21/1 118/22/1 119/23/1 120/24/1
f 121/19/1 122/20/1 123/2/1 124/1/1
f 125/19/1 126/20/1 127/2/1 128/1/1
f 129/25/1 130/26/1 131/22/1 132/21/1
f 133/25/1 134/26/1 135/22/1 136/21/1
f 137/19/1 138/20/1 139/2/1 140/1/1
f 141/19/1 142/20/1 143/2/1 144/1/1
f 145/19/1 146/20/1 147/2/1 148/1/1
f 149/19/1 150/20/1 151/2/1 152/1/1
f 153/19/1 154/20/1 155/2/1 156/1/1
f 157/19/1 158/20/1 159/2/1 160/1/1
f 161/19/1 162/20/1 163/2/1 164/1/1
f 165/19/1 166/20/1 167/2/1 168/1/1
f 169/21/1 170/22/1 171/23/1 172/24/1
f 173/21/1 174/22/1 175/23/1 176/24/1
f 177/19/1 178/20/1 179/2/1 180/1/1
f 181/19/1 182/20/1 183/2/1 184/1/1
f 185/25/1 186/26/1 187/22/1 188/21/1
f 189/25/1 190/26/1 191/22/1 192/21/1
f 193/19/1 194/20/1 195/2/1 196/1/1
f 197/19/1 198/20/1 199/2/1 200/1/1
f 201/19/1 202/20/1 203/2/1 204/1/1
f 205/19/1 206/20/1 207/2/1 208/1/1
f 209/19/1 210/20/1 211/2/1 212/1/1
f 213/19/1 214/20/1 215/2/1 216/1/1
f 217/19/1 218/20/1 219/2/1 220/1/1
f 221/19/1 222/20/1 223/2/1 224/1/1
f 225/21/1 226/22/1 227/23/1 228/24/1
f 229/21/1 230/22/1 231/23/1 232/24/1
f 233/19/1 234/20/1 235/2/1 236/1/1
f 237/19/1 238/20/1 239/2/1 240/1/1
f 241/25/1 242/26/1 243/22/1 244/21/1
f 245/25/1 246/26/1 247/22/1 248/21/1
f 249/19/1 250/20/1 251/2/1 252/1/1
f 253/19/1 254/20/1 255/2/1 256/1/1
f 257/19/1 258/20/1 259/2/1 260/1/1
f 261/19/1 262/20/1 263/2/1 264/1/1
f 265/19/1 266/20/1 267/2/1 268/1/1
f 269/19/1 270/20/1 271/2/1 272/1/1
f 273/19/1 274/20/1 275/2/1 276/1/1
f 277/19/1 278/20/1 279/2/1 280/1/1
f 281/21/1 282/22/1 283/23/1 284/24/1
f 285/21/1 286/22/1 287/23/1 288/24/1
f 289/19/1 290/20/1 291/2/1 292/1/1
f 293/19/1 294/20/1 295/2/1 296/1/1
f 297/25/1 298/26/1 299/22/1 300/21/1
f 301/25/1 302/26/1 303/22/1 304/21/1
f 305/19/1 306/20/1 307/2/1 308/1/1
f 309/19/1 310/20/1 311/2/1 312/1/1
f 313/19/1 314/20/1 315/2/1 316/1/1
f 317/19/1 318/20/1 319/2/1 320/1/1
f 321/19/1 322/20/1 323/2/1 324/1/1
f 325/19/1 326/20/1 327/2/1 328/1/1
f 329/19/1 330/20/1 331/2/1 332/1/1
f 333/27/1 334/28/1 335/20/1 336/19/1
f 337/5/1 338/6/1 339/7/1 340/8/1
f 341/5/1 342/6/1 343/7/1 344/8/1
f 345/5/1 346/6/1 347/7/1 348/8/1
f 349/9/1 350/10/1 351/11/1 352/12/1
f 353/13/1 354/14/1 355/15/1 356/16/1
f 357/10/1 358/17/1 359/18/1 360/11/1
f 361/5/1 362/6/1 363/7/1 364/8/1
f 365/5/1 366/6/1 367/7/1 368/8/1
f 369/5/1 370/6/1 371/7/1 372/8/1
f 373/27/1 374/28/1 375/20/1 376/19/1

