# Tiled2Unity generated file. Do not modify by hand.
# Wavefront file for 'mapa_1_mesh_0002.obj'

# Vertices (Count = 164)
v 0 -1 0
v -1 -1 0
v -1 0 0
v 0 0 0
v -1 -1 0
v -2 -1 0
v -2 0 0
v -1 0 0
v -2 -1 0
v -3 -1 0
v -3 0 0
v -2 0 0
v -3 -1 0
v -4 -1 0
v -4 0 0
v -3 0 0
v -4 -1 0
v -5 -1 0
v -5 0 0
v -4 0 0
v -6 -1 0
v -7 -1 0
v -7 0 0
v -6 0 0
v -7 -1 0
v -8 -1 0
v -8 0 0
v -7 0 0
v -8 -1 0
v -9 -1 0
v -9 0 0
v -8 0 0
v -9 -1 0
v -10 -1 0
v -10 0 0
v -9 0 0
v -10 -1 0
v -11 -1 0
v -11 0 0
v -10 0 0
v 0 -2 0
v -1 -2 0
v -1 -1 0
v 0 -1 0
v -1 -2 0
v -2 -2 0
v -2 -1 0
v -1 -1 0
v -2 -2 0
v -3 -2 0
v -3 -1 0
v -2 -1 0
v -9 -2 0
v -10 -2 0
v -10 -1 0
v -9 -1 0
v -10 -2 0
v -11 -2 0
v -11 -1 0
v -10 -1 0
v 0 -3 0
v -1 -3 0
v -1 -2 0
v 0 -2 0
v -1 -3 0
v -2 -3 0
v -2 -2 0
v -1 -2 0
v -2 -3 0
v -3 -3 0
v -3 -2 0
v -2 -2 0
v -10 -3 0
v -11 -3 0
v -11 -2 0
v -10 -2 0
v 0 -4 0
v -1 -4 0
v -1 -3 0
v 0 -3 0
v -10 -4 0
v -11 -4 0
v -11 -3 0
v -10 -3 0
v 0 -5 0
v -1 -5 0
v -1 -4 0
v 0 -4 0
v -10 -5 0
v -11 -5 0
v -11 -4 0
v -10 -4 0
v 0 -7 0
v -1 -7 0
v -1 -6 0
v 0 -6 0
v -10 -7 0
v -11 -7 0
v -11 -6 0
v -10 -6 0
v 0 -8 0
v -1 -8 0
v -1 -7 0
v 0 -7 0
v -10 -8 0
v -11 -8 0
v -11 -7 0
v -10 -7 0
v 0 -9 0
v -1 -9 0
v -1 -8 0
v 0 -8 0
v -10 -9 0
v -11 -9 0
v -11 -8 0
v -10 -8 0
v 0 -10 0
v -1 -10 0
v -1 -9 0
v 0 -9 0
v -10 -10 0
v -11 -10 0
v -11 -9 0
v -10 -9 0
v 0 -11 0
v -1 -11 0
v -1 -10 0
v 0 -10 0
v -1 -11 0
v -2 -11 0
v -2 -10 0
v -1 -10 0
v -2 -11 0
v -3 -11 0
v -3 -10 0
v -2 -10 0
v -3 -11 0
v -4 -11 0
v -4 -10 0
v -3 -10 0
v -4 -11 0
v -5 -11 0
v -5 -10 0
v -4 -10 0
v -6 -11 0
v -7 -11 0
v -7 -10 0
v -6 -10 0
v -7 -11 0
v -8 -11 0
v -8 -10 0
v -7 -10 0
v -8 -11 0
v -9 -11 0
v -9 -10 0
v -8 -10 0
v -9 -11 0
v -10 -11 0
v -10 -10 0
v -9 -10 0
v -10 -11 0
v -11 -11 0
v -11 -10 0
v -10 -10 0

# Texture cooridinates (Count = 31)
vt 0.25 0.5833333
vt 0.3 0.5833333
vt 0.3 0.625
vt 0.25 0.625
vt 0.35 0.625
vt 0.35 0.6666667
vt 0.3 0.6666667
vt 0.6 0.5
vt 0.65 0.5
vt 0.65 0.5416667
vt 0.6 0.5416667
vt 0.7 0.5
vt 0.7 0.5416667
vt 0.25 0.5416667
vt 0.3 0.5416667
vt 0.45 0.4583333
vt 0.5 0.4583333
vt 0.5 0.5
vt 0.45 0.5
vt 0.55 0.4583333
vt 0.55 0.5
vt 0.5 0.2083333
vt 0.55 0.2083333
vt 0.55 0.25
vt 0.5 0.25
vt 0.45 0.4166667
vt 0.5 0.4166667
vt 0.55 0.4166667
vt 0.35 0.5416667
vt 0.35 0.5833333
vt 0.25 0.6666667

# Normal
vn 0 0 -1

# Mesh description
g mapa_1_mesh_0002

# Faces
f 1/1/1 2/2/1 3/3/1 4/4/1
f 5/3/1 6/5/1 7/6/1 8/7/1
f 9/3/1 10/5/1 11/6/1 12/7/1
f 13/3/1 14/5/1 15/6/1 16/7/1
f 17/8/1 18/9/1 19/10/1 20/11/1
f 21/9/1 22/12/1 23/13/1 24/10/1
f 25/3/1 26/5/1 27/6/1 28/7/1
f 29/3/1 30/5/1 31/6/1 32/7/1
f 33/3/1 34/5/1 35/6/1 36/7/1
f 37/1/1 38/2/1 39/3/1 40/4/1
f 41/14/1 42/15/1 43/2/1 44/1/1
f 45/16/1 46/17/1 47/18/1 48/19/1
f 49/17/1 50/20/1 51/21/1 52/18/1
f 53/22/1 54/23/1 55/24/1 56/25/1
f 57/14/1 58/15/1 59/2/1 60/1/1
f 61/14/1 62/15/1 63/2/1 64/1/1
f 65/26/1 66/27/1 67/17/1 68/16/1
f 69/27/1 70/28/1 71/20/1 72/17/1
f 73/14/1 74/15/1 75/2/1 76/1/1
f 77/14/1 78/15/1 79/2/1 80/1/1
f 81/14/1 82/15/1 83/2/1 84/1/1
f 85/15/1 86/29/1 87/30/1 88/2/1
f 89/15/1 90/29/1 91/30/1 92/2/1
f 93/1/1 94/2/1 95/3/1 96/4/1
f 97/1/1 98/2/1 99/3/1 100/4/1
f 101/14/1 102/15/1 103/2/1 104/1/1
f 105/14/1 106/15/1 107/2/1 108/1/1
f 109/14/1 110/15/1 111/2/1 112/1/1
f 113/14/1 114/15/1 115/2/1 116/1/1
f 117/14/1 118/15/1 119/2/1 120/1/1
f 121/14/1 122/15/1 123/2/1 124/1/1
f 125/4/1 126/3/1 127/7/1 128/31/1
f 129/3/1 130/5/1 131/6/1 132/7/1
f 133/3/1 134/5/1 135/6/1 136/7/1
f 137/3/1 138/5/1 139/6/1 140/7/1
f 141/8/1 142/9/1 143/10/1 144/11/1
f 145/9/1 146/12/1 147/13/1 148/10/1
f 149/3/1 150/5/1 151/6/1 152/7/1
f 153/3/1 154/5/1 155/6/1 156/7/1
f 157/3/1 158/5/1 159/6/1 160/7/1
f 161/4/1 162/3/1 163/7/1 164/31/1

