# Tiled2Unity generated file. Do not modify by hand.
# Wavefront file for 'map_2x_1_mesh_0003.obj'

# Vertices (Count = 16)
v -19 -2 0
v -20 -2 0
v -20 -1 0
v -19 -1 0
v -18 -2 0
v -19 -2 0
v -19 -1 0
v -18 -1 0
v -19 -1 0
v -20 -1 0
v -20 0 0
v -19 0 0
v -18 -1 0
v -19 -1 0
v -19 0 0
v -18 0 0

# Texture cooridinates (Count = 9)
vt 0.8 0.4166667
vt 0.85 0.4166667
vt 0.85 0.4583333
vt 0.8 0.4583333
vt 0.75 0.4166667
vt 0.75 0.4583333
vt 0.85 0.5
vt 0.8 0.5
vt 0.75 0.5

# Normal
vn 0 0 -1

# Mesh description
g map_2x_1_mesh_0003

# Faces
f 1/1/1 2/2/1 3/3/1 4/4/1
f 5/5/1 6/1/1 7/4/1 8/6/1
f 9/4/1 10/3/1 11/7/1 12/8/1
f 13/6/1 14/4/1 15/8/1 16/9/1

