# Tiled2Unity generated file. Do not modify by hand.
# Wavefront file for 'map_2x_1_mesh_0002.obj'

# Vertices (Count = 320)
v -20 -21 0
v -21 -21 0
v -21 -20 0
v -20 -20 0
v -19 -21 0
v -20 -21 0
v -20 -20 0
v -19 -20 0
v -18 -21 0
v -19 -21 0
v -19 -20 0
v -18 -20 0
v -17 -21 0
v -18 -21 0
v -18 -20 0
v -17 -20 0
v -16 -21 0
v -17 -21 0
v -17 -20 0
v -16 -20 0
v -15 -21 0
v -16 -21 0
v -16 -20 0
v -15 -20 0
v -14 -21 0
v -15 -21 0
v -15 -20 0
v -14 -20 0
v -13 -21 0
v -14 -21 0
v -14 -20 0
v -13 -20 0
v -12 -21 0
v -13 -21 0
v -13 -20 0
v -12 -20 0
v -11 -21 0
v -12 -21 0
v -12 -20 0
v -11 -20 0
v -10 -21 0
v -11 -21 0
v -11 -20 0
v -10 -20 0
v -9 -21 0
v -10 -21 0
v -10 -20 0
v -9 -20 0
v -8 -21 0
v -9 -21 0
v -9 -20 0
v -8 -20 0
v -7 -21 0
v -8 -21 0
v -8 -20 0
v -7 -20 0
v -6 -21 0
v -7 -21 0
v -7 -20 0
v -6 -20 0
v -5 -21 0
v -6 -21 0
v -6 -20 0
v -5 -20 0
v -4 -21 0
v -5 -21 0
v -5 -20 0
v -4 -20 0
v -3 -21 0
v -4 -21 0
v -4 -20 0
v -3 -20 0
v -2 -21 0
v -3 -21 0
v -3 -20 0
v -2 -20 0
v -1 -21 0
v -2 -21 0
v -2 -20 0
v -1 -20 0
v 0 -21 0
v -1 -21 0
v -1 -20 0
v 0 -20 0
v -20 -20 0
v -21 -20 0
v -21 -19 0
v -20 -19 0
v 0 -20 0
v -1 -20 0
v -1 -19 0
v 0 -19 0
v -20 -19 0
v -21 -19 0
v -21 -18 0
v -20 -18 0
v 0 -19 0
v -1 -19 0
v -1 -18 0
v 0 -18 0
v -20 -18 0
v -21 -18 0
v -21 -17 0
v -20 -17 0
v 0 -18 0
v -1 -18 0
v -1 -17 0
v 0 -17 0
v -20 -17 0
v -21 -17 0
v -21 -16 0
v -20 -16 0
v 0 -17 0
v -1 -17 0
v -1 -16 0
v 0 -16 0
v -20 -16 0
v -21 -16 0
v -21 -15 0
v -20 -15 0
v 0 -16 0
v -1 -16 0
v -1 -15 0
v 0 -15 0
v -20 -15 0
v -21 -15 0
v -21 -14 0
v -20 -14 0
v 0 -15 0
v -1 -15 0
v -1 -14 0
v 0 -14 0
v -20 -14 0
v -21 -14 0
v -21 -13 0
v -20 -13 0
v 0 -14 0
v -1 -14 0
v -1 -13 0
v 0 -13 0
v -20 -13 0
v -21 -13 0
v -21 -12 0
v -20 -12 0
v 0 -13 0
v -1 -13 0
v -1 -12 0
v 0 -12 0
v -20 -12 0
v -21 -12 0
v -21 -11 0
v -20 -11 0
v 0 -12 0
v -1 -12 0
v -1 -11 0
v 0 -11 0
v -20 -11 0
v -21 -11 0
v -21 -10 0
v -20 -10 0
v 0 -11 0
v -1 -11 0
v -1 -10 0
v 0 -10 0
v -20 -10 0
v -21 -10 0
v -21 -9 0
v -20 -9 0
v 0 -10 0
v -1 -10 0
v -1 -9 0
v 0 -9 0
v -20 -9 0
v -21 -9 0
v -21 -8 0
v -20 -8 0
v 0 -9 0
v -1 -9 0
v -1 -8 0
v 0 -8 0
v -20 -8 0
v -21 -8 0
v -21 -7 0
v -20 -7 0
v 0 -8 0
v -1 -8 0
v -1 -7 0
v 0 -7 0
v -20 -7 0
v -21 -7 0
v -21 -6 0
v -20 -6 0
v 0 -7 0
v -1 -7 0
v -1 -6 0
v 0 -6 0
v -20 -6 0
v -21 -6 0
v -21 -5 0
v -20 -5 0
v 0 -6 0
v -1 -6 0
v -1 -5 0
v 0 -5 0
v -20 -5 0
v -21 -5 0
v -21 -4 0
v -20 -4 0
v 0 -5 0
v -1 -5 0
v -1 -4 0
v 0 -4 0
v -20 -4 0
v -21 -4 0
v -21 -3 0
v -20 -3 0
v 0 -4 0
v -1 -4 0
v -1 -3 0
v 0 -3 0
v -20 -3 0
v -21 -3 0
v -21 -2 0
v -20 -2 0
v 0 -3 0
v -1 -3 0
v -1 -2 0
v 0 -2 0
v -20 -2 0
v -21 -2 0
v -21 -1 0
v -20 -1 0
v 0 -2 0
v -1 -2 0
v -1 -1 0
v 0 -1 0
v -20 -1 0
v -21 -1 0
v -21 0 0
v -20 0 0
v -19 -1 0
v -20 -1 0
v -20 0 0
v -19 0 0
v -18 -1 0
v -19 -1 0
v -19 0 0
v -18 0 0
v -17 -1 0
v -18 -1 0
v -18 0 0
v -17 0 0
v -16 -1 0
v -17 -1 0
v -17 0 0
v -16 0 0
v -15 -1 0
v -16 -1 0
v -16 0 0
v -15 0 0
v -14 -1 0
v -15 -1 0
v -15 0 0
v -14 0 0
v -13 -1 0
v -14 -1 0
v -14 0 0
v -13 0 0
v -12 -1 0
v -13 -1 0
v -13 0 0
v -12 0 0
v -11 -1 0
v -12 -1 0
v -12 0 0
v -11 0 0
v -10 -1 0
v -11 -1 0
v -11 0 0
v -10 0 0
v -9 -1 0
v -10 -1 0
v -10 0 0
v -9 0 0
v -8 -1 0
v -9 -1 0
v -9 0 0
v -8 0 0
v -7 -1 0
v -8 -1 0
v -8 0 0
v -7 0 0
v -6 -1 0
v -7 -1 0
v -7 0 0
v -6 0 0
v -5 -1 0
v -6 -1 0
v -6 0 0
v -5 0 0
v -4 -1 0
v -5 -1 0
v -5 0 0
v -4 0 0
v -3 -1 0
v -4 -1 0
v -4 0 0
v -3 0 0
v -2 -1 0
v -3 -1 0
v -3 0 0
v -2 0 0
v -1 -1 0
v -2 -1 0
v -2 0 0
v -1 0 0
v 0 -1 0
v -1 -1 0
v -1 0 0
v 0 0 0

# Texture cooridinates (Count = 24)
vt 0.25 0.5
vt 0.3 0.5
vt 0.3 0.5416667
vt 0.25 0.5416667
vt 0.4 0.625
vt 0.45 0.625
vt 0.45 0.6666667
vt 0.4 0.6666667
vt 0.3 0.625
vt 0.35 0.625
vt 0.35 0.6666667
vt 0.3 0.6666667
vt 0.65 0.5
vt 0.7 0.5
vt 0.7 0.5416667
vt 0.65 0.5416667
vt 0.25 0.6666667
vt 0.3 0.7083333
vt 0.25 0.7083333
vt 0.6 0.5
vt 0.6 0.5416667
vt 0.3 0.5833333
vt 0.25 0.5833333
vt 0.25 0.625

# Normal
vn 0 0 -1

# Mesh description
g map_2x_1_mesh_0002

# Faces
f 1/1/1 2/2/1 3/3/1 4/4/1
f 5/5/1 6/6/1 7/7/1 8/8/1
f 9/9/1 10/10/1 11/11/1 12/12/1
f 13/9/1 14/10/1 15/11/1 16/12/1
f 17/9/1 18/10/1 19/11/1 20/12/1
f 21/9/1 22/10/1 23/11/1 24/12/1
f 25/9/1 26/10/1 27/11/1 28/12/1
f 29/9/1 30/10/1 31/11/1 32/12/1
f 33/9/1 34/10/1 35/11/1 36/12/1
f 37/13/1 38/14/1 39/15/1 40/16/1
f 41/17/1 42/12/1 43/18/1 44/19/1
f 45/20/1 46/13/1 47/16/1 48/21/1
f 49/9/1 50/10/1 51/11/1 52/12/1
f 53/9/1 54/10/1 55/11/1 56/12/1
f 57/9/1 58/10/1 59/11/1 60/12/1
f 61/9/1 62/10/1 63/11/1 64/12/1
f 65/9/1 66/10/1 67/11/1 68/12/1
f 69/9/1 70/10/1 71/11/1 72/12/1
f 73/9/1 74/10/1 75/11/1 76/12/1
f 77/9/1 78/10/1 79/11/1 80/12/1
f 81/1/1 82/2/1 83/3/1 84/4/1
f 85/4/1 86/3/1 87/22/1 88/23/1
f 89/4/1 90/3/1 91/22/1 92/23/1
f 93/4/1 94/3/1 95/22/1 96/23/1
f 97/4/1 98/3/1 99/22/1 100/23/1
f 101/4/1 102/3/1 103/22/1 104/23/1
f 105/4/1 106/3/1 107/22/1 108/23/1
f 109/4/1 110/3/1 111/22/1 112/23/1
f 113/4/1 114/3/1 115/22/1 116/23/1
f 117/4/1 118/3/1 119/22/1 120/23/1
f 121/4/1 122/3/1 123/22/1 124/23/1
f 125/4/1 126/3/1 127/22/1 128/23/1
f 129/4/1 130/3/1 131/22/1 132/23/1
f 133/4/1 134/3/1 135/22/1 136/23/1
f 137/4/1 138/3/1 139/22/1 140/23/1
f 141/4/1 142/3/1 143/22/1 144/23/1
f 145/4/1 146/3/1 147/22/1 148/23/1
f 149/23/1 150/22/1 151/9/1 152/24/1
f 153/4/1 154/3/1 155/22/1 156/23/1
f 157/17/1 158/12/1 159/18/1 160/19/1
f 161/4/1 162/3/1 163/22/1 164/23/1
f 165/1/1 166/2/1 167/3/1 168/4/1
f 169/4/1 170/3/1 171/22/1 172/23/1
f 173/4/1 174/3/1 175/22/1 176/23/1
f 177/4/1 178/3/1 179/22/1 180/23/1
f 181/4/1 182/3/1 183/22/1 184/23/1
f 185/4/1 186/3/1 187/22/1 188/23/1
f 189/4/1 190/3/1 191/22/1 192/23/1
f 193/4/1 194/3/1 195/22/1 196/23/1
f 197/4/1 198/3/1 199/22/1 200/23/1
f 201/4/1 202/3/1 203/22/1 204/23/1
f 205/4/1 206/3/1 207/22/1 208/23/1
f 209/4/1 210/3/1 211/22/1 212/23/1
f 213/4/1 214/3/1 215/22/1 216/23/1
f 217/4/1 218/3/1 219/22/1 220/23/1
f 221/4/1 222/3/1 223/22/1 224/23/1
f 225/4/1 226/3/1 227/22/1 228/23/1
f 229/4/1 230/3/1 231/22/1 232/23/1
f 233/4/1 234/3/1 235/22/1 236/23/1
f 237/23/1 238/22/1 239/9/1 240/24/1
f 241/5/1 242/6/1 243/7/1 244/8/1
f 245/9/1 246/10/1 247/11/1 248/12/1
f 249/9/1 250/10/1 251/11/1 252/12/1
f 253/9/1 254/10/1 255/11/1 256/12/1
f 257/9/1 258/10/1 259/11/1 260/12/1
f 261/9/1 262/10/1 263/11/1 264/12/1
f 265/9/1 266/10/1 267/11/1 268/12/1
f 269/9/1 270/10/1 271/11/1 272/12/1
f 273/9/1 274/10/1 275/11/1 276/12/1
f 277/9/1 278/10/1 279/11/1 280/12/1
f 281/9/1 282/10/1 283/11/1 284/12/1
f 285/9/1 286/10/1 287/11/1 288/12/1
f 289/9/1 290/10/1 291/11/1 292/12/1
f 293/9/1 294/10/1 295/11/1 296/12/1
f 297/9/1 298/10/1 299/11/1 300/12/1
f 301/9/1 302/10/1 303/11/1 304/12/1
f 305/9/1 306/10/1 307/11/1 308/12/1
f 309/9/1 310/10/1 311/11/1 312/12/1
f 313/9/1 314/10/1 315/11/1 316/12/1
f 317/23/1 318/22/1 319/9/1 320/24/1

