# Tiled2Unity generated file. Do not modify by hand.
# Wavefront file for 'blitzTeste_4_mesh_0002.obj'

# Vertices (Count = 308)
v -19 -20 0
v -20 -20 0
v -20 -19 0
v -19 -19 0
v -18 -20 0
v -19 -20 0
v -19 -19 0
v -18 -19 0
v -17 -20 0
v -18 -20 0
v -18 -19 0
v -17 -19 0
v -16 -20 0
v -17 -20 0
v -17 -19 0
v -16 -19 0
v -15 -20 0
v -16 -20 0
v -16 -19 0
v -15 -19 0
v -14 -20 0
v -15 -20 0
v -15 -19 0
v -14 -19 0
v -13 -20 0
v -14 -20 0
v -14 -19 0
v -13 -19 0
v -12 -20 0
v -13 -20 0
v -13 -19 0
v -12 -19 0
v -11 -20 0
v -12 -20 0
v -12 -19 0
v -11 -19 0
v -10 -20 0
v -11 -20 0
v -11 -19 0
v -10 -19 0
v -9 -20 0
v -10 -20 0
v -10 -19 0
v -9 -19 0
v -8 -20 0
v -9 -20 0
v -9 -19 0
v -8 -19 0
v -7 -20 0
v -8 -20 0
v -8 -19 0
v -7 -19 0
v -6 -20 0
v -7 -20 0
v -7 -19 0
v -6 -19 0
v -5 -20 0
v -6 -20 0
v -6 -19 0
v -5 -19 0
v -4 -20 0
v -5 -20 0
v -5 -19 0
v -4 -19 0
v -3 -20 0
v -4 -20 0
v -4 -19 0
v -3 -19 0
v -2 -20 0
v -3 -20 0
v -3 -19 0
v -2 -19 0
v -1 -20 0
v -2 -20 0
v -2 -19 0
v -1 -19 0
v 0 -20 0
v -1 -20 0
v -1 -19 0
v 0 -19 0
v -19 -19 0
v -20 -19 0
v -20 -18 0
v -19 -18 0
v 0 -19 0
v -1 -19 0
v -1 -18 0
v 0 -18 0
v -19 -18 0
v -20 -18 0
v -20 -17 0
v -19 -17 0
v 0 -18 0
v -1 -18 0
v -1 -17 0
v 0 -17 0
v -19 -17 0
v -20 -17 0
v -20 -16 0
v -19 -16 0
v 0 -17 0
v -1 -17 0
v -1 -16 0
v 0 -16 0
v -19 -16 0
v -20 -16 0
v -20 -15 0
v -19 -15 0
v 0 -16 0
v -1 -16 0
v -1 -15 0
v 0 -15 0
v -19 -15 0
v -20 -15 0
v -20 -14 0
v -19 -14 0
v 0 -15 0
v -1 -15 0
v -1 -14 0
v 0 -14 0
v -19 -14 0
v -20 -14 0
v -20 -13 0
v -19 -13 0
v 0 -14 0
v -1 -14 0
v -1 -13 0
v 0 -13 0
v -19 -13 0
v -20 -13 0
v -20 -12 0
v -19 -12 0
v 0 -13 0
v -1 -13 0
v -1 -12 0
v 0 -12 0
v -19 -12 0
v -20 -12 0
v -20 -11 0
v -19 -11 0
v 0 -12 0
v -1 -12 0
v -1 -11 0
v 0 -11 0
v -19 -11 0
v -20 -11 0
v -20 -10 0
v -19 -10 0
v 0 -11 0
v -1 -11 0
v -1 -10 0
v 0 -10 0
v -19 -10 0
v -20 -10 0
v -20 -9 0
v -19 -9 0
v -18 -10 0
v -19 -10 0
v -19 -9 0
v -18 -9 0
v 0 -10 0
v -1 -10 0
v -1 -9 0
v 0 -9 0
v -19 -9 0
v -20 -9 0
v -20 -8 0
v -19 -8 0
v 0 -9 0
v -1 -9 0
v -1 -8 0
v 0 -8 0
v -19 -8 0
v -20 -8 0
v -20 -7 0
v -19 -7 0
v 0 -8 0
v -1 -8 0
v -1 -7 0
v 0 -7 0
v -19 -7 0
v -20 -7 0
v -20 -6 0
v -19 -6 0
v 0 -7 0
v -1 -7 0
v -1 -6 0
v 0 -6 0
v -19 -6 0
v -20 -6 0
v -20 -5 0
v -19 -5 0
v 0 -6 0
v -1 -6 0
v -1 -5 0
v 0 -5 0
v -19 -5 0
v -20 -5 0
v -20 -4 0
v -19 -4 0
v 0 -5 0
v -1 -5 0
v -1 -4 0
v 0 -4 0
v -19 -4 0
v -20 -4 0
v -20 -3 0
v -19 -3 0
v 0 -4 0
v -1 -4 0
v -1 -3 0
v 0 -3 0
v -19 -3 0
v -20 -3 0
v -20 -2 0
v -19 -2 0
v 0 -3 0
v -1 -3 0
v -1 -2 0
v 0 -2 0
v -19 -2 0
v -20 -2 0
v -20 -1 0
v -19 -1 0
v 0 -2 0
v -1 -2 0
v -1 -1 0
v 0 -1 0
v -19 -1 0
v -20 -1 0
v -20 0 0
v -19 0 0
v -18 -1 0
v -19 -1 0
v -19 0 0
v -18 0 0
v -17 -1 0
v -18 -1 0
v -18 0 0
v -17 0 0
v -16 -1 0
v -17 -1 0
v -17 0 0
v -16 0 0
v -15 -1 0
v -16 -1 0
v -16 0 0
v -15 0 0
v -14 -1 0
v -15 -1 0
v -15 0 0
v -14 0 0
v -13 -1 0
v -14 -1 0
v -14 0 0
v -13 0 0
v -12 -1 0
v -13 -1 0
v -13 0 0
v -12 0 0
v -11 -1 0
v -12 -1 0
v -12 0 0
v -11 0 0
v -10 -1 0
v -11 -1 0
v -11 0 0
v -10 0 0
v -9 -1 0
v -10 -1 0
v -10 0 0
v -9 0 0
v -8 -1 0
v -9 -1 0
v -9 0 0
v -8 0 0
v -7 -1 0
v -8 -1 0
v -8 0 0
v -7 0 0
v -6 -1 0
v -7 -1 0
v -7 0 0
v -6 0 0
v -5 -1 0
v -6 -1 0
v -6 0 0
v -5 0 0
v -4 -1 0
v -5 -1 0
v -5 0 0
v -4 0 0
v -3 -1 0
v -4 -1 0
v -4 0 0
v -3 0 0
v -2 -1 0
v -3 -1 0
v -3 0 0
v -2 0 0
v -1 -1 0
v -2 -1 0
v -2 0 0
v -1 0 0
v 0 -1 0
v -1 -1 0
v -1 0 0
v 0 0 0

# Texture cooridinates (Count = 35)
vt 0.25 0.5
vt 0.3 0.5
vt 0.3 0.5416667
vt 0.25 0.5416667
vt 0.35 0.625
vt 0.4 0.625
vt 0.4 0.6666667
vt 0.35 0.6666667
vt 0.65 0.5
vt 0.7 0.5
vt 0.7 0.5416667
vt 0.65 0.5416667
vt 0.6 0.375
vt 0.65 0.375
vt 0.65 0.4166667
vt 0.6 0.4166667
vt 0.6 0.5
vt 0.6 0.5416667
vt 0.3 0.5833333
vt 0.25 0.5833333
vt 0.3 0.625
vt 0.25 0.625
vt 0.25 0.375
vt 0.3 0.375
vt 0.3 0.4166667
vt 0.25 0.4166667
vt 0.35 0.375
vt 0.35 0.4166667
vt 0.45 0.625
vt 0.45 0.6666667
vt 0.05 0.6666667
vt 0.1 0.6666667
vt 0.1 0.7083333
vt 0.05 0.7083333
vt 0.3 0.6666667

# Normal
vn 0 0 -1

# Mesh description
g blitzTeste_4_mesh_0002

# Faces
f 1/1/1 2/2/1 3/3/1 4/4/1
f 5/5/1 6/6/1 7/7/1 8/8/1
f 9/5/1 10/6/1 11/7/1 12/8/1
f 13/5/1 14/6/1 15/7/1 16/8/1
f 17/5/1 18/6/1 19/7/1 20/8/1
f 21/5/1 22/6/1 23/7/1 24/8/1
f 25/5/1 26/6/1 27/7/1 28/8/1
f 29/5/1 30/6/1 31/7/1 32/8/1
f 33/5/1 34/6/1 35/7/1 36/8/1
f 37/9/1 38/10/1 39/11/1 40/12/1
f 41/13/1 42/14/1 43/15/1 44/16/1
f 45/17/1 46/9/1 47/12/1 48/18/1
f 49/5/1 50/6/1 51/7/1 52/8/1
f 53/5/1 54/6/1 55/7/1 56/8/1
f 57/5/1 58/6/1 59/7/1 60/8/1
f 61/5/1 62/6/1 63/7/1 64/8/1
f 65/5/1 66/6/1 67/7/1 68/8/1
f 69/5/1 70/6/1 71/7/1 72/8/1
f 73/5/1 74/6/1 75/7/1 76/8/1
f 77/1/1 78/2/1 79/3/1 80/4/1
f 81/4/1 82/3/1 83/19/1 84/20/1
f 85/4/1 86/3/1 87/19/1 88/20/1
f 89/4/1 90/3/1 91/19/1 92/20/1
f 93/4/1 94/3/1 95/19/1 96/20/1
f 97/4/1 98/3/1 99/19/1 100/20/1
f 101/4/1 102/3/1 103/19/1 104/20/1
f 105/4/1 106/3/1 107/19/1 108/20/1
f 109/4/1 110/3/1 111/19/1 112/20/1
f 113/4/1 114/3/1 115/19/1 116/20/1
f 117/4/1 118/3/1 119/19/1 120/20/1
f 121/4/1 122/3/1 123/19/1 124/20/1
f 125/4/1 126/3/1 127/19/1 128/20/1
f 129/4/1 130/3/1 131/19/1 132/20/1
f 133/4/1 134/3/1 135/19/1 136/20/1
f 137/4/1 138/3/1 139/19/1 140/20/1
f 141/4/1 142/3/1 143/19/1 144/20/1
f 145/20/1 146/19/1 147/21/1 148/22/1
f 149/20/1 150/19/1 151/21/1 152/22/1
f 153/23/1 154/24/1 155/25/1 156/26/1
f 157/23/1 158/24/1 159/25/1 160/26/1
f 161/24/1 162/27/1 163/28/1 164/25/1
f 165/1/1 166/2/1 167/3/1 168/4/1
f 169/1/1 170/2/1 171/3/1 172/4/1
f 173/4/1 174/3/1 175/19/1 176/20/1
f 177/4/1 178/3/1 179/19/1 180/20/1
f 181/4/1 182/3/1 183/19/1 184/20/1
f 185/4/1 186/3/1 187/19/1 188/20/1
f 189/4/1 190/3/1 191/19/1 192/20/1
f 193/4/1 194/3/1 195/19/1 196/20/1
f 197/4/1 198/3/1 199/19/1 200/20/1
f 201/4/1 202/3/1 203/19/1 204/20/1
f 205/4/1 206/3/1 207/19/1 208/20/1
f 209/4/1 210/3/1 211/19/1 212/20/1
f 213/4/1 214/3/1 215/19/1 216/20/1
f 217/4/1 218/3/1 219/19/1 220/20/1
f 221/4/1 222/3/1 223/19/1 224/20/1
f 225/4/1 226/3/1 227/19/1 228/20/1
f 229/20/1 230/19/1 231/21/1 232/22/1
f 233/6/1 234/29/1 235/30/1 236/7/1
f 237/5/1 238/6/1 239/7/1 240/8/1
f 241/5/1 242/6/1 243/7/1 244/8/1
f 245/5/1 246/6/1 247/7/1 248/8/1
f 249/5/1 250/6/1 251/7/1 252/8/1
f 253/5/1 254/6/1 255/7/1 256/8/1
f 257/5/1 258/6/1 259/7/1 260/8/1
f 261/5/1 262/6/1 263/7/1 264/8/1
f 265/9/1 266/10/1 267/11/1 268/12/1
f 269/31/1 270/32/1 271/33/1 272/34/1
f 273/17/1 274/9/1 275/12/1 276/18/1
f 277/5/1 278/6/1 279/7/1 280/8/1
f 281/5/1 282/6/1 283/7/1 284/8/1
f 285/5/1 286/6/1 287/7/1 288/8/1
f 289/5/1 290/6/1 291/7/1 292/8/1
f 293/5/1 294/6/1 295/7/1 296/8/1
f 297/5/1 298/6/1 299/7/1 300/8/1
f 301/21/1 302/5/1 303/8/1 304/35/1
f 305/20/1 306/19/1 307/21/1 308/22/1

