# Tiled2Unity generated file. Do not modify by hand.
# Wavefront file for 'maps_nowayout_left_mesh_0003.obj'

# Vertices (Count = 60)
v -1 -2 0
v -2 -2 0
v -2 -1 0
v -1 -1 0
v -2 -2 0
v -3 -2 0
v -3 -1 0
v -2 -1 0
v -3 -2 0
v -4 -2 0
v -4 -1 0
v -3 -1 0
v -4 -2 0
v -5 -2 0
v -5 -1 0
v -4 -1 0
v -9 -2 0
v -10 -2 0
v -10 -1 0
v -9 -1 0
v -1 -3 0
v -2 -3 0
v -2 -2 0
v -1 -2 0
v -2 -3 0
v -3 -3 0
v -3 -2 0
v -2 -2 0
v -3 -3 0
v -4 -3 0
v -4 -2 0
v -3 -2 0
v -4 -3 0
v -5 -3 0
v -5 -2 0
v -4 -2 0
v -9 -3 0
v -10 -3 0
v -10 -2 0
v -9 -2 0
v -1 -4 0
v -2 -4 0
v -2 -3 0
v -1 -3 0
v -2 -4 0
v -3 -4 0
v -3 -3 0
v -2 -3 0
v -3 -4 0
v -4 -4 0
v -4 -3 0
v -3 -3 0
v -4 -4 0
v -5 -4 0
v -5 -3 0
v -4 -3 0
v -9 -4 0
v -10 -4 0
v -10 -3 0
v -9 -3 0

# Texture cooridinates (Count = 12)
vt 0.25 0.9375
vt 0.1875 0.9375
vt 0.1875 1
vt 0.25 1
vt 0.1875 0.75
vt 0.25 0.75
vt 0.25 0.8125
vt 0.1875 0.8125
vt 0.25 0.875
vt 0.1875 0.875
vt 0.1875 0.6875
vt 0.25 0.6875

# Normal
vn 0 0 -1

# Mesh description
g maps_nowayout_left_mesh_0003

# Faces
f 1/1/1 2/2/1 3/3/1 4/4/1
f 5/5/1 6/6/1 7/7/1 8/8/1
f 9/5/1 10/6/1 11/7/1 12/8/1
f 13/2/1 14/1/1 15/4/1 16/3/1
f 17/2/1 18/1/1 19/4/1 20/3/1
f 21/9/1 22/10/1 23/2/1 24/1/1
f 25/11/1 26/12/1 27/6/1 28/5/1
f 29/11/1 30/12/1 31/6/1 32/5/1
f 33/10/1 34/9/1 35/1/1 36/2/1
f 37/10/1 38/9/1 39/1/1 40/2/1
f 41/7/1 42/8/1 43/10/1 44/9/1
f 45/8/1 46/7/1 47/9/1 48/10/1
f 49/8/1 50/7/1 51/9/1 52/10/1
f 53/8/1 54/7/1 55/9/1 56/10/1
f 57/8/1 58/7/1 59/9/1 60/10/1

