# Tiled2Unity generated file. Do not modify by hand.
# Wavefront file for 'maps_nowayout_left_mesh_0005.obj'

# Vertices (Count = 32)
v 0 -1 0
v -1 -1 0
v -1 0 0
v 0 0 0
v 0 -2 0
v -1 -2 0
v -1 -1 0
v 0 -1 0
v 0 -3 0
v -1 -3 0
v -1 -2 0
v 0 -2 0
v -8 -5 0
v -9 -5 0
v -9 -4 0
v -8 -4 0
v -8 -6 0
v -9 -6 0
v -9 -5 0
v -8 -5 0
v -10 -7 0
v -11 -7 0
v -11 -6 0
v -10 -6 0
v -10 -8 0
v -11 -8 0
v -11 -7 0
v -10 -7 0
v -10 -9 0
v -11 -9 0
v -11 -8 0
v -10 -8 0

# Texture cooridinates (Count = 16)
vt 0.6875 0.3125
vt 0.75 0.3125
vt 0.75 0.375
vt 0.6875 0.375
vt 0.6875 0.25
vt 0.75 0.25
vt 0.6875 0.1875
vt 0.75 0.1875
vt 0.8125 0.5625
vt 0.875 0.5625
vt 0.875 0.625
vt 0.8125 0.625
vt 0.75 0.4375
vt 0.8125 0.4375
vt 0.8125 0.5
vt 0.75 0.5

# Normal
vn 0 0 -1

# Mesh description
g maps_nowayout_left_mesh_0005

# Faces
f 1/1/1 2/2/1 3/3/1 4/4/1
f 5/5/1 6/6/1 7/2/1 8/1/1
f 9/7/1 10/8/1 11/6/1 12/5/1
f 13/9/1 14/10/1 15/11/1 16/12/1
f 17/13/1 18/14/1 19/15/1 20/16/1
f 21/1/1 22/2/1 23/3/1 24/4/1
f 25/5/1 26/6/1 27/2/1 28/1/1
f 29/7/1 30/8/1 31/6/1 32/5/1

