# Tiled2Unity generated file. Do not modify by hand.
# Wavefront file for 'mapas_6_mesh_0002.obj'

# Vertices (Count = 1136)
v 0 -1 0
v -1 -1 0
v -1 0 0
v 0 0 0
v -1 -1 0
v -2 -1 0
v -2 0 0
v -1 0 0
v -2 -1 0
v -3 -1 0
v -3 0 0
v -2 0 0
v -3 -1 0
v -4 -1 0
v -4 0 0
v -3 0 0
v -4 -1 0
v -5 -1 0
v -5 0 0
v -4 0 0
v -5 -1 0
v -6 -1 0
v -6 0 0
v -5 0 0
v -6 -1 0
v -7 -1 0
v -7 0 0
v -6 0 0
v -7 -1 0
v -8 -1 0
v -8 0 0
v -7 0 0
v -8 -1 0
v -9 -1 0
v -9 0 0
v -8 0 0
v -9 -1 0
v -10 -1 0
v -10 0 0
v -9 0 0
v -10 -1 0
v -11 -1 0
v -11 0 0
v -10 0 0
v -12 -1 0
v -13 -1 0
v -13 0 0
v -12 0 0
v -13 -1 0
v -14 -1 0
v -14 0 0
v -13 0 0
v -14 -1 0
v -15 -1 0
v -15 0 0
v -14 0 0
v -15 -1 0
v -16 -1 0
v -16 0 0
v -15 0 0
v -16 -1 0
v -17 -1 0
v -17 0 0
v -16 0 0
v -17 -1 0
v -18 -1 0
v -18 0 0
v -17 0 0
v -18 -1 0
v -19 -1 0
v -19 0 0
v -18 0 0
v -19 -1 0
v -20 -1 0
v -20 0 0
v -19 0 0
v -20 -1 0
v -21 -1 0
v -21 0 0
v -20 0 0
v -21 -1 0
v -22 -1 0
v -22 0 0
v -21 0 0
v -22 -1 0
v -23 -1 0
v -23 0 0
v -22 0 0
v 0 -2 0
v -1 -2 0
v -1 -1 0
v 0 -1 0
v -22 -2 0
v -23 -2 0
v -23 -1 0
v -22 -1 0
v 0 -3 0
v -1 -3 0
v -1 -2 0
v 0 -2 0
v -22 -3 0
v -23 -3 0
v -23 -2 0
v -22 -2 0
v 0 -4 0
v -1 -4 0
v -1 -3 0
v 0 -3 0
v -3 -4 0
v -4 -4 0
v -4 -3 0
v -3 -3 0
v -4 -4 0
v -5 -4 0
v -5 -3 0
v -4 -3 0
v -5 -4 0
v -6 -4 0
v -6 -3 0
v -5 -3 0
v -6 -4 0
v -7 -4 0
v -7 -3 0
v -6 -3 0
v -7 -4 0
v -8 -4 0
v -8 -3 0
v -7 -3 0
v -8 -4 0
v -9 -4 0
v -9 -3 0
v -8 -3 0
v -15 -4 0
v -16 -4 0
v -16 -3 0
v -15 -3 0
v -16 -4 0
v -17 -4 0
v -17 -3 0
v -16 -3 0
v -17 -4 0
v -18 -4 0
v -18 -3 0
v -17 -3 0
v -18 -4 0
v -19 -4 0
v -19 -3 0
v -18 -3 0
v -19 -4 0
v -20 -4 0
v -20 -3 0
v -19 -3 0
v -22 -4 0
v -23 -4 0
v -23 -3 0
v -22 -3 0
v 0 -5 0
v -1 -5 0
v -1 -4 0
v 0 -4 0
v -3 -5 0
v -4 -5 0
v -4 -4 0
v -3 -4 0
v -8 -5 0
v -9 -5 0
v -9 -4 0
v -8 -4 0
v -9 -5 0
v -10 -5 0
v -10 -4 0
v -9 -4 0
v -10 -5 0
v -11 -5 0
v -11 -4 0
v -10 -4 0
v -11 -5 0
v -12 -5 0
v -12 -4 0
v -11 -4 0
v -12 -5 0
v -13 -5 0
v -13 -4 0
v -12 -4 0
v -13 -5 0
v -14 -5 0
v -14 -4 0
v -13 -4 0
v -14 -5 0
v -15 -5 0
v -15 -4 0
v -14 -4 0
v -16 -5 0
v -17 -5 0
v -17 -4 0
v -16 -4 0
v -17 -5 0
v -18 -5 0
v -18 -4 0
v -17 -4 0
v -18 -5 0
v -19 -5 0
v -19 -4 0
v -18 -4 0
v -22 -5 0
v -23 -5 0
v -23 -4 0
v -22 -4 0
v 0 -6 0
v -1 -6 0
v -1 -5 0
v 0 -5 0
v -3 -6 0
v -4 -6 0
v -4 -5 0
v -3 -5 0
v -18 -6 0
v -19 -6 0
v -19 -5 0
v -18 -5 0
v -22 -6 0
v -23 -6 0
v -23 -5 0
v -22 -5 0
v 0 -7 0
v -1 -7 0
v -1 -6 0
v 0 -6 0
v -3 -7 0
v -4 -7 0
v -4 -6 0
v -3 -6 0
v -18 -7 0
v -19 -7 0
v -19 -6 0
v -18 -6 0
v -19 -7 0
v -20 -7 0
v -20 -6 0
v -19 -6 0
v -22 -7 0
v -23 -7 0
v -23 -6 0
v -22 -6 0
v 0 -8 0
v -1 -8 0
v -1 -7 0
v 0 -7 0
v -3 -8 0
v -4 -8 0
v -4 -7 0
v -3 -7 0
v -4 -8 0
v -5 -8 0
v -5 -7 0
v -4 -7 0
v -5 -8 0
v -6 -8 0
v -6 -7 0
v -5 -7 0
v -6 -8 0
v -7 -8 0
v -7 -7 0
v -6 -7 0
v -7 -8 0
v -8 -8 0
v -8 -7 0
v -7 -7 0
v -15 -8 0
v -16 -8 0
v -16 -7 0
v -15 -7 0
v -16 -8 0
v -17 -8 0
v -17 -7 0
v -16 -7 0
v -17 -8 0
v -18 -8 0
v -18 -7 0
v -17 -7 0
v -18 -8 0
v -19 -8 0
v -19 -7 0
v -18 -7 0
v -19 -8 0
v -20 -8 0
v -20 -7 0
v -19 -7 0
v -22 -8 0
v -23 -8 0
v -23 -7 0
v -22 -7 0
v 0 -9 0
v -1 -9 0
v -1 -8 0
v 0 -8 0
v -22 -9 0
v -23 -9 0
v -23 -8 0
v -22 -8 0
v 0 -10 0
v -1 -10 0
v -1 -9 0
v 0 -9 0
v -22 -10 0
v -23 -10 0
v -23 -9 0
v -22 -9 0
v 0 -11 0
v -1 -11 0
v -1 -10 0
v 0 -10 0
v -22 -11 0
v -23 -11 0
v -23 -10 0
v -22 -10 0
v 0 -12 0
v -1 -12 0
v -1 -11 0
v 0 -11 0
v -3 -12 0
v -4 -12 0
v -4 -11 0
v -3 -11 0
v -6 -12 0
v -7 -12 0
v -7 -11 0
v -6 -11 0
v -7 -12 0
v -8 -12 0
v -8 -11 0
v -7 -11 0
v -8 -12 0
v -9 -12 0
v -9 -11 0
v -8 -11 0
v -9 -12 0
v -10 -12 0
v -10 -11 0
v -9 -11 0
v -10 -12 0
v -11 -12 0
v -11 -11 0
v -10 -11 0
v -13 -12 0
v -14 -12 0
v -14 -11 0
v -13 -11 0
v -14 -12 0
v -15 -12 0
v -15 -11 0
v -14 -11 0
v -15 -12 0
v -16 -12 0
v -16 -11 0
v -15 -11 0
v -16 -12 0
v -17 -12 0
v -17 -11 0
v -16 -11 0
v -17 -12 0
v -18 -12 0
v -18 -11 0
v -17 -11 0
v -18 -12 0
v -19 -12 0
v -19 -11 0
v -18 -11 0
v -19 -12 0
v -20 -12 0
v -20 -11 0
v -19 -11 0
v -22 -12 0
v -23 -12 0
v -23 -11 0
v -22 -11 0
v 0 -13 0
v -1 -13 0
v -1 -12 0
v 0 -12 0
v -2 -13 0
v -3 -13 0
v -3 -12 0
v -2 -12 0
v -3 -13 0
v -4 -13 0
v -4 -12 0
v -3 -12 0
v -4 -13 0
v -5 -13 0
v -5 -12 0
v -4 -12 0
v -5 -13 0
v -6 -13 0
v -6 -12 0
v -5 -12 0
v -6 -13 0
v -7 -13 0
v -7 -12 0
v -6 -12 0
v -11 -13 0
v -12 -13 0
v -12 -12 0
v -11 -12 0
v -12 -13 0
v -13 -13 0
v -13 -12 0
v -12 -12 0
v -19 -13 0
v -20 -13 0
v -20 -12 0
v -19 -12 0
v -22 -13 0
v -23 -13 0
v -23 -12 0
v -22 -12 0
v 0 -14 0
v -1 -14 0
v -1 -13 0
v 0 -13 0
v -2 -14 0
v -3 -14 0
v -3 -13 0
v -2 -13 0
v -3 -14 0
v -4 -14 0
v -4 -13 0
v -3 -13 0
v -4 -14 0
v -5 -14 0
v -5 -13 0
v -4 -13 0
v -19 -14 0
v -20 -14 0
v -20 -13 0
v -19 -13 0
v -22 -14 0
v -23 -14 0
v -23 -13 0
v -22 -13 0
v 0 -15 0
v -1 -15 0
v -1 -14 0
v 0 -14 0
v -3 -15 0
v -4 -15 0
v -4 -14 0
v -3 -14 0
v -19 -15 0
v -20 -15 0
v -20 -14 0
v -19 -14 0
v -20 -15 0
v -21 -15 0
v -21 -14 0
v -20 -14 0
v -22 -15 0
v -23 -15 0
v -23 -14 0
v -22 -14 0
v 0 -16 0
v -1 -16 0
v -1 -15 0
v 0 -15 0
v -3 -16 0
v -4 -16 0
v -4 -15 0
v -3 -15 0
v -4 -16 0
v -5 -16 0
v -5 -15 0
v -4 -15 0
v -5 -16 0
v -6 -16 0
v -6 -15 0
v -5 -15 0
v -6 -16 0
v -7 -16 0
v -7 -15 0
v -6 -15 0
v -7 -16 0
v -8 -16 0
v -8 -15 0
v -7 -15 0
v -14 -16 0
v -15 -16 0
v -15 -15 0
v -14 -15 0
v -15 -16 0
v -16 -16 0
v -16 -15 0
v -15 -15 0
v -16 -16 0
v -17 -16 0
v -17 -15 0
v -16 -15 0
v -17 -16 0
v -18 -16 0
v -18 -15 0
v -17 -15 0
v -18 -16 0
v -19 -16 0
v -19 -15 0
v -18 -15 0
v -19 -16 0
v -20 -16 0
v -20 -15 0
v -19 -15 0
v -20 -16 0
v -21 -16 0
v -21 -15 0
v -20 -15 0
v -22 -16 0
v -23 -16 0
v -23 -15 0
v -22 -15 0
v 0 -17 0
v -1 -17 0
v -1 -16 0
v 0 -16 0
v -7 -17 0
v -8 -17 0
v -8 -16 0
v -7 -16 0
v -8 -17 0
v -9 -17 0
v -9 -16 0
v -8 -16 0
v -9 -17 0
v -10 -17 0
v -10 -16 0
v -9 -16 0
v -10 -17 0
v -11 -17 0
v -11 -16 0
v -10 -16 0
v -14 -17 0
v -15 -17 0
v -15 -16 0
v -14 -16 0
v -20 -17 0
v -21 -17 0
v -21 -16 0
v -20 -16 0
v -22 -17 0
v -23 -17 0
v -23 -16 0
v -22 -16 0
v 0 -18 0
v -1 -18 0
v -1 -17 0
v 0 -17 0
v -10 -18 0
v -11 -18 0
v -11 -17 0
v -10 -17 0
v -11 -18 0
v -12 -18 0
v -12 -17 0
v -11 -17 0
v -14 -18 0
v -15 -18 0
v -15 -17 0
v -14 -17 0
v -20 -18 0
v -21 -18 0
v -21 -17 0
v -20 -17 0
v -22 -18 0
v -23 -18 0
v -23 -17 0
v -22 -17 0
v 0 -19 0
v -1 -19 0
v -1 -18 0
v 0 -18 0
v -11 -19 0
v -12 -19 0
v -12 -18 0
v -11 -18 0
v -12 -19 0
v -13 -19 0
v -13 -18 0
v -12 -18 0
v -14 -19 0
v -15 -19 0
v -15 -18 0
v -14 -18 0
v -20 -19 0
v -21 -19 0
v -21 -18 0
v -20 -18 0
v -22 -19 0
v -23 -19 0
v -23 -18 0
v -22 -18 0
v 0 -20 0
v -1 -20 0
v -1 -19 0
v 0 -19 0
v -3 -20 0
v -4 -20 0
v -4 -19 0
v -3 -19 0
v -4 -20 0
v -5 -20 0
v -5 -19 0
v -4 -19 0
v -5 -20 0
v -6 -20 0
v -6 -19 0
v -5 -19 0
v -6 -20 0
v -7 -20 0
v -7 -19 0
v -6 -19 0
v -7 -20 0
v -8 -20 0
v -8 -19 0
v -7 -19 0
v -8 -20 0
v -9 -20 0
v -9 -19 0
v -8 -19 0
v -12 -20 0
v -13 -20 0
v -13 -19 0
v -12 -19 0
v -14 -20 0
v -15 -20 0
v -15 -19 0
v -14 -19 0
v -15 -20 0
v -16 -20 0
v -16 -19 0
v -15 -19 0
v -16 -20 0
v -17 -20 0
v -17 -19 0
v -16 -19 0
v -17 -20 0
v -18 -20 0
v -18 -19 0
v -17 -19 0
v -18 -20 0
v -19 -20 0
v -19 -19 0
v -18 -19 0
v -19 -20 0
v -20 -20 0
v -20 -19 0
v -19 -19 0
v -20 -20 0
v -21 -20 0
v -21 -19 0
v -20 -19 0
v -22 -20 0
v -23 -20 0
v -23 -19 0
v -22 -19 0
v 0 -21 0
v -1 -21 0
v -1 -20 0
v 0 -20 0
v -8 -21 0
v -9 -21 0
v -9 -20 0
v -8 -20 0
v -9 -21 0
v -10 -21 0
v -10 -20 0
v -9 -20 0
v -12 -21 0
v -13 -21 0
v -13 -20 0
v -12 -20 0
v -13 -21 0
v -14 -21 0
v -14 -20 0
v -13 -20 0
v -22 -21 0
v -23 -21 0
v -23 -20 0
v -22 -20 0
v 0 -22 0
v -1 -22 0
v -1 -21 0
v 0 -21 0
v -9 -22 0
v -10 -22 0
v -10 -21 0
v -9 -21 0
v -10 -22 0
v -11 -22 0
v -11 -21 0
v -10 -21 0
v -13 -22 0
v -14 -22 0
v -14 -21 0
v -13 -21 0
v -22 -22 0
v -23 -22 0
v -23 -21 0
v -22 -21 0
v 0 -23 0
v -1 -23 0
v -1 -22 0
v 0 -22 0
v -11 -23 0
v -12 -23 0
v -12 -22 0
v -11 -22 0
v -12 -23 0
v -13 -23 0
v -13 -22 0
v -12 -22 0
v -13 -23 0
v -14 -23 0
v -14 -22 0
v -13 -22 0
v -22 -23 0
v -23 -23 0
v -23 -22 0
v -22 -22 0
v 0 -24 0
v -1 -24 0
v -1 -23 0
v 0 -23 0
v -3 -24 0
v -4 -24 0
v -4 -23 0
v -3 -23 0
v -4 -24 0
v -5 -24 0
v -5 -23 0
v -4 -23 0
v -5 -24 0
v -6 -24 0
v -6 -23 0
v -5 -23 0
v -6 -24 0
v -7 -24 0
v -7 -23 0
v -6 -23 0
v -7 -24 0
v -8 -24 0
v -8 -23 0
v -7 -23 0
v -13 -24 0
v -14 -24 0
v -14 -23 0
v -13 -23 0
v -15 -24 0
v -16 -24 0
v -16 -23 0
v -15 -23 0
v -16 -24 0
v -17 -24 0
v -17 -23 0
v -16 -23 0
v -17 -24 0
v -18 -24 0
v -18 -23 0
v -17 -23 0
v -18 -24 0
v -19 -24 0
v -19 -23 0
v -18 -23 0
v -19 -24 0
v -20 -24 0
v -20 -23 0
v -19 -23 0
v -22 -24 0
v -23 -24 0
v -23 -23 0
v -22 -23 0
v 0 -25 0
v -1 -25 0
v -1 -24 0
v 0 -24 0
v -3 -25 0
v -4 -25 0
v -4 -24 0
v -3 -24 0
v -13 -25 0
v -14 -25 0
v -14 -24 0
v -13 -24 0
v -14 -25 0
v -15 -25 0
v -15 -24 0
v -14 -24 0
v -15 -25 0
v -16 -25 0
v -16 -24 0
v -15 -24 0
v -19 -25 0
v -20 -25 0
v -20 -24 0
v -19 -24 0
v -22 -25 0
v -23 -25 0
v -23 -24 0
v -22 -24 0
v 0 -26 0
v -1 -26 0
v -1 -25 0
v 0 -25 0
v -3 -26 0
v -4 -26 0
v -4 -25 0
v -3 -25 0
v -14 -26 0
v -15 -26 0
v -15 -25 0
v -14 -25 0
v -15 -26 0
v -16 -26 0
v -16 -25 0
v -15 -25 0
v -16 -26 0
v -17 -26 0
v -17 -25 0
v -16 -25 0
v -19 -26 0
v -20 -26 0
v -20 -25 0
v -19 -25 0
v -22 -26 0
v -23 -26 0
v -23 -25 0
v -22 -25 0
v 0 -27 0
v -1 -27 0
v -1 -26 0
v 0 -26 0
v -2 -27 0
v -3 -27 0
v -3 -26 0
v -2 -26 0
v -3 -27 0
v -4 -27 0
v -4 -26 0
v -3 -26 0
v -4 -27 0
v -5 -27 0
v -5 -26 0
v -4 -26 0
v -6 -27 0
v -7 -27 0
v -7 -26 0
v -6 -26 0
v -7 -27 0
v -8 -27 0
v -8 -26 0
v -7 -26 0
v -16 -27 0
v -17 -27 0
v -17 -26 0
v -16 -26 0
v -19 -27 0
v -20 -27 0
v -20 -26 0
v -19 -26 0
v -22 -27 0
v -23 -27 0
v -23 -26 0
v -22 -26 0
v 0 -28 0
v -1 -28 0
v -1 -27 0
v 0 -27 0
v -2 -28 0
v -3 -28 0
v -3 -27 0
v -2 -27 0
v -3 -28 0
v -4 -28 0
v -4 -27 0
v -3 -27 0
v -4 -28 0
v -5 -28 0
v -5 -27 0
v -4 -27 0
v -5 -28 0
v -6 -28 0
v -6 -27 0
v -5 -27 0
v -6 -28 0
v -7 -28 0
v -7 -27 0
v -6 -27 0
v -7 -28 0
v -8 -28 0
v -8 -27 0
v -7 -27 0
v -15 -28 0
v -16 -28 0
v -16 -27 0
v -15 -27 0
v -16 -28 0
v -17 -28 0
v -17 -27 0
v -16 -27 0
v -17 -28 0
v -18 -28 0
v -18 -27 0
v -17 -27 0
v -18 -28 0
v -19 -28 0
v -19 -27 0
v -18 -27 0
v -19 -28 0
v -20 -28 0
v -20 -27 0
v -19 -27 0
v -22 -28 0
v -23 -28 0
v -23 -27 0
v -22 -27 0
v 0 -29 0
v -1 -29 0
v -1 -28 0
v 0 -28 0
v -2 -29 0
v -3 -29 0
v -3 -28 0
v -2 -28 0
v -22 -29 0
v -23 -29 0
v -23 -28 0
v -22 -28 0
v 0 -30 0
v -1 -30 0
v -1 -29 0
v 0 -29 0
v -2 -30 0
v -3 -30 0
v -3 -29 0
v -2 -29 0
v -22 -30 0
v -23 -30 0
v -23 -29 0
v -22 -29 0
v 0 -31 0
v -1 -31 0
v -1 -30 0
v 0 -30 0
v -3 -31 0
v -4 -31 0
v -4 -30 0
v -3 -30 0
v -22 -31 0
v -23 -31 0
v -23 -30 0
v -22 -30 0
v 0 -32 0
v -1 -32 0
v -1 -31 0
v 0 -31 0
v -3 -32 0
v -4 -32 0
v -4 -31 0
v -3 -31 0
v -4 -32 0
v -5 -32 0
v -5 -31 0
v -4 -31 0
v -5 -32 0
v -6 -32 0
v -6 -31 0
v -5 -31 0
v -6 -32 0
v -7 -32 0
v -7 -31 0
v -6 -31 0
v -7 -32 0
v -8 -32 0
v -8 -31 0
v -7 -31 0
v -8 -32 0
v -9 -32 0
v -9 -31 0
v -8 -31 0
v -9 -32 0
v -10 -32 0
v -10 -31 0
v -9 -31 0
v -10 -32 0
v -11 -32 0
v -11 -31 0
v -10 -31 0
v -11 -32 0
v -12 -32 0
v -12 -31 0
v -11 -31 0
v -12 -32 0
v -13 -32 0
v -13 -31 0
v -12 -31 0
v -13 -32 0
v -14 -32 0
v -14 -31 0
v -13 -31 0
v -14 -32 0
v -15 -32 0
v -15 -31 0
v -14 -31 0
v -15 -32 0
v -16 -32 0
v -16 -31 0
v -15 -31 0
v -16 -32 0
v -17 -32 0
v -17 -31 0
v -16 -31 0
v -17 -32 0
v -18 -32 0
v -18 -31 0
v -17 -31 0
v -18 -32 0
v -19 -32 0
v -19 -31 0
v -18 -31 0
v -19 -32 0
v -20 -32 0
v -20 -31 0
v -19 -31 0
v -22 -32 0
v -23 -32 0
v -23 -31 0
v -22 -31 0
v 0 -33 0
v -1 -33 0
v -1 -32 0
v 0 -32 0
v -22 -33 0
v -23 -33 0
v -23 -32 0
v -22 -32 0
v 0 -34 0
v -1 -34 0
v -1 -33 0
v 0 -33 0
v -22 -34 0
v -23 -34 0
v -23 -33 0
v -22 -33 0
v 0 -35 0
v -1 -35 0
v -1 -34 0
v 0 -34 0
v -1 -35 0
v -2 -35 0
v -2 -34 0
v -1 -34 0
v -2 -35 0
v -3 -35 0
v -3 -34 0
v -2 -34 0
v -3 -35 0
v -4 -35 0
v -4 -34 0
v -3 -34 0
v -4 -35 0
v -5 -35 0
v -5 -34 0
v -4 -34 0
v -5 -35 0
v -6 -35 0
v -6 -34 0
v -5 -34 0
v -6 -35 0
v -7 -35 0
v -7 -34 0
v -6 -34 0
v -7 -35 0
v -8 -35 0
v -8 -34 0
v -7 -34 0
v -8 -35 0
v -9 -35 0
v -9 -34 0
v -8 -34 0
v -9 -35 0
v -10 -35 0
v -10 -34 0
v -9 -34 0
v -10 -35 0
v -11 -35 0
v -11 -34 0
v -10 -34 0
v -12 -35 0
v -13 -35 0
v -13 -34 0
v -12 -34 0
v -13 -35 0
v -14 -35 0
v -14 -34 0
v -13 -34 0
v -14 -35 0
v -15 -35 0
v -15 -34 0
v -14 -34 0
v -15 -35 0
v -16 -35 0
v -16 -34 0
v -15 -34 0
v -16 -35 0
v -17 -35 0
v -17 -34 0
v -16 -34 0
v -17 -35 0
v -18 -35 0
v -18 -34 0
v -17 -34 0
v -18 -35 0
v -19 -35 0
v -19 -34 0
v -18 -34 0
v -19 -35 0
v -20 -35 0
v -20 -34 0
v -19 -34 0
v -20 -35 0
v -21 -35 0
v -21 -34 0
v -20 -34 0
v -21 -35 0
v -22 -35 0
v -22 -34 0
v -21 -34 0
v -22 -35 0
v -23 -35 0
v -23 -34 0
v -22 -34 0

# Texture cooridinates (Count = 18)
vt 0 0.5833333
vt 0.05 0.5833333
vt 0.05 0.625
vt 0 0.625
vt 0 0.5
vt 0.05 0.5
vt 0.05 0.5416667
vt 0 0.5416667
vt 0.6 0.5416667
vt 0.65 0.5416667
vt 0.65 0.5833333
vt 0.6 0.5833333
vt 0.7 0.5416667
vt 0.7 0.5833333
vt 0.6 0.875
vt 0.65 0.875
vt 0.65 0.9166667
vt 0.6 0.9166667

# Normal
vn 0 0 -1

# Mesh description
g mapas_6_mesh_0002

# Faces
f 1/1/1 2/2/1 3/3/1 4/4/1
f 5/5/1 6/6/1 7/7/1 8/8/1
f 9/5/1 10/6/1 11/7/1 12/8/1
f 13/5/1 14/6/1 15/7/1 16/8/1
f 17/5/1 18/6/1 19/7/1 20/8/1
f 21/5/1 22/6/1 23/7/1 24/8/1
f 25/5/1 26/6/1 27/7/1 28/8/1
f 29/5/1 30/6/1 31/7/1 32/8/1
f 33/5/1 34/6/1 35/7/1 36/8/1
f 37/5/1 38/6/1 39/7/1 40/8/1
f 41/9/1 42/10/1 43/11/1 44/12/1
f 45/10/1 46/13/1 47/14/1 48/11/1
f 49/5/1 50/6/1 51/7/1 52/8/1
f 53/5/1 54/6/1 55/7/1 56/8/1
f 57/5/1 58/6/1 59/7/1 60/8/1
f 61/5/1 62/6/1 63/7/1 64/8/1
f 65/5/1 66/6/1 67/7/1 68/8/1
f 69/5/1 70/6/1 71/7/1 72/8/1
f 73/5/1 74/6/1 75/7/1 76/8/1
f 77/5/1 78/6/1 79/7/1 80/8/1
f 81/5/1 82/6/1 83/7/1 84/8/1
f 85/1/1 86/2/1 87/3/1 88/4/1
f 89/8/1 90/7/1 91/2/1 92/1/1
f 93/8/1 94/7/1 95/2/1 96/1/1
f 97/8/1 98/7/1 99/2/1 100/1/1
f 101/8/1 102/7/1 103/2/1 104/1/1
f 105/8/1 106/7/1 107/2/1 108/1/1
f 109/15/1 110/16/1 111/17/1 112/18/1
f 113/15/1 114/16/1 115/17/1 116/18/1
f 117/15/1 118/16/1 119/17/1 120/18/1
f 121/15/1 122/16/1 123/17/1 124/18/1
f 125/15/1 126/16/1 127/17/1 128/18/1
f 129/15/1 130/16/1 131/17/1 132/18/1
f 133/15/1 134/16/1 135/17/1 136/18/1
f 137/15/1 138/16/1 139/17/1 140/18/1
f 141/15/1 142/16/1 143/17/1 144/18/1
f 145/15/1 146/16/1 147/17/1 148/18/1
f 149/15/1 150/16/1 151/17/1 152/18/1
f 153/8/1 154/7/1 155/2/1 156/1/1
f 157/8/1 158/7/1 159/2/1 160/1/1
f 161/15/1 162/16/1 163/17/1 164/18/1
f 165/15/1 166/16/1 167/17/1 168/18/1
f 169/15/1 170/16/1 171/17/1 172/18/1
f 173/15/1 174/16/1 175/17/1 176/18/1
f 177/15/1 178/16/1 179/17/1 180/18/1
f 181/15/1 182/16/1 183/17/1 184/18/1
f 185/15/1 186/16/1 187/17/1 188/18/1
f 189/15/1 190/16/1 191/17/1 192/18/1
f 193/15/1 194/16/1 195/17/1 196/18/1
f 197/15/1 198/16/1 199/17/1 200/18/1
f 201/15/1 202/16/1 203/17/1 204/18/1
f 205/8/1 206/7/1 207/2/1 208/1/1
f 209/8/1 210/7/1 211/2/1 212/1/1
f 213/15/1 214/16/1 215/17/1 216/18/1
f 217/15/1 218/16/1 219/17/1 220/18/1
f 221/8/1 222/7/1 223/2/1 224/1/1
f 225/8/1 226/7/1 227/2/1 228/1/1
f 229/15/1 230/16/1 231/17/1 232/18/1
f 233/15/1 234/16/1 235/17/1 236/18/1
f 237/15/1 238/16/1 239/17/1 240/18/1
f 241/8/1 242/7/1 243/2/1 244/1/1
f 245/8/1 246/7/1 247/2/1 248/1/1
f 249/15/1 250/16/1 251/17/1 252/18/1
f 253/15/1 254/16/1 255/17/1 256/18/1
f 257/15/1 258/16/1 259/17/1 260/18/1
f 261/15/1 262/16/1 263/17/1 264/18/1
f 265/15/1 266/16/1 267/17/1 268/18/1
f 269/15/1 270/16/1 271/17/1 272/18/1
f 273/15/1 274/16/1 275/17/1 276/18/1
f 277/15/1 278/16/1 279/17/1 280/18/1
f 281/15/1 282/16/1 283/17/1 284/18/1
f 285/15/1 286/16/1 287/17/1 288/18/1
f 289/8/1 290/7/1 291/2/1 292/1/1
f 293/8/1 294/7/1 295/2/1 296/1/1
f 297/8/1 298/7/1 299/2/1 300/1/1
f 301/8/1 302/7/1 303/2/1 304/1/1
f 305/8/1 306/7/1 307/2/1 308/1/1
f 309/8/1 310/7/1 311/2/1 312/1/1
f 313/8/1 314/7/1 315/2/1 316/1/1
f 317/8/1 318/7/1 319/2/1 320/1/1
f 321/15/1 322/16/1 323/17/1 324/18/1
f 325/15/1 326/16/1 327/17/1 328/18/1
f 329/15/1 330/16/1 331/17/1 332/18/1
f 333/15/1 334/16/1 335/17/1 336/18/1
f 337/15/1 338/16/1 339/17/1 340/18/1
f 341/15/1 342/16/1 343/17/1 344/18/1
f 345/15/1 346/16/1 347/17/1 348/18/1
f 349/15/1 350/16/1 351/17/1 352/18/1
f 353/15/1 354/16/1 355/17/1 356/18/1
f 357/15/1 358/16/1 359/17/1 360/18/1
f 361/15/1 362/16/1 363/17/1 364/18/1
f 365/15/1 366/16/1 367/17/1 368/18/1
f 369/15/1 370/16/1 371/17/1 372/18/1
f 373/8/1 374/7/1 375/2/1 376/1/1
f 377/8/1 378/7/1 379/2/1 380/1/1
f 381/15/1 382/16/1 383/17/1 384/18/1
f 385/15/1 386/16/1 387/17/1 388/18/1
f 389/15/1 390/16/1 391/17/1 392/18/1
f 393/15/1 394/16/1 395/17/1 396/18/1
f 397/15/1 398/16/1 399/17/1 400/18/1
f 401/15/1 402/16/1 403/17/1 404/18/1
f 405/15/1 406/16/1 407/17/1 408/18/1
f 409/15/1 410/16/1 411/17/1 412/18/1
f 413/8/1 414/7/1 415/2/1 416/1/1
f 417/8/1 418/7/1 419/2/1 420/1/1
f 421/15/1 422/16/1 423/17/1 424/18/1
f 425/15/1 426/16/1 427/17/1 428/18/1
f 429/15/1 430/16/1 431/17/1 432/18/1
f 433/15/1 434/16/1 435/17/1 436/18/1
f 437/8/1 438/7/1 439/2/1 440/1/1
f 441/8/1 442/7/1 443/2/1 444/1/1
f 445/15/1 446/16/1 447/17/1 448/18/1
f 449/15/1 450/16/1 451/17/1 452/18/1
f 453/15/1 454/16/1 455/17/1 456/18/1
f 457/8/1 458/7/1 459/2/1 460/1/1
f 461/8/1 462/7/1 463/2/1 464/1/1
f 465/15/1 466/16/1 467/17/1 468/18/1
f 469/15/1 470/16/1 471/17/1 472/18/1
f 473/15/1 474/16/1 475/17/1 476/18/1
f 477/15/1 478/16/1 479/17/1 480/18/1
f 481/15/1 482/16/1 483/17/1 484/18/1
f 485/15/1 486/16/1 487/17/1 488/18/1
f 489/15/1 490/16/1 491/17/1 492/18/1
f 493/15/1 494/16/1 495/17/1 496/18/1
f 497/15/1 498/16/1 499/17/1 500/18/1
f 501/15/1 502/16/1 503/17/1 504/18/1
f 505/15/1 506/16/1 507/17/1 508/18/1
f 509/15/1 510/16/1 511/17/1 512/18/1
f 513/8/1 514/7/1 515/2/1 516/1/1
f 517/8/1 518/7/1 519/2/1 520/1/1
f 521/15/1 522/16/1 523/17/1 524/18/1
f 525/15/1 526/16/1 527/17/1 528/18/1
f 529/15/1 530/16/1 531/17/1 532/18/1
f 533/15/1 534/16/1 535/17/1 536/18/1
f 537/15/1 538/16/1 539/17/1 540/18/1
f 541/15/1 542/16/1 543/17/1 544/18/1
f 545/8/1 546/7/1 547/2/1 548/1/1
f 549/8/1 550/7/1 551/2/1 552/1/1
f 553/15/1 554/16/1 555/17/1 556/18/1
f 557/15/1 558/16/1 559/17/1 560/18/1
f 561/15/1 562/16/1 563/17/1 564/18/1
f 565/15/1 566/16/1 567/17/1 568/18/1
f 569/8/1 570/7/1 571/2/1 572/1/1
f 573/8/1 574/7/1 575/2/1 576/1/1
f 577/15/1 578/16/1 579/17/1 580/18/1
f 581/15/1 582/16/1 583/17/1 584/18/1
f 585/15/1 586/16/1 587/17/1 588/18/1
f 589/15/1 590/16/1 591/17/1 592/18/1
f 593/8/1 594/7/1 595/2/1 596/1/1
f 597/8/1 598/7/1 599/2/1 600/1/1
f 601/15/1 602/16/1 603/17/1 604/18/1
f 605/15/1 606/16/1 607/17/1 608/18/1
f 609/15/1 610/16/1 611/17/1 612/18/1
f 613/15/1 614/16/1 615/17/1 616/18/1
f 617/15/1 618/16/1 619/17/1 620/18/1
f 621/15/1 622/16/1 623/17/1 624/18/1
f 625/15/1 626/16/1 627/17/1 628/18/1
f 629/15/1 630/16/1 631/17/1 632/18/1
f 633/15/1 634/16/1 635/17/1 636/18/1
f 637/15/1 638/16/1 639/17/1 640/18/1
f 641/15/1 642/16/1 643/17/1 644/18/1
f 645/15/1 646/16/1 647/17/1 648/18/1
f 649/15/1 650/16/1 651/17/1 652/18/1
f 653/15/1 654/16/1 655/17/1 656/18/1
f 657/8/1 658/7/1 659/2/1 660/1/1
f 661/8/1 662/7/1 663/2/1 664/1/1
f 665/15/1 666/16/1 667/17/1 668/18/1
f 669/15/1 670/16/1 671/17/1 672/18/1
f 673/15/1 674/16/1 675/17/1 676/18/1
f 677/15/1 678/16/1 679/17/1 680/18/1
f 681/8/1 682/7/1 683/2/1 684/1/1
f 685/8/1 686/7/1 687/2/1 688/1/1
f 689/15/1 690/16/1 691/17/1 692/18/1
f 693/15/1 694/16/1 695/17/1 696/18/1
f 697/15/1 698/16/1 699/17/1 700/18/1
f 701/8/1 702/7/1 703/2/1 704/1/1
f 705/8/1 706/7/1 707/2/1 708/1/1
f 709/15/1 710/16/1 711/17/1 712/18/1
f 713/15/1 714/16/1 715/17/1 716/18/1
f 717/15/1 718/16/1 719/17/1 720/18/1
f 721/8/1 722/7/1 723/2/1 724/1/1
f 725/8/1 726/7/1 727/2/1 728/1/1
f 729/15/1 730/16/1 731/17/1 732/18/1
f 733/15/1 734/16/1 735/17/1 736/18/1
f 737/15/1 738/16/1 739/17/1 740/18/1
f 741/15/1 742/16/1 743/17/1 744/18/1
f 745/15/1 746/16/1 747/17/1 748/18/1
f 749/15/1 750/16/1 751/17/1 752/18/1
f 753/15/1 754/16/1 755/17/1 756/18/1
f 757/15/1 758/16/1 759/17/1 760/18/1
f 761/15/1 762/16/1 763/17/1 764/18/1
f 765/15/1 766/16/1 767/17/1 768/18/1
f 769/15/1 770/16/1 771/17/1 772/18/1
f 773/8/1 774/7/1 775/2/1 776/1/1
f 777/8/1 778/7/1 779/2/1 780/1/1
f 781/15/1 782/16/1 783/17/1 784/18/1
f 785/15/1 786/16/1 787/17/1 788/18/1
f 789/15/1 790/16/1 791/17/1 792/18/1
f 793/15/1 794/16/1 795/17/1 796/18/1
f 797/15/1 798/16/1 799/17/1 800/18/1
f 801/8/1 802/7/1 803/2/1 804/1/1
f 805/8/1 806/7/1 807/2/1 808/1/1
f 809/15/1 810/16/1 811/17/1 812/18/1
f 813/15/1 814/16/1 815/17/1 816/18/1
f 817/15/1 818/16/1 819/17/1 820/18/1
f 821/15/1 822/16/1 823/17/1 824/18/1
f 825/15/1 826/16/1 827/17/1 828/18/1
f 829/8/1 830/7/1 831/2/1 832/1/1
f 833/8/1 834/7/1 835/2/1 836/1/1
f 837/15/1 838/16/1 839/17/1 840/18/1
f 841/15/1 842/16/1 843/17/1 844/18/1
f 845/15/1 846/16/1 847/17/1 848/18/1
f 849/15/1 850/16/1 851/17/1 852/18/1
f 853/15/1 854/16/1 855/17/1 856/18/1
f 857/15/1 858/16/1 859/17/1 860/18/1
f 861/15/1 862/16/1 863/17/1 864/18/1
f 865/8/1 866/7/1 867/2/1 868/1/1
f 869/8/1 870/7/1 871/2/1 872/1/1
f 873/15/1 874/16/1 875/17/1 876/18/1
f 877/15/1 878/16/1 879/17/1 880/18/1
f 881/15/1 882/16/1 883/17/1 884/18/1
f 885/15/1 886/16/1 887/17/1 888/18/1
f 889/15/1 890/16/1 891/17/1 892/18/1
f 893/15/1 894/16/1 895/17/1 896/18/1
f 897/15/1 898/16/1 899/17/1 900/18/1
f 901/15/1 902/16/1 903/17/1 904/18/1
f 905/15/1 906/16/1 907/17/1 908/18/1
f 909/15/1 910/16/1 911/17/1 912/18/1
f 913/15/1 914/16/1 915/17/1 916/18/1
f 917/8/1 918/7/1 919/2/1 920/1/1
f 921/8/1 922/7/1 923/2/1 924/1/1
f 925/15/1 926/16/1 927/17/1 928/18/1
f 929/8/1 930/7/1 931/2/1 932/1/1
f 933/8/1 934/7/1 935/2/1 936/1/1
f 937/15/1 938/16/1 939/17/1 940/18/1
f 941/8/1 942/7/1 943/2/1 944/1/1
f 945/8/1 946/7/1 947/2/1 948/1/1
f 949/15/1 950/16/1 951/17/1 952/18/1
f 953/8/1 954/7/1 955/2/1 956/1/1
f 957/8/1 958/7/1 959/2/1 960/1/1
f 961/15/1 962/16/1 963/17/1 964/18/1
f 965/15/1 966/16/1 967/17/1 968/18/1
f 969/15/1 970/16/1 971/17/1 972/18/1
f 973/15/1 974/16/1 975/17/1 976/18/1
f 977/15/1 978/16/1 979/17/1 980/18/1
f 981/15/1 982/16/1 983/17/1 984/18/1
f 985/15/1 986/16/1 987/17/1 988/18/1
f 989/15/1 990/16/1 991/17/1 992/18/1
f 993/15/1 994/16/1 995/17/1 996/18/1
f 997/15/1 998/16/1 999/17/1 1000/18/1
f 1001/15/1 1002/16/1 1003/17/1 1004/18/1
f 1005/15/1 1006/16/1 1007/17/1 1008/18/1
f 1009/15/1 1010/16/1 1011/17/1 1012/18/1
f 1013/15/1 1014/16/1 1015/17/1 1016/18/1
f 1017/15/1 1018/16/1 1019/17/1 1020/18/1
f 1021/15/1 1022/16/1 1023/17/1 1024/18/1
f 1025/15/1 1026/16/1 1027/17/1 1028/18/1
f 1029/8/1 1030/7/1 1031/2/1 1032/1/1
f 1033/8/1 1034/7/1 1035/2/1 1036/1/1
f 1037/8/1 1038/7/1 1039/2/1 1040/1/1
f 1041/8/1 1042/7/1 1043/2/1 1044/1/1
f 1045/8/1 1046/7/1 1047/2/1 1048/1/1
f 1049/5/1 1050/6/1 1051/7/1 1052/8/1
f 1053/5/1 1054/6/1 1055/7/1 1056/8/1
f 1057/5/1 1058/6/1 1059/7/1 1060/8/1
f 1061/5/1 1062/6/1 1063/7/1 1064/8/1
f 1065/5/1 1066/6/1 1067/7/1 1068/8/1
f 1069/5/1 1070/6/1 1071/7/1 1072/8/1
f 1073/5/1 1074/6/1 1075/7/1 1076/8/1
f 1077/5/1 1078/6/1 1079/7/1 1080/8/1
f 1081/5/1 1082/6/1 1083/7/1 1084/8/1
f 1085/5/1 1086/6/1 1087/7/1 1088/8/1
f 1089/9/1 1090/10/1 1091/11/1 1092/12/1
f 1093/10/1 1094/13/1 1095/14/1 1096/11/1
f 1097/5/1 1098/6/1 1099/7/1 1100/8/1
f 1101/5/1 1102/6/1 1103/7/1 1104/8/1
f 1105/5/1 1106/6/1 1107/7/1 1108/8/1
f 1109/5/1 1110/6/1 1111/7/1 1112/8/1
f 1113/5/1 1114/6/1 1115/7/1 1116/8/1
f 1117/5/1 1118/6/1 1119/7/1 1120/8/1
f 1121/5/1 1122/6/1 1123/7/1 1124/8/1
f 1125/5/1 1126/6/1 1127/7/1 1128/8/1
f 1129/5/1 1130/6/1 1131/7/1 1132/8/1
f 1133/5/1 1134/6/1 1135/7/1 1136/8/1

