# Tiled2Unity generated file. Do not modify by hand.
# Wavefront file for 'maps_nowayout_up_mesh_0003.obj'

# Vertices (Count = 80)
v -2 -1 0
v -3 -1 0
v -3 0 0
v -2 0 0
v -3 -1 0
v -4 -1 0
v -4 0 0
v -3 0 0
v -6 -1 0
v -7 -1 0
v -7 0 0
v -6 0 0
v -7 -1 0
v -8 -1 0
v -8 0 0
v -7 0 0
v -9 -1 0
v -10 -1 0
v -10 0 0
v -9 0 0
v -1 -2 0
v -2 -2 0
v -2 -1 0
v -1 -1 0
v -2 -2 0
v -3 -2 0
v -3 -1 0
v -2 -1 0
v -6 -2 0
v -7 -2 0
v -7 -1 0
v -6 -1 0
v -7 -2 0
v -8 -2 0
v -8 -1 0
v -7 -1 0
v -9 -2 0
v -10 -2 0
v -10 -1 0
v -9 -1 0
v -1 -3 0
v -2 -3 0
v -2 -2 0
v -1 -2 0
v -2 -3 0
v -3 -3 0
v -3 -2 0
v -2 -2 0
v -1 -4 0
v -2 -4 0
v -2 -3 0
v -1 -3 0
v -2 -4 0
v -3 -4 0
v -3 -3 0
v -2 -3 0
v -1 -5 0
v -2 -5 0
v -2 -4 0
v -1 -4 0
v -2 -5 0
v -3 -5 0
v -3 -4 0
v -2 -4 0
v -1 -6 0
v -2 -6 0
v -2 -5 0
v -1 -5 0
v -2 -7 0
v -3 -7 0
v -3 -6 0
v -2 -6 0
v -4 -8 0
v -5 -8 0
v -5 -7 0
v -4 -7 0
v -9 -10 0
v -10 -10 0
v -10 -9 0
v -9 -9 0

# Texture cooridinates (Count = 22)
vt 0.4 0.5416667
vt 0.45 0.5416667
vt 0.45 0.5833333
vt 0.4 0.5833333
vt 0.85 0.25
vt 0.9 0.25
vt 0.9 0.2916667
vt 0.85 0.2916667
vt 0.95 0.25
vt 0.95 0.2916667
vt 0.45 0.25
vt 0.5 0.25
vt 0.5 0.2916667
vt 0.45 0.2916667
vt 0.85 0.2083333
vt 0.9 0.2083333
vt 0.95 0.2083333
vt 0.45 0.2083333
vt 0.5 0.2083333
vt 0.55 0.2083333
vt 0.55 0.25
vt 0.55 0.2916667

# Normal
vn 0 0 -1

# Mesh description
g maps_nowayout_up_mesh_0003

# Faces
f 1/1/1 2/2/1 3/3/1 4/4/1
f 5/1/1 6/2/1 7/3/1 8/4/1
f 9/5/1 10/6/1 11/7/1 12/8/1
f 13/6/1 14/9/1 15/10/1 16/7/1
f 17/11/1 18/12/1 19/13/1 20/14/1
f 21/5/1 22/6/1 23/7/1 24/8/1
f 25/6/1 26/9/1 27/10/1 28/7/1
f 29/15/1 30/16/1 31/6/1 32/5/1
f 33/16/1 34/17/1 35/9/1 36/6/1
f 37/18/1 38/19/1 39/12/1 40/11/1
f 41/15/1 42/16/1 43/6/1 44/5/1
f 45/16/1 46/17/1 47/9/1 48/6/1
f 49/5/1 50/6/1 51/7/1 52/8/1
f 53/6/1 54/9/1 55/10/1 56/7/1
f 57/15/1 58/16/1 59/6/1 60/5/1
f 61/16/1 62/17/1 63/9/1 64/6/1
f 65/19/1 66/20/1 67/21/1 68/12/1
f 69/19/1 70/20/1 71/21/1 72/12/1
f 73/12/1 74/21/1 75/22/1 76/13/1
f 77/19/1 78/20/1 79/21/1 80/12/1

