# Tiled2Unity generated file. Do not modify by hand.
# Wavefront file for 'maps_nowayout_up_mesh_0002.obj'

# Vertices (Count = 116)
v 0 -1 0
v -1 -1 0
v -1 0 0
v 0 0 0
v -1 -1 0
v -2 -1 0
v -2 0 0
v -1 0 0
v -2 -1 0
v -3 -1 0
v -3 0 0
v -2 0 0
v -3 -1 0
v -4 -1 0
v -4 0 0
v -3 0 0
v -4 -1 0
v -5 -1 0
v -5 0 0
v -4 0 0
v -6 -1 0
v -7 -1 0
v -7 0 0
v -6 0 0
v -7 -1 0
v -8 -1 0
v -8 0 0
v -7 0 0
v -8 -1 0
v -9 -1 0
v -9 0 0
v -8 0 0
v -9 -1 0
v -10 -1 0
v -10 0 0
v -9 0 0
v -10 -1 0
v -11 -1 0
v -11 0 0
v -10 0 0
v 0 -2 0
v -1 -2 0
v -1 -1 0
v 0 -1 0
v -1 -2 0
v -2 -2 0
v -2 -1 0
v -1 -1 0
v -2 -2 0
v -3 -2 0
v -3 -1 0
v -2 -1 0
v -9 -2 0
v -10 -2 0
v -10 -1 0
v -9 -1 0
v -10 -2 0
v -11 -2 0
v -11 -1 0
v -10 -1 0
v -10 -3 0
v -11 -3 0
v -11 -2 0
v -10 -2 0
v -1 -4 0
v -2 -4 0
v -2 -3 0
v -1 -3 0
v -2 -4 0
v -3 -4 0
v -3 -3 0
v -2 -3 0
v -10 -4 0
v -11 -4 0
v -11 -3 0
v -10 -3 0
v -10 -5 0
v -11 -5 0
v -11 -4 0
v -10 -4 0
v -2 -6 0
v -3 -6 0
v -3 -5 0
v -2 -5 0
v -10 -6 0
v -11 -6 0
v -11 -5 0
v -10 -5 0
v -10 -7 0
v -11 -7 0
v -11 -6 0
v -10 -6 0
v -10 -8 0
v -11 -8 0
v -11 -7 0
v -10 -7 0
v -9 -9 0
v -10 -9 0
v -10 -8 0
v -9 -8 0
v -10 -9 0
v -11 -9 0
v -11 -8 0
v -10 -8 0
v -10 -10 0
v -11 -10 0
v -11 -9 0
v -10 -9 0
v -9 -11 0
v -10 -11 0
v -10 -10 0
v -9 -10 0
v -10 -11 0
v -11 -11 0
v -11 -10 0
v -10 -10 0

# Texture cooridinates (Count = 45)
vt 0.15 0.125
vt 0.2 0.125
vt 0.2 0.1666667
vt 0.15 0.1666667
vt 0.4 0.5416667
vt 0.45 0.5416667
vt 0.45 0.5833333
vt 0.4 0.5833333
vt 0.5 0.5
vt 0.55 0.5
vt 0.55 0.5416667
vt 0.5 0.5416667
vt 0.3 0.5416667
vt 0.35 0.5416667
vt 0.35 0.5833333
vt 0.3 0.5833333
vt 0.4 0.5
vt 0.45 0.5
vt 0.05 0.04166667
vt 0.1 0.04166667
vt 0.1 0.08333334
vt 0.05 0.08333334
vt 0.45 0.2083333
vt 0.5 0.2083333
vt 0.5 0.25
vt 0.45 0.25
vt 0.5 0.5833333
vt 0.85 0.2083333
vt 0.9 0.2083333
vt 0.9 0.25
vt 0.85 0.25
vt 0.25 0.5416667
vt 0.25 0.5833333
vt 0.8 0.2916667
vt 0.85 0.2916667
vt 0.85 0.3333333
vt 0.8 0.3333333
vt 0.55 0.25
vt 0.55 0.2916667
vt 0.5 0.2916667
vt 0.2 0.04166667
vt 0.25 0.04166667
vt 0.25 0.08333334
vt 0.2 0.08333334
vt 0.25 0.125

# Normal
vn 0 0 -1

# Mesh description
g maps_nowayout_up_mesh_0002

# Faces
f 1/1/1 2/2/1 3/3/1 4/4/1
f 5/1/1 6/2/1 7/3/1 8/4/1
f 9/1/1 10/2/1 11/3/1 12/4/1
f 13/5/1 14/6/1 15/7/1 16/8/1
f 17/9/1 18/10/1 19/11/1 20/12/1
f 21/9/1 22/10/1 23/11/1 24/12/1
f 25/13/1 26/14/1 27/15/1 28/16/1
f 29/13/1 30/14/1 31/15/1 32/16/1
f 33/13/1 34/14/1 35/15/1 36/16/1
f 37/17/1 38/18/1 39/6/1 40/5/1
f 41/19/1 42/20/1 43/21/1 44/22/1
f 45/19/1 46/20/1 47/21/1 48/22/1
f 49/1/1 50/2/1 51/3/1 52/4/1
f 53/23/1 54/24/1 55/25/1 56/26/1
f 57/6/1 58/12/1 59/27/1 60/7/1
f 61/6/1 62/12/1 63/27/1 64/7/1
f 65/19/1 66/20/1 67/21/1 68/22/1
f 69/28/1 70/29/1 71/30/1 72/31/1
f 73/32/1 74/13/1 75/16/1 76/33/1
f 77/18/1 78/9/1 79/12/1 80/6/1
f 81/34/1 82/35/1 83/36/1 84/37/1
f 85/6/1 86/12/1 87/27/1 88/7/1
f 89/6/1 90/12/1 91/27/1 92/7/1
f 93/32/1 94/13/1 95/16/1 96/33/1
f 97/25/1 98/38/1 99/39/1 100/40/1
f 101/6/1 102/12/1 103/27/1 104/7/1
f 105/41/1 106/42/1 107/43/1 108/44/1
f 109/44/1 110/43/1 111/45/1 112/2/1
f 113/44/1 114/43/1 115/45/1 116/2/1

