# Tiled2Unity generated file. Do not modify by hand.
# Wavefront file for '25x11_mesh_0001.obj'

# Vertices (Count = 1100)
v 0 -1 0
v -1 -1 0
v -1 0 0
v 0 0 0
v -1 -1 0
v -2 -1 0
v -2 0 0
v -1 0 0
v -2 -1 0
v -3 -1 0
v -3 0 0
v -2 0 0
v -3 -1 0
v -4 -1 0
v -4 0 0
v -3 0 0
v -4 -1 0
v -5 -1 0
v -5 0 0
v -4 0 0
v -5 -1 0
v -6 -1 0
v -6 0 0
v -5 0 0
v -6 -1 0
v -7 -1 0
v -7 0 0
v -6 0 0
v -7 -1 0
v -8 -1 0
v -8 0 0
v -7 0 0
v -8 -1 0
v -9 -1 0
v -9 0 0
v -8 0 0
v -9 -1 0
v -10 -1 0
v -10 0 0
v -9 0 0
v -10 -1 0
v -11 -1 0
v -11 0 0
v -10 0 0
v -11 -1 0
v -12 -1 0
v -12 0 0
v -11 0 0
v -12 -1 0
v -13 -1 0
v -13 0 0
v -12 0 0
v -13 -1 0
v -14 -1 0
v -14 0 0
v -13 0 0
v -14 -1 0
v -15 -1 0
v -15 0 0
v -14 0 0
v -15 -1 0
v -16 -1 0
v -16 0 0
v -15 0 0
v -16 -1 0
v -17 -1 0
v -17 0 0
v -16 0 0
v -17 -1 0
v -18 -1 0
v -18 0 0
v -17 0 0
v -18 -1 0
v -19 -1 0
v -19 0 0
v -18 0 0
v -19 -1 0
v -20 -1 0
v -20 0 0
v -19 0 0
v -20 -1 0
v -21 -1 0
v -21 0 0
v -20 0 0
v -21 -1 0
v -22 -1 0
v -22 0 0
v -21 0 0
v -22 -1 0
v -23 -1 0
v -23 0 0
v -22 0 0
v -23 -1 0
v -24 -1 0
v -24 0 0
v -23 0 0
v -24 -1 0
v -25 -1 0
v -25 0 0
v -24 0 0
v 0 -2 0
v -1 -2 0
v -1 -1 0
v 0 -1 0
v -1 -2 0
v -2 -2 0
v -2 -1 0
v -1 -1 0
v -2 -2 0
v -3 -2 0
v -3 -1 0
v -2 -1 0
v -3 -2 0
v -4 -2 0
v -4 -1 0
v -3 -1 0
v -4 -2 0
v -5 -2 0
v -5 -1 0
v -4 -1 0
v -5 -2 0
v -6 -2 0
v -6 -1 0
v -5 -1 0
v -6 -2 0
v -7 -2 0
v -7 -1 0
v -6 -1 0
v -7 -2 0
v -8 -2 0
v -8 -1 0
v -7 -1 0
v -8 -2 0
v -9 -2 0
v -9 -1 0
v -8 -1 0
v -9 -2 0
v -10 -2 0
v -10 -1 0
v -9 -1 0
v -10 -2 0
v -11 -2 0
v -11 -1 0
v -10 -1 0
v -11 -2 0
v -12 -2 0
v -12 -1 0
v -11 -1 0
v -12 -2 0
v -13 -2 0
v -13 -1 0
v -12 -1 0
v -13 -2 0
v -14 -2 0
v -14 -1 0
v -13 -1 0
v -14 -2 0
v -15 -2 0
v -15 -1 0
v -14 -1 0
v -15 -2 0
v -16 -2 0
v -16 -1 0
v -15 -1 0
v -16 -2 0
v -17 -2 0
v -17 -1 0
v -16 -1 0
v -17 -2 0
v -18 -2 0
v -18 -1 0
v -17 -1 0
v -18 -2 0
v -19 -2 0
v -19 -1 0
v -18 -1 0
v -19 -2 0
v -20 -2 0
v -20 -1 0
v -19 -1 0
v -20 -2 0
v -21 -2 0
v -21 -1 0
v -20 -1 0
v -21 -2 0
v -22 -2 0
v -22 -1 0
v -21 -1 0
v -22 -2 0
v -23 -2 0
v -23 -1 0
v -22 -1 0
v -23 -2 0
v -24 -2 0
v -24 -1 0
v -23 -1 0
v -24 -2 0
v -25 -2 0
v -25 -1 0
v -24 -1 0
v 0 -3 0
v -1 -3 0
v -1 -2 0
v 0 -2 0
v -1 -3 0
v -2 -3 0
v -2 -2 0
v -1 -2 0
v -2 -3 0
v -3 -3 0
v -3 -2 0
v -2 -2 0
v -3 -3 0
v -4 -3 0
v -4 -2 0
v -3 -2 0
v -4 -3 0
v -5 -3 0
v -5 -2 0
v -4 -2 0
v -5 -3 0
v -6 -3 0
v -6 -2 0
v -5 -2 0
v -6 -3 0
v -7 -3 0
v -7 -2 0
v -6 -2 0
v -7 -3 0
v -8 -3 0
v -8 -2 0
v -7 -2 0
v -8 -3 0
v -9 -3 0
v -9 -2 0
v -8 -2 0
v -9 -3 0
v -10 -3 0
v -10 -2 0
v -9 -2 0
v -10 -3 0
v -11 -3 0
v -11 -2 0
v -10 -2 0
v -11 -3 0
v -12 -3 0
v -12 -2 0
v -11 -2 0
v -12 -3 0
v -13 -3 0
v -13 -2 0
v -12 -2 0
v -13 -3 0
v -14 -3 0
v -14 -2 0
v -13 -2 0
v -14 -3 0
v -15 -3 0
v -15 -2 0
v -14 -2 0
v -15 -3 0
v -16 -3 0
v -16 -2 0
v -15 -2 0
v -16 -3 0
v -17 -3 0
v -17 -2 0
v -16 -2 0
v -17 -3 0
v -18 -3 0
v -18 -2 0
v -17 -2 0
v -18 -3 0
v -19 -3 0
v -19 -2 0
v -18 -2 0
v -19 -3 0
v -20 -3 0
v -20 -2 0
v -19 -2 0
v -20 -3 0
v -21 -3 0
v -21 -2 0
v -20 -2 0
v -21 -3 0
v -22 -3 0
v -22 -2 0
v -21 -2 0
v -22 -3 0
v -23 -3 0
v -23 -2 0
v -22 -2 0
v -23 -3 0
v -24 -3 0
v -24 -2 0
v -23 -2 0
v -24 -3 0
v -25 -3 0
v -25 -2 0
v -24 -2 0
v 0 -4 0
v -1 -4 0
v -1 -3 0
v 0 -3 0
v -1 -4 0
v -2 -4 0
v -2 -3 0
v -1 -3 0
v -2 -4 0
v -3 -4 0
v -3 -3 0
v -2 -3 0
v -3 -4 0
v -4 -4 0
v -4 -3 0
v -3 -3 0
v -4 -4 0
v -5 -4 0
v -5 -3 0
v -4 -3 0
v -5 -4 0
v -6 -4 0
v -6 -3 0
v -5 -3 0
v -6 -4 0
v -7 -4 0
v -7 -3 0
v -6 -3 0
v -7 -4 0
v -8 -4 0
v -8 -3 0
v -7 -3 0
v -8 -4 0
v -9 -4 0
v -9 -3 0
v -8 -3 0
v -9 -4 0
v -10 -4 0
v -10 -3 0
v -9 -3 0
v -10 -4 0
v -11 -4 0
v -11 -3 0
v -10 -3 0
v -11 -4 0
v -12 -4 0
v -12 -3 0
v -11 -3 0
v -12 -4 0
v -13 -4 0
v -13 -3 0
v -12 -3 0
v -13 -4 0
v -14 -4 0
v -14 -3 0
v -13 -3 0
v -14 -4 0
v -15 -4 0
v -15 -3 0
v -14 -3 0
v -15 -4 0
v -16 -4 0
v -16 -3 0
v -15 -3 0
v -16 -4 0
v -17 -4 0
v -17 -3 0
v -16 -3 0
v -17 -4 0
v -18 -4 0
v -18 -3 0
v -17 -3 0
v -18 -4 0
v -19 -4 0
v -19 -3 0
v -18 -3 0
v -19 -4 0
v -20 -4 0
v -20 -3 0
v -19 -3 0
v -20 -4 0
v -21 -4 0
v -21 -3 0
v -20 -3 0
v -21 -4 0
v -22 -4 0
v -22 -3 0
v -21 -3 0
v -22 -4 0
v -23 -4 0
v -23 -3 0
v -22 -3 0
v -23 -4 0
v -24 -4 0
v -24 -3 0
v -23 -3 0
v -24 -4 0
v -25 -4 0
v -25 -3 0
v -24 -3 0
v 0 -5 0
v -1 -5 0
v -1 -4 0
v 0 -4 0
v -1 -5 0
v -2 -5 0
v -2 -4 0
v -1 -4 0
v -2 -5 0
v -3 -5 0
v -3 -4 0
v -2 -4 0
v -3 -5 0
v -4 -5 0
v -4 -4 0
v -3 -4 0
v -4 -5 0
v -5 -5 0
v -5 -4 0
v -4 -4 0
v -5 -5 0
v -6 -5 0
v -6 -4 0
v -5 -4 0
v -6 -5 0
v -7 -5 0
v -7 -4 0
v -6 -4 0
v -7 -5 0
v -8 -5 0
v -8 -4 0
v -7 -4 0
v -8 -5 0
v -9 -5 0
v -9 -4 0
v -8 -4 0
v -9 -5 0
v -10 -5 0
v -10 -4 0
v -9 -4 0
v -10 -5 0
v -11 -5 0
v -11 -4 0
v -10 -4 0
v -11 -5 0
v -12 -5 0
v -12 -4 0
v -11 -4 0
v -12 -5 0
v -13 -5 0
v -13 -4 0
v -12 -4 0
v -13 -5 0
v -14 -5 0
v -14 -4 0
v -13 -4 0
v -14 -5 0
v -15 -5 0
v -15 -4 0
v -14 -4 0
v -15 -5 0
v -16 -5 0
v -16 -4 0
v -15 -4 0
v -16 -5 0
v -17 -5 0
v -17 -4 0
v -16 -4 0
v -17 -5 0
v -18 -5 0
v -18 -4 0
v -17 -4 0
v -18 -5 0
v -19 -5 0
v -19 -4 0
v -18 -4 0
v -19 -5 0
v -20 -5 0
v -20 -4 0
v -19 -4 0
v -20 -5 0
v -21 -5 0
v -21 -4 0
v -20 -4 0
v -21 -5 0
v -22 -5 0
v -22 -4 0
v -21 -4 0
v -22 -5 0
v -23 -5 0
v -23 -4 0
v -22 -4 0
v -23 -5 0
v -24 -5 0
v -24 -4 0
v -23 -4 0
v -24 -5 0
v -25 -5 0
v -25 -4 0
v -24 -4 0
v 0 -6 0
v -1 -6 0
v -1 -5 0
v 0 -5 0
v -1 -6 0
v -2 -6 0
v -2 -5 0
v -1 -5 0
v -2 -6 0
v -3 -6 0
v -3 -5 0
v -2 -5 0
v -3 -6 0
v -4 -6 0
v -4 -5 0
v -3 -5 0
v -4 -6 0
v -5 -6 0
v -5 -5 0
v -4 -5 0
v -5 -6 0
v -6 -6 0
v -6 -5 0
v -5 -5 0
v -6 -6 0
v -7 -6 0
v -7 -5 0
v -6 -5 0
v -7 -6 0
v -8 -6 0
v -8 -5 0
v -7 -5 0
v -8 -6 0
v -9 -6 0
v -9 -5 0
v -8 -5 0
v -9 -6 0
v -10 -6 0
v -10 -5 0
v -9 -5 0
v -10 -6 0
v -11 -6 0
v -11 -5 0
v -10 -5 0
v -11 -6 0
v -12 -6 0
v -12 -5 0
v -11 -5 0
v -12 -6 0
v -13 -6 0
v -13 -5 0
v -12 -5 0
v -13 -6 0
v -14 -6 0
v -14 -5 0
v -13 -5 0
v -14 -6 0
v -15 -6 0
v -15 -5 0
v -14 -5 0
v -15 -6 0
v -16 -6 0
v -16 -5 0
v -15 -5 0
v -16 -6 0
v -17 -6 0
v -17 -5 0
v -16 -5 0
v -17 -6 0
v -18 -6 0
v -18 -5 0
v -17 -5 0
v -18 -6 0
v -19 -6 0
v -19 -5 0
v -18 -5 0
v -19 -6 0
v -20 -6 0
v -20 -5 0
v -19 -5 0
v -20 -6 0
v -21 -6 0
v -21 -5 0
v -20 -5 0
v -21 -6 0
v -22 -6 0
v -22 -5 0
v -21 -5 0
v -22 -6 0
v -23 -6 0
v -23 -5 0
v -22 -5 0
v -23 -6 0
v -24 -6 0
v -24 -5 0
v -23 -5 0
v -24 -6 0
v -25 -6 0
v -25 -5 0
v -24 -5 0
v 0 -7 0
v -1 -7 0
v -1 -6 0
v 0 -6 0
v -1 -7 0
v -2 -7 0
v -2 -6 0
v -1 -6 0
v -2 -7 0
v -3 -7 0
v -3 -6 0
v -2 -6 0
v -3 -7 0
v -4 -7 0
v -4 -6 0
v -3 -6 0
v -4 -7 0
v -5 -7 0
v -5 -6 0
v -4 -6 0
v -5 -7 0
v -6 -7 0
v -6 -6 0
v -5 -6 0
v -6 -7 0
v -7 -7 0
v -7 -6 0
v -6 -6 0
v -7 -7 0
v -8 -7 0
v -8 -6 0
v -7 -6 0
v -8 -7 0
v -9 -7 0
v -9 -6 0
v -8 -6 0
v -9 -7 0
v -10 -7 0
v -10 -6 0
v -9 -6 0
v -10 -7 0
v -11 -7 0
v -11 -6 0
v -10 -6 0
v -11 -7 0
v -12 -7 0
v -12 -6 0
v -11 -6 0
v -12 -7 0
v -13 -7 0
v -13 -6 0
v -12 -6 0
v -13 -7 0
v -14 -7 0
v -14 -6 0
v -13 -6 0
v -14 -7 0
v -15 -7 0
v -15 -6 0
v -14 -6 0
v -15 -7 0
v -16 -7 0
v -16 -6 0
v -15 -6 0
v -16 -7 0
v -17 -7 0
v -17 -6 0
v -16 -6 0
v -17 -7 0
v -18 -7 0
v -18 -6 0
v -17 -6 0
v -18 -7 0
v -19 -7 0
v -19 -6 0
v -18 -6 0
v -19 -7 0
v -20 -7 0
v -20 -6 0
v -19 -6 0
v -20 -7 0
v -21 -7 0
v -21 -6 0
v -20 -6 0
v -21 -7 0
v -22 -7 0
v -22 -6 0
v -21 -6 0
v -22 -7 0
v -23 -7 0
v -23 -6 0
v -22 -6 0
v -23 -7 0
v -24 -7 0
v -24 -6 0
v -23 -6 0
v -24 -7 0
v -25 -7 0
v -25 -6 0
v -24 -6 0
v 0 -8 0
v -1 -8 0
v -1 -7 0
v 0 -7 0
v -1 -8 0
v -2 -8 0
v -2 -7 0
v -1 -7 0
v -2 -8 0
v -3 -8 0
v -3 -7 0
v -2 -7 0
v -3 -8 0
v -4 -8 0
v -4 -7 0
v -3 -7 0
v -4 -8 0
v -5 -8 0
v -5 -7 0
v -4 -7 0
v -5 -8 0
v -6 -8 0
v -6 -7 0
v -5 -7 0
v -6 -8 0
v -7 -8 0
v -7 -7 0
v -6 -7 0
v -7 -8 0
v -8 -8 0
v -8 -7 0
v -7 -7 0
v -8 -8 0
v -9 -8 0
v -9 -7 0
v -8 -7 0
v -9 -8 0
v -10 -8 0
v -10 -7 0
v -9 -7 0
v -10 -8 0
v -11 -8 0
v -11 -7 0
v -10 -7 0
v -11 -8 0
v -12 -8 0
v -12 -7 0
v -11 -7 0
v -12 -8 0
v -13 -8 0
v -13 -7 0
v -12 -7 0
v -13 -8 0
v -14 -8 0
v -14 -7 0
v -13 -7 0
v -14 -8 0
v -15 -8 0
v -15 -7 0
v -14 -7 0
v -15 -8 0
v -16 -8 0
v -16 -7 0
v -15 -7 0
v -16 -8 0
v -17 -8 0
v -17 -7 0
v -16 -7 0
v -17 -8 0
v -18 -8 0
v -18 -7 0
v -17 -7 0
v -18 -8 0
v -19 -8 0
v -19 -7 0
v -18 -7 0
v -19 -8 0
v -20 -8 0
v -20 -7 0
v -19 -7 0
v -20 -8 0
v -21 -8 0
v -21 -7 0
v -20 -7 0
v -21 -8 0
v -22 -8 0
v -22 -7 0
v -21 -7 0
v -22 -8 0
v -23 -8 0
v -23 -7 0
v -22 -7 0
v -23 -8 0
v -24 -8 0
v -24 -7 0
v -23 -7 0
v -24 -8 0
v -25 -8 0
v -25 -7 0
v -24 -7 0
v 0 -9 0
v -1 -9 0
v -1 -8 0
v 0 -8 0
v -1 -9 0
v -2 -9 0
v -2 -8 0
v -1 -8 0
v -2 -9 0
v -3 -9 0
v -3 -8 0
v -2 -8 0
v -3 -9 0
v -4 -9 0
v -4 -8 0
v -3 -8 0
v -4 -9 0
v -5 -9 0
v -5 -8 0
v -4 -8 0
v -5 -9 0
v -6 -9 0
v -6 -8 0
v -5 -8 0
v -6 -9 0
v -7 -9 0
v -7 -8 0
v -6 -8 0
v -7 -9 0
v -8 -9 0
v -8 -8 0
v -7 -8 0
v -8 -9 0
v -9 -9 0
v -9 -8 0
v -8 -8 0
v -9 -9 0
v -10 -9 0
v -10 -8 0
v -9 -8 0
v -10 -9 0
v -11 -9 0
v -11 -8 0
v -10 -8 0
v -11 -9 0
v -12 -9 0
v -12 -8 0
v -11 -8 0
v -12 -9 0
v -13 -9 0
v -13 -8 0
v -12 -8 0
v -13 -9 0
v -14 -9 0
v -14 -8 0
v -13 -8 0
v -14 -9 0
v -15 -9 0
v -15 -8 0
v -14 -8 0
v -15 -9 0
v -16 -9 0
v -16 -8 0
v -15 -8 0
v -16 -9 0
v -17 -9 0
v -17 -8 0
v -16 -8 0
v -17 -9 0
v -18 -9 0
v -18 -8 0
v -17 -8 0
v -18 -9 0
v -19 -9 0
v -19 -8 0
v -18 -8 0
v -19 -9 0
v -20 -9 0
v -20 -8 0
v -19 -8 0
v -20 -9 0
v -21 -9 0
v -21 -8 0
v -20 -8 0
v -21 -9 0
v -22 -9 0
v -22 -8 0
v -21 -8 0
v -22 -9 0
v -23 -9 0
v -23 -8 0
v -22 -8 0
v -23 -9 0
v -24 -9 0
v -24 -8 0
v -23 -8 0
v -24 -9 0
v -25 -9 0
v -25 -8 0
v -24 -8 0
v 0 -10 0
v -1 -10 0
v -1 -9 0
v 0 -9 0
v -1 -10 0
v -2 -10 0
v -2 -9 0
v -1 -9 0
v -2 -10 0
v -3 -10 0
v -3 -9 0
v -2 -9 0
v -3 -10 0
v -4 -10 0
v -4 -9 0
v -3 -9 0
v -4 -10 0
v -5 -10 0
v -5 -9 0
v -4 -9 0
v -5 -10 0
v -6 -10 0
v -6 -9 0
v -5 -9 0
v -6 -10 0
v -7 -10 0
v -7 -9 0
v -6 -9 0
v -7 -10 0
v -8 -10 0
v -8 -9 0
v -7 -9 0
v -8 -10 0
v -9 -10 0
v -9 -9 0
v -8 -9 0
v -9 -10 0
v -10 -10 0
v -10 -9 0
v -9 -9 0
v -10 -10 0
v -11 -10 0
v -11 -9 0
v -10 -9 0
v -11 -10 0
v -12 -10 0
v -12 -9 0
v -11 -9 0
v -12 -10 0
v -13 -10 0
v -13 -9 0
v -12 -9 0
v -13 -10 0
v -14 -10 0
v -14 -9 0
v -13 -9 0
v -14 -10 0
v -15 -10 0
v -15 -9 0
v -14 -9 0
v -15 -10 0
v -16 -10 0
v -16 -9 0
v -15 -9 0
v -16 -10 0
v -17 -10 0
v -17 -9 0
v -16 -9 0
v -17 -10 0
v -18 -10 0
v -18 -9 0
v -17 -9 0
v -18 -10 0
v -19 -10 0
v -19 -9 0
v -18 -9 0
v -19 -10 0
v -20 -10 0
v -20 -9 0
v -19 -9 0
v -20 -10 0
v -21 -10 0
v -21 -9 0
v -20 -9 0
v -21 -10 0
v -22 -10 0
v -22 -9 0
v -21 -9 0
v -22 -10 0
v -23 -10 0
v -23 -9 0
v -22 -9 0
v -23 -10 0
v -24 -10 0
v -24 -9 0
v -23 -9 0
v -24 -10 0
v -25 -10 0
v -25 -9 0
v -24 -9 0
v 0 -11 0
v -1 -11 0
v -1 -10 0
v 0 -10 0
v -1 -11 0
v -2 -11 0
v -2 -10 0
v -1 -10 0
v -2 -11 0
v -3 -11 0
v -3 -10 0
v -2 -10 0
v -3 -11 0
v -4 -11 0
v -4 -10 0
v -3 -10 0
v -4 -11 0
v -5 -11 0
v -5 -10 0
v -4 -10 0
v -5 -11 0
v -6 -11 0
v -6 -10 0
v -5 -10 0
v -6 -11 0
v -7 -11 0
v -7 -10 0
v -6 -10 0
v -7 -11 0
v -8 -11 0
v -8 -10 0
v -7 -10 0
v -8 -11 0
v -9 -11 0
v -9 -10 0
v -8 -10 0
v -9 -11 0
v -10 -11 0
v -10 -10 0
v -9 -10 0
v -10 -11 0
v -11 -11 0
v -11 -10 0
v -10 -10 0
v -11 -11 0
v -12 -11 0
v -12 -10 0
v -11 -10 0
v -12 -11 0
v -13 -11 0
v -13 -10 0
v -12 -10 0
v -13 -11 0
v -14 -11 0
v -14 -10 0
v -13 -10 0
v -14 -11 0
v -15 -11 0
v -15 -10 0
v -14 -10 0
v -15 -11 0
v -16 -11 0
v -16 -10 0
v -15 -10 0
v -16 -11 0
v -17 -11 0
v -17 -10 0
v -16 -10 0
v -17 -11 0
v -18 -11 0
v -18 -10 0
v -17 -10 0
v -18 -11 0
v -19 -11 0
v -19 -10 0
v -18 -10 0
v -19 -11 0
v -20 -11 0
v -20 -10 0
v -19 -10 0
v -20 -11 0
v -21 -11 0
v -21 -10 0
v -20 -10 0
v -21 -11 0
v -22 -11 0
v -22 -10 0
v -21 -10 0
v -22 -11 0
v -23 -11 0
v -23 -10 0
v -22 -10 0
v -23 -11 0
v -24 -11 0
v -24 -10 0
v -23 -10 0
v -24 -11 0
v -25 -11 0
v -25 -10 0
v -24 -10 0

# Texture cooridinates (Count = 56)
vt 0.1 0.7916667
vt 0.15 0.7916667
vt 0.15 0.8333333
vt 0.1 0.8333333
vt 0.05 0.75
vt 0.1 0.75
vt 0.05 0.7916667
vt 0 0.7916667
vt 0.05 0.8333333
vt 0 0.8333333
vt 0.05 0.7083333
vt 0.1 0.7083333
vt 0 0.75
vt 0.15 0.75
vt 0.35 0.7916667
vt 0.4 0.7916667
vt 0.4 0.8333333
vt 0.35 0.8333333
vt 0.4 0.6666667
vt 0.45 0.6666667
vt 0.45 0.7083333
vt 0.4 0.7083333
vt 0 0.7083333
vt 0.15 0.7083333
vt 0.35 0.7083333
vt 0.4 0.75
vt 0.35 0.75
vt 0.45 0.75
vt 0.5 0.75
vt 0.5 0.7916667
vt 0.45 0.7916667
vt 0.55 0.75
vt 0.55 0.7916667
vt 0.45 0.8333333
vt 0.3 0.7083333
vt 0.3 0.75
vt 0.6 0.75
vt 0.6 0.7916667
vt 0.5 0.7083333
vt 0.3 0.7916667
vt 0.35 0.6666667
vt 0.25 0.75
vt 0.25 0.7916667
vt 0.25 0.7083333
vt 0.2 0.7083333
vt 0.2 0.75
vt 0.2 0.7916667
vt 0.55 0.7083333
vt 0.6 0.7083333
vt 0.55 0.5416667
vt 0.6 0.5416667
vt 0.6 0.5833333
vt 0.55 0.5833333
vt 0.25 0.8333333
vt 0.2 0.8333333
vt 0.3 0.8333333

# Normal
vn 0 0 -1

# Mesh description
g 25x11_mesh_0001

# Faces
f 1/1/1 2/2/1 3/3/1 4/4/1
f 5/5/1 6/6/1 7/1/1 8/7/1
f 9/8/1 10/7/1 11/9/1 12/10/1
f 13/11/1 14/12/1 15/6/1 16/5/1
f 17/13/1 18/5/1 19/7/1 20/8/1
f 21/8/1 22/7/1 23/9/1 24/10/1
f 25/11/1 26/12/1 27/6/1 28/5/1
f 29/7/1 30/1/1 31/4/1 32/9/1
f 33/11/1 34/12/1 35/6/1 36/5/1
f 37/6/1 38/14/1 39/2/1 40/1/1
f 41/6/1 42/14/1 43/2/1 44/1/1
f 45/7/1 46/1/1 47/4/1 48/9/1
f 49/15/1 50/16/1 51/17/1 52/18/1
f 53/19/1 54/20/1 55/21/1 56/22/1
f 57/7/1 58/1/1 59/4/1 60/9/1
f 61/5/1 62/6/1 63/1/1 64/7/1
f 65/5/1 66/6/1 67/1/1 68/7/1
f 69/11/1 70/12/1 71/6/1 72/5/1
f 73/1/1 74/2/1 75/3/1 76/4/1
f 77/23/1 78/11/1 79/5/1 80/13/1
f 81/5/1 82/6/1 83/1/1 84/7/1
f 85/8/1 86/7/1 87/9/1 88/10/1
f 89/5/1 90/6/1 91/1/1 92/7/1
f 93/8/1 94/7/1 95/9/1 96/10/1
f 97/8/1 98/7/1 99/9/1 100/10/1
f 101/7/1 102/1/1 103/4/1 104/9/1
f 105/5/1 106/6/1 107/1/1 108/7/1
f 109/7/1 110/1/1 111/4/1 112/9/1
f 113/12/1 114/24/1 115/14/1 116/6/1
f 117/7/1 118/1/1 119/4/1 120/9/1
f 121/12/1 122/24/1 123/14/1 124/6/1
f 125/13/1 126/5/1 127/7/1 128/8/1
f 129/12/1 130/24/1 131/14/1 132/6/1
f 133/8/1 134/7/1 135/9/1 136/10/1
f 137/12/1 138/24/1 139/14/1 140/6/1
f 141/19/1 142/20/1 143/21/1 144/22/1
f 145/25/1 146/22/1 147/26/1 148/27/1
f 149/7/1 150/1/1 151/4/1 152/9/1
f 153/22/1 154/21/1 155/28/1 156/26/1
f 157/11/1 158/12/1 159/6/1 160/5/1
f 161/7/1 162/1/1 163/4/1 164/9/1
f 165/1/1 166/2/1 167/3/1 168/4/1
f 169/6/1 170/14/1 171/2/1 172/1/1
f 173/6/1 174/14/1 175/2/1 176/1/1
f 177/12/1 178/24/1 179/14/1 180/6/1
f 181/7/1 182/1/1 183/4/1 184/9/1
f 185/6/1 186/14/1 187/2/1 188/1/1
f 189/6/1 190/14/1 191/2/1 192/1/1
f 193/13/1 194/5/1 195/7/1 196/8/1
f 197/7/1 198/1/1 199/4/1 200/9/1
f 201/11/1 202/12/1 203/6/1 204/5/1
f 205/28/1 206/29/1 207/30/1 208/31/1
f 209/29/1 210/32/1 211/33/1 212/30/1
f 213/5/1 214/6/1 215/1/1 216/7/1
f 217/1/1 218/2/1 219/3/1 220/4/1
f 221/1/1 222/2/1 223/3/1 224/4/1
f 225/13/1 226/5/1 227/7/1 228/8/1
f 229/1/1 230/2/1 231/3/1 232/4/1
f 233/7/1 234/1/1 235/4/1 236/9/1
f 237/6/1 238/14/1 239/2/1 240/1/1
f 241/16/1 242/31/1 243/34/1 244/17/1
f 245/8/1 246/7/1 247/9/1 248/10/1
f 249/19/1 250/20/1 251/21/1 252/22/1
f 253/22/1 254/21/1 255/28/1 256/26/1
f 257/5/1 258/6/1 259/1/1 260/7/1
f 261/25/1 262/22/1 263/26/1 264/27/1
f 265/12/1 266/24/1 267/14/1 268/6/1
f 269/5/1 270/6/1 271/1/1 272/7/1
f 273/8/1 274/7/1 275/9/1 276/10/1
f 277/7/1 278/1/1 279/4/1 280/9/1
f 281/35/1 282/25/1 283/27/1 284/36/1
f 285/12/1 286/24/1 287/14/1 288/6/1
f 289/8/1 290/7/1 291/9/1 292/10/1
f 293/32/1 294/37/1 295/38/1 296/33/1
f 297/7/1 298/1/1 299/4/1 300/9/1
f 301/23/1 302/11/1 303/5/1 304/13/1
f 305/21/1 306/39/1 307/29/1 308/28/1
f 309/8/1 310/7/1 311/9/1 312/10/1
f 313/11/1 314/12/1 315/6/1 316/5/1
f 317/35/1 318/25/1 319/27/1 320/36/1
f 321/7/1 322/1/1 323/4/1 324/9/1
f 325/36/1 326/27/1 327/15/1 328/40/1
f 329/35/1 330/25/1 331/27/1 332/36/1
f 333/12/1 334/24/1 335/14/1 336/6/1
f 337/23/1 338/11/1 339/5/1 340/13/1
f 341/36/1 342/27/1 343/15/1 344/40/1
f 345/22/1 346/21/1 347/28/1 348/26/1
f 349/12/1 350/24/1 351/14/1 352/6/1
f 353/27/1 354/26/1 355/16/1 356/15/1
f 357/25/1 358/22/1 359/26/1 360/27/1
f 361/41/1 362/19/1 363/22/1 364/25/1
f 365/42/1 366/36/1 367/40/1 368/43/1
f 369/19/1 370/20/1 371/21/1 372/22/1
f 373/12/1 374/24/1 375/14/1 376/6/1
f 377/44/1 378/35/1 379/36/1 380/42/1
f 381/45/1 382/44/1 383/42/1 384/46/1
f 385/46/1 386/42/1 387/43/1 388/47/1
f 389/6/1 390/14/1 391/2/1 392/1/1
f 393/48/1 394/49/1 395/37/1 396/32/1
f 397/13/1 398/5/1 399/7/1 400/8/1
f 401/1/1 402/2/1 403/3/1 404/4/1
f 405/50/1 406/51/1 407/52/1 408/53/1
f 409/50/1 410/51/1 411/52/1 412/53/1
f 413/50/1 414/51/1 415/52/1 416/53/1
f 417/50/1 418/51/1 419/52/1 420/53/1
f 421/50/1 422/51/1 423/52/1 424/53/1
f 425/50/1 426/51/1 427/52/1 428/53/1
f 429/50/1 430/51/1 431/52/1 432/53/1
f 433/50/1 434/51/1 435/52/1 436/53/1
f 437/50/1 438/51/1 439/52/1 440/53/1
f 441/50/1 442/51/1 443/52/1 444/53/1
f 445/50/1 446/51/1 447/52/1 448/53/1
f 449/50/1 450/51/1 451/52/1 452/53/1
f 453/50/1 454/51/1 455/52/1 456/53/1
f 457/50/1 458/51/1 459/52/1 460/53/1
f 461/50/1 462/51/1 463/52/1 464/53/1
f 465/50/1 466/51/1 467/52/1 468/53/1
f 469/50/1 470/51/1 471/52/1 472/53/1
f 473/50/1 474/51/1 475/52/1 476/53/1
f 477/50/1 478/51/1 479/52/1 480/53/1
f 481/50/1 482/51/1 483/52/1 484/53/1
f 485/50/1 486/51/1 487/52/1 488/53/1
f 489/50/1 490/51/1 491/52/1 492/53/1
f 493/50/1 494/51/1 495/52/1 496/53/1
f 497/13/1 498/5/1 499/7/1 500/8/1
f 501/5/1 502/6/1 503/1/1 504/7/1
f 505/8/1 506/7/1 507/9/1 508/10/1
f 509/22/1 510/21/1 511/28/1 512/26/1
f 513/42/1 514/36/1 515/40/1 516/43/1
f 517/15/1 518/16/1 519/17/1 520/18/1
f 521/5/1 522/6/1 523/1/1 524/7/1
f 525/12/1 526/24/1 527/14/1 528/6/1
f 529/13/1 530/5/1 531/7/1 532/8/1
f 533/5/1 534/6/1 535/1/1 536/7/1
f 537/26/1 538/28/1 539/31/1 540/16/1
f 541/25/1 542/22/1 543/26/1 544/27/1
f 545/12/1 546/24/1 547/14/1 548/6/1
f 549/1/1 550/2/1 551/3/1 552/4/1
f 553/5/1 554/6/1 555/1/1 556/7/1
f 557/12/1 558/24/1 559/14/1 560/6/1
f 561/12/1 562/24/1 563/14/1 564/6/1
f 565/12/1 566/24/1 567/14/1 568/6/1
f 569/23/1 570/11/1 571/5/1 572/13/1
f 573/5/1 574/6/1 575/1/1 576/7/1
f 577/13/1 578/5/1 579/7/1 580/8/1
f 581/1/1 582/2/1 583/3/1 584/4/1
f 585/8/1 586/7/1 587/9/1 588/10/1
f 589/11/1 590/12/1 591/6/1 592/5/1
f 593/23/1 594/11/1 595/5/1 596/13/1
f 597/6/1 598/14/1 599/2/1 600/1/1
f 601/8/1 602/7/1 603/9/1 604/10/1
f 605/11/1 606/12/1 607/6/1 608/5/1
f 609/47/1 610/43/1 611/54/1 612/55/1
f 613/36/1 614/27/1 615/15/1 616/40/1
f 617/23/1 618/11/1 619/5/1 620/13/1
f 621/8/1 622/7/1 623/9/1 624/10/1
f 625/6/1 626/14/1 627/2/1 628/1/1
f 629/41/1 630/19/1 631/22/1 632/25/1
f 633/11/1 634/12/1 635/6/1 636/5/1
f 637/41/1 638/19/1 639/22/1 640/25/1
f 641/16/1 642/31/1 643/34/1 644/17/1
f 645/19/1 646/20/1 647/21/1 648/22/1
f 649/16/1 650/31/1 651/34/1 652/17/1
f 653/6/1 654/14/1 655/2/1 656/1/1
f 657/26/1 658/28/1 659/31/1 660/16/1
f 661/6/1 662/14/1 663/2/1 664/1/1
f 665/47/1 666/43/1 667/54/1 668/55/1
f 669/36/1 670/27/1 671/15/1 672/40/1
f 673/26/1 674/28/1 675/31/1 676/16/1
f 677/41/1 678/19/1 679/22/1 680/25/1
f 681/41/1 682/19/1 683/22/1 684/25/1
f 685/5/1 686/6/1 687/1/1 688/7/1
f 689/23/1 690/11/1 691/5/1 692/13/1
f 693/5/1 694/6/1 695/1/1 696/7/1
f 697/5/1 698/6/1 699/1/1 700/7/1
f 701/6/1 702/14/1 703/2/1 704/1/1
f 705/8/1 706/7/1 707/9/1 708/10/1
f 709/6/1 710/14/1 711/2/1 712/1/1
f 713/40/1 714/15/1 715/18/1 716/56/1
f 717/15/1 718/16/1 719/17/1 720/18/1
f 721/11/1 722/12/1 723/6/1 724/5/1
f 725/22/1 726/21/1 727/28/1 728/26/1
f 729/47/1 730/43/1 731/54/1 732/55/1
f 733/5/1 734/6/1 735/1/1 736/7/1
f 737/7/1 738/1/1 739/4/1 740/9/1
f 741/12/1 742/24/1 743/14/1 744/6/1
f 745/40/1 746/15/1 747/18/1 748/56/1
f 749/22/1 750/21/1 751/28/1 752/26/1
f 753/5/1 754/6/1 755/1/1 756/7/1
f 757/13/1 758/5/1 759/7/1 760/8/1
f 761/44/1 762/35/1 763/36/1 764/42/1
f 765/7/1 766/1/1 767/4/1 768/9/1
f 769/42/1 770/36/1 771/40/1 772/43/1
f 773/40/1 774/15/1 775/18/1 776/56/1
f 777/16/1 778/31/1 779/34/1 780/17/1
f 781/7/1 782/1/1 783/4/1 784/9/1
f 785/5/1 786/6/1 787/1/1 788/7/1
f 789/16/1 790/31/1 791/34/1 792/17/1
f 793/6/1 794/14/1 795/2/1 796/1/1
f 797/8/1 798/7/1 799/9/1 800/10/1
f 801/1/1 802/2/1 803/3/1 804/4/1
f 805/26/1 806/28/1 807/31/1 808/16/1
f 809/16/1 810/31/1 811/34/1 812/17/1
f 813/22/1 814/21/1 815/28/1 816/26/1
f 817/6/1 818/14/1 819/2/1 820/1/1
f 821/47/1 822/43/1 823/54/1 824/55/1
f 825/5/1 826/6/1 827/1/1 828/7/1
f 829/35/1 830/25/1 831/27/1 832/36/1
f 833/1/1 834/2/1 835/3/1 836/4/1
f 837/41/1 838/19/1 839/22/1 840/25/1
f 841/5/1 842/6/1 843/1/1 844/7/1
f 845/1/1 846/2/1 847/3/1 848/4/1
f 849/12/1 850/24/1 851/14/1 852/6/1
f 853/45/1 854/44/1 855/42/1 856/46/1
f 857/27/1 858/26/1 859/16/1 860/15/1
f 861/7/1 862/1/1 863/4/1 864/9/1
f 865/23/1 866/11/1 867/5/1 868/13/1
f 869/45/1 870/44/1 871/42/1 872/46/1
f 873/22/1 874/21/1 875/28/1 876/26/1
f 877/25/1 878/22/1 879/26/1 880/27/1
f 881/23/1 882/11/1 883/5/1 884/13/1
f 885/11/1 886/12/1 887/6/1 888/5/1
f 889/11/1 890/12/1 891/6/1 892/5/1
f 893/7/1 894/1/1 895/4/1 896/9/1
f 897/1/1 898/2/1 899/3/1 900/4/1
f 901/6/1 902/14/1 903/2/1 904/1/1
f 905/8/1 906/7/1 907/9/1 908/10/1
f 909/7/1 910/1/1 911/4/1 912/9/1
f 913/6/1 914/14/1 915/2/1 916/1/1
f 917/19/1 918/20/1 919/21/1 920/22/1
f 921/25/1 922/22/1 923/26/1 924/27/1
f 925/1/1 926/2/1 927/3/1 928/4/1
f 929/41/1 930/19/1 931/22/1 932/25/1
f 933/13/1 934/5/1 935/7/1 936/8/1
f 937/8/1 938/7/1 939/9/1 940/10/1
f 941/1/1 942/2/1 943/3/1 944/4/1
f 945/6/1 946/14/1 947/2/1 948/1/1
f 949/7/1 950/1/1 951/4/1 952/9/1
f 953/7/1 954/1/1 955/4/1 956/9/1
f 957/13/1 958/5/1 959/7/1 960/8/1
f 961/7/1 962/1/1 963/4/1 964/9/1
f 965/13/1 966/5/1 967/7/1 968/8/1
f 969/11/1 970/12/1 971/6/1 972/5/1
f 973/11/1 974/12/1 975/6/1 976/5/1
f 977/1/1 978/2/1 979/3/1 980/4/1
f 981/19/1 982/20/1 983/21/1 984/22/1
f 985/7/1 986/1/1 987/4/1 988/9/1
f 989/11/1 990/12/1 991/6/1 992/5/1
f 993/6/1 994/14/1 995/2/1 996/1/1
f 997/1/1 998/2/1 999/3/1 1000/4/1
f 1001/6/1 1002/14/1 1003/2/1 1004/1/1
f 1005/5/1 1006/6/1 1007/1/1 1008/7/1
f 1009/5/1 1010/6/1 1011/1/1 1012/7/1
f 1013/13/1 1014/5/1 1015/7/1 1016/8/1
f 1017/23/1 1018/11/1 1019/5/1 1020/13/1
f 1021/5/1 1022/6/1 1023/1/1 1024/7/1
f 1025/13/1 1026/5/1 1027/7/1 1028/8/1
f 1029/6/1 1030/14/1 1031/2/1 1032/1/1
f 1033/1/1 1034/2/1 1035/3/1 1036/4/1
f 1037/11/1 1038/12/1 1039/6/1 1040/5/1
f 1041/12/1 1042/24/1 1043/14/1 1044/6/1
f 1045/1/1 1046/2/1 1047/3/1 1048/4/1
f 1049/8/1 1050/7/1 1051/9/1 1052/10/1
f 1053/7/1 1054/1/1 1055/4/1 1056/9/1
f 1057/6/1 1058/14/1 1059/2/1 1060/1/1
f 1061/6/1 1062/14/1 1063/2/1 1064/1/1
f 1065/8/1 1066/7/1 1067/9/1 1068/10/1
f 1069/12/1 1070/24/1 1071/14/1 1072/6/1
f 1073/13/1 1074/5/1 1075/7/1 1076/8/1
f 1077/23/1 1078/11/1 1079/5/1 1080/13/1
f 1081/7/1 1082/1/1 1083/4/1 1084/9/1
f 1085/13/1 1086/5/1 1087/7/1 1088/8/1
f 1089/12/1 1090/24/1 1091/14/1 1092/6/1
f 1093/8/1 1094/7/1 1095/9/1 1096/10/1
f 1097/8/1 1098/7/1 1099/9/1 1100/10/1

